<?xml version="1.0" encoding="utf-8"?>
<!-- Generator: Adobe Illustrator 25.2.3, SVG Export Plug-In . SVG Version: 6.00 Build 0)  -->
<svg version="1.1" id="Layer_1" xmlns="http://www.w3.org/2000/svg" xmlns:xlink="http://www.w3.org/1999/xlink" x="0px" y="0px"
	 viewBox="0 0 3805 1552" style="enable-background:new 0 0 3805 1552;" xml:space="preserve">
<style type="text/css">
	.st0{fill:#00B1FF;}
	.st1{font-family:'LinBiolinum';}
	.st2{font-size:38.0029px;}
	.st3{fill:#87E9FF;}
	.st4{fill:none;stroke:#000000;stroke-width:1.0001;stroke-miterlimit:4.0003;}
	.st5{fill:none;stroke:#000000;stroke-width:0.5;stroke-miterlimit:4.0003;}
	.st6{stroke:#000000;stroke-width:0.5;stroke-miterlimit:4.0003;}
	.st7{fill:#86C4C4;stroke:#86C4C4;stroke-width:1.0001;stroke-miterlimit:4.0003;}
	.st8{fill:#D6A894;stroke:#D6A894;stroke-width:1.0001;stroke-miterlimit:4.0003;}
	.st9{fill:#DFA4CA;stroke:#DFA4CA;stroke-width:1.0001;stroke-miterlimit:4.0003;}
	.st10{fill:#C4B0D6;stroke:#C4B0D6;stroke-width:1.0001;stroke-miterlimit:4.0003;}
	.st11{fill:#CCAA60;stroke:#CCAA60;stroke-width:1.0001;stroke-miterlimit:4.0003;}
	.st12{fill:#7EB5D0;stroke:#7EB5D0;stroke-width:1.0001;stroke-miterlimit:4.0003;}
	.st13{fill:#A8B3E2;stroke:#A8B3E2;stroke-width:1.0001;stroke-miterlimit:4.0003;}
	.st14{fill:#77A57C;stroke:#77A57C;stroke-width:1.0001;stroke-miterlimit:4.0003;}
	.st15{fill:#CA97A5;stroke:#CA97A5;stroke-width:1.0001;stroke-miterlimit:4.0003;}
	.st16{fill:#ADBDE3;stroke:#ADBDE3;stroke-width:1.0001;stroke-miterlimit:4.0003;}
	.st17{fill:#FFCB2B;stroke:#FFCB2B;stroke-width:1.0001;stroke-miterlimit:4.0003;}
	.st18{fill:#A5CA97;stroke:#A5CA97;stroke-width:1.0001;stroke-miterlimit:4.0003;}
	.st19{fill:#C89475;stroke:#C89475;stroke-width:1.0001;stroke-miterlimit:4.0003;}
	.st20{fill:#F08DB9;stroke:#F08DB9;stroke-width:1.0001;stroke-miterlimit:4.0003;}
</style>
<g id="graph0" transform="scale(1 1) rotate(0) translate(4 1547.6)">
	<g id="node1">
		<polygon class="st0" points="2184.6,-1545.4 2021.2,-1545.4 2021.2,-1492.2 2184.6,-1492.2 		"/>
		<text transform="matrix(1 0 0 1 2027.6936 -1507.4316)" class="st1 st2">besu-core</text>
	</g>
	<g id="node2">
		<polygon class="st3" points="840.8,-1456 180.8,-1456 180.8,-898 840.8,-898 		"/>
		<polygon class="st4" points="188.8,-1397 188.8,-1452 417.8,-1452 417.8,-1397 		"/>
		<text transform="matrix(1 0 0 1 254.72 -1412.8242)" class="st1 st2">config</text>
		<polygon class="st4" points="417.8,-1397 417.8,-1452 616.8,-1452 616.8,-1397 		"/>
		<text transform="matrix(1 0 0 1 492.9973 -1412.8242)" class="st1 st2">pki</text>
		<polygon class="st4" points="616.8,-1397 616.8,-1452 832.8,-1452 832.8,-1397 		"/>
		<text transform="matrix(1 0 0 1 678.3635 -1412.8242)" class="st1 st2">clique</text>
		<polygon class="st4" points="188.8,-1342 188.8,-1397 417.8,-1397 417.8,-1342 		"/>
		<text transform="matrix(1 0 0 1 236.7639 -1357.8203)" class="st1 st2">common</text>
		<polygon class="st4" points="417.8,-1342 417.8,-1397 616.8,-1397 616.8,-1342 		"/>
		<text transform="matrix(1 0 0 1 439.1741 -1357.8203)" class="st1 st2">plugin-api</text>
		<polygon class="st4" points="616.8,-1342 616.8,-1397 832.8,-1397 832.8,-1342 		"/>
		<text transform="matrix(1 0 0 1 698.4075 -1357.8203)" class="st1 st2">ibft</text>
		<polygon class="st4" points="188.8,-1287 188.8,-1342 417.8,-1342 417.8,-1287 		"/>
		<text transform="matrix(1 0 0 1 227.2898 -1302.8159)" class="st1 st2">ibftlegacy</text>
		<polygon class="st4" points="417.8,-1287 417.8,-1342 616.8,-1342 616.8,-1287 		"/>
		<text transform="matrix(1 0 0 1 469.8025 -1302.8159)" class="st1 st2">merge</text>
		<polygon class="st4" points="616.8,-1287 616.8,-1342 832.8,-1342 832.8,-1287 		"/>
		<text transform="matrix(1 0 0 1 694.1877 -1302.8159)" class="st1 st2">qbft</text>
		<polygon class="st4" points="188.8,-1232 188.8,-1287 417.8,-1287 417.8,-1232 		"/>
		<text transform="matrix(1 0 0 1 254.72 -1247.8115)" class="st1 st2">crypto</text>
		<polygon class="st4" points="417.8,-1232 417.8,-1287 616.8,-1287 616.8,-1232 		"/>
		<text transform="matrix(1 0 0 1 491.9368 -1247.8115)" class="st1 st2">util</text>
		<polygon class="st4" points="616.8,-1232 616.8,-1287 832.8,-1287 832.8,-1232 		"/>
		<text transform="matrix(1 0 0 1 653.0383 -1247.8115)" class="st1 st2">datatypes</text>
		<polygon class="st4" points="188.8,-1177 188.8,-1232 417.8,-1232 417.8,-1177 		"/>
		<text transform="matrix(1 0 0 1 245.2424 -1192.8076)" class="st1 st2">enclave</text>
		<polygon class="st4" points="417.8,-1177 417.8,-1232 616.8,-1232 616.8,-1177 		"/>
		<text transform="matrix(1 0 0 1 494.0637 -1192.8076)" class="st1 st2">api</text>
		<polygon class="st4" points="616.8,-1177 616.8,-1232 832.8,-1232 832.8,-1177 		"/>
		<text transform="matrix(1 0 0 1 621.386 -1192.8076)" class="st1 st2">blockcreation</text>
		<polygon class="st4" points="188.8,-1122 188.8,-1177 417.8,-1177 417.8,-1122 		"/>
		<text transform="matrix(1 0 0 1 193.5486 -1137.8032)" class="st1 st2">ethereum-core</text>
		<polygon class="st4" points="417.8,-1122 417.8,-1177 616.8,-1177 616.8,-1122 		"/>
		<text transform="matrix(1 0 0 1 494.0637 -1137.8032)" class="st1 st2">eth</text>
		<polygon class="st4" points="616.8,-1122 616.8,-1177 832.8,-1177 832.8,-1122 		"/>
		<text transform="matrix(1 0 0 1 696.2932 -1137.8032)" class="st1 st2">p2p</text>
		<polygon class="st4" points="188.8,-1067 188.8,-1122 417.8,-1122 417.8,-1067 		"/>
		<text transform="matrix(1 0 0 1 195.5974 -1082.7988)" class="st1 st2">permissioning</text>
		<polygon class="st4" points="417.8,-1067 417.8,-1122 616.8,-1122 616.8,-1067 		"/>
		<text transform="matrix(1 0 0 1 452.9177 -1082.7988)" class="st1 st2">retesteth</text>
		<polygon class="st4" points="616.8,-1067 616.8,-1122 832.8,-1122 832.8,-1067 		"/>
		<text transform="matrix(1 0 0 1 703.6887 -1082.7988)" class="st1 st2">rlp</text>
		<polygon class="st4" points="188.8,-1012 188.8,-1067 417.8,-1067 417.8,-1012 		"/>
		<text transform="matrix(1 0 0 1 277.9417 -1027.7949)" class="st1 st2">trie</text>
		<polygon class="st4" points="417.8,-1012 417.8,-1067 616.8,-1067 616.8,-1012 		"/>
		<text transform="matrix(1 0 0 1 460.2864 -1027.7949)" class="st1 st2">stratum</text>
		<polygon class="st4" points="616.8,-1012 616.8,-1067 832.8,-1067 832.8,-1012 		"/>
		<text transform="matrix(1 0 0 1 667.804 -1027.7949)" class="st1 st2">ethstats</text>
		<polygon class="st4" points="188.8,-957 188.8,-1012 417.8,-1012 417.8,-957 		"/>
		<text transform="matrix(1 0 0 1 270.5466 -972.791)" class="st1 st2">evm</text>
		<polygon class="st4" points="417.8,-957 417.8,-1012 616.8,-1012 616.8,-957 		"/>
		<text transform="matrix(1 0 0 1 422.3313 -972.791)" class="st1 st2">metrics-core</text>
		<polygon class="st4" points="616.8,-957 616.8,-1012 832.8,-1012 832.8,-957 		"/>
		<text transform="matrix(1 0 0 1 701.5793 -972.791)" class="st1 st2">nat</text>
		<polygon class="st4" points="188.8,-902 188.8,-957 417.8,-957 417.8,-902 		"/>
		<text transform="matrix(1 0 0 1 243.1101 -917.7861)" class="st1 st2">rocksdb</text>
		<polygon class="st4" points="417.8,-902 417.8,-957 616.8,-957 616.8,-902 		"/>
		<text transform="matrix(1 0 0 1 461.3469 -917.7861)" class="st1 st2">kvstore</text>
	</g>
	<g id="edge1">
		<path class="st5" d="M2021.1-1517.7c-262.8,4-1056.2,19.6-1166.3,61.7c-1.5,0.6-2.9,1.1-4.4,1.7"/>
		<polygon class="st6" points="851.4,-1451 840.8,-1450.4 848.8,-1457.4 		"/>
	</g>
	<g id="node3">
		<polygon class="st7" points="987.4,-593 712.2,-593 712.2,-539.8 987.4,-539.8 		"/>
		<text transform="matrix(1 0 0 1 714.6067 -554.9589)" class="st1 st2">jackson-databind</text>
	</g>
	<g id="edge2">
		<path class="st5" d="M2021-1517.5c-265.6,4.6-1011.1,27.6-1051.3,67.1c-79,114-119.8,476.9-119.8,615.2c0,0,0,0,0,89.6
			c0,49.3,0,106.2,0,142.4"/>
		<polygon class="st6" points="853.3,-603.1 849.8,-593.1 846.3,-603.1 		"/>
	</g>
	<g id="node4">
		<polygon class="st7" points="1231.5,-682.6 878.1,-682.6 878.1,-629.4 1231.5,-629.4 		"/>
		<text transform="matrix(1 0 0 1 879.7542 -644.5654)" class="st1 st2">jackson-datatype-jdk8</text>
	</g>
	<g id="edge3">
		<path class="st5" d="M2021-1516.7c-242,6.6-939.1,28.2-975.2,60.7c-123.1,111-198.1,595.6-112,737.3c7.6,12.5,18.6,22.6,30.8,30.8
			"/>
		<polygon class="st6" points="966.6,-690.9 973.3,-682.7 963,-684.9 		"/>
	</g>
	<g id="node5">
		<polygon class="st8" points="1262.9,-1203.6 1054.8,-1203.6 1054.8,-1150.4 1262.9,-1150.4 		"/>
		<text transform="matrix(1 0 0 1 1059.9631 -1165.6055)" class="st1 st2">graphql-java</text>
	</g>
	<g id="edge4">
		<path class="st5" d="M2020.9-1516c-183.6,6.9-616,26.6-673,60c-95.2,55.7-152.6,180.5-176.3,242.6"/>
		<polygon class="st6" points="1174.8,-1212.2 1168,-1204 1168.2,-1214.6 		"/>
	</g>
	<g id="node6">
		<polygon class="st9" points="1421.8,-861.8 1301.9,-861.8 1301.9,-808.6 1421.8,-808.6 		"/>
		<text transform="matrix(1 0 0 1 1311.3264 -823.7792)" class="st1 st2">picocli</text>
	</g>
	<g id="edge5">
		<path class="st5" d="M2021.2-1515c-104.6,6.4-278.6,22.3-330.3,59c-210.1,149.1-297.5,474.7-321.6,584.1"/>
		<polygon class="st6" points="1372.6,-871 1367.1,-862 1365.8,-872.5 		"/>
	</g>
	<g id="node7">
		<polygon class="st10" points="1667,-682.6 1494.7,-682.6 1494.7,-629.4 1667,-629.4 		"/>
		<text transform="matrix(1 0 0 1 1502.6204 -644.5654)" class="st1 st2">vertx-core</text>
	</g>
	<g id="edge6">
		<path class="st5" d="M2081-1492.2c-8.1,10.8-16.8,23.6-23.1,36.2c-117.1,232.7-73.2,320-179,558c-18.7,42.1-26.9,51-52,89.6
			c-26.8,41.2-25.5,60.3-65,89.6c-14.5,10.8-49.4,23.7-84.7,35.1"/>
		<polygon class="st6" points="1677.8,-680.2 1667.2,-680.5 1675.7,-686.9 		"/>
	</g>
	<g id="node8">
		<polygon class="st10" points="1869.9,-1203.6 1699.8,-1203.6 1699.8,-1150.4 1869.9,-1150.4 		"/>
		<text transform="matrix(1 0 0 1 1707.8323 -1165.6055)" class="st1 st2">vertx-web</text>
	</g>
	<g id="edge7">
		<path class="st5" d="M2021.2-1503.5c-53.5,11.5-117.1,28.5-137.3,47.5c-69.4,65.3-90.2,182.3-96.4,241.9"/>
		<polygon class="st6" points="1790.9,-1213.6 1786.5,-1204 1784,-1214.3 		"/>
	</g>
	<g id="node9">
		<polygon class="st11" points="2241.6,-772.2 1888.2,-772.2 1888.2,-719 2241.6,-719 		"/>
		<text transform="matrix(1 0 0 1 1890.4807 -734.1728)" class="st1 st2">spring-security-crypto</text>
	</g>
	<g id="edge8">
		<path class="st5" d="M2095.8-1492.1c-2.6,11.1-5.4,24.1-6.9,36.1c-32.6,256-27.9,567.7-25.2,673.4"/>
		<polygon class="st6" points="2067.2,-782.6 2064,-772.5 2060.2,-782.4 		"/>
	</g>
	<g id="node10">
		<polygon class="st12" points="2369.5,-682.6 2170.3,-682.6 2170.3,-629.4 2369.5,-629.4 		"/>
		<text transform="matrix(1 0 0 1 2175.2229 -644.5654)" class="st1 st2">snappy-java</text>
	</g>
	<g id="edge9">
		<path class="st5" d="M2101.1-1491.9c-6.7,104.9-27,485.3,20.8,593.9c32.2,73.2,92,54.6,129,125.6c12.8,24.5,17.4,55.6,18.8,79.4"
			/>
		<polygon class="st6" points="2273.3,-693 2270.2,-682.9 2266.3,-692.7 		"/>
	</g>
	<g id="node11">
		<polygon class="st13" points="2543.2,-1203.6 2130.7,-1203.6 2130.7,-1150.4 2543.2,-1150.4 		"/>
		<text transform="matrix(1 0 0 1 2129.1565 -1165.6055)" class="st1 st2">quorum-mainnet-launcher</text>
	</g>
	<g id="edge10">
		<path class="st5" d="M2121.3-1492c42,61.3,144.8,211.5,191.7,280"/>
		<polygon class="st6" points="2315.9,-1213.9 2318.6,-1203.7 2310.1,-1210 		"/>
	</g>
	<g id="node12">
		<polygon class="st14" points="3001.9,-1203.6 2796,-1203.6 2796,-1150.4 3001.9,-1150.4 		"/>
		<text transform="matrix(1 0 0 1 2799.344 -1165.6055)" class="st1 st2">tuweni-units</text>
	</g>
	<g id="edge11">
		<path class="st5" d="M2184.7-1515.5c166,7.4,530.7,27.3,577.3,59.4c83.3,57.6,118.1,180.7,130.7,242.3"/>
		<polygon class="st6" points="2896.2,-1214.2 2894.7,-1203.7 2889.3,-1212.8 		"/>
	</g>
	<g id="node13">
		<polygon class="st14" points="2966.2,-861.8 2753.7,-861.8 2753.7,-808.6 2966.2,-808.6 		"/>
		<text transform="matrix(1 0 0 1 2758.012 -823.7792)" class="st1 st2">tuweni-bytes</text>
	</g>
	<g id="edge12">
		<path class="st5" d="M2184.8-1514.6c144.5,8.2,432.9,28.3,467.2,58.6c191.2,169,1.9,340.3,135,558c6.6,10.8,15.7,20.7,25.2,29.3"
			/>
		<polygon class="st6" points="2814.6,-871.2 2819.9,-862.1 2810,-865.9 		"/>
	</g>
	<g id="node14">
		<polygon class="st14" points="2617.6,-772.2 2464.2,-772.2 2464.2,-719 2617.6,-719 		"/>
		<text transform="matrix(1 0 0 1 2472.843 -734.1728)" class="st1 st2">log4j-api</text>
	</g>
	<g id="edge13">
		<path class="st5" d="M2184.6-1513.1c122.9,9.4,343.6,29.9,367.3,57.1c44.3,51,4.7,534.9-7.6,673.5"/>
		<polygon class="st6" points="2547.8,-782.1 2543.4,-772.4 2540.8,-782.7 		"/>
	</g>
	<g id="node15">
		<polygon class="st14" points="2736.1,-861.8 2563.8,-861.8 2563.8,-808.6 2736.1,-808.6 		"/>
		<text transform="matrix(1 0 0 1 2572.9631 -823.7792)" class="st1 st2">log4j-core</text>
	</g>
	<g id="edge14">
		<path class="st5" d="M2184.6-1513.7c130.2,9,372.9,29.5,400.3,57.6c159.1,163.1,100.7,477.1,74.8,584.1"/>
		<polygon class="st6" points="2663,-870.8 2657.2,-862 2656.2,-872.5 		"/>
	</g>
	<g id="node16">
		<polygon class="st14" points="3327.6,-1203.6 3098.3,-1203.6 3098.3,-1150.4 3327.6,-1150.4 		"/>
		<text transform="matrix(1 0 0 1 3104.4612 -1165.6055)" class="st1 st2">tuweni-config</text>
	</g>
	<g id="edge15">
		<path class="st5" d="M2184.9-1518.3c222.5,2,825.8,12.1,899.1,62.3c82.6,56.6,113.4,180.1,124,242.1"/>
		<polygon class="st6" points="3211.5,-1214.3 3209.6,-1203.8 3204.6,-1213.2 		"/>
	</g>
	<g id="node17">
		<polygon class="st14" points="3456.8,-861.8 3255.2,-861.8 3255.2,-808.6 3456.8,-808.6 		"/>
		<text transform="matrix(1 0 0 1 3259.6536 -823.7792)" class="st1 st2">tuweni-toml</text>
	</g>
	<g id="edge16">
		<path class="st5" d="M2184.6-1517.7c269,4.2,1112,20.5,1152.4,61.7c158.8,162.1,69.4,477.3,32.5,584.3"/>
		<polygon class="st6" points="3372.7,-870.3 3366.1,-862 3366.1,-872.6 		"/>
	</g>
	<g id="node18">
		<polygon class="st15" points="3100.2,-772.2 2993.7,-772.2 2993.7,-719 3100.2,-719 		"/>
		<text transform="matrix(1 0 0 1 3000.3508 -734.1728)" class="st1 st2">guava</text>
	</g>
	<g id="edge17">
		<path class="st5" d="M2184.8-1516.1c218,7.7,797.4,30.8,826.1,60.1c94.1,95.9,54.2,542.1,40.2,673.8"/>
		<polygon class="st6" points="3054.6,-781.8 3050.1,-772.3 3047.7,-782.6 		"/>
	</g>
	<g id="node19">
		<polygon class="st7" points="760.7,-503.4 440.9,-503.4 440.9,-450.1 760.7,-450.1 		"/>
		<text transform="matrix(1 0 0 1 441.845 -465.3515)" class="st1 st2">jackson-annotations</text>
	</g>
	<g id="edge18">
		<path class="st5" d="M775.8-539.7c-28.7,10.3-61.8,22.2-91.3,32.9"/>
		<polygon class="st6" points="685.6,-503.5 675,-503.4 683.2,-510.1 		"/>
	</g>
	<g id="node20">
		<polygon class="st7" points="962.1,-413.7 749.5,-413.7 749.5,-360.5 962.1,-360.5 		"/>
		<text transform="matrix(1 0 0 1 755.7239 -375.7451)" class="st1 st2">jackson-bom</text>
	</g>
	<g id="edge19">
		<path class="st5" d="M826.9-539.7c-7.6,10.6-15.2,23.2-19.1,36.2c-6.9,22.8-7.6,31,0,53.6c3.4,9.9,9,19.6,15.3,28.2"/>
		<polygon class="st6" points="825.8,-423.9 829.2,-413.9 820.3,-419.6 		"/>
	</g>
	<g id="node21">
		<polygon class="st7" points="1026.9,-503.4 816.7,-503.4 816.7,-450.1 1026.9,-450.1 		"/>
		<text transform="matrix(1 0 0 1 823.3254 -465.3515)" class="st1 st2">jackson-core</text>
	</g>
	<g id="edge20">
		<path class="st5" d="M871.4-539.5c7,8.8,15,18.6,22.4,27.9"/>
		<polygon class="st6" points="896.7,-513.6 900.2,-503.6 891.2,-509.2 		"/>
	</g>
	<g id="edge23">
		<path class="st5" d="M993.9-629.3c-23.1,10.1-49.7,21.7-73.6,32.2"/>
		<polygon class="st6" points="921.4,-593.9 910.9,-593.1 918.6,-600.3 		"/>
	</g>
	<g id="edge24">
		<path class="st5" d="M1060.7-629.3c7.8,42.7,16.1,127-24.9,179.3c-9.3,11.9-35,23.4-64.2,33.1"/>
		<polygon class="st6" points="972.7,-413.5 962.1,-413.7 970.5,-420.1 		"/>
	</g>
	<g id="edge25">
		<path class="st5" d="M1045.2-629.2c-9.8,24.8-26.5,62-48.4,89.7c-8.4,10.6-18.8,20.7-29.2,29.6"/>
		<polygon class="st6" points="969.6,-507.1 959.7,-503.4 965.2,-512.5 		"/>
	</g>
	<g id="node22">
		<polygon class="st8" points="1284,-861.8 1033.6,-861.8 1033.6,-808.6 1284,-808.6 		"/>
		<text transform="matrix(1 0 0 1 1036.6565 -823.7792)" class="st1 st2">java-dataloader</text>
	</g>
	<g id="edge26">
		<path class="st5" d="M1158.8-1150.2c0,60.8,0,209.1,0,278.3"/>
		<polygon class="st6" points="1162.3,-871.9 1158.8,-861.9 1155.3,-871.9 		"/>
	</g>
	<g id="node23">
		<polygon class="st16" points="1207.3,-772.2 942.4,-772.2 942.4,-719 1207.3,-719 		"/>
		<text transform="matrix(1 0 0 1 945.9788 -734.1728)" class="st1 st2">reactive-streams</text>
	</g>
	<g id="edge27">
		<path class="st5" d="M1142.9-1150c-30.3,53-95.1,175.3-118.1,288c-4.8,23.3-7.9,31.1,0,53.6c3.5,10,9.3,19.5,15.7,28.1"/>
		<polygon class="st6" points="1043.3,-782.4 1046.9,-772.5 1037.9,-778 		"/>
	</g>
	<g id="edge28">
		<path class="st5" d="M1494.5-645.4c-122.3,15-347.5,42.6-496.7,60.9"/>
		<polygon class="st6" points="998,-581 987.7,-583.3 997.2,-587.9 		"/>
	</g>
	<g id="edge29">
		<path class="st5" d="M1494.5-648.5c-114.5,10.7-309.8,31.6-377.7,55.3c-0.5,0.2-84.2,50.2-141.8,84.6"/>
		<polygon class="st6" points="976.8,-505.5 966.4,-503.4 973.2,-511.5 		"/>
	</g>
	<g id="node24">
		<polygon class="st17" points="1674.8,-593 1355,-593 1355,-539.8 1674.8,-539.8 		"/>
		<text transform="matrix(1 0 0 1 1356.4622 -554.9589)" class="st1 st2">netty-handler-proxy</text>
	</g>
	<g id="edge30">
		<path class="st5" d="M1561.1-629.1c-6.4,8.7-13.6,18.4-20.4,27.6"/>
		<polygon class="st6" points="1543.4,-599.2 1534.6,-593.2 1537.8,-603.4 		"/>
	</g>
	<g id="node25">
		<polygon class="st17" points="1846.4,-503.4 1581.3,-503.4 1581.3,-450.1 1846.4,-450.1 		"/>
		<text transform="matrix(1 0 0 1 1581.9104 -465.3515)" class="st1 st2">netty-codec-http</text>
	</g>
	<g id="edge31">
		<path class="st5" d="M1641.8-629.3c15.7,9.4,31.1,21.4,42.1,36.1c17.1,23,24.5,54.9,27.6,79.4"/>
		<polygon class="st6" points="1715,-514 1712.6,-503.7 1708,-513.3 		"/>
	</g>
	<g id="node26">
		<polygon class="st17" points="2236,-413.7 2017.8,-413.7 2017.8,-360.5 2236,-360.5 		"/>
		<text transform="matrix(1 0 0 1 2019.2219 -375.7451)" class="st1 st2">netty-handler</text>
	</g>
	<g id="edge32">
		<path class="st5" d="M1667.2-630.9c2.9,0.6,5.8,1.2,8.7,1.7c85.1,15.8,320.9-18.7,388,36c50.6,41.2,61.5,121.8,63.3,169"/>
		<polygon class="st6" points="2130.7,-424.1 2127.5,-414 2123.7,-423.9 		"/>
	</g>
	<g id="node27">
		<polygon class="st17" points="1915.6,-234.5 1676.2,-234.5 1676.2,-181.3 1915.6,-181.3 		"/>
		<text transform="matrix(1 0 0 1 1675.3284 -196.5312)" class="st1 st2">netty-transport</text>
	</g>
	<g id="edge33">
		<path class="st5" d="M1494.7-643.1c-58.6,10.6-128.9,27.5-148.8,50c-68.9,78-85.2,147.9-25,232.8
			c40.4,57.1,218.9,102.8,345.2,128.8"/>
		<polygon class="st6" points="1667,-234.9 1676.1,-229.5 1665.6,-228.1 		"/>
	</g>
	<g id="node28">
		<polygon class="st17" points="2042.9,-144.9 1844.9,-144.9 1844.9,-91.7 2042.9,-91.7 		"/>
		<text transform="matrix(1 0 0 1 1849.1604 -106.9248)" class="st1 st2">netty-buffer</text>
	</g>
	<g id="edge34">
		<path class="st5" d="M1494.6-646.2c-70.8,9.7-163.7,27-190.7,53c-103.9,100-42.9,201.7,36,322.4c32.1,49.1,43.8,64.9,97,89.6
			c68.6,31.8,270.7,49.1,398.1,57.1"/>
		<polygon class="st6" points="1835.4,-127.5 1845.1,-123.4 1834.9,-120.5 		"/>
	</g>
	<g id="node29">
		<polygon class="st17" points="2153.5,-55.3 1916.3,-55.3 1916.3,-2.1 2153.5,-2.1 		"/>
		<text transform="matrix(1 0 0 1 1919.1809 -17.3183)" class="st1 st2">netty-common</text>
	</g>
	<g id="edge35">
		<path class="st5" d="M1494.4-647.3c-82,9.7-197.9,27.5-234.6,54.1c-118.9,86.3-148,148.7-148,295.6c0,0,0,0,0,89.6
			c0,56.7,5.6,83.9,52,116.4c59.3,41.5,514.6,56,742.3,60.7"/>
		<polygon class="st6" points="1906.2,-34.3 1916.1,-30.6 1906,-27.3 		"/>
	</g>
	<g id="node30">
		<polygon class="st17" points="2419.4,-144.9 2192.4,-144.9 2192.4,-91.7 2419.4,-91.7 		"/>
		<text transform="matrix(1 0 0 1 2197.2434 -106.9248)" class="st1 st2">netty-resolver</text>
	</g>
	<g id="edge36">
		<path class="st5" d="M1667.2-630.8c2.9,0.6,5.8,1.1,8.7,1.6c208.7,36.3,941.1-59.4,941.1,152.4c0,0,0,0,0,179.2
			c0,53.5,7.6,79.3-31,116.4c-50.5,48.5-86.1,22.6-156.2,35.1"/>
		<polygon class="st6" points="2430.1,-142.5 2419.6,-143.9 2428.7,-149.3 		"/>
	</g>
	<g id="node31">
		<polygon class="st17" points="2054.9,-593 1770.9,-593 1770.9,-539.8 2054.9,-539.8 		"/>
		<text transform="matrix(1 0 0 1 1772.4915 -554.9589)" class="st1 st2">netty-codec-http2</text>
	</g>
	<g id="edge37">
		<path class="st5" d="M1667.1-631.6c3,0.8,5.9,1.6,8.8,2.4c40.9,11.2,85.8,23.2,125.4,33.6"/>
		<polygon class="st6" points="1802.2,-598.9 1811,-593 1800.4,-592.1 		"/>
	</g>
	<g id="node32">
		<polygon class="st17" points="2489.4,-503.4 2196.5,-503.4 2196.5,-450.1 2489.4,-450.1 		"/>
		<text transform="matrix(1 0 0 1 2200.1028 -465.3515)" class="st1 st2">netty-resolver-dns</text>
	</g>
	<g id="edge38">
		<path class="st5" d="M1667.2-630.9c2.9,0.6,5.8,1.2,8.7,1.7c194.4,35,253.2-18.6,443,36c64.4,18.5,131.8,56.5,175.7,84"/>
		<polygon class="st6" points="2296.7,-511.9 2303.3,-503.6 2293,-506 		"/>
	</g>
	<g id="edge39">
		<path class="st5" d="M1795-1150c22.1,63.8,68.2,227.1,7.9,341.6c-30,57-91.9,96.7-142.8,121.3"/>
		<polygon class="st6" points="1661.3,-683.7 1650.7,-682.6 1658.3,-690.1 		"/>
	</g>
	<g id="node33">
		<polygon class="st10" points="1793.5,-861.8 1478.2,-861.8 1478.2,-808.6 1793.5,-808.6 		"/>
		<text transform="matrix(1 0 0 1 1484.467 -823.7792)" class="st1 st2">vertx-web-common</text>
	</g>
	<g id="edge40">
		<path class="st5" d="M1773.2-1150.2c-26.5,60.9-91.4,209.7-121.5,278.7"/>
		<polygon class="st6" points="1654.7,-869.6 1647.5,-861.9 1648.3,-872.4 		"/>
	</g>
	<g id="node34">
		<polygon class="st10" points="1608.7,-772.2 1291,-772.2 1291,-719 1608.7,-719 		"/>
		<text transform="matrix(1 0 0 1 1293.9348 -734.1728)" class="st1 st2">vertx-auth-common</text>
	</g>
	<g id="edge41">
		<path class="st5" d="M1745-1150.3c-68.9,48.5-209.3,158.1-276.2,288.3c-12.6,24.6-17.2,55.6-18.7,79.5"/>
		<polygon class="st6" points="1453.6,-782.3 1449.6,-772.5 1446.6,-782.6 		"/>
	</g>
	<g id="node35">
		<polygon class="st10" points="2034.8,-682.6 1684.9,-682.6 1684.9,-629.4 2034.8,-629.4 		"/>
		<text transform="matrix(1 0 0 1 1691.0784 -644.5654)" class="st1 st2">vertx-bridge-common</text>
	</g>
	<g id="edge42">
		<path class="st5" d="M1789.6-1150.1c9.5,54.3,31.3,181.1,46.2,288.1c8.2,59.1,15.8,127.9,20.2,169.2"/>
		<polygon class="st6" points="1859.6,-693 1857.2,-682.7 1852.6,-692.3 		"/>
	</g>
	<g id="edge90">
		<path class="st5" d="M2895.9-1150.2c-6.9,60.8-23.9,209.1-31.8,278.3"/>
		<polygon class="st6" points="2867.6,-871.4 2863,-861.9 2860.7,-872.2 		"/>
	</g>
	<g id="edge91">
		<path class="st5" d="M2906.4-1150.3c17.3,61.3,62.5,216.3,111.6,341.9c3.4,8.8,7.5,18.1,11.5,26.8"/>
		<polygon class="st6" points="3032.6,-783 3033.7,-772.5 3026.3,-780.1 		"/>
	</g>
	<g id="node40">
		<polygon class="st18" points="3400,-772.2 3118,-772.2 3118,-719 3400,-719 		"/>
		<text transform="matrix(1 0 0 1 3124.1985 -734.1728)" class="st1 st2">kotlin-stdlib-jdk8</text>
	</g>
	<g id="edge92">
		<path class="st5" d="M2914.3-1150.1c30,51.6,100.2,167,174.7,252.1c39.4,45.1,91.5,90,127.6,119.3"/>
		<polygon class="st6" points="3218.9,-781.3 3224.5,-772.3 3214.5,-775.9 		"/>
	</g>
	<g id="edge93">
		<path class="st5" d="M2915.6-808.5c21.7,10.4,46.6,22.3,68.9,33"/>
		<polygon class="st6" points="2986,-778.7 2993.5,-771.2 2983,-772.4 		"/>
	</g>
	<g id="edge96">
		<path class="st5" d="M2966.4-811.3c50.4,11.3,111.1,24.9,164.1,36.8"/>
		<polygon class="st6" points="3131.2,-777.9 3140.2,-772.2 3129.7,-771 		"/>
	</g>
	<g id="node41">
		<polygon class="st19" points="2827.1,-772.2 2644.8,-772.2 2644.8,-719 2827.1,-719 		"/>
		<text transform="matrix(1 0 0 1 2650.9719 -734.1728)" class="st1 st2">framework</text>
	</g>
	<g id="edge94">
		<path class="st5" d="M2823.1-808.5c-13.1,9.5-28.1,20.3-41.8,30.2"/>
		<polygon class="st6" points="2783,-775.3 2772.9,-772.3 2778.9,-781 		"/>
	</g>
	<g id="node42">
		<polygon class="st19" points="2750.8,-682.6 2439,-682.6 2439,-629.4 2750.8,-629.4 		"/>
		<text transform="matrix(1 0 0 1 2442.51 -644.5654)" class="st1 st2">framework-internal</text>
	</g>
	<g id="edge95">
		<path class="st5" d="M2862-808.4c0.4,26.2-3.3,65.7-26,89.7c-12.5,13.1-42.7,24.4-77.6,33.6"/>
		<polygon class="st6" points="2759,-681.7 2748.4,-682.6 2757.2,-688.5 		"/>
	</g>
	<g id="edge97">
		<path class="st5" d="M2617.5-808.5c-11.3,9.3-24.2,19.9-36.1,29.6"/>
		<polygon class="st6" points="2583.4,-775.9 2573.4,-772.3 2578.9,-781.3 		"/>
	</g>
	<g id="edge98">
		<path class="st5" d="M3224.2-1150.2c25.5,60.9,87.7,209.7,116.6,278.7"/>
		<polygon class="st6" points="3344.2,-872.5 3344.8,-861.9 3337.7,-869.8 		"/>
	</g>
	<g id="edge99">
		<path class="st5" d="M3205.6-1150.4c-17.5,61.6-64.3,218.4-121.6,342c-4.2,9-9.3,18.4-14.4,27.1"/>
		<polygon class="st6" points="3072.5,-779.3 3064.4,-772.5 3066.5,-782.8 		"/>
	</g>
	<g id="edge100">
		<path class="st5" d="M3214.3-1150.1c3.3,61.1,12.9,214.5,31.7,341.7c1.2,8.5,2.9,17.5,4.6,26"/>
		<polygon class="st6" points="3254.1,-782.9 3252.7,-772.3 3247.3,-781.4 		"/>
	</g>
	<g id="node39">
		<polygon class="st20" points="3654,-772.2 3418,-772.2 3418,-719 3654,-719 		"/>
		<text transform="matrix(1 0 0 1 3420.9631 -734.1728)" class="st1 st2">antlr4-runtime</text>
	</g>
	<g id="edge101">
		<path class="st5" d="M3409.5-808.5c20,10,43,21.4,63.8,31.8"/>
		<polygon class="st6" points="3475,-779.9 3482.4,-772.3 3471.9,-773.6 		"/>
	</g>
	<g id="edge103">
		<path class="st5" d="M3327.2-808.5c-10,9.2-21.3,19.7-31.8,29.4"/>
		<polygon class="st6" points="3297.6,-776.5 3287.9,-772.3 3292.9,-781.6 		"/>
	</g>
	<g id="node43">
		<polygon class="st15" points="3791.5,-682.6 3680.5,-682.6 3680.5,-629.4 3791.5,-629.4 		"/>
		<text transform="matrix(1 0 0 1 3690.0911 -644.5654)" class="st1 st2">jsr305</text>
	</g>
	<g id="edge102">
		<path class="st5" d="M3456.9-823.2c76.2,10.6,173.1,28,206.1,50.8c28.3,19.6,47.9,54.1,59.6,80.5"/>
		<polygon class="st6" points="3725.9,-693.2 3726.6,-682.6 3719.4,-690.4 		"/>
	</g>
	<g id="edge106">
		<path class="st5" d="M3100.4-721.2c2.9,0.9,5.8,1.7,8.6,2.4c227.3,55.2,294.2-1.9,525,36c11.9,1.9,24.3,4.7,36.3,7.6"/>
		<polygon class="st6" points="3671.5,-678.5 3680.3,-672.6 3669.8,-671.7 		"/>
	</g>
	<g id="node44">
		<polygon class="st15" points="2981.2,-682.6 2768.8,-682.6 2768.8,-629.4 2981.2,-629.4 		"/>
		<text transform="matrix(1 0 0 1 2775.509 -644.5654)" class="st1 st2">failureaccess</text>
	</g>
	<g id="edge104">
		<path class="st5" d="M2995.8-718.9c-19.1,9.9-40.9,21.3-60.7,31.6"/>
		<polygon class="st6" points="2936.7,-684.2 2926.2,-682.7 2933.5,-690.4 		"/>
	</g>
	<g id="node45">
		<polygon class="st15" points="3019.3,-593 2766.6,-593 2766.6,-539.8 3019.3,-539.8 		"/>
		<text transform="matrix(1 0 0 1 2770.2502 -554.9589)" class="st1 st2">listenablefuture</text>
	</g>
	<g id="edge105">
		<path class="st5" d="M3038.5-718.7c-9,25.3-25.1,63.1-48.5,89.5c-10.3,11.6-23.2,21.9-36.1,30.6"/>
		<polygon class="st6" points="2955.6,-595.5 2945.3,-593 2951.8,-601.4 		"/>
	</g>
	<g id="node46">
		<polygon class="st15" points="3148.5,-503.4 2759.4,-503.4 2759.4,-450.1 3148.5,-450.1 		"/>
		<text transform="matrix(1 0 0 1 2758.9788 -465.3515)" class="st1 st2">error_prone_annotations</text>
	</g>
	<g id="edge107">
		<path class="st5" d="M3050.7-718.8c4.3,41.1,7.6,121-22.7,179.2c-5.8,11.1-14.4,21-23.8,29.5"/>
		<polygon class="st6" points="3006.5,-507.3 2996.6,-503.5 3001.9,-512.7 		"/>
	</g>
	<g id="node47">
		<polygon class="st15" points="3326.3,-413.7 3027.6,-413.7 3027.6,-360.5 3326.3,-360.5 		"/>
		<text transform="matrix(1 0 0 1 3031.3176 -375.7451)" class="st1 st2">j2objc-annotations</text>
	</g>
	<g id="edge108">
		<path class="st5" d="M3060.4-718.7c26.6,53.5,84.4,171.9,97.5,215.1c7.9,26,12.7,56.3,15.5,79.5"/>
		<polygon class="st6" points="3177,-424.3 3174.7,-414 3170.1,-423.5 		"/>
	</g>
	<g id="node48">
		<polygon class="st10" points="3325.2,-682.6 3112.8,-682.6 3112.8,-629.4 3325.2,-629.4 		"/>
		<text transform="matrix(1 0 0 1 3118.5608 -644.5654)" class="st1 st2">checker-qual</text>
	</g>
	<g id="edge109">
		<path class="st5" d="M3098.1-718.9c19.1,9.9,40.9,21.3,60.7,31.6"/>
		<polygon class="st6" points="3160.5,-690.4 3167.7,-682.7 3157.3,-684.2 		"/>
	</g>
	<g id="edge21">
		<path class="st5" d="M676.6-450.1c29.4,10.3,63.2,22.2,93.5,32.9"/>
		<polygon class="st6" points="771.6,-420.5 779.8,-413.8 769.2,-413.9 		"/>
	</g>
	<g id="edge22">
		<path class="st5" d="M902-449.9c-6.4,8.7-13.6,18.4-20.4,27.6"/>
		<polygon class="st6" points="884.3,-420 875.6,-414 878.7,-424.1 		"/>
	</g>
	<g id="edge45">
		<path class="st5" d="M1574-539.7c22.4,10.1,48,21.6,71.1,32"/>
		<polygon class="st6" points="1646.9,-510.7 1654.6,-503.4 1644,-504.4 		"/>
	</g>
	<g id="edge47">
		<path class="st5" d="M1511.2-539.3c-1.9,25.8-0.6,64.2,19.6,89.3c29.1,36.2,61.3,7.6,98,36c61.2,47.4,48.3,84.8,99,143.2
			c8.7,10.1,18.9,20.2,28.7,29.3"/>
		<polygon class="st6" points="1759,-244 1764,-234.7 1754.3,-238.9 		"/>
	</g>
	<g id="edge48">
		<path class="st5" d="M1455.3-539.6c-70.4,35.7-173.3,103.4-134.5,179.3c61.9,121.1,122.5,126.8,248,179.2
			c46.9,19.6,172.9,38.3,266,50.1"/>
		<polygon class="st6" points="1835.4,-134.4 1844.9,-129.7 1834.5,-127.5 		"/>
	</g>
	<g id="edge49">
		<path class="st5" d="M1414.6-539.6c-108.1,35.6-264.8,110.1-264.8,242.1c0,0,0,0,0,89.6c0,168.2,195.8,80.4,360,116.4
			C1643.3-62.3,1799-45.8,1906-37.1"/>
		<polygon class="st6" points="1906.6,-40.6 1916.2,-36.3 1906,-33.6 		"/>
	</g>
	<g id="node36">
		<polygon class="st17" points="2059.6,-324.1 1866.1,-324.1 1866.1,-270.9 2059.6,-270.9 		"/>
		<text transform="matrix(1 0 0 1 1870.5286 -286.1386)" class="st1 st2">netty-codec</text>
	</g>
	<g id="edge46">
		<path class="st5" d="M1521.1-539.7c7.6,26.5,22.9,66.6,50.8,89.8c45.4,37.8,72.4,16,128,36c69.8,25.1,147.2,60.3,199.8,85.4"/>
		<polygon class="st6" points="1901.4,-331.6 1908.9,-324.2 1898.4,-325.3 		"/>
	</g>
	<g id="node37">
		<polygon class="st17" points="1620.2,-413.7 1329.5,-413.7 1329.5,-360.5 1620.2,-360.5 		"/>
		<text transform="matrix(1 0 0 1 1333.7903 -375.7451)" class="st1 st2">netty-codec-socks</text>
	</g>
	<g id="edge50">
		<path class="st5" d="M1508.9-539.5c-6.9,30.7-18.1,81.2-25.8,115.6"/>
		<polygon class="st6" points="1486.4,-422.9 1480.8,-413.9 1479.6,-424.4 		"/>
	</g>
	<g id="edge51">
		<path class="st5" d="M1836.7-450.1c54.1,11.7,117.3,25.5,171,37.1"/>
		<polygon class="st6" points="2008.5,-416.4 2017.6,-410.9 2007,-409.6 		"/>
	</g>
	<g id="edge53">
		<path class="st5" d="M1714.2-449.9c1.4,40.5,7.6,118.8,33.7,179.2c4.2,9.7,10.3,19.3,16.6,28"/>
		<polygon class="st6" points="1767.3,-244.9 1770.7,-234.8 1761.8,-240.6 		"/>
	</g>
	<g id="edge54">
		<path class="st5" d="M1697.6-450.1c-32,56.3-94.8,188.7-30.7,268.9c21.2,26.6,100,42.8,168.2,52"/>
		<polygon class="st6" points="1835.6,-132.6 1845,-127.8 1834.7,-125.6 		"/>
	</g>
	<g id="edge55">
		<path class="st5" d="M1581.2-464.1c-107.3,11.6-243.3,30.1-260.4,50.1c-15.5,18.1-9.7,31.8,0,53.6c72.5,163.4,137.2,193,299,268.8
			c49.5,23.2,183.7,40.8,286.2,51.4"/>
		<polygon class="st6" points="1906.6,-43.6 1916.2,-39.1 1905.9,-36.7 		"/>
	</g>
	<g id="edge52">
		<path class="st5" d="M1824.5-450c23.1,8.9,46.3,20.7,65.4,36c26.4,21.2,45.9,54.7,58.1,80.3"/>
		<polygon class="st6" points="1951.4,-334.8 1952.3,-324.3 1945,-331.9 		"/>
	</g>
	<g id="edge57">
		<path class="st5" d="M2120.7-360.2c-7.6,26.8-23.2,67-51.8,89.5c-22.9,18-84.2,32.9-142.9,43.7"/>
		<polygon class="st6" points="1926.3,-223.5 1915.9,-225.2 1925.1,-230.4 		"/>
	</g>
	<g id="edge58">
		<path class="st5" d="M2125.9-360.2c-2,24.7-7.5,61.4-23,89.4c-27.2,49.2-75.5,92.1-111.8,119.7"/>
		<polygon class="st6" points="1993.2,-148.2 1983.1,-145 1989,-153.8 		"/>
	</g>
	<g id="edge59">
		<path class="st5" d="M2129-360.1c1.3,23.7,1.8,59.1-3.1,89.4c-13.4,82.6-25.5,102.1-58,179.2c-3.8,9-8.4,18.5-13,27.3"/>
		<polygon class="st6" points="2058,-62.6 2050.2,-55.4 2051.8,-65.9 		"/>
	</g>
	<g id="edge60">
		<path class="st5" d="M2149.8-360.5c9.1,11,19.4,23.9,28.1,36.2c41.2,57.8,83.7,128.9,107.9,170.6"/>
		<polygon class="st6" points="2288.8,-155.4 2290.8,-145 2282.8,-151.9 		"/>
	</g>
	<g id="edge56">
		<path class="st5" d="M2078.1-360.5c-18.1,9.9-38.8,21.2-57.6,31.5"/>
		<polygon class="st6" points="2022.2,-326 2011.8,-324.2 2018.8,-332.1 		"/>
	</g>
	<g id="edge64">
		<path class="st5" d="M1839.9-181.3c16.1,9.8,34.5,20.9,51.3,31.1"/>
		<polygon class="st6" points="1893.1,-153.2 1899.8,-145 1889.4,-147.2 		"/>
	</g>
	<g id="edge65">
		<path class="st5" d="M1798.2-181.2c3.7,26.3,13.2,65.8,37.7,89.6c12.1,11.8,42,23.4,74.9,33.3"/>
		<polygon class="st6" points="1912,-61.5 1920.7,-55.3 1910.1,-54.8 		"/>
	</g>
	<g id="edge66">
		<path class="st5" d="M1915.8-186.9c80.1,14.1,185.1,32.5,266,46.7"/>
		<polygon class="st6" points="2182.8,-143.5 2192,-138.3 2181.6,-136.6 		"/>
	</g>
	<g id="edge67">
		<path class="st5" d="M1971.2-91.4c9.2,9,19.5,19.2,29.2,28.7"/>
		<polygon class="st6" points="2002.9,-65.1 2007.6,-55.6 1998,-60.1 		"/>
	</g>
	<g id="edge68">
		<path class="st5" d="M2225.3-91.7c-31.4,10.4-67.5,22.3-99.8,33"/>
		<polygon class="st6" points="2126.2,-55.2 2115.6,-55.4 2124,-61.9 		"/>
	</g>
	<g id="edge73">
		<path class="st5" d="M1853.7-539.7c-22.4,10.1-48,21.6-71.1,32"/>
		<polygon class="st6" points="1783.7,-504.4 1773.2,-503.4 1780.8,-510.7 		"/>
	</g>
	<g id="edge74">
		<path class="st5" d="M1944.9-539.5c37.9,31.8,101.1,84.7,142.2,119"/>
		<polygon class="st6" points="2089.6,-423 2095,-413.9 2085.1,-417.6 		"/>
	</g>
	<g id="edge76">
		<path class="st5" d="M1901-539.6c-19.3,44.1-57.6,135.2-81.1,215.3c-7.7,26.3-13.9,56.6-18,79.7"/>
		<polygon class="st6" points="1805.3,-243.8 1800.1,-234.6 1798.4,-245 		"/>
	</g>
	<g id="edge77">
		<path class="st5" d="M1907.7-539.5c-4.6,23.6-11.8,59-18.8,89.5c-18.2,78.8-73.7,109.9-32,179.2c17.6,29.3,48.1,8.2,68,36
			c16.4,22.8,20.7,54.7,21.1,79.3"/>
		<polygon class="st6" points="1949.5,-155.4 1946,-145.4 1942.5,-155.4 		"/>
	</g>
	<g id="edge78">
		<path class="st5" d="M2055.1-556.9c145.9,10.7,362.6,29.8,442.8,53.4c111.1,32.6,233,0.6,233,116.4c0,0,0,0,0,179.2
			c0,35.7-1,60.6-134,116.4c-75.6,31.8-292,48.8-433.2,56.8"/>
		<polygon class="st6" points="2163.9,-31.2 2153.7,-34.1 2163.5,-38.2 		"/>
	</g>
	<g id="edge75">
		<path class="st5" d="M1919.2-539.5c2.5,11.1,5.4,24.1,7.7,36c11.7,59,23.3,127.8,30.1,169.1"/>
		<polygon class="st6" points="1960.5,-334.7 1958.6,-324.3 1953.6,-333.6 		"/>
	</g>
	<g id="edge79">
		<path class="st5" d="M2278.7-450.1c-24.5,10.2-52.6,21.8-77.9,32.3"/>
		<polygon class="st6" points="2201.8,-414.4 2191.3,-413.8 2199.2,-420.9 		"/>
	</g>
	<g id="edge81">
		<path class="st5" d="M2196.3-459.4c-85.7,11.6-184.6,27.9-224.4,45.4c-59.3,26.1-73.5,39.9-115,89.6c-20.1,24.1-36.3,56-46.9,80.3
			"/>
		<polygon class="st6" points="1813.2,-242.7 1806.1,-234.8 1806.8,-245.4 		"/>
	</g>
	<g id="edge82">
		<path class="st5" d="M2451.2-450c32.1,10.2,61.3,22.7,70.7,36.1c13.8,19.4,12.9,33.6,0,53.6c-102.4,158.9-332.1,213.6-469.2,232.3
			"/>
		<polygon class="st6" points="2053,-124.5 2042.7,-126.7 2052.1,-131.4 		"/>
	</g>
	<g id="edge83">
		<path class="st5" d="M2489.3-459.5c95.9,20.4,203.6,65,203.6,161.9c0,0,0,0,0,89.6c0,108.5-337.5,153.5-529.1,170.3"/>
		<polygon class="st6" points="2163.9,-34.1 2153.7,-36.7 2163.3,-41.1 		"/>
	</g>
	<g id="edge84">
		<path class="st5" d="M2478.6-450.1c34.9,9.7,65.7,21.9,76.3,36.2c61.9,82.9,63.6,151.2,0,232.8c-16.3,20.9-71.1,35.9-125.2,46"/>
		<polygon class="st6" points="2430.1,-131.6 2419.6,-133.3 2428.9,-138.5 		"/>
	</g>
	<g id="edge80">
		<path class="st5" d="M2196.4-463.2c-75.9,9.7-158.6,25.4-187.5,49.3c-23.8,19.7-35.4,53.4-40.9,79.5"/>
		<polygon class="st6" points="1971.4,-333.7 1966,-324.5 1964.5,-335 		"/>
	</g>
	<g id="node38">
		<polygon class="st17" points="2513.1,-413.7 2254.7,-413.7 2254.7,-360.5 2513.1,-360.5 		"/>
		<text transform="matrix(1 0 0 1 2257.4172 -375.7451)" class="st1 st2">netty-codec-dns</text>
	</g>
	<g id="edge85">
		<path class="st5" d="M2355.2-449.9c3.8,8.3,8.1,17.6,12.1,26.5"/>
		<polygon class="st6" points="2370.7,-424.6 2371.6,-414 2364.3,-421.6 		"/>
	</g>
	<g id="edge43">
		<path class="st5" d="M1634.6-808.1c-1.8,24.1-6.2,59.9-16.7,89.4c-3.3,9.3-8,18.7-13,27.4"/>
		<polygon class="st6" points="1607.8,-689.5 1599.6,-682.7 1601.8,-693.1 		"/>
	</g>
	<g id="edge44">
		<path class="st5" d="M1488.8-718.9c14,9.6,29.9,20.5,44.6,30.5"/>
		<polygon class="st6" points="1535.6,-691.2 1541.8,-682.7 1531.6,-685.4 		"/>
	</g>
	<g id="edge61">
		<path class="st5" d="M1913.2-270.9c-18.4,9.9-39.5,21.2-58.7,31.5"/>
		<polygon class="st6" points="1856.1,-236.3 1845.6,-234.6 1852.8,-242.4 		"/>
	</g>
	<g id="edge62">
		<path class="st5" d="M1963.1-270.6c-0.2,23.7-1.2,59-5.2,89.5c-1.1,8.6-2.9,17.8-4.7,26.3"/>
		<polygon class="st6" points="1956.6,-154 1950.9,-145 1949.7,-155.6 		"/>
	</g>
	<g id="edge63">
		<path class="st5" d="M1984.4-270.9c21.9,29,54.4,77.6,67.5,125.8c7.1,26.3,2.2,56.7-4.1,79.9"/>
		<polygon class="st6" points="2051.1,-64 2044.9,-55.4 2044.4,-66 		"/>
	</g>
	<g id="edge70">
		<path class="st5" d="M1518.2-360.4c39.6,24.1,100,60.3,153.7,89.7c19.5,10.7,40.9,21.8,60.5,31.6"/>
		<polygon class="st6" points="1734.1,-242.2 1741.5,-234.5 1731,-235.9 		"/>
	</g>
	<g id="edge71">
		<path class="st5" d="M1487.5-360.4c22.6,44.8,74.5,134.5,146.4,179.3c33.2,20.7,125.6,37.8,201,48.9"/>
		<polygon class="st6" points="1835.5,-135.6 1844.9,-130.7 1834.5,-128.7 		"/>
	</g>
	<g id="edge72">
		<path class="st5" d="M1478.9-360.3c4.3,24.2,12.4,60.4,26,89.6c20.7,44.4,25.3,59.7,64,89.6c98.7,76.3,237,115.2,337.3,134.5"/>
		<polygon class="st6" points="1906.9,-50.1 1916.1,-44.8 1905.6,-43.2 		"/>
	</g>
	<g id="edge69">
		<path class="st5" d="M1620-360.5c75.8,13.9,166.9,30.6,236.2,43.4"/>
		<polygon class="st6" points="1857,-320.5 1866.2,-315.3 1855.7,-313.7 		"/>
	</g>
	<g id="edge87">
		<path class="st5" d="M2328.6-360.5c-55.9,26-145.1,65.1-225.7,89.8c-57.3,17.6-122.1,31.6-177.4,42"/>
		<polygon class="st6" points="1926.1,-225.3 1915.7,-227 1924.9,-232.2 		"/>
	</g>
	<g id="edge88">
		<path class="st5" d="M2345.9-360.4c-58.5,40.7-174.7,119.7-278,179.3c-18.9,10.9-39.8,21.9-59.1,31.6"/>
		<polygon class="st6" points="2010.3,-146.4 1999.8,-145 2007.2,-152.6 		"/>
	</g>
	<g id="edge89">
		<path class="st5" d="M2400.1-360.5c32.2,56.7,95.6,190.8,28.8,269c-17.3,20.3-156.9,39-265.1,50.6"/>
		<polygon class="st6" points="2164.1,-37.5 2153.8,-39.9 2163.4,-44.4 		"/>
	</g>
	<g id="edge86">
		<path class="st5" d="M2258.7-360.5c-60.2,12.8-131.5,28-189,40.2"/>
		<polygon class="st6" points="2070.4,-316.8 2059.9,-318.2 2068.9,-323.7 		"/>
	</g>
	<g id="node49">
		<polygon class="st18" points="3625,-682.6 3343,-682.6 3343,-629.4 3625,-629.4 		"/>
		<text transform="matrix(1 0 0 1 3349.2151 -644.5654)" class="st1 st2">kotlin-stdlib-jdk7</text>
	</g>
	<g id="edge110">
		<path class="st5" d="M3325.9-718.9c25.6,10.2,55,21.9,81.5,32.4"/>
		<polygon class="st6" points="3409,-689.6 3417,-682.7 3406.4,-683.1 		"/>
	</g>
	<g id="node50">
		<polygon class="st18" points="3729.8,-593 3528.2,-593 3528.2,-539.8 3729.8,-539.8 		"/>
		<text transform="matrix(1 0 0 1 3534.1682 -554.9589)" class="st1 st2">kotlin-stdlib</text>
	</g>
	<g id="edge111">
		<path class="st5" d="M3400.3-720.3c2.9,0.5,5.8,1,8.7,1.5c49.9,8.5,192.2-2.5,225,36c18.4,21.6,15.1,54.5,8.4,79.8"/>
		<polygon class="st6" points="3645.8,-601.9 3639.6,-593.3 3639.1,-603.9 		"/>
	</g>
	<g id="edge112">
		<path class="st5" d="M3527.1-629.3c15.6,9.7,33.5,20.7,49.8,30.8"/>
		<polygon class="st6" points="3579.2,-601.3 3585.8,-593.1 3575.5,-595.3 		"/>
	</g>
	<g id="node51">
		<polygon class="st18" points="3535.8,-503.4 3188.4,-503.4 3188.4,-450.1 3535.8,-450.1 		"/>
		<text transform="matrix(1 0 0 1 3192.6274 -465.3515)" class="st1 st2">kotlin-stdlib-common</text>
	</g>
	<g id="edge113">
		<path class="st5" d="M3583.2-539.7c17,9.8-231.8,6.9-242.8,26.7"/>
	</g>
	<g id="node52">
		<polygon class="st18" points="3750.2,-413.7 3415.8,-413.7 3415.8,-360.5 3750.2,-360.5 		"/>
		<text transform="matrix(1 0 0 1 3414.9612 -375.7451)" class="st1 st2">jetbrains-annotations</text>
	</g>
	<g id="edge114">
		<path class="st5" d="M3615.8-539.7c-5,11-10.3,23.9-13.8,36.1c-7.6,26.1-12.4,56.4-15.3,79.6"/>
		<polygon class="st6" points="3590.2,-423.4 3585.5,-413.9 3583.2,-424.3 		"/>
	</g>
</g>
<polygon class="st6" points="3347.7,1035.7 3341.1,1044 3341.1,1033.4 "/>
</svg>
