<svg xmlns="http://www.w3.org/2000/svg" viewBox="0 0 1598.22 1222.28"><defs><style>.cls-1{fill:#9b9fc2;}.cls-10,.cls-2,.cls-23,.cls-25,.cls-31,.cls-7{isolation:isolate;font-family:LinBiolinum, Linux Biolinum;}.cls-2{font-size:18px;fill:#fff;}.cls-3{letter-spacing:0em;}.cls-4{letter-spacing:0em;}.cls-5{letter-spacing:0em;}.cls-6{fill:#87e9ff;stroke:#87e9ff;}.cls-49,.cls-54,.cls-6,.cls-8,.cls-9{stroke-width:0.25px;}.cls-23,.cls-7{font-size:16px;}.cls-8{fill:none;}.cls-8,.cls-9{stroke:#000;}.cls-10,.cls-25,.cls-31{font-size:15px;}.cls-11{fill:#6f9974;}.cls-12,.cls-25{letter-spacing:0em;}.cls-13{fill:#ca97a5;}.cls-14{letter-spacing:0.01em;}.cls-15{letter-spacing:0em;}.cls-16{fill:#bcb598;}.cls-17{letter-spacing:0.01em;}.cls-18,.cls-31{letter-spacing:0em;}.cls-19{letter-spacing:0.01em;}.cls-20{letter-spacing:0em;}.cls-21{letter-spacing:-0.02em;}.cls-22{letter-spacing:0em;}.cls-23{letter-spacing:-0.01em;}.cls-24{letter-spacing:0em;}.cls-26{fill:#93c4c6;}.cls-27{fill:#abd18e;}.cls-28{fill:#dfa4ca;}.cls-29{letter-spacing:0.01em;}.cls-30{letter-spacing:0em;}.cls-32{fill:#f7b5a0;}.cls-33{letter-spacing:0em;}.cls-34{fill:#e1c57f;}.cls-35{letter-spacing:0.01em;}.cls-36{letter-spacing:0.01em;}.cls-37{fill:#7eb5d0;}.cls-38{letter-spacing:-0.01em;}.cls-39{fill:#a8b3e2;}.cls-40{letter-spacing:0em;}.cls-41{fill:#98b67f;}.cls-42{fill:#c89475;}.cls-43{letter-spacing:0em;}.cls-44{letter-spacing:0em;}.cls-45{fill:#f8ae4d;}.cls-46{fill:#c4b0d6;}.cls-47{fill:#fac69e;}.cls-48{fill:#adbde3;}.cls-49{fill:#ffcb2b;stroke:#ffcb2b;}.cls-50{letter-spacing:0em;}.cls-51{letter-spacing:0.01em;}.cls-52{fill:#f08db9;}.cls-53{letter-spacing:0em;}.cls-54{fill:#255bff;stroke:#255bff;}</style></defs><g id="Layer_3" data-name="Layer 3"><polygon class="cls-1" points="134.66 645.34 0 645.34 0 681.34 134.66 681.34 134.66 645.34"/><g id="graph0"><g id="node1"><text class="cls-2" transform="translate(711.72 22.58) scale(0.9 1)"><tspan class="cls-3">b</tspan><tspan class="cls-4" x="9.16" y="0">esu-co</tspan><tspan class="cls-5" x="56.79" y="0">r</tspan><tspan x="63.1" y="0">e</tspan></text></g><g id="node2"><polygon class="cls-6" points="477.13 350.11 428.79 350.11 428.79 386.11 477.13 386.11 477.13 350.11"/><text class="cls-7" transform="translate(437.05 371.81) scale(0.9 1)">config</text></g><g id="edge1"><path class="cls-8" d="M752.75,38.58c-152.49,3.06-83.18,299.8-231.22,332.18" transform="translate(-35.55 -19.97)"/><polygon class="cls-9" points="486.63 354.21 477.22 352.94 485.28 347.37 486.63 354.21"/></g><g id="node3"><polygon class="cls-6" points="541.58 350.11 493.24 350.11 493.24 386.11 541.58 386.11 541.58 350.11"/><text class="cls-7" transform="translate(509.35 371.81) scale(0.9 1)">pki</text></g><g id="edge2"><path class="cls-8" d="M752.86,37.84c-138.37-1.28,61.06,274.25-166.76,332.7" transform="translate(-35.55 -19.97)"/><polygon class="cls-9" points="551.11 354.02 541.67 352.95 549.64 347.21 551.11 354.02"/></g><g id="node4"><polygon class="cls-6" points="606.03 350.11 557.69 350.11 557.69 386.11 606.03 386.11 606.03 350.11"/><text class="cls-7" transform="translate(566.5 371.81) scale(0.9 1)">clique</text></g><g id="edge3"><path class="cls-8" d="M752.69,38.1c-135.1.22,182.88,302.58-98.58,332-1.14.28-2.28.6-3.43.95" transform="translate(-35.55 -19.97)"/><polygon class="cls-9" points="615.84 354.49 606.35 354.25 613.9 347.83 615.84 354.49"/></g><g id="node5"><polygon class="cls-6" points="653.99 233.48 594.01 233.48 594.01 269.48 653.99 269.48 653.99 233.48"/><text class="cls-10" transform="translate(601.56 255.18) scale(0.9 1)">common</text></g><g id="edge4"><path class="cls-8" d="M752.69,38.58c-136,2.82-227,108.55-256.07,142.87-9.83,11.63-8.59,23.2,0,36,3.84,5.7,77.17,28,124.13,41.77" transform="translate(-35.55 -19.97)"/><polygon class="cls-9" points="586.06 235.89 593.92 241.81 584.47 242.66 586.06 235.89"/></g><g id="node6"><polygon class="cls-6" points="221.04 215.13 153.9 215.13 153.9 251.13 221.04 251.13 221.04 215.13"/><text class="cls-10" transform="translate(161.12 236.83) scale(0.9 1)">plugin-api</text></g><g id="edge25"><path class="cls-8" d="M752.77,39C650.67,42.72,260.44,59.11,214.06,91.1c-39.47,27.23-57.34,60.21-39.38,108,4.15,11.05,11.48,21,19.21,29.14" transform="translate(-35.55 -19.97)"/><polygon class="cls-9" points="160.52 205.75 165.15 214.99 156.37 210.99 160.52 205.75"/></g><g id="node7"><polygon class="cls-11" points="336.07 287.13 255.5 287.13 255.5 323.13 336.07 323.13 336.07 287.13"/><text class="cls-10" transform="translate(262.93 308.83) scale(0.9 1)">tu<tspan class="cls-12" x="13.15" y="0">w</tspan><tspan x="23.83" y="0">eni-units</tspan></text></g><g id="edge40"><path class="cls-8" d="M752.79,38.58C656.94,40.76,309.1,51.35,276.73,91.1c-9.65,11.84-6,21.46,0,36,9.19,22.34,27.24,14.31,37.59,36,20.32,42.58,21.06,100.34,19.32,133.85" transform="translate(-35.55 -19.97)"/><polygon class="cls-9" points="301.22 277.21 297.47 286.94 294.97 276.73 301.22 277.21"/></g><g id="node8"><polygon class="cls-11" points="268.04 359.13 185.68 359.13 185.68 395.13 268.04 395.13 268.04 359.13"/><text class="cls-10" transform="translate(193.24 380.82) scale(0.9 1)">tu<tspan class="cls-12" x="13.15" y="0">w</tspan><tspan x="23.83" y="0">eni-</tspan><tspan class="cls-12" x="47.58" y="0">b</tspan><tspan x="55.06" y="0">ytes</tspan></text></g><g id="edge37"><path class="cls-8" d="M752.57,38.34C617.19,39.82,540.24,139.93,459.65,182l-27.57,27.51c-13.23,23.79-20.32,21.22-20.32,128.84,0,92.33-244.08,114-199.88,53.91" transform="translate(-35.55 -19.97)"/><polygon class="cls-9" points="176.86 368.77 185.54 373.05 176.37 375.75 176.86 368.77"/></g><g id="node9"><polygon class="cls-13" points="327.12 431.13 278.78 431.13 278.78 467.13 327.12 467.13 327.12 431.13"/><text class="cls-7" transform="translate(287.57 452.82) scale(0.9 1)">guava</text></g><g id="edge30"><path class="cls-8" d="M752.86,38c-140.47-.69-230.62,89-312.52,143.5-16.6,15.65-31.14,41.9-31.14,41.9s-22.67,56.28-1.38,168.43c0,0,6,19.38,47.3,31.93,56.67,31.22-211.72-29-149.75,27.39l.27.1" transform="translate(-35.55 -19.97)"/><polygon class="cls-9" points="271.32 428 278.6 434.81 269.11 434.56 271.32 428"/></g><g id="node23"><polygon class="cls-6" points="517.47 161.48 469.13 161.48 469.13 197.48 517.47 197.48 517.47 161.48"/><text class="cls-10" transform="translate(484.42 183.18) scale(0.9 1)">ibft</text></g><g id="edge5"><path class="cls-8" d="M752.76,38.36C639.15,39.8,727.61,138.55,561.94,181.91" transform="translate(-35.55 -19.97)"/><polygon class="cls-9" points="527.02 165.37 517.57 164.37 525.52 158.58 527.02 165.37"/></g><g id="node24"><polygon class="cls-6" points="599.38 161.48 534.03 161.48 534.03 197.48 599.38 197.48 599.38 161.48"/><text class="cls-10" transform="translate(541.45 183.18) scale(0.9 1)">ibftle<tspan class="cls-12" x="31.56" y="0">g</tspan><tspan x="38.96" y="0">acy</tspan></text></g><g id="edge6"><path class="cls-8" d="M752.91,38.89c-105.49,3.61,41.26,110-109,142.93" transform="translate(-35.55 -19.97)"/><polygon class="cls-9" points="608.9 165.3 599.5 163.89 607.63 158.45 608.9 165.3"/></g><g id="node25"><polygon class="cls-6" points="664.28 161.48 615.94 161.48 615.94 197.48 664.28 197.48 664.28 161.48"/><text class="cls-10" transform="translate(629.59 183.18) scale(0.9 1)">qbft</text></g><g id="edge7"><path class="cls-8" d="M752.93,39c-101,3.86,78.24,110.84-40.57,142.47-1.13.3-2.27.64-3.42,1" transform="translate(-35.55 -19.97)"/><polygon class="cls-9" points="674.11 165.9 664.63 165.73 672.14 159.26 674.11 165.9"/></g><g id="node26"><polygon class="cls-6" points="917.03 143.13 868.69 143.13 868.69 179.13 917.03 179.13 917.03 143.13"/><text class="cls-7" transform="translate(876.18 164.83) scale(0.9 1)">c<tspan class="cls-14" x="6.86" y="0">r</tspan><tspan class="cls-15" x="12.7" y="0">ypto</tspan></text></g><g id="edge8"><path class="cls-8" d="M801.52,39.49c31.06,3.31,84.11,14.44,112.56,51.61,13,16.91,16,42.38,16,61.75" transform="translate(-35.55 -19.97)"/><polygon class="cls-9" points="897.72 133 894.39 142.91 891.46 132.84 897.72 133"/></g><g id="node28"><polygon class="cls-16" points="1172.6 287.13 1112.62 287.13 1112.62 323.13 1172.6 323.13 1172.6 287.13"/><text class="cls-10" transform="translate(1120.16 308.83) scale(0.9 1)">log4j-api</text></g><g id="edge35"><path class="cls-8" d="M801.43,38.55C898,40.6,1251,50.83,1283.79,91.1c9.64,11.83,3.82,20.58,0,36-2.34,9.42-63.15,120.14-91.43,171.33" transform="translate(-35.55 -19.97)"/><polygon class="cls-9" points="1159.47 280.32 1152.1 287 1154.13 276.65 1159.47 280.32"/></g><g id="node30"><polygon class="cls-6" points="443.62 233.48 378.27 233.48 378.27 269.48 443.62 269.48 443.62 233.48"/><text class="cls-10" transform="translate(385.53 255.18) scale(0.9 1)">dataty<tspan class="cls-17" x="40.16" y="0">p</tspan><tspan x="48.11" y="0">es</tspan></text></g><g id="edge9"><path class="cls-8" d="M752.54,37.85c-134-1.15-205.86,86.75-275.61,143.6-17.52,14.28-25,41.35-28.11,61.91" transform="translate(-35.55 -19.97)"/><polygon class="cls-9" points="416.36 224.04 411.99 233.44 410.15 223.04 416.36 224.04"/></g><g id="node31"><polygon class="cls-6" points="1240.63 71.13 1187.82 71.13 1187.82 107.13 1240.63 107.13 1240.63 71.13"/><text class="cls-7" transform="translate(1195.07 92.83) scale(0.9 1)">encla<tspan class="cls-18" x="34.45" y="0">v</tspan><tspan x="41.67" y="0">e</tspan></text></g><g id="edge10"><path class="cls-8" d="M801.31,38.18c65.74.82,253,7.11,412.89,53.23" transform="translate(-35.55 -19.97)"/><polygon class="cls-9" points="1179.59 68.08 1187.45 74.02 1178 74.86 1179.59 68.08"/></g><g id="node32"><polygon class="cls-6" points="297.57 71.13 249.24 71.13 249.24 107.13 297.57 107.13 297.57 71.13"/><text class="cls-7" transform="translate(265.49 92.83) scale(0.9 1)">api</text></g><g id="edge11"><path class="cls-8" d="M752.72,37.93c-65.85.19-252.41,5-410.75,53.48" transform="translate(-35.55 -19.97)"/><polygon class="cls-9" points="307.18 74.83 297.71 74.16 305.49 68.09 307.18 74.83"/></g><g id="node33"><polygon class="cls-6" points="397.83 71.13 313.69 71.13 313.69 107.13 397.83 107.13 397.83 71.13"/><text class="cls-10" transform="translate(321.08 92.83) scale(0.9 1)">bl<tspan class="cls-19" x="11.34" y="0">o</tspan><tspan class="cls-20" x="18.94" y="0">c</tspan><tspan class="cls-21" x="25.37" y="0">k</tspan><tspan x="32.69" y="0">c</tspan><tspan class="cls-12" x="39.12" y="0">r</tspan><tspan class="cls-22" x="44.37" y="0">e</tspan><tspan x="51.23" y="0">ation</tspan></text></g><g id="edge12"><path class="cls-8" d="M752.88,40.48C698.67,46.11,563.48,61.85,442.62,91" transform="translate(-35.55 -19.97)"/><polygon class="cls-9" points="407.45 74.5 398.03 73.23 406.11 67.67 407.45 74.5"/></g><g id="node34"><polygon class="cls-6" points="462.29 71.13 413.95 71.13 413.95 107.13 462.29 107.13 462.29 71.13"/><text class="cls-7" transform="translate(427.27 92.83) scale(0.9 1)">co<tspan class="cls-18" x="14.86" y="0">r</tspan><tspan x="20.46" y="0">e</tspan></text></g><g id="edge13"><path class="cls-8" d="M752.66,40.41C705.93,45.34,600.9,58.92,506.8,91.24" transform="translate(-35.55 -19.97)"/><polygon class="cls-9" points="471.95 74.69 462.47 74.36 470.07 68.02 471.95 74.69"/></g><g id="node35"><polygon class="cls-6" points="526.74 71.13 478.4 71.13 478.4 107.13 526.74 107.13 526.74 71.13"/><text class="cls-7" transform="translate(494.16 92.83) scale(0.9 1)">eth</text></g><g id="edge14"><path class="cls-8" d="M752.77,42.38C715.14,49.41,640.67,65,571,91.23" transform="translate(-35.55 -19.97)"/><polygon class="cls-9" points="536.46 74.56 526.97 74.5 534.42 67.94 536.46 74.56"/></g><g id="node36"><polygon class="cls-6" points="591.19 71.13 542.85 71.13 542.85 107.13 591.19 107.13 591.19 71.13"/><text class="cls-7" transform="translate(557.69 92.83) scale(0.9 1)">p2p</text></g><g id="edge15"><path class="cls-8" d="M752.88,46.05C726,55.1,681.17,70.86,635.58,91" transform="translate(-35.55 -19.97)"/><polygon class="cls-9" points="600.99 74.33 591.52 74.78 598.66 67.83 600.99 74.33"/></g><g id="node37"><polygon class="cls-6" points="695.03 71.13 607.3 71.13 607.3 107.13 695.03 107.13 695.03 71.13"/><text class="cls-10" transform="translate(614.88 92.83) scale(0.9 1)"><tspan class="cls-17">p</tspan><tspan x="7.95" y="0">ermissioning</tspan></text></g><g id="edge16"><path class="cls-8" d="M755,55.22,716.46,85.07" transform="translate(-35.55 -19.97)"/><polygon class="cls-9" points="682.51 68.11 673.37 70.94 678.94 62.37 682.51 68.11"/></g><g id="node38"><polygon class="cls-6" points="772.01 71.13 711.14 71.13 711.14 107.13 772.01 107.13 772.01 71.13"/><text class="cls-10" transform="translate(718.57 92.83) scale(0.9 1)"><tspan class="cls-12">r</tspan><tspan x="5.25" y="0">etesteth</tspan></text></g><g id="edge17"><path class="cls-8" d="M777.12,55.4V81" transform="translate(-35.55 -19.97)"/><polygon class="cls-9" points="744.71 61.02 741.58 71.03 738.45 61.02 744.71 61.02"/></g><g id="node39"><polygon class="cls-6" points="821.25 143.13 772.91 143.13 772.91 179.13 821.25 179.13 821.25 143.13"/><text class="cls-7" transform="translate(790 164.83) scale(0.9 1)">rlp</text></g><g id="edge18"><path class="cls-8" d="M792.74,55.27c8,9.73,17.2,22.57,22.88,35.83,8.36,19.54,12.64,43.68,14.82,61.88" transform="translate(-35.55 -19.97)"/><polygon class="cls-9" points="798.01 132.62 795.94 142.97 791.78 133.44 798.01 132.62"/></g><g id="node40"><polygon class="cls-6" points="870.48 71.13 822.14 71.13 822.14 107.13 870.48 107.13 870.48 71.13"/><text class="cls-7" transform="translate(837.49 92.83) scale(0.9 1)">trie</text></g><g id="edge19"><path class="cls-8" d="M801.42,54.34l48.09,32.14" transform="translate(-35.55 -19.97)"/><polygon class="cls-9" points="815.72 63.59 821.79 71.73 812.5 69.61 815.72 63.59"/></g><g id="node41"><polygon class="cls-6" points="202.69 143.13 147.19 143.13 147.19 179.13 202.69 179.13 202.69 143.13"/><text class="cls-10" transform="translate(154.54 164.83) scale(0.9 1)">stratum</text></g><g id="edge20"><path class="cls-8" d="M752.93,38.76c-99.62,2.93-474.6,16.31-515.59,52.34-16.71,14.68-23.1,41.46-25.5,61.82" transform="translate(-35.55 -19.97)"/><polygon class="cls-9" points="179.4 133.32 175.37 142.91 173.17 132.59 179.4 133.32"/></g><g id="node42"><polygon class="cls-6" points="977.45 71.13 921.06 71.13 921.06 107.13 977.45 107.13 977.45 71.13"/><text class="cls-7" transform="translate(928.62 92.83) scale(0.9 1)">ethstats</text></g><g id="edge21"><path class="cls-8" d="M801.56,45.18c32.62,9.6,92.07,27.67,142.06,45.92,1.45.53,2.91,1.08,4.4,1.64" transform="translate(-35.55 -19.97)"/><polygon class="cls-9" points="913.59 69.5 921 76.09 911.52 76.09 913.59 69.5"/></g><g id="node43"><polygon class="cls-6" points="1042.35 71.13 994.01 71.13 994.01 107.13 1042.35 107.13 1042.35 71.13"/><text class="cls-23" transform="translate(1007.48 92.83) scale(0.9 1)">e<tspan class="cls-24" x="7.13" y="0">vm</tspan></text></g><g id="edge22"><path class="cls-8" d="M801.45,41.22C845.82,47.37,942.51,63,1020.61,91.1l.27.1" transform="translate(-35.55 -19.97)"/><polygon class="cls-9" points="986.55 68 993.85 74.75 984.37 74.56 986.55 68"/></g><g id="node44"><polygon class="cls-6" points="1106.81 71.13 1058.47 71.13 1058.47 107.13 1106.81 107.13 1106.81 71.13"/><text class="cls-7" transform="translate(1071.79 92.83) scale(0.9 1)">co<tspan class="cls-18" x="14.86" y="0">r</tspan><tspan x="20.46" y="0">e</tspan></text></g><g id="edge23"><path class="cls-8" d="M801.68,39.63c51.6,3.76,174.84,15.72,283.38,51.66" transform="translate(-35.55 -19.97)"/><polygon class="cls-9" points="1050.63 68.03 1058.3 74.28 1048.82 74.73 1050.63 68.03"/></g><g id="node45"><polygon class="cls-6" points="1171.26 71.13 1122.92 71.13 1122.92 107.13 1171.26 107.13 1171.26 71.13"/><text class="cls-7" transform="translate(1138.57 92.83) scale(0.9 1)">nat</text></g><g id="edge24"><path class="cls-8" d="M801.45,38.62c59,1.87,214.32,10.46,348.08,52.73" transform="translate(-35.55 -19.97)"/><polygon class="cls-9" points="1115.04 68.08 1122.77 74.22 1113.3 74.8 1115.04 68.08"/></g><g id="node46"><polygon class="cls-6" points="556.86 233.48 501.36 233.48 501.36 269.48 556.86 269.48 556.86 233.48"/><text class="cls-25" transform="translate(508.94 255.18) scale(0.9 1)">r<tspan class="cls-19" x="5.25" y="0">o</tspan><tspan class="cls-20" x="12.85" y="0">cksdb</tspan></text></g><g id="edge26"><path class="cls-8" d="M752.85,38.56C627.64,49.88,512.67,155,486.78,181.45c-9.85,11.62-7,22.05,0,36,9,17.82,25.71,30.36,41.38,38.74" transform="translate(-35.55 -19.97)"/><polygon class="cls-9" points="494.25 233.21 501.15 240.46 491.7 239.6 494.25 233.21"/></g><g id="node47"><polygon class="cls-6" points="270.72 143.13 218.8 143.13 218.8 179.13 270.72 179.13 270.72 143.13"/><text class="cls-10" transform="translate(225.97 164.83) scale(0.9 1)">kvsto<tspan class="cls-12" x="32.93" y="0">r</tspan><tspan x="38.18" y="0">e</tspan></text></g><g id="edge27"><path class="cls-8" d="M752.72,38.43c-99.5,1.63-471,10.5-505.53,52.67-14.77,18-1.89,44.49,11.88,63.86" transform="translate(-35.55 -19.97)"/><polygon class="cls-9" points="226.05 132.91 229.42 142.81 221.25 137.41 226.05 132.91"/></g><g id="node48"><polygon class="cls-26" points="1470.24 287.13 1366.4 287.13 1366.4 323.13 1470.24 323.13 1470.24 287.13"/><text class="cls-10" transform="translate(1373.74 308.83) scale(0.9 1)">jackson-databind</text></g><g id="edge28"><path class="cls-8" d="M801.41,38.74C929.48,42.22,1521.66,60,1547.86,91.1c52.45,62.31-27.38,162.89-70,208.78" transform="translate(-35.55 -19.97)"/><polygon class="cls-9" points="1444.2 282.7 1435.55 287.05 1439.89 277.63 1444.2 282.7"/></g><g id="node52"><polygon class="cls-26" points="1417 215.13 1281.81 215.13 1281.81 251.13 1417 251.13 1417 215.13"/><text class="cls-10" transform="translate(1288.98 236.83) scale(0.9 1)">jackson-dataty<tspan class="cls-17" x="91.93" y="0">p</tspan><tspan x="99.88" y="0">e-jdk8</tspan></text></g><g id="edge29"><path class="cls-8" d="M801.54,38.32c102.29,1.21,492.58,8.7,528.8,52.78,29.23,35.58-30,64.75-10.75,108,5.38,12.07,14.52,22.13,24.18,30.12" transform="translate(-35.55 -19.97)"/><polygon class="cls-9" points="1310.06 206.41 1315.67 214.96 1306.51 212.18 1310.06 206.41"/></g><g id="node53"><polygon class="cls-27" points="1439.36 71.13 1359.69 71.13 1359.69 107.13 1439.36 107.13 1439.36 71.13"/><text class="cls-10" transform="translate(1366.92 92.83) scale(0.9 1)">graphql-java</text></g><g id="edge31"><path class="cls-8" d="M801.56,38.27c82.46,1,357.76,7.67,580.7,52.83,1.31.27,2.66.56,4,.86" transform="translate(-35.55 -19.97)"/><polygon class="cls-9" points="1351.61 68.63 1359.64 74.27 1350.22 75.45 1351.61 68.63"/></g><g id="node56"><polygon class="cls-28" points="1507.22 71.13 1455.92 71.13 1455.92 107.13 1507.22 107.13 1507.22 71.13"/><text class="cls-7" transform="translate(1463.43 92.83) scale(0.9 1)">pic<tspan class="cls-29" x="19.38" y="0">o</tspan><tspan class="cls-30" x="27.49" y="0">cli</tspan></text></g><g id="edge32"><path class="cls-8" d="M801.55,38.61c108.58,2.48,547.88,14.7,681,52.49l.27.08" transform="translate(-35.55 -19.97)"/><polygon class="cls-9" points="1448.32 67.92 1455.86 74.34 1446.37 74.56 1448.32 67.92"/></g><g id="node57"><polygon class="cls-1" points="366.2 717.34 299.96 717.34 299.96 753.34 366.2 753.34 366.2 717.34"/><text class="cls-10" transform="translate(307.28 739.04) scale(0.9 1)"><tspan class="cls-18">v</tspan><tspan class="cls-20" x="6.77" y="0">ertx-co</tspan><tspan class="cls-12" x="49.72" y="0">r</tspan><tspan x="54.98" y="0">e</tspan></text></g><g id="edge33"><path class="cls-8" d="M801.53,38.1C1061.35,100.7,140.07,446,280,593.31c40.36,9.08,150.16,34.25,173.66,72,8.19,13.14,7.26,22.2,0,36-9.48,18-26.65,30.38-43.11,38.58" transform="translate(-35.55 -19.97)"/><polygon class="cls-9" points="375.98 723.26 366.51 723.85 373.59 716.79 375.98 723.26"/></g><g id="node70"><polygon class="cls-1" points="235.95 573.34 170.6 573.34 170.6 609.34 235.95 609.34 235.95 573.34"/><text class="cls-31" transform="translate(177.87 595.04) scale(0.9 1)">v<tspan class="cls-20" x="6.77" y="0">ertx-</tspan><tspan x="35.79" y="0">w</tspan><tspan class="cls-20" x="46.47" y="0">eb</tspan></text></g><g id="edge34"><path class="cls-8" d="M801.3,39.41c102.3,5.58,820.1,6.64,815,52.6C1632.9,131.75,86.65,564.14,197,606.74" transform="translate(-35.55 -19.97)"/><polygon class="cls-9" points="161.75 583.29 170.44 587.53 161.28 590.27 161.75 583.29"/></g><g id="node74"><polygon class="cls-16" points="1265.7 215.13 1200.35 215.13 1200.35 251.13 1265.7 251.13 1265.7 215.13"/><text class="cls-10" transform="translate(1207.64 236.83) scale(0.9 1)">log4j-co<tspan class="cls-12" x="48.73" y="0">r</tspan><tspan x="53.98" y="0">e</tspan></text></g><g id="edge36"><path class="cls-8" d="M801.51,38.4c100.34,1.49,477.67,9.94,512.71,52.7,9.67,11.8,4.53,20.82,0,36-5.65,19-16.32,18-24.17,36-8.6,19.72-14.15,43.85-17.45,62" transform="translate(-35.55 -19.97)"/><polygon class="cls-9" points="1240.11 205.88 1235.37 215.04 1233.96 204.56 1240.11 205.88"/></g><g id="node75"><polygon class="cls-32" points="1572.29 287.13 1486.36 287.13 1486.36 323.13 1572.29 323.13 1572.29 287.13"/><text class="cls-10" transform="translate(1493.54 308.83) scale(0.9 1)">tu<tspan class="cls-12" x="13.15" y="0">w</tspan><tspan class="cls-33" x="23.83" y="0">eni-config</tspan></text></g><g id="edge38"><path class="cls-8" d="M801.59,38.71c130.41,3.35,738.85,20.67,766,52.39,47.74,55.86,22.78,158,7,206.31" transform="translate(-35.55 -19.97)"/><polygon class="cls-9" points="1541.91 278.77 1535.81 286.89 1536.05 276.31 1541.91 278.77"/></g><g id="node76"><polygon class="cls-32" points="1476.92 526.16 1399.04 526.16 1399.04 562.16 1476.92 562.16 1476.92 526.16"/><text class="cls-10" transform="translate(1406.21 547.86) scale(0.9 1)">tu<tspan class="cls-12" x="13.15" y="0">w</tspan><tspan class="cls-33" x="23.83" y="0">eni-toml</tspan></text></g><g id="edge39"><path class="cls-8" d="M801.7,38.14c128.43.42,719.28,5,787.34,53,34.19,24.1,43.86,43.85,43.86,89,0,0,1.66,0,0,74-4.34,193.88-159.37,253.39-159.37,282" transform="translate(-35.55 -19.97)"/><polygon class="cls-9" points="1441.12 516.12 1437.98 526.12 1434.85 516.12 1441.12 516.12"/></g><g id="node78"><polygon class="cls-34" points="517.31 573.34 382.76 573.34 382.76 609.34 517.31 609.34 517.31 573.34"/><text class="cls-10" transform="translate(390.14 595.04) scale(0.9 1)">spring-s<tspan class="cls-35" x="49.49" y="0">e</tspan><tspan x="56.38" y="0">curity-c</tspan><tspan class="cls-36" x="104.19" y="0">r</tspan><tspan x="109.66" y="0">ypto</tspan></text></g><g id="edge41"><path class="cls-8" d="M801.38,38.56c389.77,159.47-464.87,499.65-396,554.75l3.49.47" transform="translate(-35.55 -19.97)"/><polygon class="cls-9" points="373.91 570.38 382.34 575.23 373.04 577.31 373.91 570.38"/></g><g id="node79"><polygon class="cls-37" points="607.3 573.34 529.12 573.34 529.12 609.34 607.3 609.34 607.3 573.34"/><text class="cls-10" transform="translate(536.38 595.04) scale(0.9 1)">snap<tspan class="cls-38" x="29.08" y="0">p</tspan><tspan x="36.82" y="0">y-java</tspan></text></g><g id="edge42"><path class="cls-8" d="M801.44,38c460.76,219.43-315,548.42-246,555.47" transform="translate(-35.55 -19.97)"/><polygon class="cls-9" points="520.67 570.07 528.96 575.22 519.6 576.97 520.67 570.07"/></g><g id="node80"><polygon class="cls-39" points="784.85 573.34 622.22 573.34 622.22 609.34 784.85 609.34 784.85 573.34"/><text class="cls-10" transform="translate(629.79 595.04) scale(0.9 1)">quo<tspan class="cls-40" x="23.38" y="0">r</tspan><tspan x="28.73" y="0">um-mainnet-launcher</tspan></text></g><g id="edge43"><path class="cls-8" d="M801.34,38.41c166.74,2.25-285,459.62-152.81,554.88" transform="translate(-35.55 -19.97)"/><polygon class="cls-9" points="613.43 569.85 622.01 574.36 612.79 576.82 613.43 569.85"/></g><g id="edge44"><path class="cls-8" d="M629.56,276.55C458.67,388.75,143.69,148.9,183.17,230.76" transform="translate(-35.55 -19.97)"/><polygon class="cls-9" points="149.01 207.65 155.73 215.13 146.3 213.96 149.01 207.65"/></g><g id="edge45"><path class="cls-8" d="M249.51,271.22,297,301.89" transform="translate(-35.55 -19.97)"/><polygon class="cls-9" points="263 278.89 269.19 286.94 259.87 284.95 263 278.89"/></g><g id="edge46"><path class="cls-8" d="M227.77,271.23l27.14,97.86" transform="translate(-35.55 -19.97)"/><polygon class="cls-9" points="222.44 348.35 222.09 358.94 216.45 350.42 222.44 348.35"/></g><g id="edge47"><path class="cls-8" d="M314.3,343.4l-28.24,28.67" transform="translate(-35.55 -19.97)"/><polygon class="cls-9" points="252.43 354.88 243.69 359.02 248.22 349.7 252.43 354.88"/></g><g id="edge48"><path class="cls-8" d="M332.19,343.23c1.23,24.2,3.46,68.66,4.92,97.48" transform="translate(-35.55 -19.97)"/><polygon class="cls-9" points="304.7 420.75 302.08 430.94 298.44 421.14 304.7 420.75"/></g><g id="node18"><polygon class="cls-41" points="1003.86 431.13 900.02 431.13 900.02 467.13 1003.86 467.13 1003.86 431.13"/><text class="cls-10" transform="translate(907.49 452.82) scale(0.9 1)"><tspan class="cls-21">k</tspan><tspan x="7.32" y="0">otlin-stdlib-jdk8</tspan></text></g><g id="edge49"><path class="cls-8" d="M371.63,334.82c145-17.85,461,43.66,555,120.1" transform="translate(-35.55 -19.97)"/><polygon class="cls-9" points="891.69 431.52 899.88 436.86 890.5 438.39 891.69 431.52"/></g><g id="edge50"><path class="cls-8" d="M281.21,415.4,313,444.63" transform="translate(-35.55 -19.97)"/><polygon class="cls-9" points="279.44 421.96 284.35 431.02 275.46 427.37 279.44 421.96"/></g><g id="node16"><polygon class="cls-42" points="262.22 431.13 191.5 431.13 191.5 467.13 262.22 467.13 262.22 431.13"/><text class="cls-10" transform="translate(198.83 452.82) scale(0.9 1)">fram<tspan class="cls-38" x="29.35" y="0">e</tspan><tspan class="cls-12" x="36.04" y="0">w</tspan><tspan class="cls-43" x="46.71" y="0">ork</tspan></text></g><g id="edge51"><path class="cls-8" d="M262.4,415.4V441" transform="translate(-35.55 -19.97)"/><polygon class="cls-9" points="229.99 421.02 226.86 431.02 223.72 421.02 229.99 421.02"/></g><g id="node17"><polygon class="cls-42" points="179.4 431.13 59.91 431.13 59.91 467.13 179.4 467.13 179.4 431.13"/><text class="cls-10" transform="translate(67.38 452.82) scale(0.9 1)">fram<tspan class="cls-38" x="29.35" y="0">e</tspan><tspan class="cls-18" x="36.04" y="0">w</tspan><tspan x="46.71" y="0">ork-internal</tspan></text></g><g id="edge52"><path class="cls-8" d="M235.69,415.22l-47.85,30.67" transform="translate(-35.55 -19.97)"/><polygon class="cls-9" points="153.78 429 144.47 430.94 150.67 422.93 153.78 429"/></g><g id="edge53"><path class="cls-8" d="M303.72,402.09l622.45,60.09" transform="translate(-35.55 -19.97)"/><polygon class="cls-9" points="891.14 438.75 899.79 443.1 890.61 445.71 891.14 438.75"/></g><g id="node10"><polygon class="cls-13" points="598.35 503.13 517.79 503.13 517.79 539.13 598.35 539.13 598.35 503.13"/><text class="cls-10" transform="translate(525.27 524.82) scale(0.9 1)">failu<tspan class="cls-18" x="27.65" y="0">r</tspan><tspan class="cls-44" x="32.9" y="0">e</tspan><tspan x="39.76" y="0">access</tspan></text></g><g id="edge54"><path class="cls-8" d="M362.84,475.61c37.23,8.58,110.69,26.12,181.43,47.29" transform="translate(-35.55 -19.97)"/><polygon class="cls-9" points="509.96 499.68 517.79 505.67 508.32 506.44 509.96 499.68"/></g><g id="node11"><polygon class="cls-13" points="118.09 503.13 22.31 503.13 22.31 539.13 118.09 539.13 118.09 503.13"/><text class="cls-10" transform="translate(29.74 524.82) scale(0.9 1)">listenablefutu<tspan class="cls-12" x="84.83" y="0">r</tspan><tspan x="90.08" y="0">e</tspan></text></g><g id="edge55"><path class="cls-8" d="M314.13,483.38c-2.92,1.36-5.89,2.63-8.76,3.72-59.15,22.34-78.25,18.87-142.7,35.95" transform="translate(-35.55 -19.97)"/><polygon class="cls-9" points="127.6 506.55 118.17 505.5 126.12 499.75 127.6 506.55"/></g><g id="node12"><polygon class="cls-45" points="1280.47 503.13 1232.13 503.13 1232.13 539.13 1280.47 539.13 1280.47 503.13"/><text class="cls-7" transform="translate(1241.15 524.82) scale(0.9 1)">jsr305</text></g><g id="edge56"><path class="cls-8" d="M362.7,471.71C456,478,801.54,501.27,1086,523.1c60.87,4.67,131.83,10.65,172.54,14.13" transform="translate(-35.55 -19.97)"/><polygon class="cls-9" points="1223.21 513.76 1231.9 518.01 1222.74 520.75 1223.21 513.76"/></g><g id="node13"><polygon class="cls-13" points="219.37 503.13 134.66 503.13 134.66 539.13 219.37 539.13 219.37 503.13"/><text class="cls-10" transform="translate(141.82 524.82) scale(0.9 1)">ch<tspan class="cls-17" x="14.66" y="0">e</tspan><tspan x="21.56" y="0">c</tspan><tspan class="cls-21" x="27.99" y="0">k</tspan><tspan class="cls-20" x="35.3" y="0">er-qual</tspan></text></g><g id="edge57"><path class="cls-8" d="M314.12,483.43l-64.43,35.23" transform="translate(-35.55 -19.97)"/><polygon class="cls-9" points="215.44 501.87 206.03 503.13 212.7 495.58 215.44 501.87"/></g><g id="node14"><polygon class="cls-13" points="381.31 503.13 231.33 503.13 231.33 539.13 381.31 539.13 381.31 503.13"/><text class="cls-10" transform="translate(238.64 524.82) scale(0.9 1)">er<tspan class="cls-12" x="12.11" y="0">r</tspan><tspan class="cls-43" x="17.37" y="0">or_p</tspan><tspan class="cls-12" x="45.32" y="0">r</tspan><tspan x="50.57" y="0">one_annotations</tspan></text></g><g id="edge58"><path class="cls-8" d="M338.49,487.4V513" transform="translate(-35.55 -19.97)"/><polygon class="cls-9" points="306.08 493.02 302.95 503.02 299.81 493.02 306.08 493.02"/></g><g id="node15"><polygon class="cls-13" points="501.67 503.13 390.67 503.13 390.67 539.13 501.67 539.13 501.67 503.13"/><text class="cls-10" transform="translate(398.14 524.82) scale(0.9 1)">j2objc-annotations</text></g><g id="edge59"><path class="cls-8" d="M362.79,482l75.51,36.91" transform="translate(-35.55 -19.97)"/><polygon class="cls-9" points="404.32 495.86 411.27 503.06 401.81 502.26 404.32 495.86"/></g><g id="node19"><polygon class="cls-41" points="1048.82 503.13 938.51 503.13 938.51 539.13 1048.82 539.13 1048.82 503.13"/><text class="cls-10" transform="translate(945.98 524.82) scale(0.9 1)"><tspan class="cls-21">k</tspan><tspan x="7.32" y="0">otlin-stdlib-jdk7</tspan></text></g><g id="edge60"><path class="cls-8" d="M997,487.4c4.48,8.14,9.9,18,14.85,27" transform="translate(-35.55 -19.97)"/><polygon class="cls-9" points="979.01 492.67 981.03 503.02 973.68 496.33 979.01 492.67"/></g><g id="node20"><polygon class="cls-41" points="990.43 575.13 913.45 575.13 913.45 611.13 990.43 611.13 990.43 575.13"/><text class="cls-10" transform="translate(920.66 596.82) scale(0.9 1)"><tspan class="cls-21">k</tspan><tspan x="7.32" y="0">otlin-stdlib</tspan></text></g><g id="edge61"><path class="cls-8" d="M978.58,487.12c-4.76,10.09-10.13,23.34-12.58,36-3,15.64-3,20.36,0,36a142,142,0,0,0,8.5,26.8" transform="translate(-35.55 -19.97)"/><polygon class="cls-9" points="941.85 564.6 943.03 575.11 936.24 567.71 941.85 564.6"/></g><g id="edge62"><path class="cls-8" d="M1016.46,559.4l-14.84,27" transform="translate(-35.55 -19.97)"/><polygon class="cls-9" points="968.7 568.34 961.35 575.02 963.36 564.66 968.7 568.34"/></g><g id="node21"><polygon class="cls-41" points="949.26 647.13 818.12 647.13 818.12 683.13 949.26 683.13 949.26 647.13"/><text class="cls-10" transform="translate(825.43 668.82) scale(0.9 1)"><tspan class="cls-21">k</tspan><tspan x="7.32" y="0">otlin-stdlib-common</tspan></text></g><g id="edge63"><path class="cls-8" d="M970,631.4l-29.25,29" transform="translate(-35.55 -19.97)"/><polygon class="cls-9" points="907.28 643 898.5 647.02 903.13 637.76 907.28 643"/></g><g id="node22"><polygon class="cls-41" points="1095.78 647.13 960.89 647.13 960.89 683.13 1095.78 683.13 1095.78 647.13"/><text class="cls-10" transform="translate(968.14 668.82) scale(0.9 1)">jetbrains-annotations</text></g><g id="edge64"><path class="cls-8" d="M1005.19,631.4c8.93,8.73,19.9,19.46,29.62,29" transform="translate(-35.55 -19.97)"/><polygon class="cls-9" points="1001.38 637.8 1006.05 647.02 997.25 643.07 1001.38 637.8"/></g><g id="edge65"><path class="cls-8" d="M904.14,189.68a391.07,391.07,0,0,1-39.29,9.42c-223.76,38.9-495.51,49.43-599,52.12" transform="translate(-35.55 -19.97)"/><polygon class="cls-9" points="230.12 234.75 221.09 231.47 229.97 227.75 230.12 234.75"/></g><g id="node27"><polygon class="cls-6" points="826.62 215.13 778.28 215.13 778.28 251.13 826.62 251.13 826.62 215.13"/><text class="cls-7" transform="translate(793.75 236.83) scale(0.9 1)">util</text></g><g id="edge66"><path class="cls-8" d="M906.29,199.22l-38.55,29.85" transform="translate(-35.55 -19.97)"/><polygon class="cls-9" points="833.8 212.12 824.65 214.94 830.23 206.37 833.8 212.12"/></g><g id="node29"><polygon class="cls-46" points="1055.35 337.16 960.46 337.16 960.46 373.16 1055.35 373.16 1055.35 337.16"/><text class="cls-10" transform="translate(968.01 358.86) scale(0.9 1)"><tspan class="cls-22">b</tspan><tspan class="cls-20" x="7.63" y="0">cp</tspan><tspan class="cls-18" x="21.91" y="0">r</tspan><tspan class="cls-38" x="27.16" y="0">o</tspan><tspan x="34.56" y="0">v-jdk15on</tspan></text></g><g id="edge67"><path class="cls-8" d="M928.41,199.4c0,7.72,130.69,39.53,115,147.63" transform="translate(-35.55 -19.97)"/><polygon class="cls-9" points="1011.03 327.06 1007.9 337.06 1004.77 327.06 1011.03 327.06"/></g><g id="edge68"><path class="cls-8" d="M862.5,267.07a109.73,109.73,0,0,0,10.41,4c93.37,30.29,207.59,44.26,266.3,49.83" transform="translate(-35.55 -19.97)"/><polygon class="cls-9" points="1103.93 297.48 1112.6 301.79 1103.41 304.44 1103.93 297.48"/></g><g id="edge69"><path class="cls-8" d="M479.35,279.26c8.32-6,38.12,38.19,4.45,38.19,0,0-425.94-18.58-303.53-74" transform="translate(-35.55 -19.97)"/><polygon class="cls-9" points="145.38 220.09 153.62 225.31 144.26 226.97 145.38 220.09"/></g><g id="edge70"><path class="cls-8" d="M1223.34,123.87c-2.83,1.2-5.69,2.31-8.48,3.23-47,15.53-187.85,38-252.88,48" transform="translate(-35.55 -19.97)"/><polygon class="cls-9" points="926.71 158.59 917.41 156.47 925.86 151.66 926.71 158.59"/></g><g id="edge71"><path class="cls-8" d="M1223.24,123.52c-2.81,1.27-5.64,2.49-8.38,3.58-148.72,59.39-193.23,48.61-341.95,108l-2.31.94" transform="translate(-35.55 -19.97)"/><polygon class="cls-9" points="836.17 219.34 826.7 219.75 833.87 212.82 836.17 219.34"/></g><g id="edge72"><path class="cls-8" d="M808.35,184.89c-92.49,10.62-407.8-96.82-542.48,62.29" transform="translate(-35.55 -19.97)"/><polygon class="cls-9" points="230.37 230.72 221.14 228.25 229.72 223.75 230.37 230.72"/></g><g id="edge73"><path class="cls-8" d="M834,199.4c.59,7.72,1.31,17,2,25.59" transform="translate(-35.55 -19.97)"/><polygon class="cls-9" points="803.5 204.75 801.13 215.03 797.25 205.35 803.5 204.75"/></g><g id="edge74"><path class="cls-8" d="M213.58,199.4,218.16,225" transform="translate(-35.55 -19.97)"/><polygon class="cls-9" points="185.72 204.53 184.41 215.03 179.58 205.91 185.72 204.53"/></g><g id="edge75"><path class="cls-8" d="M238.34,196.45c2.65,1,5.33,1.93,7.95,2.65,107.22,29.43,449.52,46.73,558.23,51.58" transform="translate(-35.55 -19.97)"/><polygon class="cls-9" points="769.35 227.22 778.16 231.12 769.1 234.22 769.35 227.22"/></g><g id="edge76"><path class="cls-8" d="M592.54,281.1c82,147.64-662.79,60.94-412-42.17" transform="translate(-35.55 -19.97)"/><polygon class="cls-9" points="145.99 215.63 153.78 221.66 144.31 222.37 145.99 215.63"/></g><g id="edge77"><path class="cls-8" d="M266.15,199.4l-23,28.12" transform="translate(-35.55 -19.97)"/><polygon class="cls-9" points="209.82 210 201.47 215.03 205.19 205.28 209.82 210"/></g><g id="edge78"><path class="cls-8" d="M306.45,185.38c98.8,26.52,403,63.2,498.16,62.53" transform="translate(-35.55 -19.97)"/><polygon class="cls-9" points="769.71 224.5 778.26 229.09 769.01 231.46 769.71 224.5"/></g><g id="node49"><polygon class="cls-26" points="1507.84 359.13 1387.89 359.13 1387.89 395.13 1507.84 395.13 1507.84 359.13"/><text class="cls-10" transform="translate(1395.45 380.82) scale(0.9 1)">jackson-annotations</text></g><g id="edge79"><path class="cls-8" d="M1461.17,343.4l11.16,26.44" transform="translate(-35.55 -19.97)"/><polygon class="cls-9" points="1439.66 348.49 1440.65 359.02 1434 351.46 1439.66 348.49"/></g><g id="node50"><polygon class="cls-26" points="1308.22 431.13 1227.65 431.13 1227.65 467.13 1308.22 467.13 1308.22 431.13"/><text class="cls-10" transform="translate(1234.93 452.82) scale(0.9 1)">jackson-<tspan class="cls-22" x="51.77" y="0">b</tspan><tspan class="cls-20" x="59.41" y="0">om</tspan></text></g><g id="edge81"><path class="cls-8" d="M1506,340.69c17.52,8,35.2,20.13,45.44,38.41,7.6,13.56,15.42,36.76,6.29,49.09-12.56,17-136.24,23.18-204.9,33.15" transform="translate(-35.55 -19.97)"/><polygon class="cls-9" points="1317.63 444.85 1308.35 442.64 1316.83 437.89 1317.63 444.85"/></g><g id="node51"><polygon class="cls-26" points="1303.3 359.13 1223.63 359.13 1223.63 395.13 1303.3 395.13 1303.3 359.13"/><text class="cls-10" transform="translate(1230.98 380.82) scale(0.9 1)">jackson-co<tspan class="cls-12" x="65.71" y="0">r</tspan><tspan x="70.96" y="0">e</tspan></text></g><g id="edge80"><path class="cls-8" d="M1416,343.22l-70.79,32" transform="translate(-35.55 -19.97)"/><polygon class="cls-9" points="1310.7 358.56 1301.22 359.06 1308.34 352.06 1310.7 358.56"/></g><g id="edge82"><path class="cls-8" d="M1439.63,415.13l-87,33.84" transform="translate(-35.55 -19.97)"/><polygon class="cls-9" points="1318 432.36 1308.52 432.33 1315.94 425.75 1318 432.36"/></g><g id="edge83"><path class="cls-8" d="M1300.12,415.4c.49,7.72,1.08,17,1.63,25.59" transform="translate(-35.55 -19.97)"/><polygon class="cls-9" points="1269.33 420.8 1266.84 431.02 1263.08 421.3 1269.33 420.8"/></g><g id="edge86"><path class="cls-8" d="M1400,271.4c8.93,8.73,19.9,19.46,29.62,29" transform="translate(-35.55 -19.97)"/><polygon class="cls-9" points="1396.15 277.81 1400.82 287.02 1392.02 283.06 1396.15 277.81"/></g><g id="edge85"><path class="cls-8" d="M1351.43,271.24c-32.28,20.16-81,57.38-100.76,107.86-5.75,14.66-5.84,21.39,0,36,4.54,11.4,12.49,21.37,20.86,29.49" transform="translate(-35.55 -19.97)"/><polygon class="cls-9" points="1238.06 421.99 1243.05 431 1234.12 427.44 1238.06 421.99"/></g><g id="edge84"><path class="cls-8" d="M1368.35,271.11a394.5,394.5,0,0,0-25.48,36c-12.23,20-24,44.24-32.24,62.34" transform="translate(-35.55 -19.97)"/><polygon class="cls-9" points="1277.7 351.46 1270.88 358.82 1272.1 348.32 1277.7 351.46"/></g><g id="node54"><polygon class="cls-47" points="1507.22 143.13 1408.03 143.13 1408.03 179.13 1507.22 179.13 1507.22 143.13"/><text class="cls-10" transform="translate(1415.63 164.83) scale(0.9 1)">java-datal<tspan class="cls-22" x="61.6" y="0">o</tspan><tspan x="69.17" y="0">ader</tspan></text></g><g id="edge87"><path class="cls-8" d="M1449,127.4c6.83,8.48,15.17,18.84,22.66,28.12" transform="translate(-35.55 -19.97)"/><polygon class="cls-9" points="1438.48 133.25 1442.14 143.03 1433.82 137.93 1438.48 133.25"/></g><g id="node55"><polygon class="cls-48" points="1391.92 143.13 1292.55 143.13 1292.55 179.13 1391.92 179.13 1391.92 143.13"/><text class="cls-10" transform="translate(1299.75 164.83) scale(0.9 1)"><tspan class="cls-12">r</tspan><tspan class="cls-22" x="5.25" y="0">e</tspan><tspan x="12.11" y="0">acti</tspan><tspan class="cls-12" x="34.75" y="0">v</tspan><tspan x="41.53" y="0">e-st</tspan><tspan class="cls-12" x="64.34" y="0">r</tspan><tspan class="cls-22" x="69.59" y="0">e</tspan><tspan x="76.46" y="0">ams</tspan></text></g><g id="edge88"><path class="cls-8" d="M1420.91,127.4l-23,28.12" transform="translate(-35.55 -19.97)"/><polygon class="cls-9" points="1364.59 138 1356.23 143.03 1359.96 133.28 1364.59 138"/></g><g id="edge90"><path class="cls-8" d="M401.87,758.86C703.7,1598.56,2027.09,229.22,1514.94,307" transform="translate(-35.55 -19.97)"/><polygon class="cls-9" points="1479.92 290.5 1470.56 288.77 1478.85 283.61 1479.92 290.5"/></g><g id="edge89"><path class="cls-8" d="M401.87,758.86C1528.16,968.35,1367.05,303.63,1402,325.1c-19.07-3.62-56.58,20-84.15,46.31" transform="translate(-35.55 -19.97)"/><polygon class="cls-9" points="1284.38 354.02 1276.06 359.1 1279.73 349.33 1284.38 354.02"/></g><g id="node58"><polygon class="cls-49" points="685.35 752.28 567.19 752.28 567.19 788.28 685.35 788.28 685.35 752.28"/><text class="cls-10" transform="translate(574.04 773.98) scale(0.9 1)">netty-handler-p<tspan class="cls-12" x="96.66" y="0">r</tspan><tspan class="cls-38" x="101.92" y="0">o</tspan><tspan class="cls-36" x="109.31" y="0">x</tspan><tspan class="cls-50" x="116.28" y="0">y</tspan></text></g><g id="edge91"><path class="cls-8" d="M401.86,764.07c47.68,11.13,129.85-5.19,191.84,9.28" transform="translate(-35.55 -19.97)"/><polygon class="cls-9" points="558.97 749.99 567.09 755.47 557.69 756.85 558.97 749.99"/></g><g id="node59"><polygon class="cls-49" points="414.54 861.34 314.28 861.34 314.28 897.34 414.54 897.34 414.54 861.34"/><text class="cls-10" transform="translate(320.89 883.04) scale(0.9 1)">netty-c<tspan class="cls-22" x="42.9" y="0">o</tspan><tspan x="50.47" y="0">d</tspan><tspan class="cls-17" x="58.42" y="0">e</tspan><tspan x="65.31" y="0">c-http</tspan></text></g><g id="edge93"><path class="cls-8" d="M398.49,773.45c11.95,8.77,24.42,20.8,31,35.86,9.06,20.74-.63,45.43-11.28,63.54" transform="translate(-35.55 -19.97)"/><polygon class="cls-9" points="385.16 855.02 377.45 861.19 380.03 851 385.16 855.02"/></g><g id="node60"><polygon class="cls-49" points="331.74 933.34 246.69 933.34 246.69 969.34 331.74 969.34 331.74 933.34"/><text class="cls-10" transform="translate(253.7 955.04) scale(0.9 1)">netty-handler</text></g><g id="edge95"><path class="cls-8" d="M338.76,773.45c-11.95,8.77-24.42,20.8-31,35.86-19,43.55-4.77,101.35,6.61,134.53" transform="translate(-35.55 -19.97)"/><polygon class="cls-9" points="281.79 922.75 282.21 933.34 275.98 925.36 281.79 922.75"/></g><g id="node62"><polygon class="cls-49" points="508.42 1058.74 415.32 1058.74 415.32 1094.74 508.42 1094.74 508.42 1058.74"/><text class="cls-10" transform="translate(422.12 1080.44) scale(0.9 1)">netty-trans<tspan class="cls-17" x="68.12" y="0">p</tspan><tspan class="cls-43" x="76.07" y="0">ort</tspan></text></g><g id="edge96"><path class="cls-8" d="M335.2,764.65c-52,15.45-146.5,54.4-146.5,133.66v74c0,67.12,53.62,42.34,108.2,70.4,46.38,23.84,103.36,37.57,144.71,45.06" transform="translate(-35.55 -19.97)"/><polygon class="cls-9" points="406.81 1064.38 415.17 1069.39 405.84 1071.3 406.81 1064.38"/></g><g id="node63"><polygon class="cls-49" points="721.64 1089.93 645.55 1089.93 645.55 1125.93 721.64 1125.93 721.64 1089.93"/><text class="cls-10" transform="translate(652.35 1111.63) scale(0.9 1)">netty-buffer</text></g><g id="edge97"><path class="cls-8" d="M401.87,758.86c64.83,5.47,205.72-16.71,327.09,13.39,92.12,22.85,127.89,55.16,209,109.06,35.55,23.63,50.92,29.49,67.14,72,32.58,85.41-20.8,138-94.89,180-39.41,22.37-108.46-23.1-143.87-15.16" transform="translate(-35.55 -19.97)"/><polygon class="cls-9" points="731.25 1101.64 721.86 1100.12 730.05 1094.77 731.25 1101.64"/></g><g id="node64"><polygon class="cls-49" points="569.49 1186.16 479.08 1186.16 479.08 1222.16 569.49 1222.16 569.49 1186.16"/><text class="cls-10" transform="translate(486.12 1207.86) scale(0.9 1)">netty-common</text></g><g id="edge99"><path class="cls-8" d="M335.45,756.45c-74.54,2.47-248.8,21.14-248.8,141.86v218c0,54.39,31.73,64.48,75.19,89,57.57,32.47,250.48,10.7,343.56,15.5" transform="translate(-35.55 -19.97)"/><polygon class="cls-9" points="470.03 1197.35 478.83 1201.29 469.74 1204.34 470.03 1197.35"/></g><g id="node65"><polygon class="cls-49" points="432.78 1130.74 347.74 1130.74 347.74 1166.74 432.78 1166.74 432.78 1130.74"/><text class="cls-10" transform="translate(354.42 1152.44) scale(0.9 1)">netty-<tspan class="cls-12" x="36.47" y="0">r</tspan><tspan x="41.72" y="0">esol</tspan><tspan class="cls-12" x="65.73" y="0">v</tspan><tspan x="72.5" y="0">er</tspan></text></g><g id="edge98"><path class="cls-8" d="M335.26,759c-35.91,4.58-93.14,17-132.24,50.31-32.92,28.08-48.34,42.73-48.34,89v74c0,119.17,140.55,159.16,219.47,182.56" transform="translate(-35.55 -19.97)"/><text x="-35.55" y="-19.97"/></g><g id="node67"><polygon class="cls-49" points="385.89 789.34 280.26 789.34 280.26 825.34 385.89 825.34 385.89 789.34"/><text class="cls-10" transform="translate(286.78 811.04) scale(0.9 1)">netty-c<tspan class="cls-22" x="42.9" y="0">o</tspan><tspan x="50.47" y="0">d</tspan><tspan class="cls-17" x="58.42" y="0">e</tspan><tspan x="65.31" y="0">c-http2</tspan></text></g><g id="edge92"><path class="cls-8" d="M368.62,773.61V799.2" transform="translate(-35.55 -19.97)"/><polygon class="cls-9" points="336.21 779.24 333.08 789.24 329.94 779.24 336.21 779.24"/></g><g id="node68"><polygon class="cls-49" points="607.45 861.34 499.13 861.34 499.13 897.34 607.45 897.34 607.45 861.34"/><text class="cls-10" transform="translate(506.19 883.04) scale(0.9 1)">netty-<tspan class="cls-12" x="36.47" y="0">r</tspan><tspan x="41.72" y="0">esol</tspan><tspan class="cls-12" x="65.73" y="0">v</tspan><tspan class="cls-43" x="72.5" y="0">er-dns</tspan></text></g><g id="edge94"><path class="cls-8" d="M395.18,773.44c39.86,25.69,115.1,74.22,159.15,102.62" transform="translate(-35.55 -19.97)"/><polygon class="cls-9" points="520.45 853.12 526.63 861.15 517.31 859.18 520.45 853.12"/></g><g id="edge100"><path class="cls-8" d="M602.55,806.7C558,818.3,504,871.18,459.47,882.8" transform="translate(-35.55 -19.97)"/><polygon class="cls-9" points="424.38 866.3 414.95 865.17 422.95 859.49 424.38 866.3"/></g><g id="node61"><polygon class="cls-49" points="628.82 986.74 554.52 986.74 554.52 1022.74 628.82 1022.74 628.82 986.74"/><text class="cls-10" transform="translate(561.21 1008.44) scale(0.9 1)">netty-c<tspan class="cls-22" x="42.9" y="0">o</tspan><tspan x="50.47" y="0">d</tspan><tspan class="cls-17" x="58.42" y="0">e</tspan><tspan x="65.31" y="0">c</tspan></text></g><g id="edge102"><path class="cls-8" d="M658.59,808.4c-7,37.1-17.86,143.5-26.27,188.21" transform="translate(-35.55 -19.97)"/><polygon class="cls-9" points="599.83 977.44 594.91 986.51 593.69 976 599.83 977.44"/></g><g id="edge103"><path class="cls-8" d="M602.7,797.27c-29.09,6.49-55.47,56.86-75.63,84-44,59.36-39.7,139.29-33.87,186.93" transform="translate(-35.55 -19.97)"/><polygon class="cls-9" points="460.79 1048.03 459.01 1058.43 454.59 1049.06 460.79 1048.03"/></g><g id="edge104"><path class="cls-8" d="M721.05,798.87c45.36,7.39,115.48,58.22,167.67,82.44,48.6,22.56,74.23,20.33,99.36,72,42.13,86.65-51.35,132.51-114.58,180-26.37,19.8-80.17-26.34-107.22-18" transform="translate(-35.55 -19.97)"/><polygon class="cls-9" points="731.29 1098.77 721.83 1097.95 729.68 1092.01 731.29 1098.77"/></g><g id="edge105"><path class="cls-8" d="M721,796.5C840.7,809,854.6,799.81,971.34,872.05c0,0,105,81.26,52.32,130.57-2.4,2.24-311.12,216.28-409.12,219.41" transform="translate(-35.55 -19.97)"/><polygon class="cls-9" points="578.74 1205.57 569.71 1202.34 578.57 1198.57 578.74 1205.57"/></g><g id="node66"><polygon class="cls-49" points="947.07 933.34 837.5 933.34 837.5 969.34 947.07 969.34 947.07 933.34"/><text class="cls-10" transform="translate(844.25 955.04) scale(0.9 1)">netty-c<tspan class="cls-22" x="42.9" y="0">o</tspan><tspan class="cls-50" x="50.47" y="0">d</tspan><tspan class="cls-51" x="58.42" y="0">e</tspan><tspan x="65.31" y="0">c-s</tspan><tspan class="cls-17" x="82.67" y="0">o</tspan><tspan class="cls-33" x="90.27" y="0">cks</tspan></text></g><g id="edge101"><path class="cls-8" d="M721.3,796.84c39.86,6.24,98.85,56.52,138.77,84.47,22.47,15.74,41,42.86,52.73,63" transform="translate(-35.55 -19.97)"/><polygon class="cls-9" points="880.04 922.77 882.14 933.1 874.73 926.48 880.04 922.77"/></g><g id="edge106"><path class="cls-8" d="M381.37,917.61l-31.1,28.95" transform="translate(-35.55 -19.97)"/><polygon class="cls-9" points="316.47 929.52 307.59 933.24 312.46 924.15 316.47 929.52"/></g><g id="edge107"><path class="cls-8" d="M427.49,917.44c41.39,25.75,118.63,55.82,164.24,84.2" transform="translate(-35.55 -19.97)"/><polygon class="cls-9" points="557.74 978.63 564.04 986.55 554.69 984.74 557.74 978.63"/></g><g id="edge108"><path class="cls-8" d="M400.61,917.39c1.16,18.43,4.46,48.32,13.67,71.92,15.1,38.68,41.88,57.87,61.38,81.59" transform="translate(-35.55 -19.97)"/><polygon class="cls-9" points="442.54 1048.72 446.38 1058.42 437.97 1053.5 442.54 1048.72"/></g><g id="edge109"><path class="cls-8" d="M414.66,917.52c16.16,18.54,43.19,48.52,68.54,71.79,77,70.69,80.94,22.1,163.43,84.59,13.3,10.08,28.13,21,40.89,30.25" transform="translate(-35.55 -19.97)"/><polygon class="cls-9" points="653.82 1081.34 659.62 1089.72 650.41 1087.22 653.82 1081.34"/></g><g id="edge110"><path class="cls-8" d="M349.66,906.36c-27,6.43-58.17,19.69-75,46.95-43.69,70.66-125.93,43.06,61.66,233.4,23.16,23.51,113.42,22.06,169.11,29.9" transform="translate(-35.55 -19.97)"/><polygon class="cls-9" points="470.39 1193.19 478.89 1197.88 469.63 1200.14 470.39 1193.19"/></g><g id="edge111"><path class="cls-8" d="M367.59,982.19c56.61,13.06,155,17.37,213.27,30.83" transform="translate(-35.55 -19.97)"/><polygon class="cls-9" points="546.17 989.67 554.31 995.12 544.9 996.53 546.17 989.67"/></g><g id="edge112"><path class="cls-8" d="M345.71,989.44c31,25.37,88.29,54.42,123.19,83" transform="translate(-35.55 -19.97)"/><polygon class="cls-9" points="435.47 1049.82 440.85 1058.55 431.77 1055.47 435.47 1049.82"/></g><g id="edge113"><path class="cls-8" d="M332.24,989.32c15.85,34,54.95,91.3,110.57,125.39,41.79,25.6,156.38.93,228.73,8" transform="translate(-35.55 -19.97)"/><polygon class="cls-9" points="636.71 1099.3 645.36 1103.65 636.17 1106.28 636.71 1099.3"/></g><g id="edge115"><path class="cls-8" d="M321.85,989.42c-1.61,10.35-4.44,5.23-5.26,17.29-1.07,16-1.08,20,0,36,4.77,70.2,6.76,104.76,59.08,144,36.11,27.08,92.9,23.78,129.59,30.28" transform="translate(-35.55 -19.97)"/><polygon class="cls-9" points="470.39 1193.59 478.79 1198.53 469.47 1200.51 470.39 1193.59"/></g><g id="edge114"><path class="cls-8" d="M323,989.52c-2.42,31.44-4.77,80.44,22.25,125.19,7.81,13,19.5,23.18,31.54,31.07" transform="translate(-35.55 -19.97)"/><polygon class="cls-9" points="342.82 1122.79 349.18 1130.65 339.82 1128.93 342.82 1122.79"/></g><g id="edge116"><path class="cls-8" d="M595.46,1042.83l-58.32,31.46" transform="translate(-35.55 -19.97)"/><polygon class="cls-9" points="502.94 1057.48 493.52 1058.67 500.22 1051.17 502.94 1057.48"/></g><g id="edge117"><path class="cls-8" d="M640.61,1042.84c19.49,25,36.75,30.61,59.17,59.29" transform="translate(-35.55 -19.97)"/><polygon class="cls-9" points="666.63 1079.91 670.16 1089.74 661.91 1084.51 666.63 1079.91"/></g><g id="edge118"><path class="cls-8" d="M621.12,1042.86c-13.25,37.25-36,109.2-51.85,153.73" transform="translate(-35.55 -19.97)"/><polygon class="cls-9" points="536.63 1177.93 530.41 1185.93 530.8 1175.34 536.63 1177.93"/></g><g id="edge119"><path class="cls-8" d="M544.13,1111.29c42.39,12.32,85.51-10.41,128,1.94" transform="translate(-35.55 -19.97)"/><polygon class="cls-9" points="637.46 1089.9 645.33 1095.81 635.88 1096.68 637.46 1089.9"/></g><g id="edge121"><path class="cls-8" d="M503.9,1114.84c9.23,24.41,35,52.86,45.86,81.65" transform="translate(-35.55 -19.97)"/><polygon class="cls-9" points="517.19 1175.4 517.78 1185.97 511.41 1178.12 517.19 1175.4"/></g><g id="edge120"><path class="cls-8" d="M479.71,1115l-29.61,29" transform="translate(-35.55 -19.97)"/><polygon class="cls-9" points="416.56 1126.68 407.76 1130.64 412.43 1121.42 416.56 1126.68"/></g><g id="edge122"><path class="cls-8" d="M681.05,1143.15c-27.32,10.22-36.74,48.37-67.14,59.75" transform="translate(-35.55 -19.97)"/><polygon class="cls-9" points="579.06 1186.36 569.57 1186.21 577.06 1179.72 579.06 1186.36"/></g><g id="edge123"><path class="cls-8" d="M456.46,1186.83c16.84,9.41,46.6,4.59,64.58,14.63" transform="translate(-35.55 -19.97)"/><polygon class="cls-9" points="486.9 1178.37 493.51 1185.97 484.1 1184.63 486.9 1178.37"/></g><g id="edge124"><path class="cls-8" d="M873,984.82c-56.52,13.28-145.89,15.43-199.57,28" transform="translate(-35.55 -19.97)"/><polygon class="cls-9" points="638.36 996.35 628.95 994.98 637.07 989.5 638.36 996.35"/></g><g id="edge125"><path class="cls-8" d="M887.54,989.42c-44.28,19.15-120.13,31.71-186,53.29-49.76,16.3-107.38,30.88-148.68,40.6" transform="translate(-35.55 -19.97)"/><polygon class="cls-9" points="517.86 1066.78 508.46 1065.4 516.58 1059.93 517.86 1066.78"/></g><g id="edge126"><path class="cls-8" d="M921.58,989.72c-9.55,32.37-53.76,42.86-94.13,84.18-17.34,17.76-40.88,30.24-61.58,38.61" transform="translate(-35.55 -19.97)"/><polygon class="cls-9" points="731.14 1095.93 721.66 1095.88 729.1 1089.31 731.14 1095.93"/></g><g id="edge127"><path class="cls-8" d="M926.54,989.49c-.31,18.52-2.44,48.48-11.86,71.82-30.9,76.45-64.38,42.44-129.3,84.59-61.8,40.13-117.34,75-171.26,77.41" transform="translate(-35.55 -19.97)"/><polygon class="cls-9" points="578.57 1206.84 569.52 1203.67 578.36 1199.84 578.57 1206.84"/></g><g id="edge128"><path class="cls-8" d="M376.37,845.61c3.57,8,7.87,17.6,11.83,26.44" transform="translate(-35.55 -19.97)"/><polygon class="cls-9" points="355.56 850.73 356.75 861.24 349.95 853.86 355.56 850.73"/></g><g id="edge129"><path class="cls-8" d="M358.42,845.32c-5.64,10.09-12.35,23.34-16.65,36-6.8,20-11.17,43.82-13.78,61.76" transform="translate(-35.55 -19.97)"/><polygon class="cls-9" points="295.52 923.81 291.08 933.17 289.32 922.76 295.52 923.81"/></g><g id="edge130"><path class="cls-8" d="M401.49,845.39c17.37,9.61,38.74,22.37,56.65,35.92,56.76,42.93,115.38,84.92,146.74,118.18" transform="translate(-35.55 -19.97)"/><polygon class="cls-9" points="571.64 977.15 575.95 986.58 567.32 982.21 571.64 977.15"/></g><g id="edge131"><path class="cls-8" d="M345.73,845.32c-36,29-99.05,90-71.1,144,34.9,67.46,113.06,80.87,167.22,95.36" transform="translate(-35.55 -19.97)"/><polygon class="cls-9" points="407.09 1061.31 415.11 1066.96 405.68 1068.13 407.09 1061.31"/></g><g id="edge132"><path class="cls-8" d="M421.47,833.91c160.19,19,277.52-56.3,394.74,119.4,43.13,64.67,1.69,55.29-40.68,120.59-7.1,11-16.67,21.06-25.9,29.44" transform="translate(-35.55 -19.97)"/><polygon class="cls-9" points="715.79 1086.32 706.8 1089.71 711.93 1080.8 715.79 1086.32"/></g><g id="edge133"><path class="cls-8" d="M315.74,844.88c-72.83,26.85-195.08,88.2-195.08,197.43v74c0,86.85,268.7,89.32,384.72,101.77" transform="translate(-35.55 -19.97)"/><polygon class="cls-9" points="470.31 1194.64 478.93 1199.06 469.71 1201.61 470.31 1194.64"/></g><g id="edge134"><path class="cls-8" d="M534.44,914.73,376.17,956.68" transform="translate(-35.55 -19.97)"/><polygon class="cls-9" points="341.23 940.15 331.81 939.05 339.79 933.34 341.23 940.15"/></g><g id="edge136"><path class="cls-8" d="M596.42,917.67c4.23,10.21,9.38,23.46,13,35.64,6,20.31,9.93,25.3,13.2,43.1" transform="translate(-35.55 -19.97)"/><polygon class="cls-9" points="590.18 975.93 588.86 986.43 584.03 977.3 590.18 975.93"/></g><g id="edge137"><path class="cls-8" d="M581.59,917.46c-15.74,37.25-54.15,107.18-73,151.71" transform="translate(-35.55 -19.97)"/><polygon class="cls-9" points="475.81 1050.96 469.15 1058.51 470.14 1047.97 475.81 1050.96"/></g><g id="edge138"><path class="cls-8" d="M643.2,905.72c55,6.89,134.46,21.18,153.31,47.59,44.65,62.55-29.1,101.8-59.38,148.06" transform="translate(-35.55 -19.97)"/><polygon class="cls-9" points="703.92 1083.75 696.05 1089.67 698.9 1079.56 703.92 1083.75"/></g><g id="edge140"><path class="cls-8" d="M643.39,903.13c104,6,322.18,21.87,344.69,50.18,79.58,100.09-61.57,130.62-167.79,192.59-39.72,23.17-134.13,63.84-206,71.79" transform="translate(-35.55 -19.97)"/><polygon class="cls-9" points="578.97 1201.21 569.76 1198.7 578.36 1194.24 578.97 1201.21"/></g><g id="edge139"><path class="cls-8" d="M571.58,917.44c-30.85,31.81-96.32,85.1-128.77,161.27-8.33,19.56-12.62,43.69-14.8,61.89" transform="translate(-35.55 -19.97)"/><polygon class="cls-9" points="395.57 1121.07 391.4 1130.58 389.35 1120.24 395.57 1121.07"/></g><g id="node69"><polygon class="cls-49" points="752.46 933.34 654.89 933.34 654.89 969.34 752.46 969.34 752.46 933.34"/><text class="cls-10" transform="translate(661.96 955.04) scale(0.9 1)">netty-c<tspan class="cls-22" x="42.9" y="0">o</tspan><tspan class="cls-50" x="50.47" y="0">d</tspan><tspan class="cls-51" x="58.42" y="0">e</tspan><tspan x="65.31" y="0">c-dns</tspan></text></g><g id="edge135"><path class="cls-8" d="M625.63,917.43l68.45,31.87" transform="translate(-35.55 -19.97)"/><polygon class="cls-9" points="659.95 926.19 667.01 933.27 657.54 932.66 659.95 926.19"/></g><g id="edge141"><path class="cls-8" d="M712.07,989.43c-14.65,9.24-33.9,2.15-49.63,12.07" transform="translate(-35.55 -19.97)"/><polygon class="cls-9" points="628.26 984.68 618.93 986.55 625.18 978.59 628.26 984.68"/></g><g id="edge142"><path class="cls-8" d="M730.7,989.45c-10.85,20.22-32.29,34.81-57.83,53.26-36,26-83.29,39.36-119.68,46.14" transform="translate(-35.55 -19.97)"/><polygon class="cls-9" points="517.97 1072.36 508.64 1070.46 517 1065.45 517.97 1072.36"/></g><g id="edge143"><path class="cls-8" d="M739.22,989.46c0,37-20.08,65.26-20.08,110" transform="translate(-35.55 -19.97)"/><polygon class="cls-9" points="686.73 1079.7 683.59 1089.7 680.46 1079.7 686.73 1079.7"/></g><g id="edge144"><path class="cls-8" d="M750.32,989.45c25.63,41.84,63.15,91.14,15.37,156.45-22.18,30.31-89.43,67.94-151.25,73.54" transform="translate(-35.55 -19.97)"/><polygon class="cls-9" points="578.81 1202.99 569.64 1200.27 578.33 1196.01 578.81 1202.99"/></g><g id="edge147"><path class="cls-8" d="M271.66,615.61c51.2,6,146.36,20.82,166.79,49.7,8.88,12.55,6.7,21.86,0,36-6.36,13.4-17.25,24-28.57,32.17" transform="translate(-35.55 -19.97)"/><polygon class="cls-9" points="375.77 716.62 366.48 718.73 372.56 710.61 375.77 716.62"/></g><g id="node71"><polygon class="cls-1" points="260.57 645.34 145.99 645.34 145.99 681.34 260.57 681.34 260.57 645.34"/><text class="cls-31" transform="translate(153.35 667.04) scale(0.9 1)">v<tspan class="cls-20" x="6.77" y="0">ertx-</tspan><tspan x="35.79" y="0">w</tspan><tspan class="cls-20" x="46.47" y="0">eb-common</tspan></text></g><g id="edge145"><path class="cls-8" d="M238.82,629.61V655.2" transform="translate(-35.55 -19.97)"/><polygon class="cls-9" points="206.41 635.24 203.28 645.24 200.15 635.24 206.41 635.24"/></g><g id="node72"><polygon class="cls-1" points="397.54 645.34 277.13 645.34 277.13 681.34 397.54 681.34 397.54 645.34"/><text class="cls-31" transform="translate(284.35 667.04) scale(0.9 1)">v<tspan class="cls-20" x="6.77" y="0">ertx-auth-common</tspan></text></g><g id="edge146"><path class="cls-8" d="M271.23,629.43l59.54,31.46" transform="translate(-35.55 -19.97)"/><polygon class="cls-9" points="296.71 637.83 303.46 645.27 294.03 644.16 296.71 637.83"/></g><g id="node73"><text class="cls-31" transform="translate(10.65 667.04) scale(0.9 1)">v<tspan class="cls-20" x="6.77" y="0">ertx-brid</tspan><tspan class="cls-21" x="60.52" y="0">g</tspan><tspan class="cls-20" x="67.77" y="0">e-common</tspan></text></g><g id="edge148"><path class="cls-8" d="M206,629.08l-62.33,31.85" transform="translate(-35.55 -19.97)"/><polygon class="cls-9" points="109.25 644.25 99.81 645.22 106.64 637.88 109.25 644.25"/></g><g id="edge149"><path class="cls-8" d="M270.58,701.43l58.33,31.46" transform="translate(-35.55 -19.97)"/><polygon class="cls-9" points="294.73 709.77 301.42 717.27 292.01 716.08 294.73 709.77"/></g><g id="edge150"><path class="cls-8" d="M370.65,701.61c-.3,7.72-.66,17-1,25.59" transform="translate(-35.55 -19.97)"/><polygon class="cls-9" points="337.25 707.39 333.73 717.24 330.98 707.09 337.25 707.39"/></g><g id="edge151"><path class="cls-8" d="M1246.45,271.22l-38.55,29.85" transform="translate(-35.55 -19.97)"/><polygon class="cls-9" points="1173.96 284.12 1164.81 286.94 1170.39 278.37 1173.96 284.12"/></g><g id="edge152"><path class="cls-8" d="M1521.77,340.68c-2.68.83-5.34,1.65-7.92,2.42-60.43,18-69.18,9.34-123.37,44.2-17.07,11-26.13,18.62-44,27.8-45.24,23.21-805,47-974.58,52" transform="translate(-35.55 -19.97)"/><polygon class="cls-9" points="336.16 450.65 327.13 447.43 335.99 443.67 336.16 450.65"/></g><g id="edge154"><path class="cls-8" d="M1521.55,341c-42.39,14.61-101.32,35.17-106.17,38.14-19.56,12-18,26.08-38.49,36-57.53,27.86-233.73,43.06-328.15,49.4" transform="translate(-35.55 -19.97)"/><polygon class="cls-9" points="1013.16 448.04 1004.04 445.13 1012.79 441.05 1013.16 448.04"/></g><g id="edge153"><path class="cls-8" d="M1581.69,343.4c8.4,8.65-155.9,191-131.52,195.71" transform="translate(-35.55 -19.97)"/><polygon class="cls-9" points="1416.9 516.72 1421.36 526.07 1412.65 521.87 1416.9 516.72"/></g><g id="edge155"><path class="cls-8" d="M1434.4,581.43c-67.84,28.25-46.73-81.23-109.84-54.95" transform="translate(-35.55 -19.97)"/><polygon class="cls-9" points="1290.11 509.79 1280.63 510 1287.92 503.23 1290.11 509.79"/></g><g id="edge156"><path class="cls-8" d="M1434.29,574.25c-61.36-44.28,186.34-142.12,63.19-146.06-181.94,27.46-344.78,30-448.62,36.41" transform="translate(-35.55 -19.97)"/><polygon class="cls-9" points="1013.33 448.13 1004.23 445.19 1012.99 441.13 1013.33 448.13"/></g><g id="node77"><polygon class="cls-52" points="1483.19 598.16 1392.78 598.16 1392.78 634.16 1483.19 634.16 1483.19 598.16"/><text class="cls-10" transform="translate(1400.04 619.86) scale(0.9 1)">antlr4-<tspan class="cls-53" x="41.46" y="0">r</tspan><tspan class="cls-50" x="46.81" y="0">untime</tspan></text></g><g id="edge157"><path class="cls-8" d="M1473.53,582.44V608" transform="translate(-35.55 -19.97)"/><polygon class="cls-9" points="1441.12 588.07 1437.98 598.07 1434.85 588.07 1441.12 588.07"/></g></g></g><g id="Layer_4" data-name="Layer 4"><g id="node1-2" data-name="node1"><polygon class="cls-54" points="777.15 0.13 699.74 0.13 699.74 36.13 777.15 36.13 777.15 0.13"/><text class="cls-2" transform="translate(706.73 23.76) scale(0.9 1)"><tspan class="cls-3">b</tspan><tspan class="cls-4" x="9.16" y="0">esu-co</tspan><tspan class="cls-5" x="56.79" y="0">r</tspan><tspan x="63.1" y="0">e</tspan></text></g></g></svg>