<svg xmlns="http://www.w3.org/2000/svg" viewBox="0 0 2911.1 1554.89"><defs><style>.cls-1{fill:#fff;}.cls-1,.cls-18,.cls-19,.cls-5{stroke:#000;}.cls-1,.cls-18,.cls-19,.cls-20,.cls-21,.cls-22,.cls-23,.cls-24,.cls-25,.cls-28,.cls-31,.cls-33,.cls-35,.cls-36,.cls-38,.cls-39,.cls-41,.cls-45,.cls-5{stroke-miterlimit:4;}.cls-2,.cls-6{isolation:isolate;font-family:LinBiolinum, Linux Biolinum;}.cls-2{font-size:51.99px;letter-spacing:0em;}.cls-3{letter-spacing:0em;}.cls-4{letter-spacing:0em;}.cls-18,.cls-5{fill:none;}.cls-6{font-size:36px;}.cls-7{letter-spacing:0em;}.cls-8{letter-spacing:0em;}.cls-9{letter-spacing:-0.02em;}.cls-10{letter-spacing:0.01em;}.cls-11{letter-spacing:0.01em;}.cls-12{letter-spacing:0em;}.cls-13{letter-spacing:-0.02em;}.cls-14{letter-spacing:0em;}.cls-15{letter-spacing:0em;}.cls-16{letter-spacing:0.01em;}.cls-17{letter-spacing:-0.01em;}.cls-18,.cls-19{stroke-width:0.5px;}.cls-20{fill:#86c4c4;stroke:#86c4c4;}.cls-21{fill:#d6a894;stroke:#d6a894;}.cls-22{fill:#dfa4ca;stroke:#dfa4ca;}.cls-23{fill:#c4b0d6;stroke:#c4b0d6;}.cls-24{fill:#ccaa60;stroke:#ccaa60;}.cls-25{fill:#7eb5d0;stroke:#7eb5d0;}.cls-26{letter-spacing:-0.01em;}.cls-27{letter-spacing:0em;}.cls-28{fill:#a8b3e2;stroke:#a8b3e2;}.cls-29{letter-spacing:0em;}.cls-30{letter-spacing:0em;}.cls-31{fill:#77a57c;stroke:#77a57c;}.cls-32{letter-spacing:0em;}.cls-33{fill:#ca97a5;stroke:#ca97a5;}.cls-34{letter-spacing:0em;}.cls-35{fill:#adbde3;stroke:#adbde3;}.cls-36{fill:#ffcb2b;stroke:#ffcb2b;}.cls-37{letter-spacing:0em;}.cls-38{fill:#a5ca97;stroke:#a5ca97;}.cls-39{fill:#c89475;stroke:#c89475;}.cls-40{letter-spacing:-0.01em;}.cls-41{fill:#f08db9;stroke:#f08db9;}.cls-42{letter-spacing:0em;}.cls-43{letter-spacing:0em;}.cls-44{letter-spacing:0.01em;}.cls-45{fill:#ffe599;stroke:#ffe599;}</style></defs><g id="Layer_2" data-name="Layer 2"><g id="Layer_2-2" data-name="Layer 2"><g id="graph0"><g id="node1"><polygon class="cls-1" points="1709.58 0.5 1409.74 0.5 1409.74 108.48 1709.58 108.48 1709.58 0.5"/><text class="cls-2" transform="translate(1473.95 70.09) scale(0.83 1)">b<tspan class="cls-3" x="26.45" y="0">esu-co</tspan><tspan class="cls-4" x="164.05" y="0">r</tspan><tspan class="cls-3" x="182.25" y="0">e</tspan></text></g><g id="node2"><polygon class="cls-5" points="0.5 201.47 0.5 148.48 181.24 148.48 181.24 201.47 0.5 201.47"/><text class="cls-6" transform="translate(52.57 185.87) scale(0.83 1)">config</text><polygon class="cls-5" points="181.24 201.47 181.24 148.48 338.65 148.48 338.65 201.47 181.24 201.47"/><text class="cls-6" transform="translate(240.79 185.87) scale(0.83 1)">pki</text><polygon class="cls-5" points="338.65 201.47 338.65 148.48 509.39 148.48 509.39 201.47 338.65 201.47"/><text class="cls-6" transform="translate(387.39 185.87) scale(0.83 1)">clique</text><polygon class="cls-5" points="0.5 254.47 0.5 201.47 181.24 201.47 181.24 254.47 0.5 254.47"/><text class="cls-6" transform="translate(38.4 238.87) scale(0.83 1)">common</text><polygon class="cls-5" points="181.24 254.47 181.24 201.47 338.65 201.47 338.65 254.47 181.24 254.47"/><text class="cls-6" transform="translate(198.32 238.87) scale(0.83 1)">plugin-api</text><polygon class="cls-5" points="338.65 254.47 338.65 201.47 509.39 201.47 509.39 254.47 338.65 254.47"/><text class="cls-6" transform="translate(403.2 238.87) scale(0.83 1)">ibft</text><polygon class="cls-5" points="0.5 307.46 0.5 254.47 181.24 254.47 181.24 307.46 0.5 307.46"/><text class="cls-6" transform="translate(30.93 291.86) scale(0.83 1)">ibftle<tspan class="cls-7" x="75.73" y="0">g</tspan><tspan class="cls-8" x="93.5" y="0">acy</tspan></text><polygon class="cls-5" points="181.24 307.46 181.24 254.47 338.65 254.47 338.65 307.46 181.24 307.46"/><text class="cls-6" transform="translate(222.49 291.86) scale(0.83 1)">mer<tspan class="cls-9" x="58.11" y="0">g</tspan><tspan x="75.51" y="0">e</tspan></text><polygon class="cls-5" points="338.65 307.46 338.65 254.47 509.39 254.47 509.39 307.46 338.65 307.46"/><text class="cls-6" transform="translate(399.87 291.86) scale(0.83 1)">qbft</text><polygon class="cls-5" points="0.5 360.45 0.5 307.46 181.24 307.46 181.24 360.45 0.5 360.45"/><text class="cls-6" transform="translate(52.57 344.85) scale(0.83 1)">c<tspan class="cls-10" x="15.43" y="0">r</tspan><tspan x="28.56" y="0">ypto</tspan></text><polygon class="cls-5" points="181.24 360.45 181.24 307.46 338.65 307.46 338.65 360.45 181.24 360.45"/><text class="cls-6" transform="translate(239.95 344.85) scale(0.83 1)">util</text><polygon class="cls-5" points="338.65 360.45 338.65 307.46 509.39 307.46 509.39 360.45 338.65 360.45"/><text class="cls-6" transform="translate(367.41 344.85) scale(0.83 1)">dataty<tspan class="cls-11" x="96.37" y="0">p</tspan><tspan x="115.44" y="0">es</tspan></text><polygon class="cls-5" points="0.5 413.44 0.5 360.45 181.24 360.45 181.24 413.44 0.5 413.44"/><text class="cls-6" transform="translate(45.09 397.85) scale(0.83 1)">encla<tspan class="cls-12" x="77.49" y="0">v</tspan><tspan x="93.75" y="0">e</tspan></text><polygon class="cls-5" points="181.24 413.44 181.24 360.45 338.65 360.45 338.65 413.44 181.24 413.44"/><text class="cls-6" transform="translate(241.63 397.85) scale(0.83 1)">api</text><polygon class="cls-5" points="338.65 413.44 338.65 360.45 509.39 360.45 509.39 413.44 338.65 413.44"/><text class="cls-6" transform="translate(342.43 397.85) scale(0.83 1)">bl<tspan class="cls-11" x="27.21" y="0">o</tspan><tspan x="45.45" y="0">c</tspan><tspan class="cls-13" x="60.88" y="0">k</tspan><tspan x="78.44" y="0">c</tspan><tspan class="cls-14" x="93.87" y="0">r</tspan><tspan class="cls-15" x="106.47" y="0">e</tspan><tspan class="cls-8" x="122.94" y="0">ation</tspan></text><polygon class="cls-5" points="0.5 466.44 0.5 413.44 181.24 413.44 181.24 466.44 0.5 466.44"/><text class="cls-6" transform="translate(4.3 450.84) scale(0.83 1)">ethe<tspan class="cls-12" x="64.57" y="0">r</tspan><tspan class="cls-8" x="77.17" y="0">eum-co</tspan><tspan class="cls-12" x="187.22" y="0">r</tspan><tspan x="199.82" y="0">e</tspan></text><polygon class="cls-5" points="181.24 466.44 181.24 413.44 338.65 413.44 338.65 466.44 181.24 466.44"/><text class="cls-6" transform="translate(241.63 450.84) scale(0.83 1)">eth</text><polygon class="cls-5" points="338.65 466.44 338.65 413.44 509.39 413.44 509.39 466.44 338.65 466.44"/><text class="cls-6" transform="translate(401.53 450.84) scale(0.83 1)">p2p</text><polygon class="cls-5" points="0.5 519.43 0.5 466.44 181.24 466.44 181.24 519.43 0.5 519.43"/><text class="cls-6" transform="translate(5.92 503.83) scale(0.83 1)"><tspan class="cls-16">p</tspan><tspan x="19.07" y="0">ermissioning</tspan></text><polygon class="cls-5" points="181.24 519.43 181.24 466.44 338.65 466.44 338.65 519.43 181.24 519.43"/><text class="cls-6" transform="translate(209.16 503.83) scale(0.83 1)"><tspan class="cls-14">r</tspan><tspan x="12.6" y="0">etesteth</tspan></text><polygon class="cls-5" points="338.65 519.43 338.65 466.44 509.39 466.44 509.39 519.43 338.65 519.43"/><text class="cls-6" transform="translate(407.37 503.83) scale(0.83 1)">rlp</text><polygon class="cls-5" points="0.5 572.42 0.5 519.43 181.24 519.43 181.24 572.42 0.5 572.42"/><text class="cls-6" transform="translate(70.89 556.82) scale(0.83 1)">trie</text><polygon class="cls-5" points="181.24 572.42 181.24 519.43 338.65 519.43 338.65 572.42 181.24 572.42"/><text class="cls-6" transform="translate(214.98 556.82) scale(0.83 1)">stratum</text><polygon class="cls-5" points="338.65 572.42 338.65 519.43 509.39 519.43 509.39 572.42 338.65 572.42"/><text class="cls-6" transform="translate(379.06 556.82) scale(0.83 1)">ethstats</text><polygon class="cls-5" points="0.5 625.41 0.5 572.42 181.24 572.42 181.24 625.41 0.5 625.41"/><text class="cls-6" transform="translate(65.05 609.82) scale(0.83 1)"><tspan class="cls-17">e</tspan><tspan x="16.05" y="0">vm</tspan></text><polygon class="cls-5" points="181.24 625.41 181.24 572.42 338.65 572.42 338.65 625.41 181.24 625.41"/><text class="cls-6" transform="translate(185.03 609.82) scale(0.83 1)">metrics-co<tspan class="cls-14" x="154.77" y="0">r</tspan><tspan x="167.37" y="0">e</tspan></text><polygon class="cls-5" points="338.65 625.41 338.65 572.42 509.39 572.42 509.39 625.41 338.65 625.41"/><text class="cls-6" transform="translate(405.71 609.82) scale(0.83 1)">nat</text><polygon class="cls-5" points="0.5 678.41 0.5 625.41 181.24 625.41 181.24 678.41 0.5 678.41"/><text class="cls-6" transform="translate(43.41 662.81) scale(0.83 1)"><tspan class="cls-12">r</tspan><tspan class="cls-16" x="12.6" y="0">o</tspan><tspan x="30.85" y="0">cksdb</tspan></text><polygon class="cls-5" points="181.24 678.41 181.24 625.41 338.65 625.41 338.65 678.41 181.24 678.41"/><text class="cls-6" transform="translate(215.81 662.81) scale(0.83 1)">kvsto<tspan class="cls-12" x="79.02" y="0">r</tspan><tspan x="91.62" y="0">e</tspan></text></g><g id="edge1"><path class="cls-18" d="M1409.66,61.28c-270.51,13.12-801.32,44.17-882.78,83.2L523.77,146"/><polygon class="cls-19" points="524.64 149.35 515.83 150.04 522.36 142.91 524.64 149.35"/></g><g id="node3"><polygon class="cls-20" points="629.26 979.87 411.18 979.87 411.18 1031.26 629.26 1031.26 629.26 979.87"/><text class="cls-6" transform="translate(413.55 1016.36) scale(0.83 1)">jackson-databind</text></g><g id="edge2"><path class="cls-18" d="M1409.66,56.14C1151.52,60.73,765,108.69,706.61,175c-81.35,92.35-182.23,411.51-186.39,569V969.59"/><polygon class="cls-19" points="523.13 969.86 520.22 979.86 517.3 969.86 523.13 969.86"/></g><g id="node4"><polygon class="cls-20" points="823.3 892.68 543.63 892.68 543.63 944.07 823.3 944.07 823.3 892.68"/><text class="cls-6" transform="translate(545.34 929.17) scale(0.83 1)">jackson-dataty<tspan class="cls-16" x="220.61" y="0">p</tspan><tspan x="239.68" y="0">e-jdk8</tspan></text></g><g id="edge3"><path class="cls-18" d="M1409.72,59.12c-228.84,8.75-547,35.84-598.17,89.36C622.19,346.52,616,506,587.68,805.59c-2.13,22.61-9.73,31.67,0,51.19,6.22,12.47,15.35,22.56,25.52,30.68"/><polygon class="cls-19" points="614.83 884.55 620.4 892.77 611.77 890.51 614.83 884.55"/></g><g id="node5"><polygon class="cls-21" points="886.62 387.75 721.85 387.75 721.85 439.14 886.62 439.14 886.62 387.75"/><text class="cls-6" transform="translate(726.23 424.24) scale(0.83 1)">graphql-java</text></g><g id="edge4"><path class="cls-18" d="M1409.56,59.83c-154.1,8.44-381.51,30-455.41,84.65-74.77,55.3-120.47,174-139.55,233.5"/><polygon class="cls-19" points="817.22 379.56 811.55 387.69 811.76 377.1 817.22 379.56"/></g><g id="node6"><polygon class="cls-22" points="1013.27 718.3 918.36 718.3 918.36 769.7 1013.27 769.7 1013.27 718.3"/><text class="cls-6" transform="translate(925.95 754.8) scale(0.83 1)">pic<tspan class="cls-11" x="43.61" y="0">o</tspan><tspan x="61.85" y="0">cli</tspan></text></g><g id="edge5"><path class="cls-18" d="M1409.58,80.64c-72.61,15.56-150.19,37.44-178.91,63.84-164.19,151-237.54,459.63-258.34,564.07"/><polygon class="cls-19" points="975.16 709.36 970.42 718.29 969.49 707.76 975.16 709.36"/></g><g id="node7"><polygon class="cls-23" points="1211.43 892.68 1075.01 892.68 1075.01 944.07 1211.43 944.07 1211.43 892.68"/><text class="cls-6" transform="translate(1081.49 929.17) scale(0.83 1)"><tspan class="cls-12">v</tspan><tspan x="16.26" y="0">ertx-co</tspan><tspan class="cls-12" x="119.32" y="0">r</tspan><tspan x="131.92" y="0">e</tspan></text></g><g id="edge6"><path class="cls-18" d="M1538.05,108.79c-4.36,11.67-8.76,24-12.54,35.69-75.71,234.26-58.57,309-144.92,537.93-15.5,41.1-22.78,49.39-43.31,87.19-21.63,39.82-20.09,58.44-51.64,87.18-11.29,10.29-38.34,22.84-65.88,33.92"/><polygon class="cls-19" points="1220.43 894.12 1211.61 893.94 1218.6 887.48 1220.43 894.12"/></g><g id="node8"><polygon class="cls-23" points="1373.03 387.75 1238.23 387.75 1238.23 439.14 1373.03 439.14 1373.03 387.75"/><text class="cls-6" transform="translate(1244.84 424.24) scale(0.83 1)"><tspan class="cls-12">v</tspan><tspan x="16.26" y="0">ertx-</tspan><tspan class="cls-14" x="85.89" y="0">w</tspan><tspan x="111.52" y="0">eb</tspan></text></g><g id="edge7"><path class="cls-18" d="M1422.58,108.5a187.12,187.12,0,0,0-37.82,36c-51.93,66.55-70.09,176.51-76.2,233"/><polygon class="cls-19" points="1311.42 378.22 1307.53 387.72 1305.64 377.37 1311.42 378.22"/></g><g id="node9"><polygon class="cls-24" points="1667.84 805.49 1388.19 805.49 1388.19 856.88 1667.84 856.88 1667.84 805.49"/><text class="cls-6" transform="translate(1390.4 841.99) scale(0.83 1)">spring-s<tspan class="cls-16" x="118.76" y="0">e</tspan><tspan x="135.3" y="0">curity-c</tspan><tspan class="cls-10" x="250.01" y="0">r</tspan><tspan class="cls-8" x="263.14" y="0">ypto</tspan></text></g><g id="edge8"><path class="cls-18" d="M1551.76,108.61c-1.47,11.79-2.84,24.22-3.76,35.87-19.63,248.33-20.53,549.13-20.2,651"/><polygon class="cls-19" points="1530.72 795.53 1527.84 805.55 1524.89 795.57 1530.72 795.53"/></g><g id="node10"><polygon class="cls-25" points="1770.33 892.68 1612.19 892.68 1612.19 944.07 1770.33 944.07 1770.33 892.68"/><text class="cls-6" transform="translate(1616.55 929.17) scale(0.83 1)">snap<tspan class="cls-26" x="69.78" y="0">p</tspan><tspan class="cls-27" x="88.35" y="0">y-java</tspan></text></g><g id="edge9"><path class="cls-18" d="M1556.9,108.53c-6.14,132.71-17.65,471.34,18.59,573.88,24.86,70.35,71.14,55,99.94,123.18,10.06,23.8,13.92,53.7,15.32,76.73"/><polygon class="cls-19" points="1693.66 882.2 1691.23 892.38 1687.84 882.6 1693.66 882.2"/></g><g id="node11"><polygon class="cls-28" points="1909.36 387.75 1583.1 387.75 1583.1 439.14 1909.36 439.14 1909.36 387.75"/><text class="cls-6" transform="translate(1582.3 424.24) scale(0.83 1)">quo<tspan class="cls-29" x="56.1" y="0">r</tspan><tspan class="cls-30" x="68.95" y="0">um-mainnet-launcher</tspan></text></g><g id="edge10"><path class="cls-18" d="M1587.79,108.62,1728.35,379"/><polygon class="cls-19" points="1730.94 377.41 1732.87 387.75 1725.99 381.12 1730.94 377.41"/></g><g id="node12"><polygon class="cls-31" points="2275.92 387.75 2112.72 387.75 2112.72 439.14 2275.92 439.14 2275.92 387.75"/><text class="cls-6" transform="translate(2115.72 424.24) scale(0.83 1)">tu<tspan class="cls-12" x="31.55" y="0">w</tspan><tspan class="cls-27" x="57.17" y="0">eni-units</tspan></text></g><g id="edge11"><path class="cls-18" d="M1709.65,61.5c134,9.55,318,31.78,376.4,83,65.15,57.15,92.87,174.09,103.1,233.15"/><polygon class="cls-19" points="2192.03 377.12 2190.8 387.61 2186.32 378.49 2192.03 377.12"/></g><g id="node13"><polygon class="cls-31" points="2245.92 718.3 2077.76 718.3 2077.76 769.7 2245.92 769.7 2245.92 718.3"/><text class="cls-6" transform="translate(2081.4 754.8) scale(0.83 1)">tu<tspan class="cls-12" x="31.55" y="0">w</tspan><tspan class="cls-27" x="57.17" y="0">eni-</tspan><tspan class="cls-12" x="114.17" y="0">b</tspan><tspan class="cls-27" x="132.13" y="0">ytes</tspan></text></g><g id="edge12"><path class="cls-18" d="M1709.73,64.53c109.68,11.07,246.12,33.86,287.2,79.95,149.67,168,3.65,326.45,108.27,537.93,5.24,10.59,12.49,20.4,20,28.94"/><polygon class="cls-19" points="2127.37 708.94 2131.63 718.21 2123.48 714.15 2127.37 708.94"/></g><g id="node14"><polygon class="cls-31" points="1967.76 805.49 1846.19 805.49 1846.19 856.88 1967.76 856.88 1967.76 805.49"/><text class="cls-6" transform="translate(1853.25 841.99) scale(0.83 1)">log4j-api</text></g><g id="edge13"><path class="cls-18" d="M1709.69,69.68c85.49,12.81,180.74,35.56,207.28,74.8,34.25,50.64,2.65,516.45-7.26,650.67"/><polygon class="cls-19" points="1912.6 795.66 1908.96 805.31 1906.8 795.04 1912.6 795.66"/></g><g id="node15"><polygon class="cls-31" points="2062.68 718.3 1926.18 718.3 1926.18 769.7 2062.68 769.7 2062.68 718.3"/><text class="cls-6" transform="translate(1933.69 754.8) scale(0.83 1)">log4j-co<tspan class="cls-32" x="116.93" y="0">r</tspan><tspan class="cls-27" x="129.53" y="0">e</tspan></text></g><g id="edge14"><path class="cls-18" d="M1709.65,67.7c94,12.26,203.2,35.15,234.81,76.78,123.13,162.2,78,461.19,57.71,563.83"/><polygon class="cls-19" points="2004.97 709.29 2000.17 718.18 1999.3 707.63 2004.97 709.29"/></g><g id="node16"><polygon class="cls-31" points="2537.41 387.75 2355.96 387.75 2355.96 439.14 2537.41 439.14 2537.41 387.75"/><text class="cls-6" transform="translate(2361.06 424.24) scale(0.83 1)">tu<tspan class="cls-12" x="31.55" y="0">w</tspan><tspan class="cls-27" x="57.17" y="0">eni-config</tspan></text></g><g id="edge15"><path class="cls-18" d="M1709.68,62.06c213.31,12.22,584.15,39.35,634.56,82.42,65.25,55.75,89.86,173.85,98.37,233.26"/><polygon class="cls-19" points="2445.51 377.35 2443.97 387.78 2439.75 378.47 2445.51 377.35"/></g><g id="node17"><polygon class="cls-31" points="2640.73 718.3 2480.86 718.3 2480.86 769.7 2640.73 769.7 2640.73 718.3"/><text class="cls-6" transform="translate(2484.78 754.8) scale(0.83 1)">tu<tspan class="cls-12" x="31.55" y="0">w</tspan><tspan class="cls-27" x="57.17" y="0">eni-toml</tspan></text></g><g id="edge16"><path class="cls-18" d="M1709.59,61.93c268.67,14.18,807,46.89,835.38,82.55,126.07,158.2,55.74,460.93,26.57,564.08"/><polygon class="cls-19" points="2574.24 709.88 2568.77 718.18 2568.73 707.59 2574.24 709.88"/></g><g id="node18"><polygon class="cls-33" points="2356.7 805.49 2271.81 805.49 2271.81 856.88 2356.7 856.88 2356.7 805.49"/><text class="cls-6" transform="translate(2277.47 841.99) scale(0.83 1)">guava</text></g><g id="edge17"><path class="cls-18" d="M1709.71,60.86c200.43,10.34,535,34.75,573.73,83.62,74.53,94,44.7,523.54,34,651"/><polygon class="cls-19" points="2320.35 795.88 2316.6 805.47 2314.55 795.16 2320.35 795.88"/></g><g id="node19"><polygon class="cls-20" points="447.69 1067.06 194.62 1067.06 194.62 1118.45 447.69 1118.45 447.69 1067.06"/><text class="cls-6" transform="translate(195.76 1103.55) scale(0.83 1)">jackson-annotations</text></g><g id="edge18"><path class="cls-18" d="M461.57,1031.25l-73.85,32.35"/><polygon class="cls-19" points="388.56 1066.96 379.73 1067.1 386.56 1060.38 388.56 1066.96"/></g><g id="node20"><polygon class="cls-20" points="608.47 1154.24 440.3 1154.24 440.3 1205.64 608.47 1205.64 608.47 1154.24"/><text class="cls-6" transform="translate(445.42 1190.74) scale(0.83 1)">jackson-<tspan class="cls-34" x="124.24" y="0">b</tspan><tspan x="142.56" y="0">om</tspan></text></g><g id="edge19"><path class="cls-18" d="M502.43,1031.17c-6.19,10.48-12.36,23.15-15.53,36-5.38,21.81-5.88,29.56,0,51.19A117.25,117.25,0,0,0,499,1146"/><polygon class="cls-19" points="501.35 1144.03 504 1154.13 496.68 1148.21 501.35 1144.03"/></g><g id="node21"><polygon class="cls-20" points="660.89 1067.06 494.49 1067.06 494.49 1118.45 660.89 1118.45 660.89 1067.06"/><text class="cls-6" transform="translate(499.98 1103.55) scale(0.83 1)">jackson-co<tspan class="cls-12" x="157.67" y="0">r</tspan><tspan x="170.27" y="0">e</tspan></text></g><g id="edge20"><path class="cls-18" d="M537.15,1031.25,555.47,1059"/><polygon class="cls-19" points="557.8 1056.93 560.68 1066.95 553.23 1061.28 557.8 1056.93"/></g><g id="edge23"><path class="cls-18" d="M635.37,944.06l-59.28,31.67"/><polygon class="cls-19" points="577.05 979.04 568.25 979.91 574.68 972.65 577.05 979.04"/></g><g id="edge24"><path class="cls-18" d="M688.24,944.23c6.31,41.41,13.14,123.14-19.77,174.12-7.56,11.71-28.64,23-52.42,32.72"/><polygon class="cls-19" points="616.72 1154.49 607.9 1154.29 614.9 1147.85 616.72 1154.49"/></g><g id="edge25"><path class="cls-18" d="M675.63,944.21c-7.91,24-21.42,60-38.81,87a206.25,206.25,0,0,1-23.54,29.34"/><polygon class="cls-19" points="615.16 1063.17 606.93 1066.99 611.38 1057.85 615.16 1063.17"/></g><g id="node22"><polygon class="cls-21" points="903.23 718.3 705.23 718.3 705.23 769.7 903.23 769.7 903.23 718.3"/><text class="cls-6" transform="translate(707.84 754.8) scale(0.83 1)">java-datal<tspan class="cls-15" x="147.81" y="0">o</tspan><tspan x="165.99" y="0">ader</tspan></text></g><g id="edge26"><path class="cls-18" d="M804.23,439.11V708"/><polygon class="cls-19" points="807.15 708.13 804.23 718.12 801.32 708.13 807.15 708.13"/></g><g id="node23"><polygon class="cls-35" points="804.95 805.49 595.3 805.49 595.3 856.88 804.95 856.88 804.95 805.49"/><text class="cls-6" transform="translate(598.47 841.99) scale(0.83 1)"><tspan class="cls-14">r</tspan><tspan class="cls-15" x="12.6" y="0">e</tspan><tspan class="cls-8" x="29.07" y="0">acti</tspan><tspan class="cls-12" x="83.4" y="0">v</tspan><tspan x="99.65" y="0">e-st</tspan><tspan class="cls-12" x="154.4" y="0">r</tspan><tspan class="cls-34" x="167" y="0">e</tspan><tspan x="183.47" y="0">ams</tspan></text></g><g id="edge27"><path class="cls-18" d="M791.73,439.23c-24,51.15-75.79,170-94.11,279.17-4.25,25.37-3.45,54.58-1.68,76.92"/><polygon class="cls-19" points="698.85 795.06 696.84 805.37 693.05 795.81 698.85 795.06"/></g><g id="edge28"><path class="cls-18" d="M1074.76,928,637.92,989.09"/><polygon class="cls-19" points="638.14 992.58 629.53 990.26 637.47 985.63 638.14 992.58"/></g><g id="edge29"><path class="cls-18" d="M1075,924.63C975.77,934.4,797,954.8,735.94,980c-6.28,2.58-71.14,49.37-115.85,81.87"/><polygon class="cls-19" points="621.46 1064.93 612.82 1067.12 618.44 1058.94 621.46 1064.93"/></g><g id="node24"><polygon class="cls-36" points="1182.27 979.87 929.26 979.87 929.26 1031.26 1182.27 1031.26 1182.27 979.87"/><text class="cls-6" transform="translate(930.79 1016.36) scale(0.83 1)">netty-handler-p<tspan class="cls-12" x="231.96" y="0">r</tspan><tspan class="cls-17" x="244.57" y="0">o</tspan><tspan class="cls-10" x="262.32" y="0">x</tspan><tspan x="279.03" y="0">y</tspan></text></g><g id="edge30"><path class="cls-18" d="M1117.45,944.06c-9.17,9.15-19.61,19.56-29.27,29.18"/><polygon class="cls-19" points="1089.92 976.06 1081.65 979.76 1086.19 970.68 1089.92 976.06"/></g><g id="node25"><polygon class="cls-36" points="1320.55 1067.06 1110.81 1067.06 1110.81 1118.45 1320.55 1118.45 1320.55 1067.06"/><text class="cls-6" transform="translate(1111.56 1103.55) scale(0.83 1)">netty-c<tspan class="cls-15" x="102.94" y="0">o</tspan><tspan x="121.11" y="0">d</tspan><tspan class="cls-16" x="140.18" y="0">e</tspan><tspan class="cls-37" x="156.72" y="0">c-http</tspan></text></g><g id="edge31"><path class="cls-18" d="M1166.88,944.1c8.29,10.31,17,22.83,23,35.87,11,23.91,17.53,53.81,21.3,76.81"/><polygon class="cls-19" points="1214.06 1056.35 1212.7 1066.82 1208.32 1057.62 1214.06 1056.35"/></g><g id="node26"><polygon class="cls-36" points="1639.56 1154.24 1466.44 1154.24 1466.44 1205.64 1639.56 1205.64 1639.56 1154.24"/><text class="cls-6" transform="translate(1468.04 1190.74) scale(0.83 1)">netty-handler</text></g><g id="edge32"><path class="cls-18" d="M1211.68,942.16c2.46.64,4.92,1.25,7.33,1.81,60.68,14.1,228.2-10.27,276.52,36,41.71,39.94,53.26,118.28,56.39,164.15"/><polygon class="cls-19" points="1554.83 1144 1552.51 1154.22 1549.02 1144.49 1554.83 1144"/></g><g id="node27"><polygon class="cls-36" points="1371.37 1328.62 1181.59 1328.62 1181.59 1380.01 1371.37 1380.01 1371.37 1328.62"/><text class="cls-6" transform="translate(1181.37 1365.11) scale(0.83 1)">netty-trans<tspan class="cls-16" x="163.47" y="0">p</tspan><tspan class="cls-37" x="182.54" y="0">ort</tspan></text></g><g id="edge33"><path class="cls-18" d="M1074.81,927.38c-57.12,9.26-132.43,26.11-153.14,52.59-57.64,73.68-72.91,143.16-24.15,225.57,32.38,54.73,174.86,99.64,275.55,125.33"/><polygon class="cls-19" points="1173.91 1327.5 1181.46 1332.99 1172.71 1334.35 1173.91 1327.5"/></g><g id="node28"><polygon class="cls-36" points="1472.96 1415.81 1316.54 1415.81 1316.54 1467.2 1472.96 1467.2 1472.96 1415.81"/><text class="cls-6" transform="translate(1320.01 1452.3) scale(0.83 1)">netty-buffer</text></g><g id="edge34"><path class="cls-18" d="M1074.93,925.27c-66.43,8.34-161.18,25.08-188.24,54.7-86,94.07-38.49,195.74,25,312.75,26.19,48.3,36.36,63.06,80,87.19,54.61,30.22,215.22,47.51,316.46,55.68"/><polygon class="cls-19" points="1308.37 1432.11 1316.48 1436.26 1307.98 1439.09 1308.37 1432.11"/></g><g id="node29"><polygon class="cls-36" points="1565.46 1502.99 1377.29 1502.99 1377.29 1554.39 1565.46 1554.39 1565.46 1502.99"/><text class="cls-6" transform="translate(1380.08 1539.49) scale(0.83 1)">netty-common</text></g><g id="edge35"><path class="cls-18" d="M1074.77,924.84C999.85,933.28,885.63,950.54,850,980c-99.06,81.91-126.6,142.76-126.6,287.16v87.19c0,54.47,3.06,81.11,40,112.78,48.05,41.21,421,55.24,605.44,59.69"/><polygon class="cls-19" points="1368.95 1523.29 1377.22 1526.98 1368.84 1530.29 1368.95 1523.29"/></g><g id="node30"><polygon class="cls-36" points="1782.8 1415.81 1603.05 1415.81 1603.05 1467.2 1782.8 1467.2 1782.8 1415.81"/><text class="cls-6" transform="translate(1607.18 1452.3) scale(0.83 1)">netty-<tspan class="cls-12" x="87.51" y="0">r</tspan><tspan x="100.11" y="0">esol</tspan><tspan class="cls-12" x="157.72" y="0">v</tspan><tspan x="173.98" y="0">er</tspan></text></g><g id="edge36"><path class="cls-18" d="M1211.66,942.27c2.47.61,4.93,1.18,7.35,1.7,161.36,34.55,727.11-48,727.11,148.78v174.38c0,52.1,4.85,76.94-26.65,112.78-41.84,47.6-70.87,22.52-128.33,35.1"/><polygon class="cls-19" points="1791.59 1418.47 1782.84 1417.05 1790.42 1411.62 1791.59 1418.47"/></g><g id="node31"><polygon class="cls-36" points="1487.96 979.87 1263.23 979.87 1263.23 1031.26 1487.96 1031.26 1487.96 979.87"/><text class="cls-6" transform="translate(1264.82 1016.36) scale(0.83 1)">netty-c<tspan class="cls-15" x="102.94" y="0">o</tspan><tspan x="121.11" y="0">d</tspan><tspan class="cls-16" x="140.18" y="0">e</tspan><tspan class="cls-37" x="156.72" y="0">c-http2</tspan></text></g><g id="edge37"><path class="cls-18" d="M1211.68,944.06l87.3,32.76"/><polygon class="cls-19" points="1300.14 973.59 1307.22 979.91 1298.4 980.27 1300.14 973.59"/></g><g id="node32"><polygon class="cls-36" points="1819.43 1067.06 1588.07 1067.06 1588.07 1118.45 1819.43 1118.45 1819.43 1067.06"/><text class="cls-6" transform="translate(1591.07 1103.55) scale(0.83 1)">netty-<tspan class="cls-12" x="87.51" y="0">r</tspan><tspan x="100.11" y="0">esol</tspan><tspan class="cls-12" x="157.72" y="0">v</tspan><tspan x="173.98" y="0">er-dns</tspan></text></g><g id="edge38"><path class="cls-18" d="M1211.67,942.22c2.47.62,4.92,1.21,7.34,1.75,142.56,31.7,186.83-17.36,324.83,36,46.53,18,94.12,54.31,125.14,80.89"/><polygon class="cls-19" points="1671.07 1058.36 1676.11 1067.05 1667.65 1064.03 1671.07 1058.36"/></g><g id="edge39"><path class="cls-18" d="M1313.34,439.47c16.82,61.51,51.67,219,4,330.13-23.68,55.13-73.11,94.31-113.27,118.57"/><polygon class="cls-19" points="1205.14 891.41 1196.38 892.68 1202.57 885.13 1205.14 891.41"/></g><g id="node33"><polygon class="cls-23" points="1309.71 718.3 1060.02 718.3 1060.02 769.7 1309.71 769.7 1309.71 718.3"/><text class="cls-6" transform="translate(1065.41 754.8) scale(0.83 1)"><tspan class="cls-12">v</tspan><tspan x="16.26" y="0">ertx-</tspan><tspan class="cls-14" x="85.89" y="0">w</tspan><tspan x="111.52" y="0">eb-common</tspan></text></g><g id="edge40"><path class="cls-18" d="M1296.26,439.11l-98.55,269.72"/><polygon class="cls-19" points="1200.33 710.37 1194.32 718.12 1194.99 707.56 1200.33 710.37"/></g><g id="node34"><polygon class="cls-23" points="1162.3 805.49 910.92 805.49 910.92 856.88 1162.3 856.88 1162.3 805.49"/><text class="cls-6" transform="translate(913.59 841.99) scale(0.83 1)"><tspan class="cls-12">v</tspan><tspan x="16.26" y="0">ertx-auth-common</tspan></text></g><g id="edge41"><path class="cls-18" d="M1274,439.18c-55,47-167.61,153.44-221.54,279.22-10.17,23.73-14,53.64-15.39,76.69"/><polygon class="cls-19" points="1039.95 795.36 1036.58 805.15 1034.13 794.98 1039.95 795.36"/></g><g id="node35"><polygon class="cls-23" points="1502.94 892.68 1226.59 892.68 1226.59 944.07 1502.94 944.07 1502.94 892.68"/><text class="cls-6" transform="translate(1231.58 929.17) scale(0.83 1)"><tspan class="cls-12">v</tspan><tspan x="16.26" y="0">ertx-brid</tspan><tspan class="cls-9" x="145.23" y="0">g</tspan><tspan x="162.63" y="0">e-common</tspan></text></g><g id="edge42"><path class="cls-18" d="M1309.17,439.11c7.18,52.4,23.77,175.53,35.61,279.29,6.55,57.4,13,124.27,16.72,164.31"/><polygon class="cls-19" points="1364.41 882.45 1362.44 892.77 1358.62 883.22 1364.41 882.45"/></g><g id="edge90"><path class="cls-18" d="M2191.8,439.11c-5.74,58.46-19.82,201.65-26.42,268.9"/><polygon class="cls-19" points="2168.25 708.61 2164.38 718.12 2162.46 707.78 2168.25 708.61"/></g><g id="edge91"><path class="cls-18" d="M2200.08,439.37c13.45,59.38,48.82,209.41,89.19,330.23,2.95,8.83,6.5,18.16,10,26.82"/><polygon class="cls-19" points="2301.91 794.97 2302.98 805.49 2296.68 798.07 2301.91 794.97"/></g><g id="node40"><polygon class="cls-38" points="2594.94 805.49 2371.73 805.49 2371.73 856.88 2594.94 856.88 2594.94 805.49"/><text class="cls-6" transform="translate(2376.98 841.99) scale(0.83 1)"><tspan class="cls-9">k</tspan><tspan x="17.56" y="0">otlin-stdlib-jdk8</tspan></text></g><g id="edge92"><path class="cls-18" d="M2206.87,439.29c24.55,49.6,81.79,160.54,141.54,243.12,31.57,43.63,73,87.68,101.55,116.4"/><polygon class="cls-19" points="2452.03 796.33 2456.57 805.41 2448.3 801.71 2452.03 796.33"/></g><g id="edge93"><path class="cls-18" d="M2206.75,769.69,2264,802.44"/><polygon class="cls-19" points="2265.5 799.42 2271.76 806.88 2262.99 805.74 2265.5 799.42"/></g><g id="edge96"><path class="cls-18" d="M2246.1,766.85l134.43,36.46"/><polygon class="cls-19" points="2381.35 799.94 2388.83 805.56 2380.07 806.77 2381.35 799.94"/></g><g id="node41"><polygon class="cls-39" points="2135.11 805.49 1990.34 805.49 1990.34 856.88 2135.11 856.88 2135.11 805.49"/><text class="cls-6" transform="translate(1995.68 841.99) scale(0.83 1)">fram<tspan class="cls-40" x="70.43" y="0">e</tspan><tspan class="cls-32" x="86.47" y="0">w</tspan><tspan x="112.1" y="0">ork</tspan></text></g><g id="edge94"><path class="cls-18" d="M2132.64,769.69l-33.81,29.73"/><polygon class="cls-19" points="2100.5 802.29 2092.06 805.38 2097.06 796.65 2100.5 802.29"/></g><g id="node42"><polygon class="cls-39" points="2075.93 892.68 1829.64 892.68 1829.64 944.07 2075.93 944.07 2075.93 892.68"/><text class="cls-6" transform="translate(1832.52 929.17) scale(0.83 1)">fram<tspan class="cls-40" x="70.43" y="0">e</tspan><tspan class="cls-32" x="86.47" y="0">w</tspan><tspan x="112.1" y="0">ork-internal</tspan></text></g><g id="edge95"><path class="cls-18" d="M2163.47,769.85c.37,25.4-2.55,63.63-20.79,86.93-10.15,13-35.26,24.24-64,33.45"/><polygon class="cls-19" points="2079.26 893.66 2070.46 892.78 2077.8 886.89 2079.26 893.66"/></g><g id="edge97"><path class="cls-18" d="M1968.66,769.69l-29.27,29.18"/><polygon class="cls-19" points="1941.13 801.69 1932.86 805.38 1937.4 796.3 1941.13 801.69"/></g><g id="edge98"><path class="cls-18" d="M2455.55,439.11l93.1,269.72"/><polygon class="cls-19" points="2551.36 707.55 2551.86 718.12 2545.98 710.23 2551.36 707.55"/></g><g id="edge99"><path class="cls-18" d="M2440.86,439.15c-13.82,59.55-50.89,211-96.62,330.45-3.45,9-7.68,18.43-11.86,27.1"/><polygon class="cls-19" points="2334.82 798.6 2328.07 805.42 2329.81 795.03 2334.82 798.6"/></g><g id="edge100"><path class="cls-18" d="M2447.87,439.47c2.84,59,10.93,207.2,25.47,330.13,1,8.43,2.32,17.46,3.67,25.93"/><polygon class="cls-19" points="2479.9 795.03 2478.66 805.51 2474.18 796.39 2479.9 795.03"/></g><g id="node39"><polygon class="cls-41" points="2796.45 805.49 2609.99 805.49 2609.99 856.88 2796.45 856.88 2796.45 805.49"/><text class="cls-6" transform="translate(2612.44 841.99) scale(0.83 1)">antlr4-<tspan class="cls-42" x="99.48" y="0">r</tspan><tspan x="112.33" y="0">untime</tspan></text></g><g id="edge101"><path class="cls-18" d="M2602.75,769.69l51.05,31.25"/><polygon class="cls-19" points="2655.21 797.87 2661.31 805.53 2652.56 804.11 2655.21 797.87"/></g><g id="edge103"><path class="cls-18" d="M2538,769.69l-25.43,28.62"/><polygon class="cls-19" points="2514.33 801.1 2506.26 805.38 2510.34 795.99 2514.33 801.1"/></g><g id="node43"><polygon class="cls-33" points="2910.6 892.68 2822.33 892.68 2822.33 944.07 2910.6 944.07 2910.6 892.68"/><text class="cls-6" transform="translate(2830.22 929.17) scale(0.83 1)">jsr305</text></g><g id="edge102"><path class="cls-18" d="M2640.93,756.31C2701.19,767,2777.7,784.18,2804,805.59c23.28,19,40.1,52.15,50.38,77.64"/><polygon class="cls-19" points="2857.13 882.03 2858 892.57 2851.85 884.98 2857.13 882.03"/></g><g id="edge106"><path class="cls-18" d="M2356.74,854.26c2.51,1,5,1.8,7.49,2.52,181.44,52.7,234.69.07,418.94,36,10,2,20.58,4.67,30.71,7.61"/><polygon class="cls-19" points="2814.88 897.09 2822.25 902.91 2813.46 903.88 2814.88 897.09"/></g><g id="node44"><polygon class="cls-33" points="2259.17 892.68 2091.16 892.68 2091.16 944.07 2259.17 944.07 2259.17 892.68"/><text class="cls-6" transform="translate(2096.7 929.17) scale(0.83 1)">failu<tspan class="cls-12" x="66.35" y="0">r</tspan><tspan class="cls-43" x="78.95" y="0">e</tspan><tspan x="95.42" y="0">access</tspan></text></g><g id="edge104"><path class="cls-18" d="M2273.28,856.87,2223.64,888"/><polygon class="cls-19" points="2224.82 891.2 2216.09 892.72 2222.13 884.99 2224.82 891.2"/></g><g id="node45"><polygon class="cls-33" points="2290.86 979.87 2091.12 979.87 2091.12 1031.26 2290.86 1031.26 2290.86 979.87"/><text class="cls-6" transform="translate(2094.17 1016.36) scale(0.83 1)">listenablefutu<tspan class="cls-12" x="203.56" y="0">r</tspan><tspan x="216.16" y="0">e</tspan></text></g><g id="edge105"><path class="cls-18" d="M2307,857.14c-7.65,24.42-21.21,61-40.17,86.83-8.27,11.29-18.63,21.46-29,30.14"/><polygon class="cls-19" points="2239.14 977.21 2230.6 979.87 2235.89 971.4 2239.14 977.21"/></g><g id="node46"><polygon class="cls-33" points="2372.45 1067.06 2064.5 1067.06 2064.5 1118.45 2372.45 1118.45 2372.45 1067.06"/><text class="cls-6" transform="translate(2064.63 1103.55) scale(0.83 1)">er<tspan class="cls-12" x="29.07" y="0">r</tspan><tspan x="41.67" y="0">or_p</tspan><tspan class="cls-32" x="108.76" y="0">r</tspan><tspan class="cls-27" x="121.36" y="0">one_annotations</tspan></text></g><g id="edge107"><path class="cls-18" d="M2317.85,857.07c4.43,40.4,8.33,119.45-19.42,174.09-6,11.9-14.81,21.92-24.35,30.18"/><polygon class="cls-19" points="2275.57 1064.36 2267.03 1067.05 2272.31 1058.56 2275.57 1064.36"/></g><g id="node47"><polygon class="cls-33" points="2514.11 1154.24 2277.65 1154.24 2277.65 1205.64 2514.11 1205.64 2514.11 1154.24"/><text class="cls-6" transform="translate(2280.95 1190.74) scale(0.83 1)">j2objc-annotations</text></g><g id="edge108"><path class="cls-18" d="M2321.61,856.94c3.14,11,6.83,24.06,10.14,35.84,21.71,77.4,31.87,95.12,48.31,174.38,5.27,25.45,9.32,54.66,12,77"/><polygon class="cls-19" points="2394.96 1143.79 2393.23 1154.18 2389.18 1144.76 2394.96 1143.79"/></g><g id="node48"><polygon class="cls-23" points="2537.37 892.68 2369.33 892.68 2369.33 944.07 2537.37 944.07 2537.37 892.68"/><text class="cls-6" transform="translate(2374.11 929.17) scale(0.83 1)">ch<tspan class="cls-44" x="35.19" y="0">e</tspan><tspan x="51.72" y="0">c</tspan><tspan class="cls-9" x="67.16" y="0">k</tspan><tspan x="84.71" y="0">er-qual</tspan></text></g><g id="edge109"><path class="cls-18" d="M2355.24,856.87,2404.87,888"/><polygon class="cls-19" points="2406.39 884.99 2412.42 892.72 2403.69 891.2 2406.39 884.99"/></g><g id="edge21"><path class="cls-18" d="M381,1118.44l75.4,32.35"/><polygon class="cls-19" points="457.72 1147.63 464.59 1154.29 455.76 1154.22 457.72 1147.63"/></g><g id="edge22"><path class="cls-18" d="M562,1118.44,545.17,1146"/><polygon class="cls-19" points="547.44 1148.14 540.16 1154.13 542.74 1144 547.44 1148.14"/></g><g id="edge45"><path class="cls-18" d="M1102.88,1031.25l58.07,31.66"/><polygon class="cls-19" points="1162.25 1059.78 1168.63 1067.1 1159.84 1066.15 1162.25 1059.78"/></g><g id="edge47"><path class="cls-18" d="M1053.36,1031.19c-1.15,24.86.4,62.36,16.56,87.16,21.48,33,45.12,10.05,72.47,36,49.59,47.05,42.42,80.5,83.28,138.38,6.78,9.6,14.55,19.5,21.94,28.47"/><polygon class="cls-19" points="1249.86 1318.95 1253.7 1328.49 1245.74 1323.9 1249.86 1318.95"/></g><g id="edge48"><path class="cls-18" d="M1007.57,1031.23c-57.25,34.48-141.33,100.06-110.05,174.31,49.15,116.68,97.15,123.22,197.39,174.37,37.48,19.13,138.62,37.56,213.11,49.2"/><polygon class="cls-19" points="1308.4 1425.64 1316.28 1430.39 1307.65 1432.58 1308.4 1425.64"/></g><g id="edge49"><path class="cls-18" d="M972.81,1031.25c-89,34.28-217.72,106.25-217.72,235.88v87.19c0,166,161.43,77.5,296.51,112.78,106.92,27.93,231.62,44.21,317.16,53"/><polygon class="cls-19" points="1369.12 1516.57 1377.18 1520.89 1368.63 1523.55 1369.12 1516.57"/></g><g id="node36"><polygon class="cls-36" points="1492.96 1241.43 1339.85 1241.43 1339.85 1292.83 1492.96 1292.83 1492.96 1241.43"/><text class="cls-6" transform="translate(1343.53 1277.93) scale(0.83 1)">netty-c<tspan class="cls-15" x="102.94" y="0">o</tspan><tspan x="121.11" y="0">d</tspan><tspan class="cls-16" x="140.18" y="0">e</tspan><tspan class="cls-37" x="156.72" y="0">c</tspan></text></g><g id="edge46"><path class="cls-18" d="M1061.23,1031.24c6.52,25.62,19.5,64.37,42,87.11,34.94,35.3,55.45,17,98.28,36,56.45,25.06,119.34,58.77,162.42,82.8"/><polygon class="cls-19" points="1365.43 1234.12 1371.75 1241.51 1362.97 1240.46 1365.43 1234.12"/></g><g id="node37"><polygon class="cls-36" points="1134.79 1154.24 905.11 1154.24 905.11 1205.64 1134.79 1205.64 1134.79 1154.24"/><text class="cls-6" transform="translate(908.65 1190.74) scale(0.83 1)">netty-c<tspan class="cls-15" x="102.94" y="0">o</tspan><tspan x="121.11" y="0">d</tspan><tspan class="cls-16" x="140.18" y="0">e</tspan><tspan class="cls-37" x="156.72" y="0">c-s</tspan><tspan class="cls-16" x="198.38" y="0">o</tspan><tspan x="216.62" y="0">cks</tspan></text></g><g id="edge50"><path class="cls-18" d="M1050.48,1031.29c-6.14,29.88-16.3,79.35-23.19,112.94"/><polygon class="cls-19" points="1030.08 1145.23 1025.26 1154.1 1024.42 1143.56 1030.08 1145.23"/></g><g id="edge51"><path class="cls-18" d="M1314.83,1118.38l143.15,37"/><polygon class="cls-19" points="1458.69 1151.98 1466.22 1157.51 1457.47 1158.83 1458.69 1151.98"/></g><g id="edge53"><path class="cls-18" d="M1216,1118.63c1.16,39.06,6,114.79,25.49,174.09a164.11,164.11,0,0,0,12.38,27.54"/><polygon class="cls-19" points="1256.29 1318.3 1258.67 1328.5 1251.51 1322.3 1256.29 1318.3"/></g><g id="edge54"><path class="cls-18" d="M1202,1118.62c-26.88,54.61-79.78,183-28,261.29,16.87,25.51,79.62,41.41,133.92,50.65"/><polygon class="cls-19" points="1308.4 1427.1 1316.25 1431.93 1307.61 1434.03 1308.4 1427.1"/></g><g id="edge55"><path class="cls-18" d="M1110.63,1105c-87.21,11.46-199.17,29.72-213.11,49.37-12.29,17.32-7.65,30.38,0,51.2,58.67,159.7,111.92,188.67,244,261.56,39.45,21.77,145.73,39.16,227.09,49.83"/><polygon class="cls-19" points="1368.96 1513.46 1376.92 1518.01 1368.33 1520.41 1368.96 1513.46"/></g><g id="edge52"><path class="cls-18" d="M1305.66,1118.37c19.18,8.83,38.38,20.54,54.11,36,20.83,20.44,35.91,52.66,45.25,77.44"/><polygon class="cls-19" points="1407.79 1230.64 1408.44 1241.21 1402.44 1233.43 1407.79 1230.64"/></g><g id="edge57"><path class="cls-18" d="M1546.77,1205.58c-7.45,26-22,65.35-46.24,87.14-19.55,17.59-71.63,32.44-120.67,43.15"/><polygon class="cls-19" points="1380.1 1339.38 1371.39 1337.69 1379.08 1332.49 1380.1 1339.38"/></g><g id="edge58"><path class="cls-18" d="M1551,1205.73c-2.65,24-8.68,59.91-22.14,87-23.85,48-64.41,89.81-94.7,116.81"/><polygon class="cls-19" points="1435.52 1412.66 1427.08 1415.74 1432.09 1407.01 1435.52 1412.66"/></g><g id="edge59"><path class="cls-18" d="M1554,1205.76c.41,23-.1,57.59-5.14,87-12.8,74.69-43.73,156.32-62.4,201.31"/><polygon class="cls-19" points="1488.99 1495.71 1482.64 1503.06 1483.78 1492.56 1488.99 1495.71"/></g><g id="edge60"><path class="cls-18" d="M1569.68,1205.62c6.89,10.91,14.84,23.86,21.63,35.91,31.87,56.57,65.65,125,85.12,165.34"/><polygon class="cls-19" points="1679.07 1405.36 1680.71 1415.77 1674.03 1408.86 1679.07 1405.36"/></g><g id="edge56"><path class="cls-18" d="M1512.76,1205.63,1464,1236.74"/><polygon class="cls-19" points="1465.32 1239.87 1456.6 1241.47 1462.58 1233.69 1465.32 1239.87"/></g><g id="edge64"><path class="cls-18" d="M1311.33,1380c12.87,9.5,27.61,20.36,41.08,30.29"/><polygon class="cls-19" points="1354.17 1407.48 1359.75 1415.7 1351.12 1413.45 1354.17 1407.48"/></g><g id="edge65"><path class="cls-18" d="M1278.41,1380.25c3,25.45,10.77,63.73,30.55,86.85,10.06,11.75,35,23.25,62.34,33.07"/><polygon class="cls-19" points="1372.29 1496.87 1379.47 1503.03 1370.66 1503.59 1372.29 1496.87"/></g><g id="edge66"><path class="cls-18" d="M1371.5,1374.21l222.92,46.67"/><polygon class="cls-19" points="1595.25 1417.5 1602.95 1422.67 1594.24 1424.4 1595.25 1417.5"/></g><g id="edge67"><path class="cls-18" d="M1417.33,1467.19l25.15,28.63"/><polygon class="cls-19" points="1444.66 1493.47 1448.7 1502.89 1440.65 1498.55 1444.66 1493.47"/></g><g id="edge68"><path class="cls-18" d="M1627.65,1467.19l-82.89,32.62"/><polygon class="cls-19" points="1545.39 1503.25 1536.57 1503.04 1543.57 1496.6 1545.39 1503.25"/></g><g id="edge73"><path class="cls-18" d="M1328.48,1031.25l-58.07,31.66"/><polygon class="cls-19" points="1271.52 1066.15 1262.73 1067.1 1269.11 1059.78 1271.52 1066.15"/></g><g id="edge74"><path class="cls-18" d="M1401.77,1031.29l118.37,116.36"/><polygon class="cls-19" points="1522.12 1145.06 1526.71 1154.1 1518.42 1150.48 1522.12 1145.06"/></g><g id="edge76"><path class="cls-18" d="M1366.28,1031.37c-15.27,43-46,132.28-66.48,210.16-6.68,25.41-12.67,54.63-16.91,77"/><polygon class="cls-19" points="1285.68 1319.54 1281.01 1328.53 1279.99 1318.01 1285.68 1319.54"/></g><g id="edge77"><path class="cls-18" d="M1371.73,1031.17c-3.53,22.9-9,57.36-14.46,87.18-14,76.81-56.38,105.35-25,174.37,11.81,26,33.08,11.3,46.65,36,12.4,22.57,16.08,53,16.82,76.61"/><polygon class="cls-19" points="1398.67 1405.57 1395.9 1415.62 1392.84 1405.69 1398.67 1405.57"/></g><g id="edge78"><path class="cls-18" d="M1488,1016.25c112.42,11.52,277.22,30.91,339,50.91,100.31,32.47,214-11.94,214,112.78v174.38c0,28.79,3.66,56.47-103.28,112.78-63.09,33.22-246.42,49.43-363.56,56.61"/><polygon class="cls-19" points="1574.03 1527.22 1565.56 1524.23 1573.73 1520.23 1574.03 1527.22"/></g><g id="edge75"><path class="cls-18" d="M1380.71,1031.27c2.13,11,4.56,24.06,6.54,35.89,9.59,57.25,19,124.16,24.41,164.24"/><polygon class="cls-19" points="1414.57 1231.05 1413.02 1241.48 1408.81 1232.17 1414.57 1231.05"/></g><g id="edge79"><path class="cls-18" d="M1659.34,1118.44c-17,9.84-36.6,21.16-54.27,31.39"/><polygon class="cls-19" points="1606.13 1153.1 1597.36 1154.29 1603.6 1146.79 1606.13 1153.1"/></g><g id="edge81"><path class="cls-18" d="M1587.82,1103.87c-50.91,8.55-110.39,23.69-160.59,50.47-48.55,25.91-59.64,39.53-95,87.19-17.28,23.33-32.06,54-42.06,77.5"/><polygon class="cls-19" points="1292.7 1320.91 1286.37 1328.29 1287.49 1317.78 1292.7 1320.91"/></g><g id="edge82"><path class="cls-18" d="M1804.58,1118.38c28.39,9.8,53.89,22,62.42,36,11.21,18.35,10.29,32.09,0,51.2-84.33,156.48-273.71,209.28-385.34,227"/><polygon class="cls-19" points="1481.73 1436.09 1473.1 1433.89 1480.99 1429.15 1481.73 1436.09"/></g><g id="edge83"><path class="cls-18" d="M1819.47,1110.55c33.76,9.14,69.69,22.94,100,43.79,50.16,34.5,90,43.39,90,112.79v87.19c0,107.06-279,150.36-435.21,166.2"/><polygon class="cls-19" points="1574.25 1524.03 1565.71 1521.37 1573.77 1517.05 1574.25 1524.03"/></g><g id="edge84"><path class="cls-18" d="M1819.58,1115.66c33.87,9.7,64.6,22.55,74.9,38.68,50.81,79.57,51.26,146.42,0,225.57-13.35,20.62-58.79,35.48-103.15,45.43"/><polygon class="cls-19" points="1791.78 1428.79 1783.07 1427.14 1790.74 1421.91 1791.78 1428.79"/></g><g id="edge80"><path class="cls-18" d="M1588.05,1109.66c-53.08,10.16-108.72,25-129.17,44.68-19.87,19.16-30.78,51.89-36.55,77.18"/><polygon class="cls-19" points="1425.1 1232.65 1420.23 1241.49 1419.45 1230.94 1425.1 1232.65"/></g><g id="node38"><polygon class="cls-36" points="1859.42 1154.24 1654.69 1154.24 1654.69 1205.64 1859.42 1205.64 1859.42 1154.24"/><text class="cls-6" transform="translate(1657.24 1190.74) scale(0.83 1)">netty-c<tspan class="cls-34" x="102.94" y="0">o</tspan><tspan x="121.11" y="0">d</tspan><tspan class="cls-44" x="140.18" y="0">e</tspan><tspan x="156.72" y="0">c-dns</tspan></text></g><g id="edge85"><path class="cls-18" d="M1719.46,1118.44l16.81,27.51"/><polygon class="cls-19" points="1738.7 1144 1741.28 1154.13 1734 1148.14 1738.7 1144"/></g><g id="edge43"><path class="cls-18" d="M1183.41,769.63c-1.76,23.23-5.57,58.16-13.54,87.15a220,220,0,0,1-9.55,26.81"/><polygon class="cls-19" points="1162.85 885.32 1156.38 892.51 1157.7 882.04 1162.85 885.32"/></g><g id="edge44"><path class="cls-18" d="M1068,856.87l36.7,30"/><polygon class="cls-19" points="1106.42 884.05 1111.66 892.57 1103.14 889.83 1106.42 884.05"/></g><g id="edge61"><path class="cls-18" d="M1375.18,1292.82l-49.93,31.11"/><polygon class="cls-19" points="1326.39 1327.16 1317.65 1328.66 1323.7 1320.95 1326.39 1327.16"/></g><g id="edge62"><path class="cls-18" d="M1414.85,1292.78c-1.56,22.93-4.32,57.41-8.44,87.13-1.17,8.46-2.71,17.5-4.29,26"/><polygon class="cls-19" points="1404.91 1406.91 1400.19 1415.87 1399.23 1405.34 1404.91 1406.91"/></g><g id="edge63"><path class="cls-18" d="M1431.52,1292.75c15.8,28.5,39.59,76.67,49,123.16,5.12,25.25,2.51,54.46-1.2,76.83"/><polygon class="cls-19" points="1482.13 1493.79 1477.51 1502.81 1476.43 1492.3 1482.13 1493.79"/></g><g id="edge70"><path class="cls-18" d="M1054.83,1205.69c31.85,23.31,80.39,58.28,123.37,87,15.68,10.49,33,21.51,48.63,31.28"/><polygon class="cls-19" points="1228.31 1320.98 1234.37 1328.69 1225.63 1327.2 1228.31 1320.98"/></g><g id="edge71"><path class="cls-18" d="M1029.92,1205.87c17.88,43.44,59,130.45,116.63,174,26.62,20.14,101,37,161.4,48"/><polygon class="cls-19" points="1308.57 1424.45 1316.38 1429.38 1307.71 1431.37 1308.57 1424.45"/></g><g id="edge72"><path class="cls-18" d="M1023.13,1205.77c6.53,43.29,25,130.09,71.78,174.14,79.83,75.16,192.58,113.09,273.85,131.75"/><polygon class="cls-19" points="1369.37 1508.24 1377.02 1513.52 1368.29 1515.12 1369.37 1508.24"/></g><g id="edge69"><path class="cls-18" d="M1134.89,1205.22l196.5,43.21"/><polygon class="cls-19" points="1332.05 1245.02 1339.71 1250.26 1331 1251.9 1332.05 1245.02"/></g><g id="edge87"><path class="cls-18" d="M1712.3,1205.63c-45.35,25.18-118,63.16-183.45,87.09-48.22,17.63-102.91,31.67-149,41.88"/><polygon class="cls-19" points="1380.34 1338.04 1371.62 1336.39 1379.29 1331.16 1380.34 1338.04"/></g><g id="edge88"><path class="cls-18" d="M1726.25,1205.63c-47.85,39.45-143.36,116.46-228.22,174.28-15.93,10.86-33.67,21.82-49.89,31.43"/><polygon class="cls-19" points="1449.32 1414.54 1440.56 1415.8 1446.76 1408.26 1449.32 1414.54"/></g><g id="edge89"><path class="cls-18" d="M1769.7,1205.8c25.14,55.14,74.51,185.44,20.67,261.3-14.12,19.89-128.42,38.31-216.21,49.72"/><polygon class="cls-19" points="1574.35 1520.32 1565.75 1517.91 1573.72 1513.36 1574.35 1520.32"/></g><g id="edge86"><path class="cls-18" d="M1656.92,1205.57l-155.37,39.77"/><polygon class="cls-19" points="1501.94 1248.81 1493.19 1247.48 1500.73 1241.97 1501.94 1248.81"/></g><g id="node49"><polygon class="cls-38" points="2775.68 892.68 2552.46 892.68 2552.46 944.07 2775.68 944.07 2775.68 892.68"/><text class="cls-6" transform="translate(2557.72 929.17) scale(0.83 1)"><tspan class="cls-9">k</tspan><tspan x="17.56" y="0">otlin-stdlib-jdk7</tspan></text></g><g id="edge110"><path class="cls-18" d="M2536.58,856.87,2603.07,889"/><polygon class="cls-19" points="2604.25 885.75 2610.89 892.72 2602.07 892.24 2604.25 885.75"/></g><g id="node50"><polygon class="cls-38" points="2779.02 979.87 2619.09 979.87 2619.09 1031.26 2779.02 1031.26 2779.02 979.87"/><text class="cls-6" transform="translate(2624.22 1016.36) scale(0.83 1)"><tspan class="cls-9">k</tspan><tspan x="17.56" y="0">otlin-stdlib</tspan></text></g><g id="edge111"><path class="cls-18" d="M2595.22,855.28l7.22,1.5c40.12,8.31,154.41-1.28,180.73,36,12.26,17.35,9.28,31.35,0,51.19-5.66,12.11-14.19,22.11-23.69,30.28"/><polygon class="cls-19" points="2760.97 977.27 2752.42 979.88 2757.74 971.44 2760.97 977.27"/></g><g id="edge112"><path class="cls-18" d="M2674.38,944.06c3.35,8.35,7.12,17.77,10.7,26.67"/><polygon class="cls-19" points="2687.71 969.23 2688.7 979.76 2682.46 972.27 2687.71 969.23"/></g><g id="node51"><polygon class="cls-38" points="2694.84 1067.06 2420.01 1067.06 2420.01 1118.45 2694.84 1118.45 2694.84 1067.06"/><text class="cls-6" transform="translate(2423.92 1103.55) scale(0.83 1)"><tspan class="cls-9">k</tspan><tspan x="17.56" y="0">otlin-stdlib-common</tspan></text></g><g id="edge113"><path class="cls-18" d="M2674.38,1031.29c-23.15,25-101.8,16.67-111.69,27.73"/></g><g id="node52"><polygon class="cls-38" points="2807.26 1154.24 2542.54 1154.24 2542.54 1205.64 2807.26 1205.64 2807.26 1154.24"/><text class="cls-6" transform="translate(2542.3 1190.74) scale(0.83 1)">jetbrains-annotations</text></g><g id="edge114"><path class="cls-18" d="M2695.49,1031.29c-4.14,29.88,52.17,42.75-15.65,112.94"/><polygon class="cls-19" points="2682.72 1144.82 2678.48 1154.1 2676.97 1143.67 2682.72 1144.82"/></g></g><polygon class="cls-19" points="2564.83 1061.75 2556.76 1066.04 2560.84 1056.65 2564.83 1061.75"/><polyline class="cls-45" points="1678.06 769.08 1884 769.08 1884 717.68 1678.06 717.68"/><text class="cls-6" transform="translate(1688.47 754.18) scale(0.83 1)"><tspan class="cls-34">b</tspan><tspan x="18.31" y="0">cp</tspan><tspan class="cls-12" x="52.57" y="0">r</tspan><tspan class="cls-17" x="65.17" y="0">o</tspan><tspan class="cls-30" x="82.92" y="0">v-jdk15on</tspan></text><g id="edge9-2" data-name="edge9"><path class="cls-18" d="M1566.93,108.09c-6.13,103.12-17.44,362.87,18.79,442.54,24.87,54.67,147.83,27.16,179.44,92.41,10.06,18.49,10.22,47.93,11.61,65.83"/><polygon class="cls-19" points="1779.9 708.87 1777.46 716.78 1774.08 709.18 1779.9 708.87"/></g></g></g></svg>