<svg xmlns="http://www.w3.org/2000/svg" viewBox="0 0 1598.22 1223.28"><defs><style>.cls-1{fill:#9b9fc2;}.cls-2{fill:#255bff;stroke:#255bff;}.cls-2,.cls-48,.cls-5,.cls-7,.cls-8{stroke-width:0.25px;}.cls-22,.cls-24,.cls-3,.cls-30,.cls-6,.cls-9{isolation:isolate;font-family:LinBiolinum, Linux Biolinum;}.cls-3{font-size:18px;fill:#fff;letter-spacing:0em;}.cls-4{letter-spacing:0em;}.cls-5{fill:#87e9ff;stroke:#87e9ff;}.cls-22,.cls-6{font-size:16px;}.cls-7{fill:none;}.cls-7,.cls-8{stroke:#000;}.cls-24,.cls-30,.cls-9{font-size:15px;}.cls-10{fill:#6f9974;}.cls-11,.cls-24{letter-spacing:0em;}.cls-12{fill:#ca97a5;}.cls-13{letter-spacing:0.01em;}.cls-14{letter-spacing:0em;}.cls-15{fill:#bcb598;}.cls-16{letter-spacing:0.01em;}.cls-17,.cls-30{letter-spacing:0em;}.cls-18{letter-spacing:0.01em;}.cls-19{letter-spacing:0em;}.cls-20{letter-spacing:-0.02em;}.cls-21{letter-spacing:0em;}.cls-22{letter-spacing:-0.01em;}.cls-23{letter-spacing:0em;}.cls-25{fill:#93c4c6;}.cls-26{fill:#abd18e;}.cls-27{fill:#dfa4ca;}.cls-28{letter-spacing:0.01em;}.cls-29{letter-spacing:0em;}.cls-31{fill:#f7b5a0;}.cls-32{letter-spacing:0em;}.cls-33{fill:#e1c57f;}.cls-34{letter-spacing:0.01em;}.cls-35{letter-spacing:0.01em;}.cls-36{fill:#7eb5d0;}.cls-37{letter-spacing:-0.01em;}.cls-38{fill:#a8b3e2;}.cls-39{letter-spacing:0em;}.cls-40{fill:#98b67f;}.cls-41{fill:#c89475;}.cls-42{letter-spacing:0em;}.cls-43{letter-spacing:0em;}.cls-44{fill:#f8ae4d;}.cls-45{fill:#c4b0d6;}.cls-46{fill:#fac69e;}.cls-47{fill:#adbde3;}.cls-48{fill:#ffcb2b;stroke:#ffcb2b;}.cls-49{letter-spacing:0em;}.cls-50{letter-spacing:0.01em;}.cls-51{fill:#f08db9;}.cls-52{letter-spacing:0em;}</style></defs><g id="Layer_2" data-name="Layer 2"><g id="Layer_3" data-name="Layer 3"><polygon class="cls-1" points="134.66 646.34 0 646.34 0 682.34 134.66 682.34 134.66 646.34"/><g id="graph0"><g id="node1"><polygon class="cls-2" points="765.75 0.13 717.41 0.13 717.41 36.13 765.75 36.13 765.75 0.13"/><text class="cls-3" transform="translate(724.88 23.4) scale(0.9 1)">b<tspan class="cls-4" x="9.16" y="0">esu</tspan></text></g><g id="node2"><polygon class="cls-5" points="477.13 351.11 428.79 351.11 428.79 387.11 477.13 387.11 477.13 351.11"/><text class="cls-6" transform="translate(437.05 372.81) scale(0.9 1)">config</text></g><g id="edge1"><path class="cls-7" d="M717.2,19.6C564.71,22.66,634,319.41,486,351.79"/><polygon class="cls-8" points="486.63 355.21 477.22 353.94 485.28 348.37 486.63 355.21"/></g><g id="node3"><polygon class="cls-5" points="541.58 351.11 493.24 351.11 493.24 387.11 541.58 387.11 541.58 351.11"/><text class="cls-6" transform="translate(509.35 372.81) scale(0.9 1)">pki</text></g><g id="edge2"><path class="cls-7" d="M717.31,18.86c-138.37-1.27,61.07,274.26-166.76,332.71"/><polygon class="cls-8" points="551.11 355.02 541.67 353.95 549.64 348.21 551.11 355.02"/></g><g id="node4"><polygon class="cls-5" points="606.03 351.11 557.69 351.11 557.69 387.11 606.03 387.11 606.03 351.11"/><text class="cls-6" transform="translate(566.5 372.81) scale(0.9 1)">clique</text></g><g id="edge3"><path class="cls-7" d="M717.15,19.12C582,19.34,900,321.7,618.56,351.11c-1.13.28-2.28.6-3.42.95"/><polygon class="cls-8" points="615.84 355.49 606.35 355.25 613.9 348.83 615.84 355.49"/></g><g id="node5"><polygon class="cls-5" points="653.99 234.48 594.01 234.48 594.01 270.48 653.99 270.48 653.99 234.48"/><text class="cls-9" transform="translate(601.56 256.18) scale(0.9 1)">common</text></g><g id="edge4"><path class="cls-7" d="M717.14,19.6c-136,2.82-227,108.56-256.06,142.88-9.84,11.63-8.6,23.2,0,36,3.83,5.7,77.16,28,124.12,41.77"/><polygon class="cls-8" points="586.06 236.89 593.92 242.81 584.47 243.66 586.06 236.89"/></g><g id="node6"><polygon class="cls-5" points="221.04 216.13 153.9 216.13 153.9 252.13 221.04 252.13 221.04 216.13"/><text class="cls-9" transform="translate(161.12 237.83) scale(0.9 1)">plugin-api</text></g><g id="edge25"><path class="cls-7" d="M717.22,20C615.13,23.74,224.9,40.14,178.52,72.12c-39.48,27.23-57.35,60.22-39.39,108,4.15,11,11.49,21,19.21,29.15"/><polygon class="cls-8" points="160.52 206.75 165.15 215.99 156.37 211.99 160.52 206.75"/></g><g id="node7"><polygon class="cls-10" points="336.07 288.13 255.5 288.13 255.5 324.13 336.07 324.13 336.07 288.13"/><text class="cls-9" transform="translate(262.93 309.83) scale(0.9 1)">tu<tspan class="cls-11" x="13.15" y="0">w</tspan><tspan x="23.83" y="0">eni-units</tspan></text></g><g id="edge40"><path class="cls-7" d="M717.25,19.6c-95.86,2.18-443.7,12.78-476.07,52.52-9.64,11.85-6,21.47,0,36,9.19,22.35,27.24,14.31,37.6,36C299.1,186.71,299.83,244.46,298.09,278"/><polygon class="cls-8" points="301.22 278.21 297.47 287.94 294.97 277.73 301.22 278.21"/></g><g id="node8"><polygon class="cls-10" points="268.04 360.13 185.68 360.13 185.68 396.13 268.04 396.13 268.04 360.13"/><text class="cls-9" transform="translate(193.24 381.82) scale(0.9 1)">tu<tspan class="cls-11" x="13.15" y="0">w</tspan><tspan x="23.83" y="0">eni-</tspan><tspan class="cls-11" x="47.58" y="0">b</tspan><tspan x="55.06" y="0">ytes</tspan></text></g><g id="edge37"><path class="cls-7" d="M717,19.36C581.65,20.84,504.69,121,424.11,163l-27.58,27.52c-13.22,23.79-20.32,21.21-20.32,128.84,0,92.33-244.07,114-199.88,53.9"/><polygon class="cls-8" points="176.86 369.77 185.54 374.05 176.37 376.75 176.86 369.77"/></g><g id="node9"><polygon class="cls-12" points="327.12 432.13 278.78 432.13 278.78 468.13 327.12 468.13 327.12 432.13"/><text class="cls-6" transform="translate(287.57 453.82) scale(0.9 1)">guava</text></g><g id="edge30"><path class="cls-7" d="M717.32,19c-140.48-.69-230.63,89-312.53,143.51-16.6,15.65-31.14,41.89-31.14,41.89S351,260.66,372.27,372.81c0,0,6,19.38,47.3,31.93,56.67,31.22-211.71-29-149.74,27.39.08,0,.17.07.26.1"/><polygon class="cls-8" points="271.32 429 278.6 435.81 269.11 435.56 271.32 429"/></g><g id="node23"><polygon class="cls-5" points="517.47 162.48 469.13 162.48 469.13 198.48 517.47 198.48 517.47 162.48"/><text class="cls-9" transform="translate(484.42 184.18) scale(0.9 1)">ibft</text></g><g id="edge5"><path class="cls-7" d="M717.21,19.39c-113.6,1.44-25.14,100.19-190.81,143.55"/><polygon class="cls-8" points="527.02 166.37 517.57 165.37 525.52 159.58 527.02 166.37"/></g><g id="node24"><polygon class="cls-5" points="599.38 162.48 534.03 162.48 534.03 198.48 599.38 198.48 599.38 162.48"/><text class="cls-9" transform="translate(541.45 184.18) scale(0.9 1)">ibftle<tspan class="cls-11" x="31.56" y="0">g</tspan><tspan x="38.96" y="0">acy</tspan></text></g><g id="edge6"><path class="cls-7" d="M717.36,19.91c-105.48,3.62,41.26,110-109,142.94"/><polygon class="cls-8" points="608.9 166.3 599.5 164.89 607.63 159.45 608.9 166.3"/></g><g id="node25"><polygon class="cls-5" points="664.28 162.48 615.94 162.48 615.94 198.48 664.28 198.48 664.28 162.48"/><text class="cls-9" transform="translate(629.59 184.18) scale(0.9 1)">qbft</text></g><g id="edge7"><path class="cls-7" d="M717.38,20c-101,3.85,78.24,110.84-40.57,142.47-1.13.3-2.27.64-3.42,1"/><polygon class="cls-8" points="674.11 166.9 664.63 166.73 672.14 160.26 674.11 166.9"/></g><g id="node26"><polygon class="cls-5" points="917.03 144.13 868.69 144.13 868.69 180.13 917.03 180.13 917.03 144.13"/><text class="cls-6" transform="translate(876.18 165.83) scale(0.9 1)">c<tspan class="cls-13" x="6.86" y="0">r</tspan><tspan class="cls-14" x="12.7" y="0">ypto</tspan></text></g><g id="edge8"><path class="cls-7" d="M766,20.52C797,23.83,850.08,35,878.54,72.12c13,16.91,16,42.39,16.05,61.76"/><polygon class="cls-8" points="897.72 134 894.39 143.91 891.46 133.84 897.72 134"/></g><g id="node28"><polygon class="cls-15" points="1172.6 288.13 1112.62 288.13 1112.62 324.13 1172.6 324.13 1172.6 288.13"/><text class="cls-9" transform="translate(1120.16 309.83) scale(0.9 1)">log4j-api</text></g><g id="edge35"><path class="cls-7" d="M765.88,19.58c96.58,2,449.54,12.27,482.36,52.54,9.64,11.84,3.82,20.59,0,36-2.33,9.42-63.14,120.15-91.42,171.33"/><polygon class="cls-8" points="1159.47 281.32 1152.1 288 1154.13 277.65 1159.47 281.32"/></g><g id="node30"><polygon class="cls-5" points="443.62 234.48 378.27 234.48 378.27 270.48 443.62 270.48 443.62 234.48"/><text class="cls-9" transform="translate(385.53 256.18) scale(0.9 1)">dataty<tspan class="cls-16" x="40.16" y="0">p</tspan><tspan x="48.11" y="0">es</tspan></text></g><g id="edge9"><path class="cls-7" d="M717,18.88c-134-1.16-205.86,86.75-275.62,143.6-17.51,14.28-24.95,41.35-28.1,61.91"/><polygon class="cls-8" points="416.36 225.04 411.99 234.44 410.15 224.04 416.36 225.04"/></g><g id="node31"><polygon class="cls-5" points="1240.63 72.13 1187.82 72.13 1187.82 108.13 1240.63 108.13 1240.63 72.13"/><text class="cls-6" transform="translate(1195.07 93.83) scale(0.9 1)">encla<tspan class="cls-17" x="34.45" y="0">v</tspan><tspan x="41.67" y="0">e</tspan></text></g><g id="edge10"><path class="cls-7" d="M765.77,19.21c65.74.82,252.94,7.11,412.88,53.22"/><polygon class="cls-8" points="1179.59 69.08 1187.45 75.02 1178 75.86 1179.59 69.08"/></g><g id="node32"><polygon class="cls-5" points="297.57 72.13 249.24 72.13 249.24 108.13 297.57 108.13 297.57 72.13"/><text class="cls-6" transform="translate(265.49 93.83) scale(0.9 1)">api</text></g><g id="edge11"><path class="cls-7" d="M717.18,19c-65.85.19-252.41,5.05-410.76,53.47"/><polygon class="cls-8" points="307.18 75.83 297.71 75.16 305.49 69.09 307.18 75.83"/></g><g id="node33"><polygon class="cls-5" points="397.83 72.13 313.69 72.13 313.69 108.13 397.83 108.13 397.83 72.13"/><text class="cls-9" transform="translate(321.08 93.83) scale(0.9 1)">bl<tspan class="cls-18" x="11.34" y="0">o</tspan><tspan class="cls-19" x="18.94" y="0">c</tspan><tspan class="cls-20" x="25.37" y="0">k</tspan><tspan x="32.69" y="0">c</tspan><tspan class="cls-11" x="39.12" y="0">r</tspan><tspan class="cls-21" x="44.37" y="0">e</tspan><tspan x="51.23" y="0">ation</tspan></text></g><g id="edge12"><path class="cls-7" d="M717.34,21.51C663.13,27.14,527.94,42.88,407.07,72"/><polygon class="cls-8" points="407.45 75.5 398.03 74.23 406.11 68.67 407.45 75.5"/></g><g id="node34"><polygon class="cls-5" points="462.29 72.13 413.95 72.13 413.95 108.13 462.29 108.13 462.29 72.13"/><text class="cls-6" transform="translate(427.27 93.83) scale(0.9 1)">co<tspan class="cls-17" x="14.86" y="0">r</tspan><tspan x="20.46" y="0">e</tspan></text></g><g id="edge13"><path class="cls-7" d="M717.11,21.43C670.39,26.36,565.36,40,471.26,72.27"/><polygon class="cls-8" points="471.95 75.69 462.47 75.36 470.07 69.02 471.95 75.69"/></g><g id="node35"><polygon class="cls-5" points="526.74 72.13 478.4 72.13 478.4 108.13 526.74 108.13 526.74 72.13"/><text class="cls-6" transform="translate(494.16 93.83) scale(0.9 1)">eth</text></g><g id="edge14"><path class="cls-7" d="M717.22,23.41c-37.62,7-112.09,22.6-181.77,48.85"/><polygon class="cls-8" points="536.46 75.56 526.97 75.5 534.42 68.94 536.46 75.56"/></g><g id="node36"><polygon class="cls-5" points="591.19 72.13 542.85 72.13 542.85 108.13 591.19 108.13 591.19 72.13"/><text class="cls-6" transform="translate(557.69 93.83) scale(0.9 1)">p2p</text></g><g id="edge15"><path class="cls-7" d="M717.34,27.08C690.43,36.12,645.63,51.89,600,72"/><polygon class="cls-8" points="600.99 75.33 591.52 75.78 598.66 68.83 600.99 75.33"/></g><g id="node37"><polygon class="cls-5" points="695.03 72.13 607.3 72.13 607.3 108.13 695.03 108.13 695.03 72.13"/><text class="cls-9" transform="translate(614.88 93.83) scale(0.9 1)"><tspan class="cls-16">p</tspan><tspan x="7.95" y="0">ermissioning</tspan></text></g><g id="edge16"><path class="cls-7" d="M719.46,36.24,680.91,66.09"/><polygon class="cls-8" points="682.51 69.11 673.37 71.94 678.94 63.37 682.51 69.11"/></g><g id="node38"><polygon class="cls-5" points="772.01 72.13 711.14 72.13 711.14 108.13 772.01 108.13 772.01 72.13"/><text class="cls-9" transform="translate(718.57 93.83) scale(0.9 1)"><tspan class="cls-11">r</tspan><tspan x="5.25" y="0">etesteth</tspan></text></g><g id="edge17"><path class="cls-7" d="M741.58,36.42V62"/><polygon class="cls-8" points="744.71 62.02 741.58 72.03 738.45 62.02 744.71 62.02"/></g><g id="node39"><polygon class="cls-5" points="821.25 144.13 772.91 144.13 772.91 180.13 821.25 180.13 821.25 144.13"/><text class="cls-6" transform="translate(790 165.83) scale(0.9 1)">rlp</text></g><g id="edge18"><path class="cls-7" d="M757.2,36.29c8,9.74,17.19,22.57,22.87,35.83,8.36,19.54,12.65,43.68,14.82,61.89"/><polygon class="cls-8" points="798.01 133.62 795.94 143.97 791.78 134.44 798.01 133.62"/></g><g id="node40"><polygon class="cls-5" points="870.48 72.13 822.14 72.13 822.14 108.13 870.48 108.13 870.48 72.13"/><text class="cls-6" transform="translate(837.49 93.83) scale(0.9 1)">trie</text></g><g id="edge19"><path class="cls-7" d="M765.87,35.36,814,67.51"/><polygon class="cls-8" points="815.72 64.59 821.79 72.73 812.5 70.61 815.72 64.59"/></g><g id="node41"><polygon class="cls-5" points="202.69 144.13 147.19 144.13 147.19 180.13 202.69 180.13 202.69 144.13"/><text class="cls-9" transform="translate(154.54 165.83) scale(0.9 1)">stratum</text></g><g id="edge20"><path class="cls-7" d="M717.38,19.78c-99.61,2.94-474.6,16.31-515.59,52.34C185.09,86.8,178.7,113.59,176.3,134"/><polygon class="cls-8" points="179.4 134.32 175.37 143.91 173.17 133.59 179.4 134.32"/></g><g id="node42"><polygon class="cls-5" points="977.45 72.13 921.06 72.13 921.06 108.13 977.45 108.13 977.45 72.13"/><text class="cls-6" transform="translate(928.62 93.83) scale(0.9 1)">ethstats</text></g><g id="edge21"><path class="cls-7" d="M766,26.21c32.62,9.59,92.06,27.67,142.06,45.91l4.39,1.65"/><polygon class="cls-8" points="913.59 70.5 921 77.09 911.52 77.09 913.59 70.5"/></g><g id="node43"><polygon class="cls-5" points="1042.35 72.13 994.01 72.13 994.01 108.13 1042.35 108.13 1042.35 72.13"/><text class="cls-22" transform="translate(1007.48 93.83) scale(0.9 1)">e<tspan class="cls-23" x="7.13" y="0">vm</tspan></text></g><g id="edge22"><path class="cls-7" d="M765.9,22.24C810.27,28.4,907,44,985.06,72.12a1.48,1.48,0,0,0,.27.1"/><polygon class="cls-8" points="986.55 69 993.85 75.75 984.37 75.56 986.55 69"/></g><g id="node44"><polygon class="cls-5" points="1106.81 72.13 1058.47 72.13 1058.47 108.13 1106.81 108.13 1106.81 72.13"/><text class="cls-6" transform="translate(1071.79 93.83) scale(0.9 1)">co<tspan class="cls-17" x="14.86" y="0">r</tspan><tspan x="20.46" y="0">e</tspan></text></g><g id="edge23"><path class="cls-7" d="M766.13,20.66c51.6,3.75,174.85,15.72,283.39,51.66"/><polygon class="cls-8" points="1050.63 69.03 1058.3 75.28 1048.82 75.73 1050.63 69.03"/></g><g id="node45"><polygon class="cls-5" points="1171.26 72.13 1122.92 72.13 1122.92 108.13 1171.26 108.13 1171.26 72.13"/><text class="cls-6" transform="translate(1138.57 93.83) scale(0.9 1)">nat</text></g><g id="edge24"><path class="cls-7" d="M765.91,19.65c59,1.87,214.31,10.45,348.07,52.73"/><polygon class="cls-8" points="1115.04 69.08 1122.77 75.22 1113.3 75.8 1115.04 69.08"/></g><g id="node46"><polygon class="cls-5" points="556.86 234.48 501.36 234.48 501.36 270.48 556.86 270.48 556.86 234.48"/><text class="cls-24" transform="translate(508.94 256.18) scale(0.9 1)">r<tspan class="cls-18" x="5.25" y="0">o</tspan><tspan class="cls-19" x="12.85" y="0">cksdb</tspan></text></g><g id="edge26"><path class="cls-7" d="M717.3,19.59C592.1,30.91,477.13,136,451.23,162.48c-9.85,11.62-7,22.05,0,36,9,17.82,25.71,30.36,41.38,38.74"/><polygon class="cls-8" points="494.25 234.21 501.15 241.46 491.7 240.6 494.25 234.21"/></g><g id="node47"><polygon class="cls-5" points="270.72 144.13 218.8 144.13 218.8 180.13 270.72 180.13 270.72 144.13"/><text class="cls-9" transform="translate(225.97 165.83) scale(0.9 1)">kvsto<tspan class="cls-11" x="32.93" y="0">r</tspan><tspan x="38.18" y="0">e</tspan></text></g><g id="edge27"><path class="cls-7" d="M717.18,19.46c-99.51,1.63-471,10.5-505.54,52.66-14.77,18-1.89,44.49,11.89,63.86"/><polygon class="cls-8" points="226.05 133.91 229.42 143.81 221.25 138.41 226.05 133.91"/></g><g id="node48"><polygon class="cls-25" points="1470.24 288.13 1366.4 288.13 1366.4 324.13 1470.24 324.13 1470.24 288.13"/><text class="cls-9" transform="translate(1373.74 309.83) scale(0.9 1)">jackson-databind</text></g><g id="edge28"><path class="cls-7" d="M765.86,19.77C893.94,23.24,1486.11,41,1512.32,72.12c52.44,62.31-27.39,162.9-70,208.78"/><polygon class="cls-8" points="1444.2 283.7 1435.55 288.05 1439.89 278.63 1444.2 283.7"/></g><g id="node52"><polygon class="cls-25" points="1417 216.13 1281.81 216.13 1281.81 252.13 1417 252.13 1417 216.13"/><text class="cls-9" transform="translate(1288.98 237.83) scale(0.9 1)">jackson-dataty<tspan class="cls-16" x="91.93" y="0">p</tspan><tspan x="99.88" y="0">e-jdk8</tspan></text></g><g id="edge29"><path class="cls-7" d="M766,19.34c102.28,1.21,492.57,8.7,528.79,52.78,29.24,35.59-30,64.76-10.74,108,5.37,12.08,14.51,22.14,24.18,30.12"/><polygon class="cls-8" points="1310.06 207.41 1315.67 215.96 1306.51 213.18 1310.06 207.41"/></g><g id="node53"><polygon class="cls-26" points="1439.36 72.13 1359.69 72.13 1359.69 108.13 1439.36 108.13 1439.36 72.13"/><text class="cls-9" transform="translate(1366.92 93.83) scale(0.9 1)">graphql-java</text></g><g id="edge31"><path class="cls-7" d="M766,19.29c82.46,1,357.76,7.68,580.69,52.83,1.32.28,2.66.56,4,.86"/><polygon class="cls-8" points="1351.61 69.63 1359.64 75.27 1350.22 76.45 1351.61 69.63"/></g><g id="node56"><polygon class="cls-27" points="1507.22 72.13 1455.92 72.13 1455.92 108.13 1507.22 108.13 1507.22 72.13"/><text class="cls-6" transform="translate(1463.43 93.83) scale(0.9 1)">pic<tspan class="cls-28" x="19.38" y="0">o</tspan><tspan class="cls-29" x="27.49" y="0">cli</tspan></text></g><g id="edge32"><path class="cls-7" d="M766,19.64c108.57,2.47,547.87,14.7,681,52.48.09,0,.19,0,.28.09"/><polygon class="cls-8" points="1448.32 68.92 1455.86 75.34 1446.37 75.56 1448.32 68.92"/></g><g id="node57"><polygon class="cls-1" points="366.2 718.34 299.96 718.34 299.96 754.34 366.2 754.34 366.2 718.34"/><text class="cls-9" transform="translate(307.28 740.04) scale(0.9 1)"><tspan class="cls-17">v</tspan><tspan class="cls-19" x="6.77" y="0">ertx-co</tspan><tspan class="cls-11" x="49.72" y="0">r</tspan><tspan x="54.98" y="0">e</tspan></text></g><g id="edge33"><path class="cls-7" d="M766,19.13C1025.81,81.73,104.53,427,244.46,574.34c40.35,9.08,150.15,34.25,173.66,72,8.18,13.14,7.25,22.2,0,36-9.48,18-26.66,30.38-43.11,38.58"/><polygon class="cls-8" points="375.98 724.26 366.51 724.85 373.59 717.79 375.98 724.26"/></g><g id="node70"><polygon class="cls-1" points="235.95 574.34 170.6 574.34 170.6 610.34 235.95 610.34 235.95 574.34"/><text class="cls-30" transform="translate(177.87 596.04) scale(0.9 1)">v<tspan class="cls-19" x="6.77" y="0">ertx-</tspan><tspan x="35.79" y="0">w</tspan><tspan class="cls-19" x="46.47" y="0">eb</tspan></text></g><g id="edge34"><path class="cls-7" d="M765.76,20.43c102.3,5.59,820.09,6.65,815,52.61C1597.36,112.77,51.1,545.16,161.42,587.77"/><polygon class="cls-8" points="161.75 584.29 170.44 588.53 161.28 591.27 161.75 584.29"/></g><g id="node74"><polygon class="cls-15" points="1265.7 216.13 1200.35 216.13 1200.35 252.13 1265.7 252.13 1265.7 216.13"/><text class="cls-9" transform="translate(1207.64 237.83) scale(0.9 1)">log4j-co<tspan class="cls-11" x="48.73" y="0">r</tspan><tspan x="53.98" y="0">e</tspan></text></g><g id="edge36"><path class="cls-7" d="M766,19.42c100.34,1.49,477.67,9.94,512.72,52.7,9.67,11.8,4.53,20.83,0,36-5.66,19-16.33,18-24.17,36-8.6,19.72-14.15,43.85-17.46,62"/><polygon class="cls-8" points="1240.11 206.88 1235.37 216.04 1233.96 205.56 1240.11 206.88"/></g><g id="node75"><polygon class="cls-31" points="1572.29 288.13 1486.36 288.13 1486.36 324.13 1572.29 324.13 1572.29 288.13"/><text class="cls-9" transform="translate(1493.54 309.83) scale(0.9 1)">tu<tspan class="cls-11" x="13.15" y="0">w</tspan><tspan class="cls-32" x="23.83" y="0">eni-config</tspan></text></g><g id="edge38"><path class="cls-7" d="M766,19.73c130.41,3.36,738.86,20.68,766,52.39,47.75,55.86,22.78,158,7,206.31"/><polygon class="cls-8" points="1541.91 279.77 1535.81 287.89 1536.05 277.31 1541.91 279.77"/></g><g id="node76"><polygon class="cls-31" points="1476.92 527.16 1399.04 527.16 1399.04 563.16 1476.92 563.16 1476.92 527.16"/><text class="cls-9" transform="translate(1406.21 548.86) scale(0.9 1)">tu<tspan class="cls-11" x="13.15" y="0">w</tspan><tspan class="cls-32" x="23.83" y="0">eni-toml</tspan></text></g><g id="edge39"><path class="cls-7" d="M766.15,19.16c128.43.43,719.28,5,787.34,53,34.19,24.1,43.87,43.85,43.87,89,0,0,1.66,0,0,74C1593,429,1438,488.51,1438,517.09"/><polygon class="cls-8" points="1441.12 517.12 1437.98 527.12 1434.85 517.12 1441.12 517.12"/></g><g id="node78"><polygon class="cls-33" points="517.31 574.34 382.76 574.34 382.76 610.34 517.31 610.34 517.31 574.34"/><text class="cls-9" transform="translate(390.14 596.04) scale(0.9 1)">spring-s<tspan class="cls-34" x="49.49" y="0">e</tspan><tspan x="56.38" y="0">curity-c</tspan><tspan class="cls-35" x="104.19" y="0">r</tspan><tspan x="109.66" y="0">ypto</tspan></text></g><g id="edge41"><path class="cls-7" d="M765.84,19.59C1155.61,179.06,301,519.24,369.78,574.34l3.49.47"/><polygon class="cls-8" points="373.91 571.38 382.34 576.23 373.04 578.31 373.91 571.38"/></g><g id="node79"><polygon class="cls-36" points="607.3 574.34 529.12 574.34 529.12 610.34 607.3 610.34 607.3 574.34"/><text class="cls-9" transform="translate(536.38 596.04) scale(0.9 1)">snap<tspan class="cls-37" x="29.08" y="0">p</tspan><tspan x="36.82" y="0">y-java</tspan></text></g><g id="edge42"><path class="cls-7" d="M765.89,19c460.76,219.43-315,548.42-246,555.47"/><polygon class="cls-8" points="520.67 571.07 528.96 576.22 519.6 577.97 520.67 571.07"/></g><g id="node80"><polygon class="cls-38" points="784.85 574.34 622.22 574.34 622.22 610.34 784.85 610.34 784.85 574.34"/><text class="cls-9" transform="translate(629.79 596.04) scale(0.9 1)">quo<tspan class="cls-39" x="23.38" y="0">r</tspan><tspan x="28.73" y="0">um-mainnet-launcher</tspan></text></g><g id="edge43"><path class="cls-7" d="M765.79,19.43c166.74,2.25-285,459.63-152.8,554.89"/><polygon class="cls-8" points="613.43 570.85 622.01 575.36 612.79 577.82 613.43 570.85"/></g><g id="edge44"><path class="cls-7" d="M594,257.58c-170.89,112.19-485.87-127.65-446.38-45.8"/><polygon class="cls-8" points="149.01 208.65 155.73 216.13 146.3 214.96 149.01 208.65"/></g><g id="edge45"><path class="cls-7" d="M214,252.24l47.45,30.68"/><polygon class="cls-8" points="263 279.89 269.19 287.94 259.87 285.95 263 279.89"/></g><g id="edge46"><path class="cls-7" d="M192.22,252.26l27.14,97.85"/><polygon class="cls-8" points="222.44 349.35 222.09 359.94 216.45 351.42 222.44 349.35"/></g><g id="edge47"><path class="cls-7" d="M278.75,324.42c-8.51,8.66-19,19.25-28.23,28.68"/><polygon class="cls-8" points="252.43 355.88 243.69 360.02 248.22 350.7 252.43 355.88"/></g><g id="edge48"><path class="cls-7" d="M296.64,324.26c1.23,24.19,3.47,68.66,4.93,97.47"/><polygon class="cls-8" points="304.7 421.75 302.08 431.94 298.44 422.14 304.7 421.75"/></g><g id="node18"><polygon class="cls-40" points="1003.86 432.13 900.02 432.13 900.02 468.13 1003.86 468.13 1003.86 432.13"/><text class="cls-9" transform="translate(907.49 453.82) scale(0.9 1)"><tspan class="cls-20">k</tspan><tspan x="7.32" y="0">otlin-stdlib-jdk8</tspan></text></g><g id="edge49"><path class="cls-7" d="M336.09,315.85c145-17.85,461,43.66,555,120.1"/><polygon class="cls-8" points="891.69 432.52 899.88 437.86 890.5 439.39 891.69 432.52"/></g><g id="edge50"><path class="cls-7" d="M245.66,396.42l31.77,29.23"/><polygon class="cls-8" points="279.44 422.96 284.35 432.02 275.46 428.37 279.44 422.96"/></g><g id="node16"><polygon class="cls-41" points="262.22 432.13 191.5 432.13 191.5 468.13 262.22 468.13 262.22 432.13"/><text class="cls-9" transform="translate(198.83 453.82) scale(0.9 1)">fram<tspan class="cls-37" x="29.35" y="0">e</tspan><tspan class="cls-11" x="36.04" y="0">w</tspan><tspan class="cls-42" x="46.71" y="0">ork</tspan></text></g><g id="edge51"><path class="cls-7" d="M226.86,396.42V422"/><polygon class="cls-8" points="229.99 422.02 226.86 432.02 223.72 422.02 229.99 422.02"/></g><g id="node17"><polygon class="cls-41" points="179.4 432.13 59.91 432.13 59.91 468.13 179.4 468.13 179.4 432.13"/><text class="cls-9" transform="translate(67.38 453.82) scale(0.9 1)">fram<tspan class="cls-37" x="29.35" y="0">e</tspan><tspan class="cls-17" x="36.04" y="0">w</tspan><tspan x="46.71" y="0">ork-internal</tspan></text></g><g id="edge52"><path class="cls-7" d="M200.15,396.24,152.3,426.92"/><polygon class="cls-8" points="153.78 430 144.47 431.94 150.67 423.93 153.78 430"/></g><g id="edge53"><path class="cls-7" d="M268.18,383.11,890.62,443.2"/><polygon class="cls-8" points="891.14 439.75 899.79 444.1 890.61 446.71 891.14 439.75"/></g><g id="node10"><polygon class="cls-12" points="598.35 504.13 517.79 504.13 517.79 540.13 598.35 540.13 598.35 504.13"/><text class="cls-9" transform="translate(525.27 525.82) scale(0.9 1)">failu<tspan class="cls-17" x="27.65" y="0">r</tspan><tspan class="cls-43" x="32.9" y="0">e</tspan><tspan x="39.76" y="0">access</tspan></text></g><g id="edge54"><path class="cls-7" d="M327.29,456.64c37.23,8.57,110.69,26.12,181.44,47.29"/><polygon class="cls-8" points="509.96 500.68 517.79 506.67 508.32 507.44 509.96 500.68"/></g><g id="node11"><polygon class="cls-12" points="118.09 504.13 22.31 504.13 22.31 540.13 118.09 540.13 118.09 504.13"/><text class="cls-9" transform="translate(29.74 525.82) scale(0.9 1)">listenablefutu<tspan class="cls-11" x="84.83" y="0">r</tspan><tspan x="90.08" y="0">e</tspan></text></g><g id="edge55"><path class="cls-7" d="M278.58,464.4c-2.92,1.37-5.88,2.64-8.75,3.73-59.16,22.33-78.26,18.86-142.7,35.94"/><polygon class="cls-8" points="127.6 507.55 118.17 506.5 126.12 500.75 127.6 507.55"/></g><g id="node12"><polygon class="cls-44" points="1280.47 504.13 1232.13 504.13 1232.13 540.13 1280.47 540.13 1280.47 504.13"/><text class="cls-6" transform="translate(1241.15 525.82) scale(0.9 1)">jsr305</text></g><g id="edge56"><path class="cls-7" d="M327.15,452.73C420.49,459,766,482.3,1050.41,504.13c60.87,4.66,131.83,10.64,172.54,14.13"/><polygon class="cls-8" points="1223.21 514.76 1231.9 519.01 1222.74 521.75 1223.21 514.76"/></g><g id="node13"><polygon class="cls-12" points="219.37 504.13 134.66 504.13 134.66 540.13 219.37 540.13 219.37 504.13"/><text class="cls-9" transform="translate(141.82 525.82) scale(0.9 1)">ch<tspan class="cls-16" x="14.66" y="0">e</tspan><tspan x="21.56" y="0">c</tspan><tspan class="cls-20" x="27.99" y="0">k</tspan><tspan class="cls-19" x="35.3" y="0">er-qual</tspan></text></g><g id="edge57"><path class="cls-7" d="M278.57,464.45l-64.42,35.23"/><polygon class="cls-8" points="215.44 502.87 206.03 504.13 212.7 496.58 215.44 502.87"/></g><g id="node14"><polygon class="cls-12" points="381.31 504.13 231.33 504.13 231.33 540.13 381.31 540.13 381.31 504.13"/><text class="cls-9" transform="translate(238.64 525.82) scale(0.9 1)">er<tspan class="cls-11" x="12.11" y="0">r</tspan><tspan class="cls-42" x="17.37" y="0">or_p</tspan><tspan class="cls-11" x="45.32" y="0">r</tspan><tspan x="50.57" y="0">one_annotations</tspan></text></g><g id="edge58"><path class="cls-7" d="M303,468.42V494"/><polygon class="cls-8" points="306.08 494.02 302.95 504.02 299.81 494.02 306.08 494.02"/></g><g id="node15"><polygon class="cls-12" points="501.67 504.13 390.67 504.13 390.67 540.13 501.67 540.13 501.67 504.13"/><text class="cls-9" transform="translate(398.14 525.82) scale(0.9 1)">j2objc-annotations</text></g><g id="edge59"><path class="cls-7" d="M327.24,463l75.52,36.91"/><polygon class="cls-8" points="404.32 496.86 411.27 504.06 401.81 503.26 404.32 496.86"/></g><g id="node19"><polygon class="cls-40" points="1048.82 504.13 938.51 504.13 938.51 540.13 1048.82 540.13 1048.82 504.13"/><text class="cls-9" transform="translate(945.98 525.82) scale(0.9 1)"><tspan class="cls-20">k</tspan><tspan x="7.32" y="0">otlin-stdlib-jdk7</tspan></text></g><g id="edge60"><path class="cls-7" d="M961.46,468.42c4.47,8.15,9.9,18,14.84,27"/><polygon class="cls-8" points="979.01 493.67 981.03 504.02 973.68 497.33 979.01 493.67"/></g><g id="node20"><polygon class="cls-40" points="990.43 576.13 913.45 576.13 913.45 612.13 990.43 612.13 990.43 576.13"/><text class="cls-9" transform="translate(920.66 597.82) scale(0.9 1)"><tspan class="cls-20">k</tspan><tspan x="7.32" y="0">otlin-stdlib</tspan></text></g><g id="edge61"><path class="cls-7" d="M943,468.14c-4.77,10.09-10.14,23.34-12.58,36-3,15.63-3,20.36,0,36a141.51,141.51,0,0,0,8.49,26.8"/><polygon class="cls-8" points="941.85 565.6 943.03 576.11 936.24 568.71 941.85 565.6"/></g><g id="edge62"><path class="cls-7" d="M980.92,540.43c-4.48,8.14-9.9,18-14.84,27"/><polygon class="cls-8" points="968.7 569.34 961.35 576.02 963.36 565.66 968.7 569.34"/></g><g id="node21"><polygon class="cls-40" points="949.26 648.13 818.12 648.13 818.12 684.13 949.26 684.13 949.26 648.13"/><text class="cls-9" transform="translate(825.43 669.82) scale(0.9 1)"><tspan class="cls-20">k</tspan><tspan x="7.32" y="0">otlin-stdlib-common</tspan></text></g><g id="edge63"><path class="cls-7" d="M934.46,612.43l-29.25,29"/><polygon class="cls-8" points="907.28 644 898.5 648.02 903.13 638.76 907.28 644"/></g><g id="node22"><polygon class="cls-40" points="1095.78 648.13 960.89 648.13 960.89 684.13 1095.78 684.13 1095.78 648.13"/><text class="cls-9" transform="translate(968.14 669.82) scale(0.9 1)">jetbrains-annotations</text></g><g id="edge64"><path class="cls-7" d="M969.65,612.43l29.61,29"/><polygon class="cls-8" points="1001.38 638.8 1006.05 648.02 997.25 644.07 1001.38 638.8"/></g><g id="edge65"><path class="cls-7" d="M868.59,170.71a393.18,393.18,0,0,1-39.29,9.41c-223.75,38.91-495.51,49.43-599,52.12"/><polygon class="cls-8" points="230.12 235.75 221.09 232.47 229.97 228.75 230.12 235.75"/></g><g id="node27"><polygon class="cls-5" points="826.62 216.13 778.28 216.13 778.28 252.13 826.62 252.13 826.62 216.13"/><text class="cls-6" transform="translate(793.75 237.83) scale(0.9 1)">util</text></g><g id="edge66"><path class="cls-7" d="M870.74,180.24,832.2,210.09"/><polygon class="cls-8" points="833.8 213.12 824.65 215.94 830.23 207.37 833.8 213.12"/></g><g id="node29"><polygon class="cls-45" points="1055.35 338.16 960.46 338.16 960.46 374.16 1055.35 374.16 1055.35 338.16"/><text class="cls-9" transform="translate(968.01 359.86) scale(0.9 1)"><tspan class="cls-21">b</tspan><tspan class="cls-19" x="7.63" y="0">cp</tspan><tspan class="cls-17" x="21.91" y="0">r</tspan><tspan class="cls-37" x="27.16" y="0">o</tspan><tspan x="34.56" y="0">v-jdk15on</tspan></text></g><g id="edge67"><path class="cls-7" d="M892.86,180.42c0,7.73,130.7,39.54,115,147.63"/><polygon class="cls-8" points="1011.03 328.06 1007.9 338.06 1004.77 328.06 1011.03 328.06"/></g><g id="edge68"><path class="cls-7" d="M827,248.1a110.67,110.67,0,0,0,10.41,4c93.38,30.3,207.6,44.27,266.3,49.83"/><polygon class="cls-8" points="1103.93 298.48 1112.6 302.79 1103.41 305.44 1103.93 298.48"/></g><g id="edge69"><path class="cls-7" d="M443.8,260.29c8.32-6,38.13,38.19,4.46,38.19,0,0-425.95-18.59-303.53-74"/><polygon class="cls-8" points="145.38 221.09 153.62 226.31 144.26 227.97 145.38 221.09"/></g><g id="edge70"><path class="cls-7" d="M1187.79,104.9c-2.83,1.19-5.68,2.31-8.48,3.22-47,15.54-187.85,38-252.87,48"/><polygon class="cls-8" points="926.71 159.59 917.41 157.47 925.86 152.66 926.71 159.59"/></g><g id="edge71"><path class="cls-7" d="M1187.69,104.54c-2.81,1.28-5.64,2.49-8.38,3.58-148.72,59.4-193.23,48.61-341.95,108-.76.3-1.53.62-2.31.95"/><polygon class="cls-8" points="836.17 220.34 826.7 220.75 833.87 213.82 836.17 220.34"/></g><g id="edge72"><path class="cls-7" d="M772.8,165.91c-92.49,10.62-407.8-96.82-542.48,62.3"/><polygon class="cls-8" points="230.37 231.72 221.14 229.25 229.72 224.75 230.37 231.72"/></g><g id="edge73"><path class="cls-7" d="M798.4,180.42c.59,7.73,1.31,17,2,25.6"/><polygon class="cls-8" points="803.5 205.75 801.13 216.03 797.25 206.35 803.5 205.75"/></g><g id="edge74"><path class="cls-7" d="M178,180.42c1.38,7.73,3.05,17,4.59,25.6"/><polygon class="cls-8" points="185.72 205.53 184.41 216.03 179.58 206.91 185.72 205.53"/></g><g id="edge75"><path class="cls-7" d="M202.8,177.47a81.22,81.22,0,0,0,7.94,2.65C318,209.55,660.26,226.85,769,231.71"/><polygon class="cls-8" points="769.35 228.22 778.16 232.12 769.1 235.22 769.35 228.22"/></g><g id="edge76"><path class="cls-7" d="M557,262.13C639,409.76-105.8,323.07,145,220"/><polygon class="cls-8" points="145.99 216.63 153.78 222.66 144.31 223.37 145.99 216.63"/></g><g id="edge77"><path class="cls-7" d="M230.6,180.42l-23,28.12"/><polygon class="cls-8" points="209.82 211 201.47 216.03 205.19 206.28 209.82 211"/></g><g id="edge78"><path class="cls-7" d="M270.91,166.41c98.8,26.52,403,63.2,498.15,62.53"/><polygon class="cls-8" points="769.71 225.5 778.26 230.09 769.01 232.46 769.71 225.5"/></g><g id="node49"><polygon class="cls-25" points="1507.84 360.13 1387.89 360.13 1387.89 396.13 1507.84 396.13 1507.84 360.13"/><text class="cls-9" transform="translate(1395.45 381.82) scale(0.9 1)">jackson-annotations</text></g><g id="edge79"><path class="cls-7" d="M1425.63,324.42l11.15,26.44"/><polygon class="cls-8" points="1439.66 349.49 1440.65 360.02 1434 352.46 1439.66 349.49"/></g><g id="node50"><polygon class="cls-25" points="1308.22 432.13 1227.65 432.13 1227.65 468.13 1308.22 468.13 1308.22 432.13"/><text class="cls-9" transform="translate(1234.93 453.82) scale(0.9 1)">jackson-<tspan class="cls-21" x="51.77" y="0">b</tspan><tspan class="cls-19" x="59.41" y="0">om</tspan></text></g><g id="edge81"><path class="cls-7" d="M1470.45,321.71c17.53,8,35.21,20.14,45.45,38.41,7.6,13.56,15.41,36.77,6.28,49.1-12.56,17-136.23,23.17-204.89,33.14"/><polygon class="cls-8" points="1317.63 445.85 1308.35 443.64 1316.83 438.89 1317.63 445.85"/></g><g id="node51"><polygon class="cls-25" points="1303.3 360.13 1223.63 360.13 1223.63 396.13 1303.3 396.13 1303.3 360.13"/><text class="cls-9" transform="translate(1230.98 381.82) scale(0.9 1)">jackson-co<tspan class="cls-11" x="65.71" y="0">r</tspan><tspan x="70.96" y="0">e</tspan></text></g><g id="edge80"><path class="cls-7" d="M1380.44,324.24c-21.36,9.66-48.2,21.8-70.79,32"/><polygon class="cls-8" points="1310.7 359.56 1301.22 360.06 1308.34 353.06 1310.7 359.56"/></g><g id="edge82"><path class="cls-7" d="M1404.08,396.15c-26.28,10.24-59.78,23.27-87,33.84"/><polygon class="cls-8" points="1318 433.36 1308.52 433.33 1315.94 426.75 1318 433.36"/></g><g id="edge83"><path class="cls-7" d="M1264.57,396.42c.49,7.72,1.08,17,1.63,25.6"/><polygon class="cls-8" points="1269.33 421.8 1266.84 432.02 1263.08 422.3 1269.33 421.8"/></g><g id="edge86"><path class="cls-7" d="M1364.42,252.42l29.61,29"/><polygon class="cls-8" points="1396.15 278.81 1400.82 288.02 1392.02 284.06 1396.15 278.81"/></g><g id="edge85"><path class="cls-7" d="M1315.88,252.27c-32.28,20.15-81,57.37-100.76,107.85-5.75,14.67-5.84,21.4,0,36,4.55,11.39,12.5,21.36,20.87,29.48"/><polygon class="cls-8" points="1238.06 422.99 1243.05 432 1234.12 428.44 1238.06 422.99"/></g><g id="edge84"><path class="cls-7" d="M1332.8,252.14a397.66,397.66,0,0,0-25.48,36c-12.22,20.05-24,44.24-32.23,62.34"/><polygon class="cls-8" points="1277.7 352.46 1270.88 359.82 1272.1 349.32 1277.7 352.46"/></g><g id="node54"><polygon class="cls-46" points="1507.22 144.13 1408.03 144.13 1408.03 180.13 1507.22 180.13 1507.22 144.13"/><text class="cls-9" transform="translate(1415.63 165.83) scale(0.9 1)">java-datal<tspan class="cls-21" x="61.6" y="0">o</tspan><tspan x="69.17" y="0">ader</tspan></text></g><g id="edge87"><path class="cls-7" d="M1413.46,108.42c6.83,8.49,15.18,18.85,22.66,28.12"/><polygon class="cls-8" points="1438.48 134.25 1442.14 144.03 1433.82 138.93 1438.48 134.25"/></g><g id="node55"><polygon class="cls-47" points="1391.92 144.13 1292.55 144.13 1292.55 180.13 1391.92 180.13 1391.92 144.13"/><text class="cls-9" transform="translate(1299.75 165.83) scale(0.9 1)"><tspan class="cls-11">r</tspan><tspan class="cls-21" x="5.25" y="0">e</tspan><tspan x="12.11" y="0">acti</tspan><tspan class="cls-11" x="34.75" y="0">v</tspan><tspan x="41.53" y="0">e-st</tspan><tspan class="cls-11" x="64.34" y="0">r</tspan><tspan class="cls-21" x="69.59" y="0">e</tspan><tspan x="76.46" y="0">ams</tspan></text></g><g id="edge88"><path class="cls-7" d="M1385.36,108.42c-6.93,8.49-15.41,18.85-23,28.12"/><polygon class="cls-8" points="1364.59 139 1356.23 144.03 1359.96 134.28 1364.59 139"/></g><g id="edge90"><path class="cls-7" d="M366.32,739.89c301.83,839.7,1625.23-529.65,1113.07-451.83"/><polygon class="cls-8" points="1479.92 291.5 1470.56 289.77 1478.85 284.61 1479.92 291.5"/></g><g id="edge89"><path class="cls-7" d="M366.32,739.89C1492.61,949.38,1331.51,284.66,1366.4,306.12c-19.07-3.61-56.58,20-84.14,46.32"/><polygon class="cls-8" points="1284.38 355.02 1276.06 360.1 1279.73 350.33 1284.38 355.02"/></g><g id="node58"><polygon class="cls-48" points="685.35 753.28 567.19 753.28 567.19 789.28 685.35 789.28 685.35 753.28"/><text class="cls-9" transform="translate(574.04 774.98) scale(0.9 1)">netty-handler-p<tspan class="cls-11" x="96.66" y="0">r</tspan><tspan class="cls-37" x="101.92" y="0">o</tspan><tspan class="cls-35" x="109.31" y="0">x</tspan><tspan class="cls-49" x="116.28" y="0">y</tspan></text></g><g id="edge91"><path class="cls-7" d="M366.31,745.1c47.68,11.13,129.86-5.19,191.84,9.28"/><polygon class="cls-8" points="558.97 750.99 567.09 756.47 557.69 757.85 558.97 750.99"/></g><g id="node59"><polygon class="cls-48" points="414.54 862.34 314.28 862.34 314.28 898.34 414.54 898.34 414.54 862.34"/><text class="cls-9" transform="translate(320.89 884.04) scale(0.9 1)">netty-c<tspan class="cls-21" x="42.9" y="0">o</tspan><tspan x="50.47" y="0">d</tspan><tspan class="cls-16" x="58.42" y="0">e</tspan><tspan x="65.31" y="0">c-http</tspan></text></g><g id="edge93"><path class="cls-7" d="M362.94,754.48c11.95,8.77,24.42,20.8,31,35.86,9.07,20.74-.63,45.43-11.28,63.54"/><polygon class="cls-8" points="385.16 856.02 377.45 862.19 380.03 852 385.16 856.02"/></g><g id="node60"><polygon class="cls-48" points="331.74 934.34 246.69 934.34 246.69 970.34 331.74 970.34 331.74 934.34"/><text class="cls-9" transform="translate(253.7 956.04) scale(0.9 1)">netty-handler</text></g><g id="edge95"><path class="cls-7" d="M303.21,754.48c-11.95,8.77-24.42,20.8-31,35.86-19,43.55-4.78,101.35,6.6,134.53"/><polygon class="cls-8" points="281.79 923.75 282.21 934.34 275.98 926.36 281.79 923.75"/></g><g id="node62"><polygon class="cls-48" points="508.42 1059.74 415.32 1059.74 415.32 1095.74 508.42 1095.74 508.42 1059.74"/><text class="cls-9" transform="translate(422.12 1081.44) scale(0.9 1)">netty-trans<tspan class="cls-16" x="68.12" y="0">p</tspan><tspan class="cls-42" x="76.07" y="0">ort</tspan></text></g><g id="edge96"><path class="cls-7" d="M299.65,745.68c-52,15.45-146.5,54.4-146.5,133.66v74c0,67.12,53.63,42.34,108.2,70.4,46.38,23.84,103.36,37.57,144.72,45.06"/><polygon class="cls-8" points="406.81 1065.38 415.17 1070.39 405.84 1072.3 406.81 1065.38"/></g><g id="node63"><polygon class="cls-48" points="721.64 1090.93 645.55 1090.93 645.55 1126.93 721.64 1126.93 721.64 1090.93"/><text class="cls-9" transform="translate(652.35 1112.63) scale(0.9 1)">netty-buffer</text></g><g id="edge97"><path class="cls-7" d="M366.32,739.89c64.83,5.47,205.72-16.71,327.09,13.39,92.12,22.85,127.89,55.16,209,109.06,35.55,23.63,50.92,29.49,67.14,72,32.58,85.41-20.79,137.95-94.89,180-39.41,22.37-108.45-23.1-143.86-15.16"/><polygon class="cls-8" points="731.25 1102.64 721.86 1101.12 730.05 1095.77 731.25 1102.64"/></g><g id="node64"><polygon class="cls-48" points="569.49 1187.16 479.08 1187.16 479.08 1223.16 569.49 1223.16 569.49 1187.16"/><text class="cls-9" transform="translate(486.12 1208.86) scale(0.9 1)">netty-common</text></g><g id="edge99"><path class="cls-7" d="M299.9,737.48C225.36,740,51.1,758.62,51.1,879.34v218c0,54.39,31.73,64.48,75.19,89,57.57,32.47,250.49,10.7,343.56,15.5"/><polygon class="cls-8" points="470.03 1198.35 478.83 1202.29 469.74 1205.34 470.03 1198.35"/></g><g id="node65"><polygon class="cls-48" points="432.78 1131.74 347.74 1131.74 347.74 1167.74 432.78 1167.74 432.78 1131.74"/><text class="cls-9" transform="translate(354.42 1153.44) scale(0.9 1)">netty-<tspan class="cls-11" x="36.47" y="0">r</tspan><tspan x="41.72" y="0">esol</tspan><tspan class="cls-11" x="65.73" y="0">v</tspan><tspan x="72.5" y="0">er</tspan></text></g><g id="edge98"><path class="cls-7" d="M299.71,740c-35.91,4.58-93.14,17-132.24,50.31-32.91,28.08-48.34,42.73-48.34,89v74c0,119.17,140.55,159.16,219.48,182.56"/><text/></g><g id="node67"><polygon class="cls-48" points="385.89 790.34 280.26 790.34 280.26 826.34 385.89 826.34 385.89 790.34"/><text class="cls-9" transform="translate(286.78 812.04) scale(0.9 1)">netty-c<tspan class="cls-21" x="42.9" y="0">o</tspan><tspan x="50.47" y="0">d</tspan><tspan class="cls-16" x="58.42" y="0">e</tspan><tspan x="65.31" y="0">c-http2</tspan></text></g><g id="edge92"><path class="cls-7" d="M333.08,754.64v25.59"/><polygon class="cls-8" points="336.21 780.24 333.08 790.24 329.94 780.24 336.21 780.24"/></g><g id="node68"><polygon class="cls-48" points="607.45 862.34 499.13 862.34 499.13 898.34 607.45 898.34 607.45 862.34"/><text class="cls-9" transform="translate(506.19 884.04) scale(0.9 1)">netty-<tspan class="cls-11" x="36.47" y="0">r</tspan><tspan x="41.72" y="0">esol</tspan><tspan class="cls-11" x="65.73" y="0">v</tspan><tspan class="cls-42" x="72.5" y="0">er-dns</tspan></text></g><g id="edge94"><path class="cls-7" d="M359.64,754.47,518.79,857.09"/><polygon class="cls-8" points="520.45 854.12 526.63 862.15 517.31 860.18 520.45 854.12"/></g><g id="edge100"><path class="cls-7" d="M567,787.73c-44.51,11.6-98.51,64.48-143.08,76.1"/><polygon class="cls-8" points="424.38 867.3 414.95 866.17 422.95 860.49 424.38 867.3"/></g><g id="node61"><polygon class="cls-48" points="628.82 987.74 554.52 987.74 554.52 1023.74 628.82 1023.74 628.82 987.74"/><text class="cls-9" transform="translate(561.21 1009.44) scale(0.9 1)">netty-c<tspan class="cls-21" x="42.9" y="0">o</tspan><tspan x="50.47" y="0">d</tspan><tspan class="cls-16" x="58.42" y="0">e</tspan><tspan x="65.31" y="0">c</tspan></text></g><g id="edge102"><path class="cls-7" d="M623,789.43c-7,37.1-17.85,143.5-26.27,188.21"/><polygon class="cls-8" points="599.83 978.44 594.91 987.51 593.69 977 599.83 978.44"/></g><g id="edge103"><path class="cls-7" d="M567.15,778.3c-29.09,6.49-55.47,56.86-75.63,84-44,59.36-39.69,139.29-33.87,186.93"/><polygon class="cls-8" points="460.79 1049.03 459.01 1059.43 454.59 1050.06 460.79 1049.03"/></g><g id="edge104"><path class="cls-7" d="M685.5,779.9c45.36,7.39,115.48,58.22,167.67,82.44,48.61,22.56,74.24,20.33,99.36,72,42.14,86.65-51.34,132.51-114.58,180-26.36,19.8-80.17-26.34-107.22-18"/><polygon class="cls-8" points="731.29 1099.77 721.83 1098.95 729.68 1093.01 731.29 1099.77"/></g><g id="edge105"><path class="cls-7" d="M685.42,777.53c119.73,12.45,133.64,3.31,250.37,75.55,0,0,105,81.26,52.32,130.56C985.71,985.89,677,1199.93,579,1203.06"/><polygon class="cls-8" points="578.74 1206.57 569.71 1203.34 578.57 1199.57 578.74 1206.57"/></g><g id="node66"><polygon class="cls-48" points="947.07 934.34 837.5 934.34 837.5 970.34 947.07 970.34 947.07 934.34"/><text class="cls-9" transform="translate(844.25 956.04) scale(0.9 1)">netty-c<tspan class="cls-21" x="42.9" y="0">o</tspan><tspan class="cls-49" x="50.47" y="0">d</tspan><tspan class="cls-50" x="58.42" y="0">e</tspan><tspan x="65.31" y="0">c-s</tspan><tspan class="cls-16" x="82.67" y="0">o</tspan><tspan class="cls-32" x="90.27" y="0">cks</tspan></text></g><g id="edge101"><path class="cls-7" d="M685.76,777.87c39.86,6.24,98.85,56.52,138.76,84.47,22.47,15.74,41,42.86,52.73,63"/><polygon class="cls-8" points="880.04 923.77 882.14 934.1 874.73 927.48 880.04 923.77"/></g><g id="edge106"><path class="cls-7" d="M345.82,898.64l-31.09,29"/><polygon class="cls-8" points="316.47 930.52 307.59 934.24 312.46 925.15 316.47 930.52"/></g><g id="edge107"><path class="cls-7" d="M391.94,898.47c41.4,25.75,118.64,55.82,164.25,84.2"/><polygon class="cls-8" points="557.74 979.63 564.04 987.55 554.69 985.74 557.74 979.63"/></g><g id="edge108"><path class="cls-7" d="M365.06,898.42c1.17,18.43,4.46,48.32,13.67,71.92,15.1,38.68,41.88,57.87,61.38,81.59"/><polygon class="cls-8" points="442.54 1049.72 446.38 1059.42 437.97 1054.5 442.54 1049.72"/></g><g id="edge109"><path class="cls-7" d="M379.12,898.55c16.15,18.54,43.19,48.52,68.54,71.79,77,70.69,80.93,22.1,163.42,84.59,13.31,10.08,28.13,21,40.89,30.25"/><polygon class="cls-8" points="653.82 1082.34 659.62 1090.72 650.41 1088.22 653.82 1082.34"/></g><g id="edge110"><path class="cls-7" d="M314.12,887.39c-27,6.43-58.18,19.69-75,47-43.7,70.66-125.94,43.06,61.65,233.4,23.17,23.51,113.42,22.06,169.11,29.9"/><polygon class="cls-8" points="470.39 1194.19 478.89 1198.88 469.63 1201.14 470.39 1194.19"/></g><g id="edge111"><path class="cls-7" d="M332.05,963.22c56.61,13.06,154.94,17.37,213.26,30.83"/><polygon class="cls-8" points="546.17 990.67 554.31 996.12 544.9 997.53 546.17 990.67"/></g><g id="edge112"><path class="cls-7" d="M310.16,970.47c31,25.37,88.3,54.42,123.19,83"/><polygon class="cls-8" points="435.47 1050.82 440.85 1059.55 431.77 1056.47 435.47 1050.82"/></g><g id="edge113"><path class="cls-7" d="M296.7,970.35c15.84,34,54.94,91.3,110.57,125.39,41.78,25.6,156.38.93,228.73,8"/><polygon class="cls-8" points="636.71 1100.3 645.36 1104.65 636.17 1107.28 636.71 1100.3"/></g><g id="edge115"><path class="cls-7" d="M286.31,970.45c-1.62,10.35-4.45,5.23-5.26,17.29-1.08,16-1.09,20,0,36,4.77,70.2,6.76,104.76,59.08,144,36.1,27.08,92.89,23.78,129.59,30.28"/><polygon class="cls-8" points="470.39 1194.59 478.79 1199.53 469.47 1201.51 470.39 1194.59"/></g><g id="edge114"><path class="cls-7" d="M287.44,970.55C285,1002,282.68,1051,309.69,1095.74c7.82,13,19.5,23.18,31.55,31.07"/><polygon class="cls-8" points="342.82 1123.79 349.18 1131.65 339.82 1129.93 342.82 1123.79"/></g><g id="edge116"><path class="cls-7" d="M559.92,1023.86l-58.33,31.46"/><polygon class="cls-8" points="502.94 1058.48 493.52 1059.67 500.22 1052.17 502.94 1058.48"/></g><g id="edge117"><path class="cls-7" d="M605.06,1023.87c19.5,24.95,36.75,30.61,59.17,59.29"/><polygon class="cls-8" points="666.63 1080.91 670.16 1090.74 661.91 1085.51 666.63 1080.91"/></g><g id="edge118"><path class="cls-7" d="M585.57,1023.89c-13.24,37.25-36,109.2-51.85,153.73"/><polygon class="cls-8" points="536.63 1178.93 530.41 1186.93 530.8 1176.34 536.63 1178.93"/></g><g id="edge119"><path class="cls-7" d="M508.58,1092.32c42.4,12.32,85.51-10.41,128,1.94"/><polygon class="cls-8" points="637.46 1090.9 645.33 1096.81 635.88 1097.68 637.46 1090.9"/></g><g id="edge121"><path class="cls-7" d="M468.35,1095.87c9.23,24.41,35,52.86,45.86,81.65"/><polygon class="cls-8" points="517.19 1176.4 517.78 1186.97 511.41 1179.12 517.19 1176.4"/></g><g id="edge120"><path class="cls-7" d="M444.16,1096l-29.61,29"/><polygon class="cls-8" points="416.56 1127.68 407.76 1131.64 412.43 1122.42 416.56 1127.68"/></g><g id="edge122"><path class="cls-7" d="M645.5,1124.18c-27.32,10.22-36.74,48.37-67.14,59.75"/><polygon class="cls-8" points="579.06 1187.36 569.57 1187.21 577.06 1180.72 579.06 1187.36"/></g><g id="edge123"><path class="cls-7" d="M420.92,1167.86c16.84,9.41,46.59,4.59,64.58,14.63"/><polygon class="cls-8" points="486.9 1179.37 493.51 1186.97 484.1 1185.63 486.9 1179.37"/></g><g id="edge124"><path class="cls-7" d="M837.48,965.85c-56.52,13.28-145.89,15.43-199.57,28"/><polygon class="cls-8" points="638.36 997.35 628.95 995.98 637.07 990.5 638.36 997.35"/></g><g id="edge125"><path class="cls-7" d="M852,970.45c-44.29,19.15-120.14,31.71-186,53.29-49.76,16.3-107.39,30.88-148.69,40.6"/><polygon class="cls-8" points="517.86 1067.78 508.46 1066.4 516.58 1060.93 517.86 1067.78"/></g><g id="edge126"><path class="cls-7" d="M886,970.75c-9.54,32.37-53.76,42.86-94.12,84.18-17.35,17.76-40.88,30.24-61.58,38.61"/><polygon class="cls-8" points="731.14 1096.93 721.66 1096.88 729.1 1090.31 731.14 1096.93"/></g><g id="edge127"><path class="cls-7" d="M891,970.52c-.3,18.52-2.43,48.48-11.86,71.82-30.89,76.45-64.38,42.44-129.3,84.59-61.8,40.13-117.34,75-171.25,77.41"/><polygon class="cls-8" points="578.57 1207.84 569.52 1204.67 578.36 1200.84 578.57 1207.84"/></g><g id="edge128"><path class="cls-7" d="M340.82,826.64c3.57,8,7.88,17.6,11.83,26.44"/><polygon class="cls-8" points="355.56 851.73 356.75 862.24 349.95 854.86 355.56 851.73"/></g><g id="edge129"><path class="cls-7" d="M322.87,826.35c-5.64,10.09-12.35,23.34-16.65,36-6.8,20-11.17,43.82-13.77,61.76"/><polygon class="cls-8" points="295.52 924.81 291.08 934.17 289.32 923.76 295.52 924.81"/></g><g id="edge130"><path class="cls-7" d="M366,826.42c17.36,9.61,38.73,22.37,56.64,35.92C479.36,905.27,538,947.26,569.34,980.52"/><polygon class="cls-8" points="571.64 978.15 575.95 987.58 567.32 983.21 571.64 978.15"/></g><g id="edge131"><path class="cls-7" d="M310.18,826.35c-36,29-99.05,90-71.09,144,34.9,67.46,113,80.87,167.22,95.36"/><polygon class="cls-8" points="407.09 1062.31 415.11 1067.96 405.68 1069.13 407.09 1062.31"/></g><g id="edge132"><path class="cls-7" d="M385.93,814.94c160.19,19,277.51-56.3,394.73,119.4,43.14,64.67,1.7,55.29-40.67,120.59-7.11,11-16.68,21.06-25.91,29.44"/><polygon class="cls-8" points="715.79 1087.32 706.8 1090.71 711.93 1081.8 715.79 1087.32"/></g><g id="edge133"><path class="cls-7" d="M280.19,825.91c-72.83,26.85-195.07,88.2-195.07,197.43v74c0,86.85,268.7,89.32,384.71,101.77"/><polygon class="cls-8" points="470.31 1195.64 478.93 1200.06 469.71 1202.61 470.31 1195.64"/></g><g id="edge134"><path class="cls-7" d="M498.89,895.76l-158.27,42"/><polygon class="cls-8" points="341.23 941.15 331.81 940.05 339.79 934.34 341.23 941.15"/></g><g id="edge136"><path class="cls-7" d="M560.87,898.7c4.23,10.21,9.38,23.46,13,35.64,6,20.31,9.92,25.3,13.2,43.1"/><polygon class="cls-8" points="590.18 976.93 588.86 987.43 584.03 978.3 590.18 976.93"/></g><g id="edge137"><path class="cls-7" d="M546.05,898.49c-15.75,37.25-54.16,107.18-73,151.71"/><polygon class="cls-8" points="475.81 1051.96 469.15 1059.51 470.14 1048.97 475.81 1051.96"/></g><g id="edge138"><path class="cls-7" d="M607.65,886.75c55,6.89,134.46,21.18,153.32,47.59,44.64,62.55-29.11,101.8-59.38,148.06"/><polygon class="cls-8" points="703.92 1084.75 696.05 1090.67 698.9 1080.56 703.92 1084.75"/></g><g id="edge140"><path class="cls-7" d="M607.84,884.16c104,6,322.18,21.87,344.69,50.18C1032.11,1034.43,891,1065,784.75,1126.93c-39.72,23.17-134.14,63.84-206,71.79"/><polygon class="cls-8" points="578.97 1202.21 569.76 1199.7 578.36 1195.24 578.97 1202.21"/></g><g id="edge139"><path class="cls-7" d="M536,898.47c-30.86,31.81-96.32,85.1-128.77,161.27-8.34,19.56-12.63,43.69-14.81,61.89"/><polygon class="cls-8" points="395.57 1122.07 391.4 1131.58 389.35 1121.24 395.57 1122.07"/></g><g id="node69"><polygon class="cls-48" points="752.46 934.34 654.89 934.34 654.89 970.34 752.46 970.34 752.46 934.34"/><text class="cls-9" transform="translate(661.96 956.04) scale(0.9 1)">netty-c<tspan class="cls-21" x="42.9" y="0">o</tspan><tspan class="cls-49" x="50.47" y="0">d</tspan><tspan class="cls-50" x="58.42" y="0">e</tspan><tspan x="65.31" y="0">c-dns</tspan></text></g><g id="edge135"><path class="cls-7" d="M590.08,898.46l68.45,31.87"/><polygon class="cls-8" points="659.95 927.19 667.01 934.27 657.54 933.66 659.95 927.19"/></g><g id="edge141"><path class="cls-7" d="M676.53,970.46c-14.66,9.24-33.91,2.15-49.64,12.07"/><polygon class="cls-8" points="628.26 985.68 618.93 987.55 625.18 979.59 628.26 985.68"/></g><g id="edge142"><path class="cls-7" d="M695.15,970.48c-10.84,20.22-32.29,34.81-57.83,53.26-36,26-83.28,39.36-119.67,46.14"/><polygon class="cls-8" points="517.97 1073.36 508.64 1071.46 517 1066.45 517.97 1073.36"/></g><g id="edge143"><path class="cls-7" d="M703.68,970.49c0,37-20.09,65.26-20.09,110"/><polygon class="cls-8" points="686.73 1080.7 683.59 1090.7 680.46 1080.7 686.73 1080.7"/></g><g id="edge144"><path class="cls-7" d="M714.78,970.48c25.63,41.84,63.14,91.14,15.36,156.45-22.17,30.31-89.43,67.94-151.25,73.54"/><polygon class="cls-8" points="578.81 1203.99 569.64 1201.27 578.33 1197.01 578.81 1203.99"/></g><g id="edge147"><path class="cls-7" d="M236.11,596.64c51.21,6,146.36,20.82,166.79,49.7,8.88,12.55,6.71,21.86,0,36-6.36,13.4-17.25,24-28.56,32.17"/><polygon class="cls-8" points="375.77 717.62 366.48 719.73 372.56 711.61 375.77 717.62"/></g><g id="node71"><polygon class="cls-1" points="260.57 646.34 145.99 646.34 145.99 682.34 260.57 682.34 260.57 646.34"/><text class="cls-30" transform="translate(153.35 668.04) scale(0.9 1)">v<tspan class="cls-19" x="6.77" y="0">ertx-</tspan><tspan x="35.79" y="0">w</tspan><tspan class="cls-19" x="46.47" y="0">eb-common</tspan></text></g><g id="edge145"><path class="cls-7" d="M203.28,610.64v25.59"/><polygon class="cls-8" points="206.41 636.24 203.28 646.24 200.15 636.24 206.41 636.24"/></g><g id="node72"><polygon class="cls-1" points="397.54 646.34 277.13 646.34 277.13 682.34 397.54 682.34 397.54 646.34"/><text class="cls-30" transform="translate(284.35 668.04) scale(0.9 1)">v<tspan class="cls-19" x="6.77" y="0">ertx-auth-common</tspan></text></g><g id="edge146"><path class="cls-7" d="M235.68,610.46l59.54,31.46"/><polygon class="cls-8" points="296.71 638.83 303.46 646.27 294.03 645.16 296.71 638.83"/></g><g id="node73"><text class="cls-30" transform="translate(10.65 668.04) scale(0.9 1)">v<tspan class="cls-19" x="6.77" y="0">ertx-brid</tspan><tspan class="cls-20" x="60.52" y="0">g</tspan><tspan class="cls-19" x="67.77" y="0">e-common</tspan></text></g><g id="edge148"><path class="cls-7" d="M170.47,610.11,108.14,642"/><polygon class="cls-8" points="109.25 645.25 99.81 646.22 106.64 638.88 109.25 645.25"/></g><g id="edge149"><path class="cls-7" d="M235,682.46l58.33,31.46"/><polygon class="cls-8" points="294.73 710.77 301.42 718.27 292.01 717.08 294.73 710.77"/></g><g id="edge150"><path class="cls-7" d="M335.1,682.64c-.29,7.72-.65,17-1,25.59"/><polygon class="cls-8" points="337.25 708.39 333.73 718.24 330.98 708.09 337.25 708.39"/></g><g id="edge151"><path class="cls-7" d="M1210.9,252.24l-38.54,29.86"/><polygon class="cls-8" points="1173.96 285.12 1164.81 287.94 1170.39 279.37 1173.96 285.12"/></g><g id="edge152"><path class="cls-7" d="M1486.22,321.7c-2.67.84-5.33,1.66-7.92,2.42-60.42,18-69.17,9.35-123.37,44.21-17.07,11-26.12,18.62-44,27.8-45.24,23.2-805,47-974.57,52"/><polygon class="cls-8" points="336.16 451.65 327.13 448.43 335.99 444.67 336.16 451.65"/></g><g id="edge154"><path class="cls-7" d="M1486,322c-42.4,14.62-101.33,35.17-106.18,38.14-19.56,12-18,26.08-38.49,36-57.52,27.85-233.73,43.05-328.14,49.39"/><polygon class="cls-8" points="1013.16 449.04 1004.04 446.13 1012.79 442.05 1013.16 449.04"/></g><g id="edge153"><path class="cls-7" d="M1546.14,324.42c8.4,8.66-155.9,191-131.51,195.71"/><polygon class="cls-8" points="1416.9 517.72 1421.36 527.07 1412.65 522.87 1416.9 517.72"/></g><g id="edge155"><path class="cls-7" d="M1398.85,562.46c-67.84,28.25-46.72-81.23-109.83-55"/><polygon class="cls-8" points="1290.11 510.79 1280.63 511 1287.92 504.23 1290.11 510.79"/></g><g id="edge156"><path class="cls-7" d="M1398.75,555.27c-61.37-44.28,186.33-142.11,63.19-146-182,27.46-344.79,30-448.63,36.41"/><polygon class="cls-8" points="1013.33 449.13 1004.23 446.19 1012.99 442.13 1013.33 449.13"/></g><g id="node77"><polygon class="cls-51" points="1483.19 599.16 1392.78 599.16 1392.78 635.16 1483.19 635.16 1483.19 599.16"/><text class="cls-9" transform="translate(1400.04 620.86) scale(0.9 1)">antlr4-<tspan class="cls-52" x="41.46" y="0">r</tspan><tspan class="cls-49" x="46.81" y="0">untime</tspan></text></g><g id="edge157"><path class="cls-7" d="M1438,563.46v25.6"/><polygon class="cls-8" points="1441.12 589.07 1437.98 599.07 1434.85 589.07 1441.12 589.07"/></g></g></g></g></svg>