<svg xmlns="http://www.w3.org/2000/svg" viewBox="0 0 1599.09 1259.21"><defs><style>.cls-1{fill:#ffcb2b;stroke:#ffcb2b;}.cls-2{fill:#0095ff;stroke:#0095ff;}.cls-16,.cls-28,.cls-3{isolation:isolate;font-size:14px;font-family:LinBiolinum, Linux Biolinum;}.cls-4{letter-spacing:0em;}.cls-5{fill:#c9ff2b;stroke:#c9ff2b;}.cls-6{fill:none;}.cls-6,.cls-7{stroke:#000;}.cls-16,.cls-8{letter-spacing:0em;}.cls-9{letter-spacing:0.01em;}.cls-10{letter-spacing:0.01em;}.cls-11{letter-spacing:0em;}.cls-12,.cls-28{letter-spacing:0em;}.cls-13{letter-spacing:0.01em;}.cls-14{letter-spacing:-0.02em;}.cls-15{letter-spacing:-0.01em;}.cls-17{letter-spacing:0em;}.cls-18{letter-spacing:0em;}.cls-19{letter-spacing:0em;}.cls-20{letter-spacing:-0.01em;}.cls-21{letter-spacing:0em;}.cls-22{letter-spacing:0em;}.cls-23{letter-spacing:0em;}.cls-24{letter-spacing:-0.01em;}.cls-25{letter-spacing:0.01em;}.cls-26{letter-spacing:0em;}.cls-27{letter-spacing:0.01em;}.cls-29{letter-spacing:0em;}</style></defs><g id="Layer_2" data-name="Layer 2"><g id="Layer_2-2" data-name="Layer 2"><polygon class="cls-1" points="124.83 646.72 0.5 646.72 0.5 682.72 124.83 682.72 124.83 646.72"/><g id="graph0"><g id="node1"><polygon class="cls-2" points="766.25 0.5 717.91 0.5 717.91 36.5 766.25 36.5 766.25 0.5"/><text class="cls-3" transform="translate(730.21 22.2) scale(0.9 1)"><tspan class="cls-4">b</tspan><tspan x="7.12" y="0">esu</tspan></text></g><g id="node2"><polygon class="cls-5" points="477.63 351.48 429.29 351.48 429.29 387.48 477.63 387.48 477.63 351.48"/><text class="cls-3" transform="translate(437.55 373.18) scale(0.9 1)">config</text></g><g id="edge1"><path class="cls-6" d="M717.7,20C565.21,23,634.52,319.78,486.48,352.16"/><polygon class="cls-7" points="487.13 355.58 477.72 354.31 485.78 348.74 487.13 355.58"/></g><g id="node3"><polygon class="cls-5" points="542.08 351.48 493.74 351.48 493.74 387.48 542.08 387.48 542.08 351.48"/><text class="cls-3" transform="translate(509.85 373.18) scale(0.9 1)">pki</text></g><g id="edge2"><path class="cls-6" d="M717.81,19.24C579.44,18,778.88,293.49,551.05,351.94"/><polygon class="cls-7" points="551.61 355.39 542.17 354.32 550.14 348.58 551.61 355.39"/></g><g id="node4"><polygon class="cls-5" points="606.53 351.48 558.19 351.48 558.19 387.48 606.53 387.48 606.53 351.48"/><text class="cls-3" transform="translate(567 373.18) scale(0.9 1)">clique</text></g><g id="edge3"><path class="cls-6" d="M717.65,19.5c-135.11.22,182.87,302.58-98.59,332-1.13.28-2.28.6-3.42.95"/><polygon class="cls-7" points="616.34 355.86 606.85 355.62 614.4 349.2 616.34 355.86"/></g><g id="node5"><polygon class="cls-5" points="654.49 234.85 594.51 234.85 594.51 270.85 654.49 270.85 654.49 234.85"/><text class="cls-3" transform="translate(602.06 256.55) scale(0.9 1)">common</text></g><g id="edge4"><path class="cls-6" d="M717.64,20c-136,2.82-227,108.55-256.06,142.87-9.84,11.63-8.6,23.2,0,36,3.83,5.7,77.16,28,124.12,41.77"/><polygon class="cls-7" points="586.56 237.26 594.42 243.18 584.97 244.03 586.56 237.26"/></g><g id="node6"><polygon class="cls-5" points="221.54 216.5 154.4 216.5 154.4 252.5 221.54 252.5 221.54 216.5"/><text class="cls-3" transform="translate(161.62 238.2) scale(0.9 1)">plugin-api</text></g><g id="edge25"><path class="cls-6" d="M717.72,20.35C615.63,24.12,225.4,40.51,179,72.5c-39.48,27.23-57.35,60.21-39.39,108,4.15,11.05,11.49,21,19.21,29.14"/><polygon class="cls-7" points="161.02 207.12 165.65 216.36 156.87 212.36 161.02 207.12"/></g><g id="node7"><polygon class="cls-1" points="336.57 288.5 256 288.5 256 324.5 336.57 324.5 336.57 288.5"/><text class="cls-3" transform="translate(263.43 310.2) scale(0.9 1)">tu<tspan class="cls-8" x="12.27" y="0">w</tspan><tspan x="22.24" y="0">eni-units</tspan></text></g><g id="edge40"><path class="cls-6" d="M717.75,20c-95.86,2.18-443.7,12.77-476.07,52.52-9.64,11.84-6,21.46,0,36,9.19,22.34,27.24,14.31,37.6,36,20.32,42.58,21.05,100.34,19.31,133.85"/><polygon class="cls-7" points="301.72 278.59 297.97 288.32 295.47 278.1 301.72 278.59"/></g><g id="node8"><polygon class="cls-1" points="268.54 360.5 186.18 360.5 186.18 396.5 268.54 396.5 268.54 360.5"/><text class="cls-3" transform="translate(193.74 382.2) scale(0.9 1)">tu<tspan class="cls-8" x="12.27" y="0">w</tspan><tspan x="22.24" y="0">eni-</tspan><tspan class="cls-8" x="44.41" y="0">b</tspan><tspan x="51.39" y="0">ytes</tspan></text></g><g id="edge37"><path class="cls-6" d="M717.52,19.74C582.15,21.22,505.19,121.33,424.61,163.35L397,190.86c-13.22,23.8-20.32,21.22-20.32,128.84,0,92.33-244.07,114-199.88,53.91"/><polygon class="cls-7" points="177.36 370.15 186.04 374.42 176.87 377.12 177.36 370.15"/></g><g id="node9"><polygon class="cls-1" points="327.62 432.5 279.28 432.5 279.28 468.5 327.62 468.5 327.62 432.5"/><text class="cls-3" transform="translate(288.07 454.2) scale(0.9 1)">guava</text></g><g id="edge30"><path class="cls-6" d="M717.82,19.35c-140.48-.69-230.63,88.95-312.53,143.5-16.6,15.66-31.14,41.9-31.14,41.9S351.48,261,372.77,373.18c0,0,6,19.39,47.3,31.94,56.67,31.21-211.71-29-149.74,27.38l.26.1"/><polygon class="cls-7" points="271.82 429.38 279.1 436.18 269.61 435.93 271.82 429.38"/></g><g id="node23"><polygon class="cls-5" points="517.97 162.85 469.63 162.85 469.63 198.85 517.97 198.85 517.97 162.85"/><text class="cls-3" transform="translate(484.92 184.55) scale(0.9 1)">ibft</text></g><g id="edge5"><path class="cls-6" d="M717.71,19.76C604.11,21.2,692.57,120,526.9,163.31"/><polygon class="cls-7" points="527.52 166.74 518.07 165.74 526.02 159.95 527.52 166.74"/></g><g id="node24"><polygon class="cls-5" points="599.88 162.85 534.53 162.85 534.53 198.85 599.88 198.85 599.88 162.85"/><text class="cls-3" transform="translate(541.95 184.55) scale(0.9 1)">ibftle<tspan class="cls-8" x="29.46" y="0">g</tspan><tspan x="36.37" y="0">acy</tspan></text></g><g id="edge6"><path class="cls-6" d="M717.86,20.29c-105.48,3.61,41.26,110-109,142.93"/><polygon class="cls-7" points="609.4 166.67 600 165.26 608.13 159.82 609.4 166.67"/></g><g id="node25"><polygon class="cls-5" points="664.78 162.85 616.44 162.85 616.44 198.85 664.78 198.85 664.78 162.85"/><text class="cls-3" transform="translate(630.09 184.55) scale(0.9 1)">qbft</text></g><g id="edge7"><path class="cls-6" d="M717.88,20.38c-101,3.86,78.24,110.84-40.57,142.47-1.13.3-2.27.64-3.42,1"/><polygon class="cls-7" points="674.61 167.27 665.13 167.1 672.64 160.63 674.61 167.27"/></g><g id="node26"><polygon class="cls-5" points="917.53 144.5 869.19 144.5 869.19 180.5 917.53 180.5 917.53 144.5"/><text class="cls-3" transform="translate(876.68 166.2) scale(0.9 1)">c<tspan class="cls-9" x="6" y="0">r</tspan><tspan x="11.11" y="0">ypto</tspan></text></g><g id="edge8"><path class="cls-6" d="M766.47,20.89C797.53,24.2,850.58,35.33,879,72.5c13,16.91,16,42.38,16.05,61.75"/><polygon class="cls-7" points="898.22 134.37 894.89 144.29 891.96 134.21 898.22 134.37"/></g><g id="node28"><polygon class="cls-1" points="1173.1 288.5 1113.12 288.5 1113.12 324.5 1173.1 324.5 1173.1 288.5"/><text class="cls-3" transform="translate(1120.66 310.2) scale(0.9 1)">log4j-api</text></g><g id="edge35"><path class="cls-6" d="M766.38,20C863,22,1215.92,32.23,1248.74,72.5c9.64,11.83,3.82,20.58,0,36-2.33,9.42-63.14,120.14-91.42,171.33"/><polygon class="cls-7" points="1159.97 281.7 1152.6 288.37 1154.63 278.03 1159.97 281.7"/></g><g id="node30"><polygon class="cls-5" points="444.12 234.85 378.77 234.85 378.77 270.85 444.12 270.85 444.12 234.85"/><text class="cls-3" transform="translate(386.03 256.55) scale(0.9 1)">dataty<tspan class="cls-10" x="37.48" y="0">p</tspan><tspan class="cls-11" x="44.9" y="0">es</tspan></text></g><g id="edge9"><path class="cls-6" d="M717.5,19.25c-134-1.15-205.86,86.75-275.62,143.6-17.51,14.28-24.95,41.35-28.1,61.91"/><polygon class="cls-7" points="416.86 225.41 412.49 234.81 410.65 224.41 416.86 225.41"/></g><g id="node31"><polygon class="cls-5" points="1241.13 72.5 1188.32 72.5 1188.32 108.5 1241.13 108.5 1241.13 72.5"/><text class="cls-3" transform="translate(1195.57 94.2) scale(0.9 1)">encla<tspan class="cls-12" x="30.14" y="0">v</tspan><tspan class="cls-11" x="36.46" y="0">e</tspan></text></g><g id="edge10"><path class="cls-6" d="M766.27,19.58c65.74.82,252.94,7.11,412.88,53.23"/><polygon class="cls-7" points="1180.09 69.46 1187.95 75.39 1178.5 76.23 1180.09 69.46"/></g><g id="node32"><polygon class="cls-5" points="298.07 72.5 249.74 72.5 249.74 108.5 298.07 108.5 298.07 72.5"/><text class="cls-3" transform="translate(265.99 94.2) scale(0.9 1)">api</text></g><g id="edge11"><path class="cls-6" d="M717.68,19.33c-65.85.19-252.41,5.05-410.76,53.48"/><polygon class="cls-7" points="307.68 76.21 298.21 75.53 305.99 69.47 307.68 76.21"/></g><g id="node33"><polygon class="cls-5" points="398.33 72.5 314.19 72.5 314.19 108.5 398.33 108.5 398.33 72.5"/><text class="cls-3" transform="translate(321.58 94.2) scale(0.9 1)">bl<tspan class="cls-13" x="10.58" y="0">o</tspan><tspan x="17.68" y="0">c</tspan><tspan class="cls-14" x="23.68" y="0">k</tspan><tspan x="30.51" y="0">c</tspan><tspan class="cls-8" x="36.51" y="0">r</tspan><tspan class="cls-4" x="41.41" y="0">e</tspan><tspan x="47.82" y="0">ation</tspan></text></g><g id="edge12"><path class="cls-6" d="M717.84,21.88c-54.21,5.63-189.4,21.37-310.27,50.51"/><polygon class="cls-7" points="407.95 75.88 398.53 74.61 406.61 69.05 407.95 75.88"/></g><g id="node34"><polygon class="cls-5" points="462.79 72.5 414.45 72.5 414.45 108.5 462.79 108.5 462.79 72.5"/><text class="cls-3" transform="translate(427.77 94.2) scale(0.9 1)">co<tspan class="cls-8" x="13" y="0">r</tspan><tspan class="cls-11" x="17.9" y="0">e</tspan></text></g><g id="edge13"><path class="cls-6" d="M717.61,21.81c-46.72,4.93-151.75,18.51-245.85,50.83"/><polygon class="cls-7" points="472.45 76.07 462.97 75.73 470.57 69.39 472.45 76.07"/></g><g id="node35"><polygon class="cls-5" points="527.24 72.5 478.9 72.5 478.9 108.5 527.24 108.5 527.24 72.5"/><text class="cls-3" transform="translate(494.66 94.2) scale(0.9 1)">eth</text></g><g id="edge14"><path class="cls-6" d="M717.72,23.78c-37.62,7-112.09,22.6-181.77,48.85"/><polygon class="cls-7" points="536.96 75.94 527.47 75.88 534.92 69.32 536.96 75.94"/></g><g id="node36"><polygon class="cls-5" points="591.69 72.5 543.35 72.5 543.35 108.5 591.69 108.5 591.69 72.5"/><text class="cls-3" transform="translate(558.19 94.2) scale(0.9 1)">p2p</text></g><g id="edge15"><path class="cls-6" d="M717.84,27.45c-26.91,9.05-71.71,24.81-117.31,44.91"/><polygon class="cls-7" points="601.49 75.7 592.02 76.16 599.16 69.2 601.49 75.7"/></g><g id="node37"><polygon class="cls-5" points="695.53 72.5 607.8 72.5 607.8 108.5 695.53 108.5 695.53 72.5"/><text class="cls-3" transform="translate(615.38 94.2) scale(0.9 1)"><tspan class="cls-13">p</tspan><tspan x="7.42" y="0">ermissioning</tspan></text></g><g id="edge16"><path class="cls-6" d="M720,36.62,681.41,66.47"/><polygon class="cls-7" points="683.01 69.49 673.87 72.31 679.44 63.74 683.01 69.49"/></g><g id="node38"><polygon class="cls-5" points="772.51 72.5 711.64 72.5 711.64 108.5 772.51 108.5 772.51 72.5"/><text class="cls-3" transform="translate(719.07 94.2) scale(0.9 1)"><tspan class="cls-8">r</tspan><tspan x="4.9" y="0">etesteth</tspan></text></g><g id="edge17"><path class="cls-6" d="M742.08,36.8V62.39"/><polygon class="cls-7" points="745.21 62.4 742.08 72.4 738.95 62.4 745.21 62.4"/></g><g id="node39"><polygon class="cls-5" points="821.75 144.5 773.41 144.5 773.41 180.5 821.75 180.5 821.75 144.5"/><text class="cls-3" transform="translate(790.5 166.2) scale(0.9 1)">rlp</text></g><g id="edge18"><path class="cls-6" d="M757.7,36.67c8,9.73,17.19,22.57,22.87,35.83,8.36,19.54,12.65,43.68,14.82,61.88"/><polygon class="cls-7" points="798.51 133.99 796.44 144.34 792.28 134.82 798.51 133.99"/></g><g id="node40"><polygon class="cls-5" points="870.98 72.5 822.64 72.5 822.64 108.5 870.98 108.5 870.98 72.5"/><text class="cls-3" transform="translate(837.99 94.2) scale(0.9 1)">trie</text></g><g id="edge19"><path class="cls-6" d="M766.37,35.74l48.09,32.14"/><polygon class="cls-7" points="816.22 64.97 822.29 73.11 813 70.98 816.22 64.97"/></g><g id="node41"><polygon class="cls-5" points="203.19 144.5 147.69 144.5 147.69 180.5 203.19 180.5 203.19 144.5"/><text class="cls-3" transform="translate(155.04 166.2) scale(0.9 1)">stratum</text></g><g id="edge20"><path class="cls-6" d="M717.88,20.16c-99.61,2.93-474.6,16.31-515.59,52.34C185.59,87.18,179.2,114,176.8,134.32"/><polygon class="cls-7" points="179.9 134.7 175.87 144.28 173.67 133.97 179.9 134.7"/></g><g id="node42"><polygon class="cls-5" points="977.95 72.5 921.56 72.5 921.56 108.5 977.95 108.5 977.95 72.5"/><text class="cls-3" transform="translate(929.12 94.2) scale(0.9 1)">ethstats</text></g><g id="edge21"><path class="cls-6" d="M766.52,26.58c32.62,9.6,92.06,27.67,142.06,45.92L913,74.14"/><polygon class="cls-7" points="914.09 70.87 921.5 77.47 912.02 77.47 914.09 70.87"/></g><g id="node43"><polygon class="cls-5" points="1042.85 72.5 994.51 72.5 994.51 108.5 1042.85 108.5 1042.85 72.5"/><text class="cls-3" transform="translate(1007.98 94.2) scale(0.9 1)"><tspan class="cls-15">e</tspan><tspan x="6.24" y="0">vm</tspan></text></g><g id="edge22"><path class="cls-6" d="M766.4,22.62C810.77,28.77,907.47,44.4,985.56,72.5l.27.1"/><polygon class="cls-7" points="987.05 69.37 994.35 76.13 984.87 75.93 987.05 69.37"/></g><g id="node44"><polygon class="cls-5" points="1107.31 72.5 1058.97 72.5 1058.97 108.5 1107.31 108.5 1107.31 72.5"/><text class="cls-3" transform="translate(1072.29 94.2) scale(0.9 1)">co<tspan class="cls-8" x="13" y="0">r</tspan><tspan class="cls-11" x="17.9" y="0">e</tspan></text></g><g id="edge23"><path class="cls-6" d="M766.63,21c51.6,3.76,174.85,15.72,283.39,51.66"/><polygon class="cls-7" points="1051.13 69.41 1058.8 75.66 1049.32 76.11 1051.13 69.41"/></g><g id="node45"><polygon class="cls-5" points="1171.76 72.5 1123.42 72.5 1123.42 108.5 1171.76 108.5 1171.76 72.5"/><text class="cls-3" transform="translate(1139.07 94.2) scale(0.9 1)">nat</text></g><g id="edge24"><path class="cls-6" d="M766.41,20c59,1.87,214.31,10.46,348.07,52.73"/><polygon class="cls-7" points="1115.54 69.45 1123.27 75.59 1113.8 76.17 1115.54 69.45"/></g><g id="node46"><polygon class="cls-5" points="557.36 234.85 501.86 234.85 501.86 270.85 557.36 270.85 557.36 234.85"/><text class="cls-16" transform="translate(509.44 256.55) scale(0.9 1)">r<tspan class="cls-10" x="4.9" y="0">o</tspan><tspan class="cls-11" x="12" y="0">cksdb</tspan></text></g><g id="edge26"><path class="cls-6" d="M717.8,20C592.6,31.29,477.63,136.36,451.73,162.85c-9.85,11.62-7,22.05,0,36,9,17.82,25.71,30.36,41.38,38.74"/><polygon class="cls-7" points="494.75 234.58 501.65 241.83 492.2 240.97 494.75 234.58"/></g><g id="node47"><polygon class="cls-5" points="271.22 144.5 219.3 144.5 219.3 180.5 271.22 180.5 271.22 144.5"/><text class="cls-3" transform="translate(226.47 166.2) scale(0.9 1)">kvsto<tspan class="cls-8" x="30.73" y="0">r</tspan><tspan x="35.64" y="0">e</tspan></text></g><g id="edge27"><path class="cls-6" d="M717.68,19.83c-99.51,1.63-471,10.5-505.54,52.67-14.77,18-1.89,44.49,11.89,63.86"/><polygon class="cls-7" points="226.55 134.28 229.92 144.19 221.75 138.78 226.55 134.28"/></g><g id="node48"><polygon class="cls-1" points="1470.74 288.5 1366.9 288.5 1366.9 324.5 1470.74 324.5 1470.74 288.5"/><text class="cls-3" transform="translate(1374.24 310.2) scale(0.9 1)">jackson-databind</text></g><g id="edge28"><path class="cls-6" d="M766.36,20.14c128.08,3.48,720.25,21.23,746.46,52.36,52.44,62.31-27.39,162.89-70,208.78"/><polygon class="cls-7" points="1444.7 284.08 1436.05 288.42 1440.39 279 1444.7 284.08"/></g><g id="node52"><polygon class="cls-1" points="1412.11 216.5 1282.31 216.5 1282.31 252.5 1412.11 252.5 1412.11 216.5"/><text class="cls-3" transform="translate(1289.48 238.2) scale(0.9 1)">jackson-dataty<tspan class="cls-13" x="85.8" y="0">p</tspan><tspan class="cls-17" x="93.22" y="0">e-jdk8</tspan></text></g><g id="edge29"><path class="cls-6" d="M766.5,19.72c102.28,1.21,492.57,8.7,528.79,52.78,29.24,35.58-30,64.75-10.74,108,5.37,12.07,14.51,22.13,24.18,30.12"/><polygon class="cls-7" points="1310.56 207.79 1316.17 216.33 1307.01 213.55 1310.56 207.79"/></g><g id="node53"><polygon class="cls-1" points="1439.86 72.5 1360.19 72.5 1360.19 108.5 1439.86 108.5 1439.86 72.5"/><text class="cls-3" transform="translate(1367.42 94.2) scale(0.9 1)">graphql-java</text></g><g id="edge31"><path class="cls-6" d="M766.52,19.67c82.46,1,357.76,7.67,580.69,52.83,1.32.27,2.66.56,4,.86"/><polygon class="cls-7" points="1352.11 70 1360.14 75.64 1350.72 76.83 1352.11 70"/></g><g id="node56"><polygon class="cls-1" points="1504.76 72.5 1456.42 72.5 1456.42 108.5 1504.76 108.5 1504.76 72.5"/><text class="cls-3" transform="translate(1463.93 94.2) scale(0.9 1)">pic<tspan class="cls-13" x="16.96" y="0">o</tspan><tspan class="cls-17" x="24.06" y="0">cli</tspan></text></g><g id="edge32"><path class="cls-6" d="M766.51,20c108.57,2.48,547.87,14.7,681,52.49l.28.08"/><polygon class="cls-7" points="1448.82 69.29 1456.36 75.72 1446.87 75.94 1448.82 69.29"/></g><g id="node57"><polygon class="cls-1" points="366.7 718.72 300.46 718.72 300.46 754.72 366.7 754.72 366.7 718.72"/><text class="cls-3" transform="translate(307.78 740.42) scale(0.9 1)"><tspan class="cls-12">v</tspan><tspan class="cls-11" x="6.32" y="0">ertx-co</tspan><tspan class="cls-8" x="46.41" y="0">r</tspan><tspan x="51.31" y="0">e</tspan></text></g><g id="edge33"><path class="cls-6" d="M766.48,19.5C1026.31,82.1,65,546.82,245,574.71c40.35,9.09,150.15,34.25,173.66,72,8.18,13.15,7.25,22.21,0,36-9.48,18-26.66,30.38-43.11,38.59"/><polygon class="cls-7" points="376.48 724.63 367.01 725.23 374.09 718.16 376.48 724.63"/></g><g id="node70"><polygon class="cls-1" points="236.45 574.72 171.1 574.72 171.1 610.72 236.45 610.72 236.45 574.72"/><text class="cls-3" transform="translate(178.37 596.42) scale(0.9 1)"><tspan class="cls-12">v</tspan><tspan class="cls-11" x="6.32" y="0">ertx-</tspan><tspan class="cls-18" x="33.41" y="0">w</tspan><tspan x="43.37" y="0">eb</tspan></text></g><g id="edge34"><path class="cls-6" d="M766.26,20.81c102.3,5.58,820.09,6.64,815,52.61C1597.86,113.15,51.6,545.54,161.92,588.14"/><polygon class="cls-7" points="162.25 584.66 170.94 588.9 161.78 591.64 162.25 584.66"/></g><g id="node74"><polygon class="cls-1" points="1266.2 216.5 1200.85 216.5 1200.85 252.5 1266.2 252.5 1266.2 216.5"/><text class="cls-3" transform="translate(1208.14 238.2) scale(0.9 1)">log4j-co<tspan class="cls-8" x="45.48" y="0">r</tspan><tspan class="cls-11" x="50.38" y="0">e</tspan></text></g><g id="edge36"><path class="cls-6" d="M766.46,19.8c100.34,1.49,477.67,9.94,512.72,52.7,9.67,11.8,4.53,20.82,0,36-5.66,19-16.33,18-24.17,36-8.6,19.72-14.15,43.85-17.46,62"/><polygon class="cls-7" points="1240.61 207.25 1235.87 216.42 1234.46 205.94 1240.61 207.25"/></g><g id="node75"><polygon class="cls-1" points="1572.79 288.5 1486.86 288.5 1486.86 324.5 1572.79 324.5 1572.79 288.5"/><text class="cls-3" transform="translate(1494.04 310.2) scale(0.9 1)">tu<tspan class="cls-12" x="12.27" y="0">w</tspan><tspan x="22.24" y="0">eni-config</tspan></text></g><g id="edge38"><path class="cls-6" d="M766.54,20.11c130.41,3.35,738.86,20.67,766,52.39,47.75,55.86,22.78,158,7,206.31"/><polygon class="cls-7" points="1542.41 280.15 1536.31 288.27 1536.55 277.68 1542.41 280.15"/></g><g id="node76"><polygon class="cls-1" points="1477.42 527.54 1399.54 527.54 1399.54 563.54 1477.42 563.54 1477.42 527.54"/><text class="cls-3" transform="translate(1406.71 549.24) scale(0.9 1)">tu<tspan class="cls-12" x="12.27" y="0">w</tspan><tspan x="22.24" y="0">eni-toml</tspan></text></g><g id="edge39"><path class="cls-6" d="M766.65,19.54c128.43.42,719.28,5,787.34,53,34.19,24.1,43.87,43.85,43.87,89,0,0,1.66,0,0,74-4.35,193.88-159.38,253.39-159.38,282"/><polygon class="cls-7" points="1441.62 517.49 1438.48 527.49 1435.35 517.49 1441.62 517.49"/></g><g id="node78"><polygon class="cls-1" points="513.06 574.72 383.26 574.72 383.26 610.72 513.06 610.72 513.06 574.72"/><text class="cls-3" transform="translate(390.64 596.42) scale(0.9 1)">spring-s<tspan class="cls-13" x="46.19" y="0">e</tspan><tspan x="52.62" y="0">curity-c</tspan><tspan class="cls-9" x="97.24" y="0">r</tspan><tspan x="102.35" y="0">ypto</tspan></text></g><g id="edge41"><path class="cls-6" d="M766.34,20c389.77,159.48-454.86,651.2-396.06,554.75l3.49.47"/><polygon class="cls-7" points="374.41 571.75 382.84 576.61 373.54 578.68 374.41 571.75"/></g><g id="node79"><polygon class="cls-1" points="606.6 574.72 529.62 574.72 529.62 610.72 606.6 610.72 606.6 574.72"/><text class="cls-3" transform="translate(536.88 596.42) scale(0.9 1)">snap<tspan class="cls-15" x="27.14" y="0">p</tspan><tspan class="cls-11" x="34.36" y="0">y-java</tspan></text></g><g id="edge42"><path class="cls-6" d="M766.39,19.38c460.76,219.43-8,540.07-246,555.48"/><polygon class="cls-7" points="521.17 571.45 529.46 576.6 520.1 578.35 521.17 571.45"/></g><g id="node80"><polygon class="cls-1" points="774.89 574.72 622.72 574.72 622.72 610.72 774.89 610.72 774.89 574.72"/><text class="cls-3" transform="translate(630.29 596.42) scale(0.9 1)">quo<tspan class="cls-19" x="21.82" y="0">r</tspan><tspan x="26.82" y="0">um-mainnet-launcher</tspan></text></g><g id="edge43"><path class="cls-6" d="M766.29,19.81c166.74,2.25-285,459.63-152.8,554.88"/><polygon class="cls-7" points="613.93 571.23 622.51 575.74 613.29 578.2 613.93 571.23"/></g><g id="edge44"><path class="cls-6" d="M594.51,258C423.62,370.15,108.64,130.3,148.13,212.16"/><polygon class="cls-7" points="149.51 209.02 156.23 216.5 146.8 215.33 149.51 209.02"/></g><g id="edge45"><path class="cls-6" d="M214.47,252.62l47.45,30.67"/><polygon class="cls-7" points="263.5 280.27 269.69 288.31 260.37 286.33 263.5 280.27"/></g><g id="edge46"><path class="cls-6" d="M192.72,252.63l27.14,97.86"/><polygon class="cls-7" points="222.94 349.72 222.59 360.31 216.95 351.79 222.94 349.72"/></g><g id="edge47"><path class="cls-6" d="M279.25,324.8,251,353.47"/><polygon class="cls-7" points="252.93 356.26 244.19 360.4 248.72 351.08 252.93 356.26"/></g><g id="edge48"><path class="cls-6" d="M297.14,324.63c1.23,24.2,3.47,68.66,4.93,97.48"/><polygon class="cls-7" points="305.2 422.13 302.58 432.31 298.94 422.52 305.2 422.13"/></g><g id="node18"><polygon class="cls-1" points="1004.36 432.5 900.52 432.5 900.52 468.5 1004.36 468.5 1004.36 432.5"/><text class="cls-3" transform="translate(907.99 454.2) scale(0.9 1)"><tspan class="cls-14">k</tspan><tspan x="6.83" y="0">otlin-stdlib-jdk8</tspan></text></g><g id="edge49"><path class="cls-6" d="M336.59,316.22c145-17.85,461,43.66,555,120.1"/><polygon class="cls-7" points="892.19 432.9 900.38 438.23 891 439.77 892.19 432.9"/></g><g id="edge50"><path class="cls-6" d="M246.16,396.8,277.93,426"/><polygon class="cls-7" points="279.94 423.34 284.85 432.4 275.96 428.74 279.94 423.34"/></g><g id="node16"><polygon class="cls-1" points="262.72 432.5 192 432.5 192 468.5 262.72 468.5 262.72 432.5"/><text class="cls-3" transform="translate(199.33 454.2) scale(0.9 1)">fram<tspan class="cls-15" x="27.39" y="0">e</tspan><tspan class="cls-8" x="33.63" y="0">w</tspan><tspan x="43.6" y="0">ork</tspan></text></g><g id="edge51"><path class="cls-6" d="M227.36,396.8v25.59"/><polygon class="cls-7" points="230.49 422.4 227.36 432.4 224.22 422.4 230.49 422.4"/></g><g id="node17"><polygon class="cls-1" points="175.88 432.5 60.41 432.5 60.41 468.5 175.88 468.5 175.88 432.5"/><text class="cls-3" transform="translate(67.88 454.2) scale(0.9 1)">fram<tspan class="cls-15" x="27.39" y="0">e</tspan><tspan class="cls-8" x="33.63" y="0">w</tspan><tspan x="43.6" y="0">ork-internal</tspan></text></g><g id="edge52"><path class="cls-6" d="M200.65,396.62,152.8,427.29"/><polygon class="cls-7" points="154.28 430.37 144.97 432.31 151.17 424.3 154.28 430.37"/></g><g id="edge53"><path class="cls-6" d="M268.68,383.49l622.44,60.09"/><polygon class="cls-7" points="891.64 440.12 900.29 444.47 891.11 447.09 891.64 440.12"/></g><g id="node10"><polygon class="cls-1" points="598.85 504.5 518.29 504.5 518.29 540.5 598.85 540.5 598.85 504.5"/><text class="cls-3" transform="translate(525.77 526.2) scale(0.9 1)">failu<tspan class="cls-8" x="25.81" y="0">r</tspan><tspan class="cls-4" x="30.71" y="0">e</tspan><tspan x="37.11" y="0">access</tspan></text></g><g id="edge54"><path class="cls-6" d="M327.79,457c37.23,8.58,110.69,26.12,181.44,47.29"/><polygon class="cls-7" points="510.46 501.05 518.29 507.04 508.82 507.81 510.46 501.05"/></g><g id="node11"><polygon class="cls-1" points="118.59 504.5 22.81 504.5 22.81 540.5 118.59 540.5 118.59 504.5"/><text class="cls-3" transform="translate(30.24 526.2) scale(0.9 1)">listenablefutu<tspan class="cls-8" x="79.17" y="0">r</tspan><tspan class="cls-11" x="84.08" y="0">e</tspan></text></g><g id="edge55"><path class="cls-6" d="M279.08,464.78c-2.92,1.36-5.88,2.63-8.75,3.72-59.16,22.34-78.26,18.87-142.7,35.95"/><polygon class="cls-7" points="128.1 507.92 118.67 506.88 126.62 501.12 128.1 507.92"/></g><g id="node12"><polygon class="cls-1" points="1280.97 504.5 1232.63 504.5 1232.63 540.5 1280.97 540.5 1280.97 504.5"/><text class="cls-3" transform="translate(1241.65 526.2) scale(0.9 1)">jsr305</text></g><g id="edge56"><path class="cls-6" d="M327.65,453.11c93.34,6.25,438.84,29.56,723.26,51.39,60.87,4.67,131.83,10.65,172.54,14.13"/><polygon class="cls-7" points="1223.71 515.14 1232.4 519.39 1223.24 522.12 1223.71 515.14"/></g><g id="node13"><polygon class="cls-1" points="215.72 504.5 135.16 504.5 135.16 540.5 215.72 540.5 215.72 504.5"/><text class="cls-3" transform="translate(142.32 526.2) scale(0.9 1)">ch<tspan class="cls-13" x="13.69" y="0">e</tspan><tspan x="20.12" y="0">c</tspan><tspan class="cls-14" x="26.12" y="0">k</tspan><tspan x="32.95" y="0">er-qual</tspan></text></g><g id="edge57"><path class="cls-6" d="M279.07,464.83l-64.42,35.23"/><polygon class="cls-7" points="215.94 503.24 206.53 504.5 213.2 496.96 215.94 503.24"/></g><g id="node14"><polygon class="cls-1" points="375.06 504.5 231.83 504.5 231.83 540.5 375.06 540.5 375.06 504.5"/><text class="cls-3" transform="translate(239.14 526.2) scale(0.9 1)">er<tspan class="cls-8" x="11.31" y="0">r</tspan><tspan x="16.21" y="0">or_p</tspan><tspan class="cls-8" x="42.3" y="0">r</tspan><tspan x="47.2" y="0">one_annotations</tspan></text></g><g id="edge58"><path class="cls-6" d="M303.45,468.8v25.59"/><polygon class="cls-7" points="306.58 494.4 303.45 504.4 300.31 494.4 306.58 494.4"/></g><g id="node15"><polygon class="cls-1" points="502.17 504.5 391.17 504.5 391.17 540.5 502.17 540.5 502.17 504.5"/><text class="cls-3" transform="translate(398.64 526.2) scale(0.9 1)">j2objc-annotations</text></g><g id="edge59"><path class="cls-6" d="M327.74,463.37l75.52,36.91"/><polygon class="cls-7" points="404.82 497.23 411.77 504.44 402.31 503.64 404.82 497.23"/></g><g id="node19"><polygon class="cls-1" points="1042.85 504.5 939.01 504.5 939.01 540.5 1042.85 540.5 1042.85 504.5"/><text class="cls-3" transform="translate(946.48 526.2) scale(0.9 1)"><tspan class="cls-14">k</tspan><tspan x="6.83" y="0">otlin-stdlib-jdk7</tspan></text></g><g id="edge60"><path class="cls-6" d="M962,468.8l14.84,27"/><polygon class="cls-7" points="979.51 494.04 981.53 504.4 974.18 497.71 979.51 494.04"/></g><g id="node20"><polygon class="cls-1" points="990.93 576.5 913.95 576.5 913.95 612.5 990.93 612.5 990.93 576.5"/><text class="cls-3" transform="translate(921.16 598.2) scale(0.9 1)"><tspan class="cls-14">k</tspan><tspan x="6.83" y="0">otlin-stdlib</tspan></text></g><g id="edge61"><path class="cls-6" d="M943.54,468.52c-4.77,10.09-10.14,23.34-12.58,36-3,15.64-3,20.36,0,36a141.28,141.28,0,0,0,8.49,26.8"/><polygon class="cls-7" points="942.35 565.97 943.53 576.48 936.74 569.08 942.35 565.97"/></g><g id="edge62"><path class="cls-6" d="M981.42,540.8c-4.48,8.14-9.9,18-14.84,27"/><polygon class="cls-7" points="969.2 569.71 961.85 576.4 963.86 566.04 969.2 569.71"/></g><g id="node21"><polygon class="cls-1" points="944.83 648.5 818.62 648.5 818.62 684.5 944.83 684.5 944.83 648.5"/><text class="cls-3" transform="translate(825.93 670.2) scale(0.9 1)"><tspan class="cls-14">k</tspan><tspan x="6.83" y="0">otlin-stdlib-common</tspan></text></g><g id="edge63"><path class="cls-6" d="M935,612.8l-29.25,29"/><polygon class="cls-7" points="907.78 644.38 899 648.4 903.63 639.14 907.78 644.38"/></g><g id="node22"><polygon class="cls-1" points="1086.72 648.5 961.39 648.5 961.39 684.5 1086.72 684.5 1086.72 648.5"/><text class="cls-3" transform="translate(968.64 670.2) scale(0.9 1)">jetbrains-annotations</text></g><g id="edge64"><path class="cls-6" d="M970.15,612.8l29.61,29"/><polygon class="cls-7" points="1001.88 639.18 1006.55 648.4 997.75 644.44 1001.88 639.18"/></g><g id="edge65"><path class="cls-6" d="M869.09,171.08a390.42,390.42,0,0,1-39.29,9.42c-223.75,38.9-495.51,49.43-599,52.12"/><polygon class="cls-7" points="230.62 236.13 221.59 232.85 230.47 229.13 230.62 236.13"/></g><g id="node27"><polygon class="cls-5" points="827.12 216.5 778.78 216.5 778.78 252.5 827.12 252.5 827.12 216.5"/><text class="cls-3" transform="translate(794.25 238.2) scale(0.9 1)">util</text></g><g id="edge66"><path class="cls-6" d="M871.24,180.62,832.7,210.47"/><polygon class="cls-7" points="834.3 213.49 825.15 216.31 830.73 207.74 834.3 213.49"/></g><g id="node29"><polygon class="cls-1" points="1055.85 338.54 960.96 338.54 960.96 374.54 1055.85 374.54 1055.85 338.54"/><text class="cls-3" transform="translate(968.51 360.24) scale(0.9 1)"><tspan class="cls-4">b</tspan><tspan x="7.12" y="0">cp</tspan><tspan class="cls-8" x="20.45" y="0">r</tspan><tspan class="cls-20" x="25.35" y="0">o</tspan><tspan x="32.25" y="0">v-jdk15on</tspan></text></g><g id="edge67"><path class="cls-6" d="M893.36,180.8c0,7.72,130.7,39.53,115,147.63"/><polygon class="cls-7" points="1011.53 328.44 1008.4 338.44 1005.27 328.44 1011.53 328.44"/></g><g id="edge68"><path class="cls-6" d="M827.45,248.47a110.78,110.78,0,0,0,10.41,4c93.38,30.29,207.6,44.26,266.3,49.83"/><polygon class="cls-7" points="1104.43 298.85 1113.1 303.16 1103.91 305.82 1104.43 298.85"/></g><g id="edge69"><path class="cls-6" d="M444.3,260.66c8.32-6,38.13,38.19,4.46,38.19,0,0-425.95-18.58-303.53-74"/><polygon class="cls-7" points="145.88 221.46 154.12 226.68 144.76 228.34 145.88 221.46"/></g><g id="edge70"><path class="cls-6" d="M1188.29,105.27c-2.83,1.2-5.68,2.31-8.48,3.23-47,15.53-187.85,38-252.87,48"/><polygon class="cls-7" points="927.21 159.96 917.91 157.84 926.36 153.03 927.21 159.96"/></g><g id="edge71"><path class="cls-6" d="M1188.19,104.92c-2.81,1.27-5.64,2.49-8.38,3.58-148.72,59.39-193.23,48.61-341.95,108l-2.31.94"/><polygon class="cls-7" points="836.67 220.71 827.2 221.13 834.37 214.2 836.67 220.71"/></g><g id="edge72"><path class="cls-6" d="M773.3,166.29c-92.49,10.62-407.8-96.82-542.48,62.29"/><polygon class="cls-7" points="230.87 232.09 221.64 229.63 230.22 225.13 230.87 232.09"/></g><g id="edge73"><path class="cls-6" d="M798.9,180.8c.59,7.72,1.31,17,2,25.59"/><polygon class="cls-7" points="804 206.13 801.63 216.4 797.75 206.73 804 206.13"/></g><g id="edge74"><path class="cls-6" d="M178.53,180.8c1.38,7.72,3.05,17,4.59,25.59"/><polygon class="cls-7" points="186.22 205.9 184.91 216.4 180.08 207.28 186.22 205.9"/></g><g id="edge75"><path class="cls-6" d="M203.3,177.85c2.64,1,5.32,1.93,7.94,2.65,107.23,29.43,449.52,46.73,558.23,51.58"/><polygon class="cls-7" points="769.85 228.59 778.66 232.49 769.6 235.59 769.85 228.59"/></g><g id="edge76"><path class="cls-6" d="M557.49,262.5c82,147.64-662.79,60.95-412-42.17"/><polygon class="cls-7" points="146.49 217 154.28 223.04 144.81 223.74 146.49 217"/></g><g id="edge77"><path class="cls-6" d="M231.1,180.8l-23,28.12"/><polygon class="cls-7" points="210.32 211.38 201.97 216.4 205.69 206.65 210.32 211.38"/></g><g id="edge78"><path class="cls-6" d="M271.41,166.78c98.8,26.52,403,63.21,498.15,62.53"/><polygon class="cls-7" points="770.21 225.87 778.76 230.46 769.51 232.83 770.21 225.87"/></g><g id="node49"><polygon class="cls-1" points="1508.34 360.5 1388.39 360.5 1388.39 396.5 1508.34 396.5 1508.34 360.5"/><text class="cls-3" transform="translate(1395.95 382.2) scale(0.9 1)">jackson-annotations</text></g><g id="edge79"><path class="cls-6" d="M1426.13,324.8l11.15,26.44"/><polygon class="cls-7" points="1440.16 349.86 1441.15 360.4 1434.5 352.84 1440.16 349.86"/></g><g id="node50"><polygon class="cls-1" points="1308.72 432.5 1228.15 432.5 1228.15 468.5 1308.72 468.5 1308.72 432.5"/><text class="cls-3" transform="translate(1235.43 454.2) scale(0.9 1)">jackson-<tspan class="cls-4" x="48.32" y="0">b</tspan><tspan class="cls-21" x="55.45" y="0">om</tspan></text></g><g id="edge81"><path class="cls-6" d="M1471,322.09c17.53,8,35.21,20.13,45.45,38.41,7.6,13.56,15.41,36.77,6.28,49.1-12.56,17-136.23,23.17-204.89,33.14"/><polygon class="cls-7" points="1318.13 446.22 1308.85 444.02 1317.33 439.27 1318.13 446.22"/></g><g id="node51"><polygon class="cls-1" points="1303.8 360.5 1224.13 360.5 1224.13 396.5 1303.8 396.5 1303.8 360.5"/><text class="cls-3" transform="translate(1231.48 382.2) scale(0.9 1)">jackson-co<tspan class="cls-8" x="61.32" y="0">r</tspan><tspan class="cls-11" x="66.23" y="0">e</tspan></text></g><g id="edge80"><path class="cls-6" d="M1380.94,324.62l-70.79,32"/><polygon class="cls-7" points="1311.2 359.93 1301.72 360.43 1308.84 353.44 1311.2 359.93"/></g><g id="edge82"><path class="cls-6" d="M1404.58,396.53l-87,33.84"/><polygon class="cls-7" points="1318.5 433.73 1309.02 433.71 1316.44 427.12 1318.5 433.73"/></g><g id="edge83"><path class="cls-6" d="M1265.07,396.8c.49,7.72,1.08,17,1.63,25.59"/><polygon class="cls-7" points="1269.83 422.17 1267.34 432.4 1263.58 422.67 1269.83 422.17"/></g><g id="edge86"><path class="cls-6" d="M1364.92,252.8l29.61,28.95"/><polygon class="cls-7" points="1396.65 279.18 1401.32 288.4 1392.52 284.44 1396.65 279.18"/></g><g id="edge85"><path class="cls-6" d="M1316.38,252.64c-32.28,20.16-81,57.38-100.76,107.86-5.75,14.66-5.84,21.39,0,36,4.55,11.4,12.5,21.37,20.87,29.49"/><polygon class="cls-7" points="1238.56 423.36 1243.55 432.37 1234.62 428.81 1238.56 423.36"/></g><g id="edge84"><path class="cls-6" d="M1333.3,252.51a396.46,396.46,0,0,0-25.48,36c-12.22,20.05-24,44.24-32.23,62.34"/><polygon class="cls-7" points="1278.2 352.84 1271.38 360.2 1272.6 349.7 1278.2 352.84"/></g><g id="node54"><polygon class="cls-1" points="1504.31 144.5 1408.53 144.5 1408.53 180.5 1504.31 180.5 1504.31 144.5"/><text class="cls-3" transform="translate(1416.13 166.2) scale(0.9 1)">java-datal<tspan class="cls-4" x="57.49" y="0">o</tspan><tspan x="64.56" y="0">ader</tspan></text></g><g id="edge87"><path class="cls-6" d="M1414,108.8l22.66,28.12"/><polygon class="cls-7" points="1438.98 134.62 1442.64 144.4 1434.32 139.3 1438.98 134.62"/></g><g id="node55"><polygon class="cls-1" points="1392.42 144.5 1293.05 144.5 1293.05 180.5 1392.42 180.5 1392.42 144.5"/><text class="cls-3" transform="translate(1300.25 166.2) scale(0.9 1)"><tspan class="cls-18">r</tspan><tspan class="cls-22" x="4.9" y="0">e</tspan><tspan x="11.31" y="0">acti</tspan><tspan class="cls-12" x="32.44" y="0">v</tspan><tspan x="38.76" y="0">e-st</tspan><tspan class="cls-12" x="60.05" y="0">r</tspan><tspan class="cls-22" x="64.95" y="0">e</tspan><tspan class="cls-23" x="71.36" y="0">ams</tspan></text></g><g id="edge88"><path class="cls-6" d="M1385.86,108.8l-23,28.12"/><polygon class="cls-7" points="1365.09 139.38 1356.73 144.4 1360.46 134.65 1365.09 139.38"/></g><g id="edge90"><path class="cls-6" d="M366.82,740.26c339.05,643.86,1558.81-185.72,1113.07-451.83"/><polygon class="cls-7" points="1480.42 291.88 1471.06 290.15 1479.35 284.98 1480.42 291.88"/></g><g id="edge89"><path class="cls-6" d="M366.82,740.26c921.58,171.42,1153.67-296.4,966-411.85-19.08-3.61-22.52-1.92-50.08,24.4"/><polygon class="cls-7" points="1284.88 355.4 1276.56 360.47 1280.23 350.71 1284.88 355.4"/></g><g id="node58"><polygon class="cls-1" points="692.54 790.72 574.38 790.72 574.38 826.72 692.54 826.72 692.54 790.72"/><text class="cls-3" transform="translate(581.22 812.42) scale(0.9 1)">netty-handler-p<tspan class="cls-12" x="90.22" y="0">r</tspan><tspan class="cls-24" x="95.12" y="0">o</tspan><tspan class="cls-25" x="102.03" y="0">x</tspan><tspan class="cls-17" x="108.53" y="0">y</tspan></text></g><g id="edge91"><path class="cls-6" d="M366.81,745.47c47.68,11.14,136.54,31.87,198.53,46.34"/><polygon class="cls-7" points="566.16 788.42 574.28 793.9 564.88 795.28 566.16 788.42"/></g><g id="node59"><polygon class="cls-1" points="415.04 862.72 314.78 862.72 314.78 898.72 415.04 898.72 415.04 862.72"/><text class="cls-3" transform="translate(321.39 884.42) scale(0.9 1)">netty-c<tspan class="cls-26" x="40.04" y="0">o</tspan><tspan x="47.11" y="0">d</tspan><tspan class="cls-13" x="54.52" y="0">e</tspan><tspan x="60.96" y="0">c-http</tspan></text></g><g id="edge93"><path class="cls-6" d="M363.44,754.86c11.95,8.76,24.42,20.79,31,35.85,9.07,20.74-.63,45.43-11.28,63.54"/><polygon class="cls-7" points="385.66 856.39 377.95 862.57 380.53 852.38 385.66 856.39"/></g><g id="node60"><polygon class="cls-1" points="332.24 934.72 247.19 934.72 247.19 970.72 332.24 970.72 332.24 934.72"/><text class="cls-3" transform="translate(254.2 956.42) scale(0.9 1)">netty-handler</text></g><g id="edge95"><path class="cls-6" d="M303.71,754.86c-11.95,8.76-24.42,20.79-31,35.85-19,43.55-4.78,101.35,6.6,134.53"/><polygon class="cls-7" points="282.29 924.13 282.71 934.72 276.48 926.74 282.29 924.13"/></g><g id="node62"><polygon class="cls-1" points="509.93 1078.71 416.83 1078.71 416.83 1114.71 509.93 1114.71 509.93 1078.71"/><text class="cls-3" transform="translate(423.62 1100.42) scale(0.9 1)">netty-trans<tspan class="cls-13" x="63.58" y="0">p</tspan><tspan x="71" y="0">ort</tspan></text></g><g id="edge96"><path class="cls-6" d="M300.15,746.06c-52,15.44-146.5,54.39-146.5,133.65v74c0,67.12,54.63,60.94,109.21,89,46.38,23.84,103.36,37.57,144.71,45.06"/><polygon class="cls-7" points="408.31 1084.36 416.68 1089.37 407.35 1091.28 408.31 1084.36"/></g><g id="node63"><polygon class="cls-1" points="742.22 1150.71 666.13 1150.71 666.13 1186.71 742.22 1186.71 742.22 1150.71"/><text class="cls-3" transform="translate(672.94 1172.42) scale(0.9 1)">netty-buffer</text></g><g id="edge97"><path class="cls-6" d="M366.82,740.26c64.83,5.48,212.41,20.35,333.78,50.45,92.12,22.85,121.2,18.1,202.3,72,35.55,23.63,50.92,29.49,67.14,72,32.58,85.41-20.79,138-94.89,180-39.41,22.37-88.37,36.31-123.78,44.25"/><polygon class="cls-7" points="751.84 1162.42 742.45 1160.9 750.64 1155.56 751.84 1162.42"/></g><g id="node64"><polygon class="cls-1" points="562.29 1222.71 471.88 1222.71 471.88 1258.71 562.29 1258.71 562.29 1222.71"/><text class="cls-3" transform="translate(478.93 1244.42) scale(0.9 1)">netty-common</text></g><g id="edge99"><path class="cls-6" d="M300.4,737.86C225.86,740.32,51.6,759,51.6,879.71v218c0,54.39,31.73,64.48,75.19,89,57.57,32.47,242.79,45.88,335.86,50.68"/><polygon class="cls-7" points="462.83 1233.9 471.63 1237.85 462.54 1240.89 462.83 1233.9"/></g><g id="node65"><polygon class="cls-1" points="434.28 1150.71 349.24 1150.71 349.24 1186.71 434.28 1186.71 434.28 1150.71"/><text class="cls-3" transform="translate(355.93 1172.42) scale(0.9 1)">netty-<tspan class="cls-8" x="34.04" y="0">r</tspan><tspan class="cls-11" x="38.94" y="0">esol</tspan><tspan class="cls-12" x="61.35" y="0">v</tspan><tspan class="cls-11" x="67.67" y="0">er</tspan></text></g><g id="edge98"><path class="cls-6" d="M300.21,740.4c-35.91,4.59-93.14,17-132.24,50.31-32.91,28.08-48.34,42.73-48.34,89v74c0,119.17,141.56,177.76,220.48,201.16"/><polygon class="cls-7" points="341.06 1151.54 348.95 1157.42 339.5 1158.32 341.06 1151.54"/></g><g id="node67"><polygon class="cls-1" points="386.39 790.72 280.76 790.72 280.76 826.72 386.39 826.72 386.39 790.72"/><text class="cls-3" transform="translate(287.28 812.42) scale(0.9 1)">netty-c<tspan class="cls-26" x="40.04" y="0">o</tspan><tspan x="47.11" y="0">d</tspan><tspan class="cls-13" x="54.52" y="0">e</tspan><tspan x="60.96" y="0">c-http2</tspan></text></g><g id="edge92"><path class="cls-6" d="M333.58,755v25.6"/><polygon class="cls-7" points="336.71 780.62 333.58 790.62 330.44 780.62 336.71 780.62"/></g><g id="node68"><polygon class="cls-1" points="607.95 862.72 499.63 862.72 499.63 898.72 607.95 898.72 607.95 862.72"/><text class="cls-3" transform="translate(506.69 884.42) scale(0.9 1)">netty-<tspan class="cls-8" x="34.04" y="0">r</tspan><tspan class="cls-11" x="38.94" y="0">esol</tspan><tspan class="cls-12" x="61.35" y="0">v</tspan><tspan class="cls-21" x="67.67" y="0">er-dns</tspan></text></g><g id="edge94"><path class="cls-6" d="M360.14,754.84,519.29,857.46"/><polygon class="cls-7" points="520.95 854.5 527.13 862.52 517.81 860.55 520.95 854.5"/></g><g id="edge100"><path class="cls-6" d="M574.19,825.17l-149.77,39"/><polygon class="cls-7" points="424.88 867.67 415.45 866.54 423.45 860.87 424.88 867.67"/></g><g id="node61"><polygon class="cls-1" points="630.33 1006.72 556.03 1006.72 556.03 1042.71 630.33 1042.71 630.33 1006.72"/><text class="cls-3" transform="translate(562.72 1028.42) scale(0.9 1)">netty-c<tspan class="cls-4" x="40.04" y="0">o</tspan><tspan class="cls-17" x="47.11" y="0">d</tspan><tspan class="cls-13" x="54.52" y="0">e</tspan><tspan x="60.96" y="0">c</tspan></text></g><g id="edge102"><path class="cls-6" d="M630.23,826.86c-7,37.1-23.54,125-32,169.75"/><polygon class="cls-7" points="601.33 997.41 596.42 1006.49 595.2 995.98 601.33 997.41"/></g><g id="edge103"><path class="cls-6" d="M574.34,815.73c-29.09,6.49-62.16,19.8-82.32,47-44,59.36-38.69,157.89-32.86,205.53"/><polygon class="cls-7" points="462.29 1068.01 460.51 1078.4 456.1 1069.04 462.29 1068.01"/></g><g id="edge104"><path class="cls-6" d="M692.69,817.33c45.36,7.39,108.79,21.16,161,45.38,48.61,22.56,74.24,20.33,99.36,72,42.14,86.65-51.34,132.51-114.58,180-26.36,19.8-60.08,33.07-87.13,41.39"/><polygon class="cls-7" points="751.87 1159.56 742.42 1158.73 750.27 1152.8 751.87 1159.56"/></g><g id="edge105"><path class="cls-6" d="M692.61,815c119.73,12.46,126.95-33.75,243.68,38.49,0,0,43.51,21.19,52.32,130.57,9.14,113.42-276.81,250.12-416.81,254.59"/><polygon class="cls-7" points="571.54 1242.13 562.51 1238.89 571.37 1235.13 571.54 1242.13"/></g><g id="node66"><polygon class="cls-1" points="944.53 934.72 838 934.72 838 970.72 944.53 970.72 944.53 934.72"/><text class="cls-3" transform="translate(844.75 956.42) scale(0.9 1)">netty-c<tspan class="cls-22" x="40.04" y="0">o</tspan><tspan x="47.11" y="0">d</tspan><tspan class="cls-27" x="54.52" y="0">e</tspan><tspan x="60.96" y="0">c-s</tspan><tspan class="cls-27" x="77.16" y="0">o</tspan><tspan x="84.25" y="0">cks</tspan></text></g><g id="edge101"><path class="cls-6" d="M692.94,815.3c39.86,6.24,92.17,19.46,132.08,47.41,22.47,15.74,41,42.86,52.73,63"/><polygon class="cls-7" points="880.54 924.14 882.64 934.48 875.23 927.86 880.54 924.14"/></g><g id="edge106"><path class="cls-6" d="M346.32,899l-31.09,29"/><polygon class="cls-7" points="316.97 930.89 308.09 934.62 312.96 925.52 316.97 930.89"/></g><g id="edge107"><path class="cls-6" d="M392.44,898.84l165.25,102.8"/><polygon class="cls-7" points="559.25 998.61 565.54 1006.52 556.2 1004.72 559.25 998.61"/></g><g id="edge108"><path class="cls-6" d="M365.56,898.79c1.17,18.43,4.46,48.32,13.67,71.92,15.1,38.68,42.89,76.47,62.39,100.19"/><polygon class="cls-7" points="444.05 1068.69 447.88 1078.39 439.48 1073.47 444.05 1068.69"/></g><g id="edge109"><path class="cls-6" d="M379.62,898.92c16.15,18.54,43.19,48.52,68.54,71.79,77,70.69,101,81.51,183.51,144,13.3,10.08,28.12,21,40.89,30.25"/><polygon class="cls-7" points="674.4 1142.13 680.2 1150.51 670.99 1148.01 674.4 1142.13"/></g><g id="edge110"><path class="cls-6" d="M314.62,887.76c-27,6.43-58.18,19.69-75,47-43.7,70.66-124.93,61.66,62.66,252,23.16,23.51,104.71,38.64,160.4,46.48"/><polygon class="cls-7" points="463.19 1229.74 471.69 1234.43 462.43 1236.69 463.19 1229.74"/></g><g id="edge111"><path class="cls-6" d="M332.55,963.59,546.82,1013"/><polygon class="cls-7" points="547.67 1009.64 555.81 1015.1 546.4 1016.5 547.67 1009.64"/></g><g id="edge112"><path class="cls-6" d="M310.66,970.84l124.2,101.55"/><polygon class="cls-7" points="436.98 1069.8 442.36 1078.53 433.28 1075.44 436.98 1069.8"/></g><g id="edge113"><path class="cls-6" d="M297.2,970.72c15.84,34,55.95,109.9,111.57,144,41.79,25.6,175.46,41.74,247.81,48.82"/><polygon class="cls-7" points="657.3 1160.09 665.94 1164.43 656.76 1167.07 657.3 1160.09"/></g><g id="edge115"><path class="cls-6" d="M286.81,970.82c-1.62,10.35-3.44,23.83-4.26,35.89-1.07,16-1.08,20,0,36,4.77,70.2,6.76,104.76,59.08,144,36.11,27.08,84.19,40.36,120.89,46.86"/><polygon class="cls-7" points="463.2 1230.14 471.59 1235.09 462.28 1237.07 463.2 1230.14"/></g><g id="edge114"><path class="cls-6" d="M287.94,970.92c-2.41,31.44-3.76,99,23.26,143.79,7.81,13,19.5,23.18,31.54,31.07"/><polygon class="cls-7" points="344.33 1142.77 350.68 1150.63 341.33 1148.9 344.33 1142.77"/></g><g id="edge116"><path class="cls-6" d="M561.42,1042.83l-58.32,31.46"/><polygon class="cls-7" points="504.45 1077.45 495.03 1078.64 501.73 1071.14 504.45 1077.45"/></g><g id="edge117"><path class="cls-6" d="M606.57,1042.84c19.49,25,55.83,71.42,78.24,100.1"/><polygon class="cls-7" points="687.21 1140.69 690.74 1150.53 682.5 1145.3 687.21 1140.69"/></g><g id="edge118"><path class="cls-6" d="M587.08,1042.86c-13.25,37.25-44.72,125.78-60.56,170.31"/><polygon class="cls-7" points="529.43 1214.48 523.21 1222.48 523.6 1211.89 529.43 1214.48"/></g><g id="edge119"><path class="cls-6" d="M510.09,1111.29,657.16,1154"/><polygon class="cls-7" points="658.04 1150.68 665.92 1156.6 656.46 1157.46 658.04 1150.68"/></g><g id="edge121"><path class="cls-6" d="M469.86,1114.84c9.23,24.41,26.26,69.44,37.16,98.23"/><polygon class="cls-7" points="509.99 1211.95 510.59 1222.53 504.21 1214.67 509.99 1211.95"/></g><g id="edge120"><path class="cls-6" d="M445.67,1115l-29.61,29"/><polygon class="cls-7" points="418.06 1146.65 409.26 1150.62 413.94 1141.39 418.06 1146.65"/></g><g id="edge122"><path class="cls-6" d="M666.09,1184l-94.93,35.52"/><polygon class="cls-7" points="571.86 1222.91 562.37 1222.77 569.87 1216.28 571.86 1222.91"/></g><g id="edge123"><path class="cls-6" d="M422.42,1186.83,478.3,1218"/><polygon class="cls-7" points="479.7 1214.92 486.31 1222.53 476.9 1221.18 479.7 1214.92"/></g><g id="edge124"><path class="cls-6" d="M838,966.22l-198.57,46.63"/><polygon class="cls-7" points="639.87 1016.33 630.46 1014.96 638.58 1009.48 639.87 1016.33"/></g><g id="edge125"><path class="cls-6" d="M852.5,970.82c-44.29,19.15-119.13,50.31-185,71.89-49.76,16.3-107.38,30.88-148.68,40.6"/><polygon class="cls-7" points="519.37 1086.76 509.97 1085.38 518.09 1079.9 519.37 1086.76"/></g><g id="edge126"><path class="cls-6" d="M886.53,971.12c-9.54,32.37-33.68,102.27-74,143.59-17.35,17.76-40.88,30.24-61.58,38.61"/><polygon class="cls-7" points="751.73 1156.71 742.25 1156.66 749.69 1150.1 751.73 1156.71"/></g><g id="edge127"><path class="cls-6" d="M891.49,970.89c-.3,18.53-2.43,48.48-11.86,71.82-30.89,76.45-44.29,101.85-109.21,144-61.8,40.13-145.13,50.81-199,53.18"/><polygon class="cls-7" points="571.37 1243.39 562.32 1240.22 571.16 1236.39 571.37 1243.39"/></g><g id="edge128"><path class="cls-6" d="M341.32,827c3.57,8,7.88,17.6,11.83,26.44"/><polygon class="cls-7" points="356.06 852.11 357.25 862.62 350.45 855.24 356.06 852.11"/></g><g id="edge129"><path class="cls-6" d="M323.37,826.72c-5.64,10.09-12.35,23.34-16.65,36-6.8,20-11.17,43.82-13.77,61.76"/><polygon class="cls-7" points="296.02 925.18 291.58 934.54 289.82 924.13 296.02 925.18"/></g><g id="edge130"><path class="cls-6" d="M366.45,826.79c17.36,9.61,38.73,22.38,56.64,35.92,56.77,42.93,116.39,103.52,147.75,136.78"/><polygon class="cls-7" points="573.15 997.13 577.46 1006.55 568.83 1002.18 573.15 997.13"/></g><g id="edge131"><path class="cls-6" d="M310.68,826.72c-36,29-99.05,90-71.09,144,34.9,67.46,114.06,99.47,168.22,114"/><polygon class="cls-7" points="408.59 1081.29 416.61 1086.93 407.19 1088.11 408.59 1081.29"/></g><g id="edge132"><path class="cls-6" d="M386.43,815.31c108,12.8,347.58,48.73,394.73,119.4,43.14,64.68,21.78,114.7-20.59,180-7.11,11-16.67,21.06-25.9,29.44"/><polygon class="cls-7" points="736.38 1147.11 727.39 1150.49 732.52 1141.59 736.38 1147.11"/></g><g id="edge133"><path class="cls-6" d="M280.69,826.28c-72.83,26.86-195.07,88.2-195.07,197.43v74c0,86.85,261,124.5,377,137"/><polygon class="cls-7" points="463.11 1231.19 471.73 1235.62 462.52 1238.16 463.11 1231.19"/></g><g id="edge134"><path class="cls-6" d="M499.39,896.14,341.12,938.08"/><polygon class="cls-7" points="341.73 941.52 332.31 940.42 340.29 934.72 341.73 941.52"/></g><g id="edge136"><path class="cls-6" d="M561.37,899.07c4.23,10.21,9.38,23.46,13,35.64,6,20.31,10.93,43.9,14.2,61.71"/><polygon class="cls-7" points="591.69 995.9 590.37 1006.4 585.54 997.27 591.69 995.9"/></g><g id="edge137"><path class="cls-6" d="M546.55,898.86c-15.75,37.25-53.15,125.78-72,170.31"/><polygon class="cls-7" points="477.31 1070.93 470.65 1078.48 471.65 1067.94 477.31 1070.93"/></g><g id="edge138"><path class="cls-6" d="M608.15,887.12c55,6.89,134.46,21.18,153.32,47.59,44.64,62.55-9,161.21-39.3,207.47"/><polygon class="cls-7" points="724.51 1144.54 716.64 1150.45 719.48 1140.35 724.51 1144.54"/></g><g id="edge140"><path class="cls-6" d="M608.34,884.53c104,6,322.18,21.87,344.69,50.18,79.58,100.09-41.48,190-147.7,252-39.72,23.17-161.92,39.61-233.83,47.56"/><polygon class="cls-7" points="571.77 1237.77 562.56 1235.26 571.16 1230.8 571.77 1237.77"/></g><g id="edge139"><path class="cls-6" d="M536.54,898.84c-30.86,31.81-95.32,103.7-127.77,179.87-8.33,19.56-12.62,43.69-14.8,61.89"/><polygon class="cls-7" points="397.08 1141.05 392.91 1150.56 390.86 1140.21 397.08 1141.05"/></g><g id="node69"><polygon class="cls-1" points="752.96 934.72 655.39 934.72 655.39 970.72 752.96 970.72 752.96 934.72"/><text class="cls-3" transform="translate(662.46 956.42) scale(0.9 1)">netty-c<tspan class="cls-22" x="40.04" y="0">o</tspan><tspan x="47.11" y="0">d</tspan><tspan class="cls-27" x="54.52" y="0">e</tspan><tspan x="60.96" y="0">c-dns</tspan></text></g><g id="edge135"><path class="cls-6" d="M590.58,898.83,659,930.7"/><polygon class="cls-7" points="660.45 927.57 667.51 934.64 658.04 934.03 660.45 927.57"/></g><g id="edge141"><path class="cls-6" d="M677,970.83,628.4,1001.5"/><polygon class="cls-7" points="629.77 1004.65 620.43 1006.52 626.69 998.57 629.77 1004.65"/></g><g id="edge142"><path class="cls-6" d="M695.65,970.86c-10.84,20.21-31.28,53.4-56.82,71.85-36,26-83.29,39.36-119.68,46.14"/><polygon class="cls-7" points="519.48 1092.34 510.15 1090.43 518.5 1085.42 519.48 1092.34"/></g><g id="edge143"><path class="cls-6" d="M704.18,970.86v169.46"/><polygon class="cls-7" points="707.31 1140.48 704.18 1150.48 701.04 1140.48 707.31 1140.48"/></g><g id="edge144"><path class="cls-6" d="M715.28,970.86c25.63,41.83,83.23,150.54,35.45,215.85-22.18,30.31-117.22,43.71-179,49.31"/><polygon class="cls-7" points="571.61 1239.55 562.45 1236.83 571.13 1232.57 571.61 1239.55"/></g><g id="edge147"><path class="cls-6" d="M236.61,597c51.21,6,146.36,20.82,166.79,49.7,8.88,12.55,6.71,21.86,0,36-6.36,13.41-17.25,24-28.56,32.17"/><polygon class="cls-7" points="376.27 718 366.98 720.11 373.06 711.99 376.27 718"/></g><g id="node71"><polygon class="cls-1" points="261.07 646.72 146.49 646.72 146.49 682.72 261.07 682.72 261.07 646.72"/><text class="cls-3" transform="translate(153.85 668.42) scale(0.9 1)"><tspan class="cls-12">v</tspan><tspan class="cls-11" x="6.32" y="0">ertx-</tspan><tspan class="cls-18" x="33.41" y="0">w</tspan><tspan x="43.37" y="0">eb-common</tspan></text></g><g id="edge145"><path class="cls-6" d="M203.78,611v25.6"/><polygon class="cls-7" points="206.91 636.62 203.78 646.62 200.65 636.62 206.91 636.62"/></g><g id="node72"><polygon class="cls-1" points="394.9 646.72 277.63 646.72 277.63 682.72 394.9 682.72 394.9 646.72"/><text class="cls-28" transform="translate(284.85 668.42) scale(0.9 1)">v<tspan class="cls-11" x="6.32" y="0">ertx-auth-common</tspan></text></g><g id="edge146"><path class="cls-6" d="M236.18,610.83l59.54,31.47"/><polygon class="cls-7" points="297.21 639.21 303.96 646.64 294.53 645.53 297.21 639.21"/></g><g id="node73"><text class="cls-3" transform="translate(11.15 668.42) scale(0.9 1)"><tspan class="cls-12">v</tspan><tspan class="cls-11" x="6.32" y="0">ertx-brid</tspan><tspan class="cls-14" x="56.49" y="0">g</tspan><tspan x="63.25" y="0">e-common</tspan></text></g><g id="edge148"><path class="cls-6" d="M171,610.49l-62.33,31.84"/><polygon class="cls-7" points="109.75 645.63 100.31 646.6 107.14 639.25 109.75 645.63"/></g><g id="edge149"><path class="cls-6" d="M235.53,682.83l58.33,31.47"/><polygon class="cls-7" points="295.23 711.14 301.92 718.64 292.51 717.46 295.23 711.14"/></g><g id="edge150"><path class="cls-6" d="M335.6,683c-.29,7.73-.65,17-1,25.6"/><polygon class="cls-7" points="337.75 708.76 334.23 718.62 331.48 708.47 337.75 708.76"/></g><g id="edge151"><path class="cls-6" d="M1211.4,252.62l-38.54,29.85"/><polygon class="cls-7" points="1174.46 285.49 1165.31 288.31 1170.89 279.74 1174.46 285.49"/></g><g id="edge152"><path class="cls-6" d="M1486.72,322.08c-2.67.83-5.33,1.65-7.92,2.42-60.42,18-69.17,9.35-123.37,44.21-17.07,11-26.12,18.61-44,27.79-45.24,23.21-805,47-974.57,52"/><polygon class="cls-7" points="336.66 452.03 327.63 448.8 336.49 445.04 336.66 452.03"/></g><g id="edge154"><path class="cls-6" d="M1486.51,322.36c-42.4,14.61-101.33,35.17-106.18,38.14-19.56,12-18,26.08-38.49,36-57.52,27.86-233.73,43.06-328.14,49.4"/><polygon class="cls-7" points="1013.66 449.41 1004.54 446.5 1013.29 442.42 1013.66 449.41"/></g><g id="edge153"><path class="cls-6" d="M1546.64,324.8c8.4,8.65-149.72,161.07-131.51,195.71"/><polygon class="cls-7" points="1417.4 518.09 1421.86 527.44 1413.15 523.24 1417.4 518.09"/></g><g id="edge155"><path class="cls-6" d="M1399.35,562.83c-67.84,28.25-46.72-81.23-109.83-55"/><polygon class="cls-7" points="1290.61 511.16 1281.13 511.37 1288.42 504.6 1290.61 511.16"/></g><g id="edge156"><path class="cls-6" d="M1399.25,555.65c-61.37-44.28,186.33-142.12,63.19-146-182,27.45-344.79,30-448.63,36.4"/><polygon class="cls-7" points="1013.83 449.5 1004.73 446.56 1013.49 442.51 1013.83 449.5"/></g><g id="node77"><polygon class="cls-1" points="1483.69 599.54 1393.28 599.54 1393.28 635.54 1483.69 635.54 1483.69 599.54"/><text class="cls-3" transform="translate(1400.54 621.24) scale(0.9 1)">antlr4-<tspan class="cls-29" x="38.69" y="0">r</tspan><tspan x="43.69" y="0">untime</tspan></text></g><g id="edge157"><path class="cls-6" d="M1438.48,563.84v25.59"/><polygon class="cls-7" points="1441.62 589.44 1438.48 599.44 1435.35 589.44 1441.62 589.44"/></g></g></g></g></svg>