<svg xmlns="http://www.w3.org/2000/svg" viewBox="0 0 3611.27 1543.82"><defs><style>.cls-1{fill:#00b1ff;}.cls-17,.cls-2,.cls-25,.cls-40,.cls-7{isolation:isolate;font-size:38px;font-family:LinBiolinum, Linux Biolinum;}.cls-14,.cls-2{letter-spacing:0em;}.cls-3{letter-spacing:0em;}.cls-25,.cls-4{letter-spacing:0em;}.cls-5{fill:#87e9ff;}.cls-19,.cls-6{fill:none;}.cls-19,.cls-20,.cls-6{stroke:#000;}.cls-8{letter-spacing:-0.02em;}.cls-9{letter-spacing:0.01em;}.cls-10{letter-spacing:0.01em;}.cls-11{letter-spacing:0em;}.cls-12{letter-spacing:0.01em;}.cls-13,.cls-40{letter-spacing:-0.02em;}.cls-15{letter-spacing:0em;}.cls-16{letter-spacing:0.01em;}.cls-17,.cls-42{letter-spacing:-0.01em;}.cls-18{letter-spacing:0em;}.cls-19,.cls-20{stroke-width:0.5px;}.cls-21{fill:#86c4c4;stroke:#86c4c4;}.cls-22{fill:#d6a894;stroke:#d6a894;}.cls-23{fill:#dfa4ca;stroke:#dfa4ca;}.cls-24{fill:#c4b0d6;stroke:#c4b0d6;}.cls-26{fill:#ccaa60;stroke:#ccaa60;}.cls-27{letter-spacing:0.01em;}.cls-28{fill:#7eb5d0;stroke:#7eb5d0;}.cls-29{letter-spacing:-0.01em;}.cls-30{fill:#a8b3e2;stroke:#a8b3e2;}.cls-31{letter-spacing:0em;}.cls-32{letter-spacing:0em;}.cls-33{fill:#77a57c;stroke:#77a57c;}.cls-34{fill:#ca97a5;stroke:#ca97a5;}.cls-35{letter-spacing:0em;}.cls-36{fill:#adbde3;stroke:#adbde3;}.cls-37{fill:#ffcb2b;stroke:#ffcb2b;}.cls-38{letter-spacing:-0.01em;}.cls-39{fill:#a5ca97;stroke:#a5ca97;}.cls-41{fill:#c89475;stroke:#c89475;}.cls-43{fill:#f08db9;stroke:#f08db9;}</style></defs><g id="Layer_2" data-name="Layer 2"><g id="Layer_1-2" data-name="Layer 1"><g id="graph0"><g id="node1"><polygon class="cls-1" points="2003.84 0 1840.46 0 1840.46 53.21 2003.84 53.21 2003.84 0"/><text class="cls-2" transform="translate(1846.94 38)">b<tspan class="cls-3" x="19.33" y="0">esu-co</tspan><tspan class="cls-4" x="119.91" y="0">r</tspan><tspan class="cls-3" x="133.21" y="0">e</tspan></text></g><g id="node2"><polygon class="cls-5" points="660.05 89.41 0 89.41 0 647.45 660.05 647.45 660.05 89.41"/><polygon class="cls-6" points="8 148.41 8 93.41 237.02 93.41 237.02 148.41 8 148.41"/><text class="cls-7" transform="translate(73.97 132.61)">config</text><polygon class="cls-6" points="237.02 148.41 237.02 93.41 436.03 93.41 436.03 148.41 237.02 148.41"/><text class="cls-7" transform="translate(312.24 132.61)">pki</text><polygon class="cls-6" points="436.03 148.41 436.03 93.41 652.05 93.41 652.05 148.41 436.03 148.41"/><text class="cls-7" transform="translate(497.61 132.61)">clique</text><polygon class="cls-6" points="8 203.42 8 148.41 237.02 148.41 237.02 203.42 8 203.42"/><text class="cls-7" transform="translate(56.01 187.62)">common</text><polygon class="cls-6" points="237.02 203.42 237.02 148.41 436.03 148.41 436.03 203.42 237.02 203.42"/><text class="cls-7" transform="translate(258.42 187.62)">plugin-api</text><polygon class="cls-6" points="436.03 203.42 436.03 148.41 652.05 148.41 652.05 203.42 436.03 203.42"/><text class="cls-7" transform="translate(517.65 187.62)">ibft</text><polygon class="cls-6" points="8 258.42 8 203.42 237.02 203.42 237.02 258.42 8 258.42"/><text class="cls-7" transform="translate(46.54 242.62)">ibftle<tspan class="cls-4" x="79.96" y="0">g</tspan><tspan x="98.72" y="0">acy</tspan></text><polygon class="cls-6" points="237.02 258.42 237.02 203.42 436.03 203.42 436.03 258.42 237.02 258.42"/><text class="cls-7" transform="translate(289.05 242.62)">mer<tspan class="cls-8" x="61.35" y="0">g</tspan><tspan x="79.72" y="0">e</tspan></text><polygon class="cls-6" points="436.03 258.42 436.03 203.42 652.05 203.42 652.05 258.42 436.03 258.42"/><text class="cls-7" transform="translate(513.43 242.62)">qbft</text><polygon class="cls-6" points="8 313.43 8 258.42 237.02 258.42 237.02 313.43 8 313.43"/><text class="cls-7" transform="translate(73.97 297.62)">c<tspan class="cls-9" x="16.29" y="0">r</tspan><tspan x="30.15" y="0">ypto</tspan></text><polygon class="cls-6" points="237.02 313.43 237.02 258.42 436.03 258.42 436.03 313.43 237.02 313.43"/><text class="cls-7" transform="translate(311.18 297.62)">util</text><polygon class="cls-6" points="436.03 313.43 436.03 258.42 652.05 258.42 652.05 313.43 436.03 313.43"/><text class="cls-7" transform="translate(472.28 297.62)">dataty<tspan class="cls-10" x="101.74" y="0">p</tspan><tspan class="cls-3" x="121.88" y="0">es</tspan></text><polygon class="cls-6" points="8 368.43 8 313.43 237.02 313.43 237.02 368.43 8 368.43"/><text class="cls-7" transform="translate(64.49 352.63)">encla<tspan class="cls-11" x="81.81" y="0">v</tspan><tspan x="98.98" y="0">e</tspan></text><polygon class="cls-6" points="237.02 368.43 237.02 313.43 436.03 313.43 436.03 368.43 237.02 368.43"/><text class="cls-7" transform="translate(313.31 352.63)">api</text><polygon class="cls-6" points="436.03 368.43 436.03 313.43 652.05 313.43 652.05 368.43 436.03 368.43"/><text class="cls-7" transform="translate(440.63 352.63)">bl<tspan class="cls-12" x="28.72" y="0">o</tspan><tspan x="47.99" y="0">c</tspan><tspan class="cls-13" x="64.28" y="0">k</tspan><tspan class="cls-3" x="82.82" y="0">c</tspan><tspan class="cls-4" x="99.11" y="0">r</tspan><tspan class="cls-14" x="112.41" y="0">e</tspan><tspan class="cls-3" x="129.8" y="0">ation</tspan></text><polygon class="cls-6" points="8 423.43 8 368.43 237.02 368.43 237.02 423.43 8 423.43"/><text class="cls-7" transform="translate(12.8 407.63)">ethe<tspan class="cls-4" x="68.18" y="0">r</tspan><tspan class="cls-15" x="81.48" y="0">eum-co</tspan><tspan class="cls-4" x="197.66" y="0">r</tspan><tspan x="210.96" y="0">e</tspan></text><polygon class="cls-6" points="237.02 423.43 237.02 368.43 436.03 368.43 436.03 423.43 237.02 423.43"/><text class="cls-7" transform="translate(313.31 407.63)">eth</text><polygon class="cls-6" points="436.03 423.43 436.03 368.43 652.05 368.43 652.05 423.43 436.03 423.43"/><text class="cls-7" transform="translate(515.54 407.63)">p2p</text><polygon class="cls-6" points="8 478.44 8 423.43 237.02 423.43 237.02 478.44 8 478.44"/><text class="cls-7" transform="translate(14.84 462.64)"><tspan class="cls-16">p</tspan><tspan x="20.13" y="0">ermissioning</tspan></text><polygon class="cls-6" points="237.02 478.44 237.02 423.43 436.03 423.43 436.03 478.44 237.02 478.44"/><text class="cls-7" transform="translate(272.16 462.64)"><tspan class="cls-4">r</tspan><tspan x="13.3" y="0">etesteth</tspan></text><polygon class="cls-6" points="436.03 478.44 436.03 423.43 652.05 423.43 652.05 478.44 436.03 478.44"/><text class="cls-7" transform="translate(522.94 462.64)">rlp</text><polygon class="cls-6" points="8 533.44 8 478.44 237.02 478.44 237.02 533.44 8 533.44"/><text class="cls-7" transform="translate(97.19 517.64)">trie</text><polygon class="cls-6" points="237.02 533.44 237.02 478.44 436.03 478.44 436.03 533.44 237.02 533.44"/><text class="cls-7" transform="translate(279.53 517.64)">stratum</text><polygon class="cls-6" points="436.03 533.44 436.03 478.44 652.05 478.44 652.05 533.44 436.03 533.44"/><text class="cls-7" transform="translate(487.05 517.64)">ethstats</text><polygon class="cls-6" points="8 588.45 8 533.44 237.02 533.44 237.02 588.45 8 588.45"/><text class="cls-17" transform="translate(89.79 572.64)">e<tspan class="cls-15" x="16.94" y="0">vm</tspan></text><polygon class="cls-6" points="237.02 588.45 237.02 533.44 436.03 533.44 436.03 588.45 237.02 588.45"/><text class="cls-7" transform="translate(241.58 572.64)">metrics-co<tspan class="cls-4" x="163.41" y="0">r</tspan><tspan x="176.71" y="0">e</tspan></text><polygon class="cls-6" points="436.03 588.45 436.03 533.44 652.05 533.44 652.05 588.45 436.03 588.45"/><text class="cls-7" transform="translate(520.83 572.64)">nat</text><polygon class="cls-6" points="8 643.45 8 588.45 237.02 588.45 237.02 643.45 8 643.45"/><text class="cls-7" transform="translate(62.36 627.65)"><tspan class="cls-4">r</tspan><tspan class="cls-16" x="13.3" y="0">o</tspan><tspan x="32.57" y="0">cksdb</tspan></text><polygon class="cls-6" points="237.02 643.45 237.02 588.45 436.03 588.45 436.03 643.45 237.02 643.45"/><text class="cls-7" transform="translate(280.59 627.65)">kvsto<tspan class="cls-18" x="83.43" y="0">r</tspan><tspan x="96.73" y="0">e</tspan></text></g><g id="edge1"><path class="cls-19" d="M1840.37,27.71c-262.82,4-1056.2,19.56-1166.32,61.7-1.46.56-2.91,1.12-4.37,1.7"/><polygon class="cls-20" points="670.68 94.48 660.09 95.03 668.02 88 670.68 94.48"/></g><g id="node3"><polygon class="cls-21" points="806.64 952.47 531.46 952.47 531.46 1005.68 806.64 1005.68 806.64 952.47"/><text class="cls-7" transform="translate(533.85 990.48)">jackson-databind</text></g><g id="edge2"><path class="cls-19" d="M1840.23,27.9C1574.66,32.5,829.12,55.49,788.89,95,709.88,209,669.05,572,669.05,710.26v232"/><polygon class="cls-20" points="672.55 942.36 669.05 952.36 665.55 942.36 672.55 942.36"/></g><g id="node4"><polygon class="cls-21" points="1050.74 862.87 697.39 862.87 697.39 916.07 1050.74 916.07 1050.74 862.87"/><text class="cls-7" transform="translate(699 900.87)">jackson-dataty<tspan class="cls-16" x="232.92" y="0">p</tspan><tspan x="253.05" y="0">e-jdk8</tspan></text></g><g id="edge3"><path class="cls-19" d="M1840.27,28.7c-242,6.55-939.13,28.18-975.2,60.71C742,200.4,667,685.05,753.06,826.66c7.59,12.5,18.56,22.61,30.83,30.78"/><polygon class="cls-20" points="785.9 854.56 792.58 862.78 782.23 860.52 785.9 854.56"/></g><g id="node5"><polygon class="cls-22" points="1082.11 341.83 874.04 341.83 874.04 395.03 1082.11 395.03 1082.11 341.83"/><text class="cls-7" transform="translate(879.21 379.83)">graphql-java</text></g><g id="edge4"><path class="cls-19" d="M1840.13,29.45c-183.59,6.93-616,26.61-673,60C1071.93,145.06,1014.45,269.94,990.74,332"/><polygon class="cls-20" points="994.01 333.26 987.23 341.4 987.45 330.8 994.01 333.26"/></g><g id="node6"><polygon class="cls-23" points="1241.01 683.65 1121.17 683.65 1121.17 736.86 1241.01 736.86 1241.01 683.65"/><text class="cls-7" transform="translate(1130.57 721.66)">pic<tspan class="cls-16" x="46.04" y="0">o</tspan><tspan x="65.3" y="0">cli</tspan></text></g><g id="edge5"><path class="cls-19" d="M1840.46,30.45c-104.63,6.37-278.64,22.25-330.34,59-210.07,149.13-297.46,474.72-321.62,584.14"/><polygon class="cls-20" points="1191.89 674.42 1186.36 683.45 1185.05 672.94 1191.89 674.42"/></g><g id="node7"><polygon class="cls-24" points="1486.23 862.87 1313.99 862.87 1313.99 916.07 1486.23 916.07 1486.23 862.87"/><text class="cls-7" transform="translate(1321.87 900.87)"><tspan class="cls-4">v</tspan><tspan class="cls-3" x="17.16" y="0">ertx-co</tspan><tspan class="cls-4" x="125.98" y="0">r</tspan><tspan x="139.28" y="0">e</tspan></text></g><g id="edge6"><path class="cls-19" d="M1900.25,53.25c-8.07,10.75-16.78,23.58-23.11,36.16-117.05,232.68-73.24,320-179,558-18.7,42.08-26.89,51-52,89.61-26.83,41.24-25.5,60.28-65,89.6-14.52,10.79-49.39,23.75-84.68,35.08"/><polygon class="cls-20" points="1497.08 865.21 1486.49 864.9 1494.97 858.54 1497.08 865.21"/></g><g id="node8"><polygon class="cls-24" points="1689.16 341.83 1519.09 341.83 1519.09 395.03 1689.16 395.03 1689.16 341.83"/><text class="cls-25" transform="translate(1527.08 379.83)">v<tspan class="cls-3" x="17.16" y="0">ertx-</tspan><tspan x="90.68" y="0">w</tspan><tspan class="cls-3" x="117.74" y="0">eb</tspan></text></g><g id="edge7"><path class="cls-19" d="M1840.42,41.92c-53.5,11.52-117.11,28.52-137.29,47.49-69.42,65.26-90.22,182.31-96.41,241.93"/><polygon class="cls-20" points="1610.19 331.81 1605.76 341.43 1603.22 331.14 1610.19 331.81"/></g><g id="node9"><polygon class="cls-26" points="2060.81 773.26 1707.48 773.26 1707.48 826.47 2060.81 826.47 2060.81 773.26"/><text class="cls-7" transform="translate(1709.73 811.26)">spring-s<tspan class="cls-16" x="125.38" y="0">e</tspan><tspan x="142.84" y="0">curity-c</tspan><tspan class="cls-27" x="263.96" y="0">r</tspan><tspan x="277.82" y="0">ypto</tspan></text></g><g id="edge8"><path class="cls-19" d="M1915.05,53.31a352.78,352.78,0,0,0-6.9,36.1c-32.57,256-28,567.69-25.16,673.38"/><polygon class="cls-20" points="1886.49 762.85 1883.27 772.94 1879.49 763.04 1886.49 762.85"/></g><g id="node10"><polygon class="cls-28" points="2188.76 862.87 1989.56 862.87 1989.56 916.07 2188.76 916.07 2188.76 862.87"/><text class="cls-7" transform="translate(1994.47 900.87)">snap<tspan class="cls-29" x="73.67" y="0">p</tspan><tspan x="93.28" y="0">y-java</tspan></text></g><g id="edge9"><path class="cls-19" d="M1920.33,53.54c-6.65,104.87-27,485.34,20.82,593.91,32.24,73.24,92,54.64,129,125.61,12.77,24.52,17.36,55.56,18.84,79.42"/><polygon class="cls-20" points="2092.5 852.4 2089.47 862.55 2085.51 852.73 2092.5 852.4"/></g><g id="node11"><polygon class="cls-30" points="2362.42 341.83 1949.91 341.83 1949.91 395.03 2362.42 395.03 2362.42 341.83"/><text class="cls-7" transform="translate(1948.4 379.83)">quo<tspan class="cls-31" x="59.23" y="0">r</tspan><tspan class="cls-32" x="72.8" y="0">um-mainnet-launcher</tspan></text></g><g id="edge10"><path class="cls-19" d="M1940.51,53.43l191.68,280"/><polygon class="cls-20" points="2135.13 331.5 2137.89 341.73 2129.35 335.46 2135.13 331.5"/></g><g id="node12"><polygon class="cls-33" points="2821.19 341.83 2615.23 341.83 2615.23 395.03 2821.19 395.03 2821.19 341.83"/><text class="cls-7" transform="translate(2618.59 379.83)">tu<tspan class="cls-4" x="33.31" y="0">w</tspan><tspan x="60.36" y="0">eni-units</tspan></text></g><g id="edge11"><path class="cls-19" d="M2003.93,30c166,7.45,530.73,27.29,577.27,59.45,83.31,57.57,118.1,180.65,130.74,242.28"/><polygon class="cls-20" points="2715.42 331.25 2713.91 341.74 2708.55 332.6 2715.42 331.25"/></g><g id="node13"><polygon class="cls-33" points="2785.49 683.65 2572.92 683.65 2572.92 736.86 2785.49 736.86 2785.49 683.65"/><text class="cls-7" transform="translate(2577.26 721.66)">tu<tspan class="cls-4" x="33.31" y="0">w</tspan><tspan x="60.36" y="0">eni-</tspan><tspan class="cls-18" x="120.54" y="0">b</tspan><tspan class="cls-32" x="139.5" y="0">ytes</tspan></text></g><g id="edge12"><path class="cls-19" d="M2004,30.84c144.51,8.23,432.88,28.25,467.19,58.57,191.22,169,1.88,340.35,135,558,6.61,10.81,15.7,20.71,25.22,29.31"/><polygon class="cls-20" points="2633.81 674.2 2639.11 683.37 2629.24 679.51 2633.81 674.2"/></g><g id="node14"><polygon class="cls-33" points="2436.89 773.26 2283.48 773.26 2283.48 826.47 2436.89 826.47 2436.89 773.26"/><text class="cls-7" transform="translate(2292.09 811.26)">log4j-api</text></g><g id="edge13"><path class="cls-19" d="M2003.84,32.29c122.9,9.39,343.63,29.85,367.34,57.12,44.34,51,4.75,534.85-7.61,673.5"/><polygon class="cls-20" points="2367.05 763.38 2362.67 773.02 2360.07 762.75 2367.05 763.38"/></g><g id="node15"><polygon class="cls-33" points="2555.35 683.65 2383.03 683.65 2383.03 736.86 2555.35 736.86 2555.35 683.65"/><text class="cls-7" transform="translate(2392.21 721.66)">log4j-co<tspan class="cls-4" x="123.45" y="0">r</tspan><tspan x="136.76" y="0">e</tspan></text></g><g id="edge14"><path class="cls-19" d="M2003.89,31.78c130.2,9,372.86,29.49,400.29,57.63,159.08,163.14,100.71,477.08,74.77,584.08"/><polygon class="cls-20" points="2482.27 674.61 2476.47 683.47 2475.48 672.92 2482.27 674.61"/></g><g id="node16"><polygon class="cls-33" points="3146.89 341.83 2917.57 341.83 2917.57 395.03 3146.89 395.03 3146.89 341.83"/><text class="cls-7" transform="translate(2923.71 379.83)">tu<tspan class="cls-4" x="33.31" y="0">w</tspan><tspan x="60.36" y="0">eni-config</tspan></text></g><g id="edge15"><path class="cls-19" d="M2004.16,27.1c222.5,2,825.77,12.08,899.06,62.31,82.61,56.61,113.43,180.14,124,242.07"/><polygon class="cls-20" points="3030.71 331.16 3028.86 341.59 3023.8 332.27 3030.71 331.16"/></g><g id="node17"><polygon class="cls-33" points="3276 683.65 3074.48 683.65 3074.48 736.86 3276 736.86 3276 683.65"/><text class="cls-7" transform="translate(3078.9 721.66)">tu<tspan class="cls-4" x="33.31" y="0">w</tspan><tspan x="60.36" y="0">eni-toml</tspan></text></g><g id="edge16"><path class="cls-19" d="M2003.87,27.75c269,4.17,1112,20.48,1152.37,61.66,158.85,162.1,69.36,477.28,32.49,584.29"/><polygon class="cls-20" points="3191.95 675.11 3185.34 683.39 3185.34 672.79 3191.95 675.11"/></g><g id="node18"><polygon class="cls-34" points="2919.46 773.26 2812.98 773.26 2812.98 826.47 2919.46 826.47 2919.46 773.26"/><text class="cls-7" transform="translate(2819.6 811.26)">guava</text></g><g id="edge17"><path class="cls-19" d="M2004.09,29.35c218,7.69,797.39,30.79,826.13,60.06,94.13,95.89,54.25,542.1,40.17,673.78"/><polygon class="cls-20" points="2873.86 763.62 2869.3 773.18 2866.9 762.86 2873.86 763.62"/></g><g id="node19"><polygon class="cls-21" points="579.97 1042.08 260.1 1042.08 260.1 1095.29 579.97 1095.29 579.97 1042.08"/><text class="cls-7" transform="translate(261.09 1080.08)">jackson-annotations</text></g><g id="edge18"><path class="cls-19" d="M595,1005.72l-91.32,32.86"/><polygon class="cls-20" points="504.81 1041.9 494.22 1041.99 502.44 1035.31 504.81 1041.9"/></g><g id="node20"><polygon class="cls-21" points="781.35 1131.69 568.76 1131.69 568.76 1184.89 781.35 1184.89 781.35 1131.69"/><text class="cls-7" transform="translate(574.97 1169.69)">jackson-<tspan class="cls-35" x="131.17" y="0">b</tspan><tspan x="150.51" y="0">om</tspan></text></g><g id="edge19"><path class="cls-19" d="M646.18,1005.71c-7.64,10.55-15.21,23.24-19.13,36.17-6.92,22.8-7.64,31,0,53.6,3.37,10,9,19.57,15.27,28.16"/><polygon class="cls-20" points="645.09 1121.49 648.46 1131.54 639.56 1125.79 645.09 1121.49"/></g><g id="node21"><polygon class="cls-21" points="846.18 1042.08 635.94 1042.08 635.94 1095.29 846.18 1095.29 846.18 1042.08"/><text class="cls-7" transform="translate(642.57 1080.08)">jackson-co<tspan class="cls-4" x="166.47" y="0">r</tspan><tspan x="179.77" y="0">e</tspan></text></g><g id="edge20"><path class="cls-19" d="M690.66,1006l22.42,27.91"/><polygon class="cls-20" points="715.93 1031.83 719.47 1041.82 710.48 1036.21 715.93 1031.83"/></g><g id="edge23"><path class="cls-19" d="M813.11,916.11l-73.6,32.17"/><polygon class="cls-20" points="740.69 951.58 730.13 952.38 737.89 945.17 740.69 951.58"/></g><g id="edge24"><path class="cls-19" d="M879.94,916.14c7.75,42.72,16,127-24.87,179.34-9.34,12-35,23.38-64.19,33.15"/><polygon class="cls-20" points="791.9 1131.97 781.31 1131.73 789.74 1125.32 791.9 1131.97"/></g><g id="edge25"><path class="cls-19" d="M864.42,916.22c-9.77,24.83-26.54,62-48.36,89.66-8.38,10.62-18.81,20.72-29.2,29.59"/><polygon class="cls-20" points="788.89 1038.33 778.95 1041.99 784.43 1032.93 788.89 1038.33"/></g><g id="node22"><polygon class="cls-22" points="1103.28 683.65 852.88 683.65 852.88 736.86 1103.28 736.86 1103.28 683.65"/><text class="cls-7" transform="translate(855.9 721.66)">java-datal<tspan class="cls-35" x="156.06" y="0">o</tspan><tspan x="175.24" y="0">ader</tspan></text></g><g id="edge26"><path class="cls-19" d="M978.08,395.25v278.3"/><polygon class="cls-20" points="981.58 673.56 978.08 683.56 974.58 673.56 981.58 673.56"/></g><g id="node23"><polygon class="cls-36" points="1026.54 773.26 761.6 773.26 761.6 826.47 1026.54 826.47 1026.54 773.26"/><text class="cls-25" transform="translate(765.23 811.26)">r<tspan class="cls-14" x="13.3" y="0">e</tspan><tspan class="cls-3" x="30.69" y="0">acti</tspan><tspan x="88.05" y="0">v</tspan><tspan class="cls-3" x="105.21" y="0">e-st</tspan><tspan x="163.02" y="0">r</tspan><tspan class="cls-14" x="176.32" y="0">e</tspan><tspan class="cls-3" x="193.71" y="0">ams</tspan></text></g><g id="edge27"><path class="cls-19" d="M962.12,395.44c-30.27,53-95.08,175.33-118,288-4.76,23.35-7.86,31.12,0,53.61,3.48,10,9.28,19.54,15.73,28.07"/><polygon class="cls-20" points="862.57 762.99 866.12 772.98 857.12 767.39 862.57 762.99"/></g><g id="edge28"><path class="cls-19" d="M1313.74,900.06,817.07,960.93"/><polygon class="cls-20" points="817.26 964.44 806.9 962.18 816.4 957.49 817.26 964.44"/></g><g id="edge29"><path class="cls-19" d="M1313.73,897c-114.46,10.67-309.84,31.58-377.66,55.29-.49.17-84.2,50.18-141.78,84.59"/><polygon class="cls-20" points="796.03 1039.9 785.65 1042.03 792.44 1033.89 796.03 1039.9"/></g><g id="node24"><polygon class="cls-37" points="1494 952.47 1174.2 952.47 1174.2 1005.68 1494 1005.68 1494 952.47"/><text class="cls-7" transform="translate(1175.71 990.48)">netty-handler-p<tspan class="cls-4" x="244.9" y="0">r</tspan><tspan class="cls-38" x="258.21" y="0">o</tspan><tspan class="cls-9" x="276.95" y="0">x</tspan><tspan x="294.6" y="0">y</tspan></text></g><g id="edge30"><path class="cls-19" d="M1380.3,916.35C1373.91,925,1366.72,934.8,1360,944"/><polygon class="cls-20" points="1362.64 946.23 1353.89 952.21 1357.01 942.08 1362.64 946.23"/></g><g id="node25"><polygon class="cls-37" points="1665.64 1042.08 1400.59 1042.08 1400.59 1095.29 1665.64 1095.29 1665.64 1042.08"/><text class="cls-7" transform="translate(1401.16 1080.08)">netty-c<tspan class="cls-35" x="108.68" y="0">o</tspan><tspan x="127.87" y="0">d</tspan><tspan class="cls-16" x="148" y="0">e</tspan><tspan x="165.46" y="0">c-http</tspan></text></g><g id="edge31"><path class="cls-19" d="M1461.06,916.14c15.66,9.41,31.14,21.41,42.06,36.13,17.07,23,24.46,54.87,27.64,79.43"/><polygon class="cls-20" points="1534.25 1031.4 1531.88 1041.73 1527.29 1032.18 1534.25 1031.4"/></g><g id="node26"><polygon class="cls-37" points="2055.24 1131.69 1837.06 1131.69 1837.06 1184.89 2055.24 1184.89 2055.24 1131.69"/><text class="cls-7" transform="translate(1838.47 1169.69)">netty-handler</text></g><g id="edge32"><path class="cls-19" d="M1486.42,914.54q4.39.93,8.7,1.73c85.14,15.82,320.87-18.67,388,36,50.57,41.16,61.48,121.79,63.3,169"/><polygon class="cls-20" points="1949.94 1121.35 1946.71 1131.44 1942.95 1121.54 1949.94 1121.35"/></g><g id="node27"><polygon class="cls-37" points="1734.84 1310.9 1495.41 1310.9 1495.41 1364.11 1734.84 1364.11 1734.84 1310.9"/><text class="cls-7" transform="translate(1494.57 1348.9)">netty-trans<tspan class="cls-16" x="172.59" y="0">p</tspan><tspan x="192.72" y="0">ort</tspan></text></g><g id="edge33"><path class="cls-19" d="M1313.93,902.32c-58.59,10.57-128.94,27.45-148.84,49.95-68.94,78-85.17,147.91-25,232.82,40.43,57.07,218.91,102.79,345.16,128.77"/><polygon class="cls-20" points="1486.29 1310.5 1495.39 1315.93 1484.89 1317.36 1486.29 1310.5"/></g><g id="node28"><polygon class="cls-37" points="1862.1 1400.51 1664.17 1400.51 1664.17 1453.71 1862.1 1453.71 1862.1 1400.51"/><text class="cls-7" transform="translate(1668.41 1438.51)">netty-buffer</text></g><g id="edge34"><path class="cls-19" d="M1313.82,899.23c-70.82,9.73-163.68,27-190.73,53-103.92,100-42.91,201.74,36,322.43,32.12,49.12,43.77,64.9,97,89.61,68.59,31.83,270.74,49.12,398.11,57.12"/><polygon class="cls-20" points="1654.62 1417.94 1664.39 1422.06 1654.19 1424.93 1654.62 1417.94"/></g><g id="node29"><polygon class="cls-37" points="1972.78 1490.11 1735.51 1490.11 1735.51 1543.32 1972.78 1543.32 1972.78 1490.11"/><text class="cls-7" transform="translate(1738.43 1528.12)">netty-common</text></g><g id="edge35"><path class="cls-19" d="M1313.66,898.13c-82,9.66-197.86,27.51-234.58,54.14-118.94,86.27-148,148.69-148,295.63v89.6c0,56.67,5.6,83.89,52,116.41,59.26,41.54,514.57,56,742.26,60.75"/><polygon class="cls-20" points="1725.42 1511.16 1735.34 1514.86 1725.27 1518.16 1725.42 1511.16"/></g><g id="node30"><polygon class="cls-37" points="2238.69 1400.51 2011.64 1400.51 2011.64 1453.71 2238.69 1453.71 2238.69 1400.51"/><text class="cls-7" transform="translate(2016.49 1438.51)">netty-<tspan class="cls-4" x="92.39" y="0">r</tspan><tspan class="cls-3" x="105.7" y="0">esol</tspan><tspan class="cls-4" x="166.52" y="0">v</tspan><tspan class="cls-3" x="183.69" y="0">er</tspan></text></g><g id="edge36"><path class="cls-19" d="M1486.41,914.63q4.39.89,8.71,1.64c208.71,36.31,941.07-59.44,941.07,152.41V1247.9c0,53.54,7.61,79.32-31,116.41-50.5,48.51-86.14,22.55-156.2,35.15"/><polygon class="cls-20" points="2249.36 1402.95 2238.86 1401.5 2247.97 1396.09 2249.36 1402.95"/></g><g id="node31"><polygon class="cls-37" points="1874.16 952.47 1590.11 952.47 1590.11 1005.68 1874.16 1005.68 1874.16 952.47"/><text class="cls-7" transform="translate(1591.74 990.48)">netty-c<tspan class="cls-35" x="108.68" y="0">o</tspan><tspan x="127.87" y="0">d</tspan><tspan class="cls-16" x="148" y="0">e</tspan><tspan x="165.46" y="0">c-http2</tspan></text></g><g id="edge37"><path class="cls-19" d="M1486.31,913.85l8.81,2.42c40.87,11.18,85.79,23.16,125.43,33.63"/><polygon class="cls-20" points="1621.47 946.52 1630.25 952.46 1619.68 953.29 1621.47 946.52"/></g><g id="node32"><polygon class="cls-37" points="2308.62 1042.08 2015.71 1042.08 2015.71 1095.29 2308.62 1095.29 2308.62 1042.08"/><text class="cls-7" transform="translate(2019.35 1080.08)">netty-<tspan class="cls-4" x="92.39" y="0">r</tspan><tspan class="cls-3" x="105.7" y="0">esol</tspan><tspan class="cls-4" x="166.52" y="0">v</tspan><tspan class="cls-3" x="183.69" y="0">er-dns</tspan></text></g><g id="edge38"><path class="cls-19" d="M1486.42,914.58c2.92.61,5.83,1.18,8.7,1.69,194.43,35,253.18-18.62,443,36,64.43,18.54,131.84,56.49,175.67,84"/><polygon class="cls-20" points="2115.97 1033.52 2122.53 1041.83 2112.22 1039.43 2115.97 1033.52"/></g><g id="edge39"><path class="cls-19" d="M1614.24,395.43c22.11,63.8,68.18,227.1,7.89,341.63-30,57-91.94,96.73-142.8,121.33"/><polygon class="cls-20" points="1480.51 861.71 1469.97 862.81 1477.52 855.38 1480.51 861.71"/></g><g id="node33"><polygon class="cls-24" points="1612.79 683.65 1297.43 683.65 1297.43 736.86 1612.79 736.86 1612.79 683.65"/><text class="cls-25" transform="translate(1303.71 721.66)">v<tspan class="cls-3" x="17.16" y="0">ertx-</tspan><tspan x="90.68" y="0">w</tspan><tspan class="cls-3" x="117.74" y="0">eb-common</tspan></text></g><g id="edge40"><path class="cls-19" d="M1592.43,395.25,1470.93,674"/><polygon class="cls-20" points="1473.96 675.79 1466.75 683.56 1467.54 672.99 1473.96 675.79"/></g><g id="node34"><polygon class="cls-24" points="1427.91 773.26 1110.29 773.26 1110.29 826.47 1427.91 826.47 1427.91 773.26"/><text class="cls-25" transform="translate(1113.18 811.26)">v<tspan class="cls-3" x="17.16" y="0">ertx-auth-common</tspan></text></g><g id="edge41"><path class="cls-19" d="M1564.26,395.1c-68.9,48.47-209.28,158.11-276.16,288.35-12.63,24.6-17.22,55.63-18.74,79.47"/><polygon class="cls-20" points="1272.85 763.17 1268.87 772.99 1265.86 762.83 1272.85 763.17"/></g><g id="node35"><polygon class="cls-24" points="1854.09 862.87 1504.17 862.87 1504.17 916.07 1854.09 916.07 1854.09 862.87"/><text class="cls-25" transform="translate(1510.32 900.87)">v<tspan class="cls-3" x="17.16" y="0">ertx-brid</tspan><tspan class="cls-13" x="153.33" y="0">g</tspan><tspan class="cls-3" x="171.7" y="0">e-common</tspan></text></g><g id="edge42"><path class="cls-19" d="M1608.9,395.34c9.54,54.34,31.34,181.11,46.23,288.11,8.21,59.06,15.84,127.91,20.21,169.18"/><polygon class="cls-20" points="1678.84 852.44 1676.4 862.75 1671.88 853.17 1678.84 852.44"/></g><g id="edge90"><path class="cls-19" d="M2715.15,395.25c-6.94,60.78-23.86,209.08-31.76,278.3"/><polygon class="cls-20" points="2686.86 674.02 2682.25 683.56 2679.91 673.23 2686.86 674.02"/></g><g id="edge91"><path class="cls-19" d="M2725.65,395.19c17.29,61.29,62.5,216.27,111.57,341.87,3.43,8.79,7.49,18.1,11.47,26.78"/><polygon class="cls-20" points="2851.89 762.42 2852.93 772.97 2845.54 765.38 2851.89 762.42"/></g><g id="node40"><polygon class="cls-39" points="3219.25 773.26 2937.22 773.26 2937.22 826.47 3219.25 826.47 3219.25 773.26"/><text class="cls-40" transform="translate(2943.44 811.26)">k<tspan class="cls-3" x="18.54" y="0">otlin-stdlib-jdk8</tspan></text></g><g id="edge92"><path class="cls-19" d="M2733.53,395.34c30,51.63,100.2,167,174.69,252.11,39.44,45.07,91.54,90,127.62,119.3"/><polygon class="cls-20" points="3038.15 764.12 3043.74 773.12 3033.76 769.57 3038.15 764.12"/></g><g id="edge93"><path class="cls-19" d="M2734.81,736.9l68.9,33"/><polygon class="cls-20" points="2805.25 766.77 2812.76 774.25 2802.23 773.08 2805.25 766.77"/></g><g id="edge96"><path class="cls-19" d="M2785.61,734.15,2949.67,771"/><polygon class="cls-20" points="2950.48 767.59 2959.47 773.19 2948.94 774.42 2950.48 767.59"/></g><g id="node41"><polygon class="cls-41" points="2646.38 773.26 2464.01 773.26 2464.01 826.47 2646.38 826.47 2646.38 773.26"/><text class="cls-7" transform="translate(2470.22 811.26)">fram<tspan class="cls-42" x="74.35" y="0">e</tspan><tspan class="cls-4" x="91.3" y="0">w</tspan><tspan class="cls-3" x="118.35" y="0">ork</tspan></text></g><g id="edge94"><path class="cls-19" d="M2642.33,736.9l-41.81,30.21"/><polygon class="cls-20" points="2602.3 770.15 2592.14 773.17 2598.2 764.47 2602.3 770.15"/></g><g id="node42"><polygon class="cls-41" points="2570.09 862.87 2258.28 862.87 2258.28 916.07 2570.09 916.07 2570.09 862.87"/><text class="cls-7" transform="translate(2261.76 900.87)">fram<tspan class="cls-42" x="74.35" y="0">e</tspan><tspan class="cls-4" x="91.3" y="0">w</tspan><tspan class="cls-3" x="118.35" y="0">ork-internal</tspan></text></g><g id="edge95"><path class="cls-19" d="M2681.2,737c.43,26.25-3.26,65.73-26,89.67-12.48,13.15-42.65,24.43-77.58,33.64"/><polygon class="cls-20" points="2578.2 863.76 2567.65 862.85 2576.47 856.98 2578.2 863.76"/></g><g id="edge97"><path class="cls-19" d="M2436.78,736.9l-36.07,29.65"/><polygon class="cls-20" points="2402.6 769.52 2392.66 773.17 2398.16 764.11 2402.6 769.52"/></g><g id="edge98"><path class="cls-19" d="M3043.45,395.25,3160.06,674"/><polygon class="cls-20" points="3163.44 672.98 3164.07 683.56 3156.99 675.68 3163.44 672.98"/></g><g id="edge99"><path class="cls-19" d="M3024.87,395.05c-17.46,61.64-64.27,218.39-121.65,342-4.19,9-9.3,18.44-14.37,27.15"/><polygon class="cls-20" points="2891.75 766.18 2883.63 772.98 2885.74 762.59 2891.75 766.18"/></g><g id="edge100"><path class="cls-19" d="M3033.58,395.38c3.29,61.07,12.87,214.55,31.65,341.68,1.25,8.46,2.92,17.49,4.65,26"/><polygon class="cls-20" points="3073.36 762.58 3071.99 773.09 3066.51 764.02 3073.36 762.58"/></g><g id="node39"><polygon class="cls-43" points="3473.26 773.26 3237.26 773.26 3237.26 826.47 3473.26 826.47 3473.26 773.26"/><text class="cls-7" transform="translate(3240.21 811.26)">antlr4-<tspan class="cls-31" x="105.03" y="0">r</tspan><tspan x="118.59" y="0">untime</tspan></text></g><g id="edge101"><path class="cls-19" d="M3228.77,736.9l63.78,31.75"/><polygon class="cls-20" points="3294.24 765.58 3301.63 773.17 3291.12 771.85 3294.24 765.58"/></g><g id="edge103"><path class="cls-19" d="M3146.4,736.9l-31.79,29.36"/><polygon class="cls-20" points="3116.86 768.95 3107.14 773.17 3112.11 763.81 3116.86 768.95"/></g><g id="node43"><polygon class="cls-34" points="3610.76 862.87 3499.78 862.87 3499.78 916.07 3610.76 916.07 3610.76 862.87"/><text class="cls-7" transform="translate(3509.34 900.87)">jsr305</text></g><g id="edge102"><path class="cls-19" d="M3276.18,722.22c76.21,10.61,173.11,28,206.09,50.84,28.28,19.61,47.87,54.09,59.59,80.45"/><polygon class="cls-20" points="3545.12 852.24 3545.82 862.82 3538.68 854.99 3545.12 852.24"/></g><g id="edge106"><path class="cls-19" d="M2919.61,824.26c2.88.9,5.77,1.71,8.61,2.4,227.3,55.2,294.23-1.88,525,36,11.86,1.94,24.34,4.65,36.35,7.61"/><polygon class="cls-20" points="3490.73 866.95 3499.56 872.8 3489.01 873.74 3490.73 866.95"/></g><g id="node44"><polygon class="cls-34" points="2800.4 862.87 2588.01 862.87 2588.01 916.07 2800.4 916.07 2800.4 862.87"/><text class="cls-7" transform="translate(2594.76 900.87)">failu<tspan class="cls-4" x="70.05" y="0">r</tspan><tspan class="cls-35" x="83.35" y="0">e</tspan><tspan x="100.74" y="0">access</tspan></text></g><g id="edge104"><path class="cls-19" d="M2815.08,826.5l-60.69,31.62"/><polygon class="cls-20" points="2755.94 861.26 2745.45 862.77 2752.7 855.05 2755.94 861.26"/></g><g id="node45"><polygon class="cls-34" points="2838.57 952.47 2585.85 952.47 2585.85 1005.68 2838.57 1005.68 2838.57 952.47"/><text class="cls-7" transform="translate(2589.5 990.48)">listenablefutu<tspan class="cls-4" x="214.92" y="0">r</tspan><tspan x="228.22" y="0">e</tspan></text></g><g id="edge105"><path class="cls-19" d="M2857.76,826.77c-9,25.28-25.1,63.08-48.54,89.5-10.27,11.57-23.16,21.87-36.15,30.61"/><polygon class="cls-20" points="2774.84 949.91 2764.55 952.4 2771.04 944.03 2774.84 949.91"/></g><g id="node46"><polygon class="cls-34" points="2967.76 1042.08 2578.66 1042.08 2578.66 1095.29 2967.76 1095.29 2967.76 1042.08"/><text class="cls-7" transform="translate(2578.23 1080.08)">er<tspan class="cls-4" x="30.69" y="0">r</tspan><tspan class="cls-3" x="44" y="0">or_p</tspan><tspan class="cls-4" x="114.83" y="0">r</tspan><tspan x="128.13" y="0">one_annotations</tspan></text></g><g id="edge107"><path class="cls-19" d="M2869.9,826.68c4.34,41.1,7.56,121-22.68,179.2-5.77,11.09-14.41,21-23.77,29.54"/><polygon class="cls-20" points="2825.71 1038.1 2815.83 1041.95 2821.15 1032.78 2825.71 1038.1"/></g><g id="node47"><polygon class="cls-34" points="3145.57 1131.69 2846.88 1131.69 2846.88 1184.89 3145.57 1184.89 3145.57 1131.69"/><text class="cls-7" transform="translate(2850.56 1169.69)">j2objc-annotations</text></g><g id="edge108"><path class="cls-19" d="M2879.68,826.78c26.58,53.53,84.37,171.88,97.55,215.1,7.92,26,12.74,56.31,15.54,79.49"/><polygon class="cls-20" points="2996.26 1121.14 2993.91 1131.47 2989.31 1121.93 2996.26 1121.14"/></g><g id="node48"><polygon class="cls-24" points="3144.44 862.87 2932.02 862.87 2932.02 916.07 3144.44 916.07 3144.44 862.87"/><text class="cls-7" transform="translate(2937.81 900.87)">ch<tspan class="cls-16" x="37.15" y="0">e</tspan><tspan class="cls-3" x="54.61" y="0">c</tspan><tspan class="cls-13" x="70.9" y="0">k</tspan><tspan x="89.44" y="0">er-qual</tspan></text></g><g id="edge109"><path class="cls-19" d="M2917.36,826.5l60.69,31.62"/><polygon class="cls-20" points="2979.74 855.05 2986.99 862.77 2976.5 861.26 2979.74 855.05"/></g><g id="edge21"><path class="cls-19" d="M495.86,1095.33l93.52,32.86"/><polygon class="cls-20" points="590.81 1124.98 599.08 1131.6 588.49 1131.58 590.81 1124.98"/></g><g id="edge22"><path class="cls-19" d="M721.25,1095.57,700.9,1123.2"/><polygon class="cls-20" points="703.59 1125.45 694.84 1131.42 697.96 1121.3 703.59 1125.45"/></g><g id="edge45"><path class="cls-19" d="M1393.28,1005.72l71.13,32"/><polygon class="cls-20" points="1466.15 1034.69 1473.83 1041.99 1463.27 1041.07 1466.15 1034.69"/></g><g id="edge47"><path class="cls-19" d="M1330.46,1006.15c-1.92,25.77-.56,64.23,19.64,89.33,29.1,36.16,61.32,7.59,98,36,61.18,47.38,48.28,84.78,99,143.21a389.19,389.19,0,0,0,28.75,29.28"/><polygon class="cls-20" points="1578.23 1301.4 1583.26 1310.72 1573.51 1306.57 1578.23 1301.4"/></g><g id="edge48"><path class="cls-19" d="M1274.55,1005.83c-70.35,35.71-173.26,103.36-134.46,179.26,61.9,121.1,122.54,126.78,248,179.22,46.87,19.58,172.91,38.32,266,50.14"/><polygon class="cls-20" points="1654.67 1411 1664.15 1415.72 1653.79 1417.94 1654.67 1411"/></g><g id="edge49"><path class="cls-19" d="M1233.87,1005.82c-108.06,35.62-264.79,110-264.79,242.08v89.6c0,168.17,195.76,80.39,360,116.41,133.46,29.27,289.19,45.73,396.19,54.39"/><polygon class="cls-20" points="1725.8 1504.83 1735.49 1509.11 1725.25 1511.81 1725.8 1504.83"/></g><g id="node36"><polygon class="cls-37" points="1878.89 1221.29 1685.39 1221.29 1685.39 1274.5 1878.89 1274.5 1878.89 1221.29"/><text class="cls-7" transform="translate(1689.77 1259.3)">netty-c<tspan class="cls-35" x="108.68" y="0">o</tspan><tspan x="127.87" y="0">d</tspan><tspan class="cls-16" x="148" y="0">e</tspan><tspan x="165.46" y="0">c</tspan></text></g><g id="edge46"><path class="cls-19" d="M1340.33,1005.69c7.58,26.54,23,66.6,50.78,89.79,45.4,37.84,72.4,16,128,36,69.81,25.12,147.18,60.29,199.83,85.39"/><polygon class="cls-20" points="1720.64 1213.81 1728.15 1221.29 1717.62 1220.12 1720.64 1213.81"/></g><g id="node37"><polygon class="cls-37" points="1439.43 1131.69 1148.77 1131.69 1148.77 1184.89 1439.43 1184.89 1439.43 1131.69"/><text class="cls-7" transform="translate(1153.04 1169.69)">netty-c<tspan class="cls-35" x="108.68" y="0">o</tspan><tspan x="127.87" y="0">d</tspan><tspan class="cls-16" x="148" y="0">e</tspan><tspan x="165.46" y="0">c-s</tspan><tspan class="cls-12" x="209.44" y="0">o</tspan><tspan x="228.7" y="0">cks</tspan></text></g><g id="edge50"><path class="cls-19" d="M1328.11,1005.91c-6.85,30.7-18.12,81.17-25.79,115.55"/><polygon class="cls-20" points="1305.66 1122.57 1300.06 1131.57 1298.83 1121.05 1305.66 1122.57"/></g><g id="edge51"><path class="cls-19" d="M1655.92,1095.33l171,37.09"/><polygon class="cls-20" points="1827.78 1129.03 1836.81 1134.57 1826.29 1135.87 1827.78 1129.03"/></g><g id="edge53"><path class="cls-19" d="M1533.45,1095.53c1.38,40.46,7.56,118.78,33.67,179.17a145,145,0,0,0,16.64,28"/><polygon class="cls-20" points="1586.57 1300.57 1589.94 1310.61 1581.04 1304.86 1586.57 1300.57"/></g><g id="edge54"><path class="cls-19" d="M1516.84,1095.38c-32,56.32-94.78,188.73-30.73,268.93,21.23,26.58,100,42.75,168.2,52"/><polygon class="cls-20" points="1654.82 1412.86 1664.28 1417.64 1653.9 1419.8 1654.82 1412.86"/></g><g id="edge55"><path class="cls-19" d="M1400.45,1081.38c-107.29,11.64-243.28,30.08-260.36,50.11-15.46,18.12-9.66,31.82,0,53.6,72.48,163.35,137.18,193,299,268.82,49.54,23.2,183.71,40.79,286.21,51.37"/><polygon class="cls-20" points="1725.85 1501.82 1735.45 1506.31 1725.14 1508.78 1725.85 1501.82"/></g><g id="edge52"><path class="cls-19" d="M1643.75,1095.44c23.14,9,46.28,20.71,65.38,36,26.39,21.19,45.95,54.65,58.15,80.27"/><polygon class="cls-20" points="1770.6 1210.6 1771.59 1221.15 1764.24 1213.52 1770.6 1210.6"/></g><g id="edge57"><path class="cls-19" d="M1939.91,1185.19c-7.63,26.77-23.21,67-51.76,89.51-22.89,18-84.16,32.94-142.87,43.7"/><polygon class="cls-20" points="1745.58 1321.9 1735.12 1320.23 1744.34 1315.01 1745.58 1321.9"/></g><g id="edge58"><path class="cls-19" d="M1945.12,1185.28c-2,24.66-7.5,61.43-23,89.42-27.18,49.16-75.52,92.08-111.79,119.74"/><polygon class="cls-20" points="1812.45 1397.25 1802.35 1400.45 1808.25 1391.65 1812.45 1397.25"/></g><g id="edge59"><path class="cls-19" d="M1948.22,1185.3c1.28,23.72,1.85,59.07-3.07,89.4-13.4,82.64-25.53,102-58,179.21-3.8,9-8.42,18.48-13,27.25"/><polygon class="cls-20" points="1877.26 1482.81 1869.47 1490 1871.08 1479.53 1877.26 1482.81"/></g><g id="edge60"><path class="cls-19" d="M1969,1184.91c9.08,11,19.42,23.94,28.14,36.18,41.2,57.84,83.67,128.87,107.86,170.62"/><polygon class="cls-20" points="2108.06 1390 2110.03 1400.41 2102 1393.49 2108.06 1390"/></g><g id="edge56"><path class="cls-19" d="M1897.38,1184.93l-57.6,31.48"/><polygon class="cls-20" points="1841.45 1219.48 1831 1221.2 1838.1 1213.34 1841.45 1219.48"/></g><g id="edge64"><path class="cls-19" d="M1659.13,1364.15l51.3,31"/><polygon class="cls-20" points="1712.3 1392.24 1719.04 1400.42 1708.67 1398.23 1712.3 1392.24"/></g><g id="edge65"><path class="cls-19" d="M1617.45,1364.27c3.69,26.27,13.2,65.77,37.68,89.64,12.13,11.83,41.95,23.4,74.93,33.32"/><polygon class="cls-20" points="1731.29 1483.94 1739.9 1490.11 1729.32 1490.66 1731.29 1483.94"/></g><g id="edge66"><path class="cls-19" d="M1735,1358.57l266,46.73"/><polygon class="cls-20" points="2002.05 1401.93 2011.29 1407.1 2000.83 1408.82 2002.05 1401.93"/></g><g id="edge67"><path class="cls-19" d="M1790.44,1454l29.2,28.74"/><polygon class="cls-20" points="1822.19 1480.34 1826.86 1489.85 1817.28 1485.33 1822.19 1480.34"/></g><g id="edge68"><path class="cls-19" d="M2044.58,1453.75l-99.81,33"/><polygon class="cls-20" points="1945.48 1490.21 1934.88 1490.02 1943.28 1483.56 1945.48 1490.21"/></g><g id="edge73"><path class="cls-19" d="M1673,1005.72l-71.14,32"/><polygon class="cls-20" points="1602.96 1041.07 1592.41 1041.99 1600.09 1034.69 1602.96 1041.07"/></g><g id="edge74"><path class="cls-19" d="M1764.17,1005.91c37.94,31.76,101.13,84.68,142.17,119.05"/><polygon class="cls-20" points="1908.82 1122.46 1914.24 1131.57 1904.33 1127.83 1908.82 1122.46"/></g><g id="edge76"><path class="cls-19" d="M1720.2,1005.8c-19.3,44.09-57.59,135.17-81.07,215.29-7.7,26.28-13.87,56.59-18,79.69"/><polygon class="cls-20" points="1624.52 1301.6 1619.34 1310.85 1617.62 1300.39 1624.52 1301.6"/></g><g id="edge77"><path class="cls-19" d="M1727,1006c-4.64,23.64-11.78,59-18.82,89.51-18.16,78.85-73.74,109.9-32,179.22,17.64,29.3,48,8.22,68,36,16.41,22.85,20.68,54.7,21.12,79.31"/><polygon class="cls-20" points="1768.75 1390.07 1765.22 1400.06 1761.75 1390.05 1768.75 1390.07"/></g><g id="edge78"><path class="cls-19" d="M1874.36,988.52c145.93,10.74,362.62,29.85,442.82,53.36,111.09,32.56,233,.64,233,116.41V1337.5c0,35.7-1,60.57-134,116.41-75.65,31.75-292,48.82-433.19,56.83"/><polygon class="cls-20" points="1983.15 1514.24 1972.97 1511.31 1982.76 1507.25 1983.15 1514.24"/></g><g id="edge75"><path class="cls-19" d="M1738.4,1005.91c2.52,11.11,5.38,24.14,7.73,36,11.72,59,23.34,127.85,30.09,169.14"/><polygon class="cls-20" points="1779.72 1210.72 1777.87 1221.15 1772.81 1211.85 1779.72 1210.72"/></g><g id="edge79"><path class="cls-19" d="M2097.94,1095.33l-77.89,32.3"/><polygon class="cls-20" points="2021.08 1131 2010.5 1131.6 2018.4 1124.53 2021.08 1131"/></g><g id="edge81"><path class="cls-19" d="M2015.54,1086.06c-85.68,11.59-184.57,27.89-224.4,45.43-59.31,26.11-73.47,39.87-115,89.6-20.14,24.12-36.27,56-46.87,80.27"/><polygon class="cls-20" points="1632.47 1302.76 1625.33 1310.6 1626.02 1300.03 1632.47 1302.76"/></g><g id="edge82"><path class="cls-19" d="M2270.45,1095.41c32.1,10.25,61.25,22.71,70.73,36.08,13.78,19.43,12.91,33.58,0,53.6C2238.77,1344,2009,1398.7,1872,1417.43"/><polygon class="cls-20" points="1872.3 1420.93 1861.92 1418.77 1871.38 1413.99 1872.3 1420.93"/></g><g id="edge83"><path class="cls-19" d="M2308.58,1086c95.92,20.45,203.61,65,203.61,161.93v89.6c0,108.55-337.53,153.54-529.12,170.33"/><polygon class="cls-20" points="1983.19 1511.34 1972.93 1508.71 1982.59 1504.36 1983.19 1511.34"/></g><g id="edge84"><path class="cls-19" d="M2297.86,1095.33c34.91,9.72,65.67,21.89,76.32,36.16,61.91,82.91,63.6,151.19,0,232.82-16.28,20.9-71.12,35.93-125.2,46"/><polygon class="cls-20" points="2249.36 1413.83 2238.9 1412.17 2248.11 1406.94 2249.36 1413.83"/></g><g id="edge80"><path class="cls-19" d="M2015.65,1082.22c-75.86,9.71-158.56,25.37-187.51,49.27-23.82,19.66-35.37,53.37-40.93,79.47"/><polygon class="cls-20" points="1790.62 1211.75 1785.3 1220.9 1783.75 1210.42 1790.62 1211.75"/></g><g id="node38"><polygon class="cls-37" points="2332.35 1131.69 2073.99 1131.69 2073.99 1184.89 2332.35 1184.89 2332.35 1131.69"/><text class="cls-7" transform="translate(2076.66 1169.69)">netty-c<tspan class="cls-35" x="108.68" y="0">o</tspan><tspan x="127.87" y="0">d</tspan><tspan class="cls-16" x="148" y="0">e</tspan><tspan x="165.46" y="0">c-dns</tspan></text></g><g id="edge85"><path class="cls-19" d="M2174.47,1095.57l12.12,26.5"/><polygon class="cls-20" points="2189.9 1120.87 2190.88 1131.42 2183.53 1123.79 2189.9 1120.87"/></g><g id="edge43"><path class="cls-19" d="M1453.82,737.31c-1.81,24.06-6.19,59.89-16.71,89.35a174.08,174.08,0,0,1-13,27.4"/><polygon class="cls-20" points="1427.03 855.98 1418.88 862.76 1421.03 852.38 1427.03 855.98"/></g><g id="edge44"><path class="cls-19" d="M1308.05,826.5l44.58,30.5"/><polygon class="cls-20" points="1354.8 854.24 1361.08 862.77 1350.85 860.02 1354.8 854.24"/></g><g id="edge61"><path class="cls-19" d="M1732.48,1274.54,1673.82,1306"/><polygon class="cls-20" points="1675.35 1309.16 1664.88 1310.81 1672.04 1303 1675.35 1309.16"/></g><g id="edge62"><path class="cls-19" d="M1782.32,1274.83c-.15,23.67-1.16,59-5.18,89.48-1.14,8.59-2.87,17.75-4.74,26.34"/><polygon class="cls-20" points="1775.82 1391.43 1770.18 1400.4 1768.99 1389.87 1775.82 1391.43"/></g><g id="edge63"><path class="cls-19" d="M1803.68,1274.54c21.9,29,54.42,77.56,67.46,125.77,7.11,26.27,2.21,56.74-4.12,79.92"/><polygon class="cls-20" points="1870.33 1481.39 1864.15 1490 1863.61 1479.41 1870.33 1481.39"/></g><g id="edge70"><path class="cls-19" d="M1337.45,1185c39.61,24.15,100,60.3,153.67,89.7,19.45,10.66,40.93,21.76,60.47,31.62"/><polygon class="cls-20" points="1553.34 1303.28 1560.71 1310.9 1550.2 1309.54 1553.34 1303.28"/></g><g id="edge71"><path class="cls-19" d="M1306.71,1185c22.61,44.81,74.48,134.52,146.4,179.28,33.25,20.68,125.65,37.81,201,48.93"/><polygon class="cls-20" points="1654.74 1409.79 1664.13 1414.7 1653.73 1416.72 1654.74 1409.79"/></g><g id="edge72"><path class="cls-19" d="M1298.13,1185.13c4.29,24.23,12.39,60.44,26,89.57,20.68,44.36,25.29,59.67,64,89.61,98.66,76.27,237,115.16,337.33,134.47"/><polygon class="cls-20" points="1726.15 1495.35 1735.33 1500.65 1724.85 1502.23 1726.15 1495.35"/></g><g id="edge69"><path class="cls-19" d="M1439.21,1184.93l236.15,43.36"/><polygon class="cls-20" points="1676.21 1224.89 1685.42 1230.14 1674.95 1231.78 1676.21 1224.89"/></g><g id="edge87"><path class="cls-19" d="M2147.81,1184.93c-55.86,26-145.13,65.1-225.66,89.77-57.3,17.55-122.12,31.62-177.39,42"/><polygon class="cls-20" points="1745.38 1320.11 1734.91 1318.48 1744.11 1313.22 1745.38 1320.11"/></g><g id="edge88"><path class="cls-19" d="M2165.1,1185.05c-58.53,40.69-174.7,119.69-277.95,179.26-18.86,10.87-39.83,21.89-59.08,31.58"/><polygon class="cls-20" points="1829.58 1399.05 1819.07 1400.4 1826.45 1392.79 1829.58 1399.05"/></g><g id="edge89"><path class="cls-19" d="M2219.33,1184.9c32.15,56.74,95.56,190.82,28.84,269-17.34,20.33-156.94,39-265.11,50.57"/><polygon class="cls-20" points="1983.34 1507.97 1973.03 1505.55 1982.61 1501.01 1983.34 1507.97"/></g><g id="edge86"><path class="cls-19" d="M2078,1184.93l-189,40.24"/><polygon class="cls-20" points="1889.61 1228.6 1879.1 1227.26 1888.15 1221.76 1889.61 1228.6"/></g><g id="node49"><polygon class="cls-39" points="3444.26 862.87 3162.24 862.87 3162.24 916.07 3444.26 916.07 3444.26 862.87"/><text class="cls-40" transform="translate(3168.46 900.87)">k<tspan class="cls-3" x="18.54" y="0">otlin-stdlib-jdk7</tspan></text></g><g id="edge110"><path class="cls-19" d="M3145.14,826.5,3226.62,859"/><polygon class="cls-20" points="3228.22 855.82 3236.22 862.77 3225.63 862.33 3228.22 855.82"/></g><g id="node50"><polygon class="cls-39" points="3549.06 952.47 3347.47 952.47 3347.47 1005.68 3549.06 1005.68 3549.06 952.47"/><text class="cls-40" transform="translate(3353.41 990.48)">k<tspan class="cls-3" x="18.54" y="0">otlin-stdlib</tspan></text></g><g id="edge111"><path class="cls-19" d="M3219.56,825.19l8.69,1.47c49.93,8.46,192.16-2.53,225,36,18.43,21.6,15.14,54.51,8.42,79.84"/><polygon class="cls-20" points="3465.03 943.53 3458.86 952.14 3458.31 941.56 3465.03 943.53"/></g><g id="edge112"><path class="cls-19" d="M3346.37,916.11l49.8,30.78"/><polygon class="cls-20" points="3398.4 944.15 3405.06 952.38 3394.72 950.1 3398.4 944.15"/></g><g id="node51"><polygon class="cls-39" points="3355.02 1042.08 3007.64 1042.08 3007.64 1095.29 3355.02 1095.29 3355.02 1042.08"/><text class="cls-40" transform="translate(3011.87 1080.08)">k<tspan class="cls-3" x="18.54" y="0">otlin-stdlib-common</tspan></text></g><g id="edge113"><path class="cls-19" d="M3402.45,1005.75c17,9.75-231.79,6.88-242.81,26.68"/></g><g id="node52"><polygon class="cls-39" points="3569.46 1131.69 3235.06 1131.69 3235.06 1184.89 3569.46 1184.89 3569.46 1131.69"/><text class="cls-7" transform="translate(3234.21 1169.69)">jetbrains-annotations</text></g><g id="edge114"><path class="cls-19" d="M3435.09,1005.75a284.88,284.88,0,0,0-13.83,36.13c-7.61,26.08-12.43,56.4-15.32,79.55"/><polygon class="cls-20" points="3409.4 1122.01 3404.75 1131.53 3402.45 1121.18 3409.4 1122.01"/></g></g><polygon class="cls-20" points="3162.95 1033.58 3156.34 1041.87 3156.34 1031.27 3162.95 1033.58"/></g></g></svg>