<svg xmlns="http://www.w3.org/2000/svg" viewBox="0 0 1912.94 1414.02"><defs><style>.cls-1{fill:#ffcb2b;stroke:#ffcb2b;}.cls-2{fill:#0095ff;stroke:#0095ff;}.cls-16,.cls-28,.cls-3{isolation:isolate;font-size:14px;font-family:LinBiolinum, Linux Biolinum;}.cls-4{letter-spacing:0em;}.cls-5{fill:#c9ff2b;stroke:#c9ff2b;}.cls-6{fill:none;}.cls-6,.cls-7{stroke:#000;}.cls-16,.cls-8{letter-spacing:0em;}.cls-9{letter-spacing:0.01em;}.cls-10{letter-spacing:0.01em;}.cls-11{letter-spacing:0em;}.cls-12,.cls-28{letter-spacing:0em;}.cls-13{letter-spacing:0.01em;}.cls-14{letter-spacing:-0.02em;}.cls-15{letter-spacing:-0.01em;}.cls-17{letter-spacing:0em;}.cls-18{letter-spacing:0em;}.cls-19{letter-spacing:0em;}.cls-20{letter-spacing:-0.01em;}.cls-21{letter-spacing:0em;}.cls-22{letter-spacing:0em;}.cls-23{letter-spacing:0em;}.cls-24{letter-spacing:-0.01em;}.cls-25{letter-spacing:0.01em;}.cls-26{letter-spacing:0em;}.cls-27{letter-spacing:0.01em;}.cls-29{letter-spacing:0em;}</style></defs><g id="Layer_2" data-name="Layer 2"><g id="Layer_2-2" data-name="Layer 2"><polygon class="cls-1" points="1054.25 801.52 929.91 801.52 929.91 837.52 1054.25 837.52 1054.25 801.52"/><g id="graph0"><g id="node1"><polygon class="cls-2" points="970.32 0.5 921.98 0.5 921.98 36.5 970.32 36.5 970.32 0.5"/><text class="cls-3" transform="translate(934.28 22.2) scale(0.9 1)"><tspan class="cls-4">b</tspan><tspan x="7.12" y="0">esu</tspan></text></g><g id="node2"><polygon class="cls-5" points="114.47 261.13 66.13 261.13 66.13 297.13 114.47 297.13 114.47 261.13"/><text class="cls-3" transform="translate(74.39 282.83) scale(0.9 1)">config</text></g><g id="edge1"><path class="cls-6" d="M921.77,20C769.28,23,271.37,229.43,123.33,261.81"/><polygon class="cls-7" points="123.98 265.23 114.56 263.96 122.63 258.39 123.98 265.23"/></g><g id="node3"><polygon class="cls-5" points="178.93 261.13 130.59 261.13 130.59 297.13 178.93 297.13 178.93 261.13"/><text class="cls-3" transform="translate(146.7 282.83) scale(0.9 1)">pki</text></g><g id="edge2"><path class="cls-6" d="M921.88,19.24c-138.37-1.28-506.16,183.9-734,242.35"/><polygon class="cls-7" points="188.45 265.04 179.01 263.97 186.99 258.23 188.45 265.04"/></g><g id="node4"><polygon class="cls-5" points="243.38 261.13 195.04 261.13 195.04 297.13 243.38 297.13 243.38 261.13"/><text class="cls-3" transform="translate(203.85 282.83) scale(0.9 1)">clique</text></g><g id="edge3"><path class="cls-6" d="M921.72,19.5c-135.11.22-468.79,192.43-665.81,241.63-1.14.28-2.28.6-3.43.95"/><polygon class="cls-7" points="253.19 265.51 243.7 265.27 251.25 258.85 253.19 265.51"/></g><g id="node5"><polygon class="cls-5" points="291.33 144.5 231.35 144.5 231.35 180.5 291.33 180.5 291.33 144.5"/><text class="cls-3" transform="translate(238.91 166.2) scale(0.9 1)">common</text></g><g id="edge4"><path class="cls-6" d="M921.71,20c-136,2.82-794.23,18.2-823.29,52.52-9.84,11.63-8.59,23.2,0,36,3.83,5.7,77.17,28,124.13,41.77"/><polygon class="cls-7" points="223.41 146.91 231.26 152.83 221.81 153.68 223.41 146.91"/></g><g id="node6"><polygon class="cls-5" points="425.61 216.5 358.47 216.5 358.47 252.5 425.61 252.5 425.61 216.5"/><text class="cls-3" transform="translate(365.69 238.2) scale(0.9 1)">plugin-api</text></g><g id="edge25"><path class="cls-6" d="M921.79,20.35c-102.1,3.77-492.33,20.16-538.7,52.15-39.48,27.23-57.35,60.21-39.39,108,4.15,11.05,11.48,21,19.21,29.14"/><polygon class="cls-7" points="365.08 207.12 369.72 216.36 360.94 212.36 365.08 207.12"/></g><g id="node7"><polygon class="cls-1" points="540.63 288.5 460.07 288.5 460.07 324.5 540.63 324.5 540.63 288.5"/><text class="cls-3" transform="translate(467.5 310.2) scale(0.9 1)">tu<tspan class="cls-8" x="12.27" y="0">w</tspan><tspan x="22.24" y="0">eni-units</tspan></text></g><g id="edge40"><path class="cls-6" d="M921.81,20C826,22.16,478.12,32.75,445.75,72.5c-9.64,11.84-6,21.46,0,36,9.19,22.34,27.24,14.31,37.59,36,20.32,42.58,21.06,100.34,19.32,133.85"/><polygon class="cls-7" points="505.79 278.59 502.04 288.32 499.54 278.1 505.79 278.59"/></g><g id="node8"><polygon class="cls-1" points="472.6 360.5 390.25 360.5 390.25 396.5 472.6 396.5 472.6 360.5"/><text class="cls-3" transform="translate(397.81 382.2) scale(0.9 1)">tu<tspan class="cls-8" x="12.27" y="0">w</tspan><tspan x="22.24" y="0">eni-</tspan><tspan class="cls-8" x="44.41" y="0">b</tspan><tspan x="51.39" y="0">ytes</tspan></text></g><g id="edge37"><path class="cls-6" d="M921.59,19.74C786.21,21.22,142,31,61.45,73L33.88,100.51C20.65,124.3,13.56,121.72,13.56,229.35,13.56,321.68,263,363,380.9,373.61"/><polygon class="cls-7" points="381.43 370.15 390.11 374.42 380.94 377.12 381.43 370.15"/></g><g id="node9"><polygon class="cls-1" points="531.68 432.5 483.34 432.5 483.34 468.5 531.68 468.5 531.68 432.5"/><text class="cls-3" transform="translate(492.14 454.2) scale(0.9 1)">guava</text></g><g id="edge30"><path class="cls-6" d="M921.89,19.35C781.41,18.66,124,18,42.14,72.5,25.54,88.15,11,114.39,11,114.39s-22.67,56.29-1.38,168.44c0,0,6,19.38,47.3,31.93,204,48.81,219.43,44.65,417.47,117.74l.27.1"/><polygon class="cls-7" points="475.89 429.38 483.17 436.18 473.68 435.93 475.89 429.38"/></g><g id="node23"><polygon class="cls-5" points="154.82 72.5 106.48 72.5 106.48 108.5 154.82 108.5 154.82 72.5"/><text class="cls-3" transform="translate(121.77 94.2) scale(0.9 1)">ibft</text></g><g id="edge5"><path class="cls-6" d="M921.78,19.76C808.17,21.2,329.41,29.6,163.74,73"/><polygon class="cls-7" points="164.36 76.39 154.92 75.39 162.87 69.6 164.36 76.39"/></g><g id="node24"><polygon class="cls-5" points="236.73 72.5 171.38 72.5 171.38 108.5 236.73 108.5 236.73 72.5"/><text class="cls-3" transform="translate(178.79 94.2) scale(0.9 1)">ibftle<tspan class="cls-8" x="29.46" y="0">g</tspan><tspan x="36.37" y="0">acy</tspan></text></g><g id="edge6"><path class="cls-6" d="M921.93,20.29C816.44,23.9,396,40,245.71,72.87"/><polygon class="cls-7" points="246.24 76.32 236.84 74.91 244.98 69.47 246.24 76.32"/></g><g id="node25"><polygon class="cls-5" points="301.63 72.5 253.29 72.5 253.29 108.5 301.63 108.5 301.63 72.5"/><text class="cls-3" transform="translate(266.93 94.2) scale(0.9 1)">qbft</text></g><g id="edge7"><path class="cls-6" d="M922,20.38C821,24.24,433,40.87,314.16,72.5c-1.13.3-2.28.64-3.42,1"/><polygon class="cls-7" points="311.45 76.92 301.98 76.75 309.49 70.28 311.45 76.92"/></g><g id="node26"><polygon class="cls-5" points="1121.6 144.5 1073.26 144.5 1073.26 180.5 1121.6 180.5 1121.6 144.5"/><text class="cls-3" transform="translate(1080.75 166.2) scale(0.9 1)">c<tspan class="cls-9" x="6" y="0">r</tspan><tspan x="11.11" y="0">ypto</tspan></text></g><g id="edge8"><path class="cls-6" d="M970.54,20.89c31.06,3.31,84.11,14.44,112.57,51.61,13,16.91,16,42.38,16.05,61.75"/><polygon class="cls-7" points="1102.29 134.37 1098.96 144.29 1096.02 134.21 1102.29 134.37"/></g><g id="node28"><polygon class="cls-1" points="1377.17 288.5 1317.19 288.5 1317.19 324.5 1377.17 324.5 1377.17 288.5"/><text class="cls-3" transform="translate(1324.73 310.2) scale(0.9 1)">log4j-api</text></g><g id="edge35"><path class="cls-6" d="M970.45,20C1067,22,1420,32.23,1452.81,72.5c9.64,11.83,3.82,20.58,0,36-2.34,9.42-63.15,120.14-91.42,171.33"/><polygon class="cls-7" points="1364.04 281.7 1356.67 288.37 1358.7 278.03 1364.04 281.7"/></g><g id="node30"><polygon class="cls-5" points="80.97 144.5 15.62 144.5 15.62 180.5 80.97 180.5 80.97 144.5"/><text class="cls-3" transform="translate(22.88 166.2) scale(0.9 1)">dataty<tspan class="cls-10" x="37.48" y="0">p</tspan><tspan class="cls-11" x="44.9" y="0">es</tspan></text></g><g id="edge9"><path class="cls-6" d="M921.56,19.25c-134-1.15-773.08-3.6-842.83,53.25-17.52,14.28-25,41.35-28.11,61.91"/><polygon class="cls-7" points="53.7 135.06 49.33 144.46 47.5 134.06 53.7 135.06"/></g><g id="node31"><polygon class="cls-5" points="1445.2 72.5 1392.39 72.5 1392.39 108.5 1445.2 108.5 1445.2 72.5"/><text class="cls-3" transform="translate(1399.64 94.2) scale(0.9 1)">encla<tspan class="cls-12" x="30.14" y="0">v</tspan><tspan class="cls-11" x="36.46" y="0">e</tspan></text></g><g id="edge10"><path class="cls-6" d="M970.33,19.58c65.74.82,252.95,7.11,412.89,53.23"/><polygon class="cls-7" points="1384.16 69.46 1392.02 75.39 1382.57 76.23 1384.16 69.46"/></g><g id="node32"><polygon class="cls-5" points="502.14 72.5 453.8 72.5 453.8 108.5 502.14 108.5 502.14 72.5"/><text class="cls-3" transform="translate(470.06 94.2) scale(0.9 1)">api</text></g><g id="edge11"><path class="cls-6" d="M921.74,19.33c-65.85.19-252.41,5.05-410.75,53.48"/><polygon class="cls-7" points="511.75 76.21 502.28 75.53 510.06 69.47 511.75 76.21"/></g><g id="node33"><polygon class="cls-5" points="602.4 72.5 518.26 72.5 518.26 108.5 602.4 108.5 602.4 72.5"/><text class="cls-3" transform="translate(525.65 94.2) scale(0.9 1)">bl<tspan class="cls-13" x="10.58" y="0">o</tspan><tspan x="17.68" y="0">c</tspan><tspan class="cls-14" x="23.68" y="0">k</tspan><tspan x="30.51" y="0">c</tspan><tspan class="cls-8" x="36.51" y="0">r</tspan><tspan class="cls-4" x="41.41" y="0">e</tspan><tspan x="47.82" y="0">ation</tspan></text></g><g id="edge12"><path class="cls-6" d="M921.9,21.88c-54.21,5.63-189.4,21.37-310.26,50.51"/><polygon class="cls-7" points="612.02 75.88 602.6 74.61 610.67 69.05 612.02 75.88"/></g><g id="node34"><polygon class="cls-5" points="666.85 72.5 618.51 72.5 618.51 108.5 666.85 108.5 666.85 72.5"/><text class="cls-3" transform="translate(631.83 94.2) scale(0.9 1)">co<tspan class="cls-8" x="13" y="0">r</tspan><tspan class="cls-11" x="17.9" y="0">e</tspan></text></g><g id="edge13"><path class="cls-6" d="M921.68,21.81C875,26.74,769.92,40.32,675.82,72.64"/><polygon class="cls-7" points="676.52 76.07 667.04 75.73 674.64 69.39 676.52 76.07"/></g><g id="node35"><polygon class="cls-5" points="731.3 72.5 682.97 72.5 682.97 108.5 731.3 108.5 731.3 72.5"/><text class="cls-3" transform="translate(698.73 94.2) scale(0.9 1)">eth</text></g><g id="edge14"><path class="cls-6" d="M921.79,23.78c-37.63,7-112.09,22.6-181.77,48.85"/><polygon class="cls-7" points="741.03 75.94 731.54 75.88 738.99 69.32 741.03 75.94"/></g><g id="node36"><polygon class="cls-5" points="795.76 72.5 747.42 72.5 747.42 108.5 795.76 108.5 795.76 72.5"/><text class="cls-3" transform="translate(762.25 94.2) scale(0.9 1)">p2p</text></g><g id="edge15"><path class="cls-6" d="M921.9,27.45C895,36.5,850.19,52.26,804.6,72.36"/><polygon class="cls-7" points="805.56 75.7 796.09 76.16 803.23 69.2 805.56 75.7"/></g><g id="node37"><polygon class="cls-5" points="899.6 72.5 811.87 72.5 811.87 108.5 899.6 108.5 899.6 72.5"/><text class="cls-3" transform="translate(819.45 94.2) scale(0.9 1)"><tspan class="cls-13">p</tspan><tspan x="7.42" y="0">ermissioning</tspan></text></g><g id="edge16"><path class="cls-6" d="M924,36.62,885.48,66.47"/><polygon class="cls-7" points="887.08 69.49 877.93 72.31 883.51 63.74 887.08 69.49"/></g><g id="node38"><polygon class="cls-5" points="976.58 72.5 915.71 72.5 915.71 108.5 976.58 108.5 976.58 72.5"/><text class="cls-3" transform="translate(923.13 94.2) scale(0.9 1)"><tspan class="cls-8">r</tspan><tspan x="4.9" y="0">etesteth</tspan></text></g><g id="edge17"><path class="cls-6" d="M946.15,36.8V62.39"/><polygon class="cls-7" points="949.28 62.4 946.14 72.4 943.01 62.4 949.28 62.4"/></g><g id="node39"><polygon class="cls-5" points="1025.82 144.5 977.48 144.5 977.48 180.5 1025.82 180.5 1025.82 144.5"/><text class="cls-3" transform="translate(994.57 166.2) scale(0.9 1)">rlp</text></g><g id="edge18"><path class="cls-6" d="M961.77,36.67c8,9.73,17.19,22.57,22.87,35.83C993,92,997.29,116.18,999.46,134.38"/><polygon class="cls-7" points="1002.58 133.99 1000.51 144.34 996.35 134.82 1002.58 133.99"/></g><g id="node40"><polygon class="cls-5" points="1075.05 72.5 1026.71 72.5 1026.71 108.5 1075.05 108.5 1075.05 72.5"/><text class="cls-3" transform="translate(1042.06 94.2) scale(0.9 1)">trie</text></g><g id="edge19"><path class="cls-6" d="M970.44,35.74l48.09,32.14"/><polygon class="cls-7" points="1020.28 64.97 1026.36 73.11 1017.07 70.98 1020.28 64.97"/></g><g id="node41"><polygon class="cls-5" points="407.25 144.5 351.75 144.5 351.75 180.5 407.25 180.5 407.25 144.5"/><text class="cls-3" transform="translate(359.11 166.2) scale(0.9 1)">stratum</text></g><g id="edge20"><path class="cls-6" d="M922,20.16c-99.62,2.93-474.6,16.31-515.59,52.34-16.7,14.68-23.1,41.46-25.49,61.82"/><polygon class="cls-7" points="383.97 134.7 379.94 144.28 377.74 133.97 383.97 134.7"/></g><g id="node42"><polygon class="cls-5" points="1182.02 72.5 1125.63 72.5 1125.63 108.5 1182.02 108.5 1182.02 72.5"/><text class="cls-3" transform="translate(1133.18 94.2) scale(0.9 1)">ethstats</text></g><g id="edge21"><path class="cls-6" d="M970.58,26.58c32.62,9.6,92.07,27.67,142.07,45.92l4.39,1.64"/><polygon class="cls-7" points="1118.16 70.87 1125.57 77.47 1116.08 77.47 1118.16 70.87"/></g><g id="node43"><polygon class="cls-5" points="1246.92 72.5 1198.58 72.5 1198.58 108.5 1246.92 108.5 1246.92 72.5"/><text class="cls-3" transform="translate(1212.04 94.2) scale(0.9 1)"><tspan class="cls-15">e</tspan><tspan x="6.24" y="0">vm</tspan></text></g><g id="edge22"><path class="cls-6" d="M970.47,22.62c44.37,6.15,141.07,21.78,219.16,49.88l.27.1"/><polygon class="cls-7" points="1191.12 69.37 1198.41 76.13 1188.93 75.93 1191.12 69.37"/></g><g id="node44"><polygon class="cls-5" points="1311.37 72.5 1263.03 72.5 1263.03 108.5 1311.37 108.5 1311.37 72.5"/><text class="cls-3" transform="translate(1276.35 94.2) scale(0.9 1)">co<tspan class="cls-8" x="13" y="0">r</tspan><tspan class="cls-11" x="17.9" y="0">e</tspan></text></g><g id="edge23"><path class="cls-6" d="M970.7,21c51.6,3.76,174.84,15.72,283.38,51.66"/><polygon class="cls-7" points="1255.2 69.41 1262.86 75.66 1253.38 76.11 1255.2 69.41"/></g><g id="node45"><polygon class="cls-5" points="1375.83 72.5 1327.49 72.5 1327.49 108.5 1375.83 108.5 1375.83 72.5"/><text class="cls-3" transform="translate(1343.14 94.2) scale(0.9 1)">nat</text></g><g id="edge24"><path class="cls-6" d="M970.48,20c59,1.87,214.31,10.46,348.07,52.73"/><polygon class="cls-7" points="1319.61 69.45 1327.33 75.59 1317.86 76.17 1319.61 69.45"/></g><g id="node46"><polygon class="cls-5" points="194.21 144.5 138.71 144.5 138.71 180.5 194.21 180.5 194.21 144.5"/><text class="cls-16" transform="translate(146.29 166.2) scale(0.9 1)">r<tspan class="cls-10" x="4.9" y="0">o</tspan><tspan class="cls-11" x="12" y="0">cksdb</tspan></text></g><g id="edge26"><path class="cls-6" d="M921.87,20C785.33,22.69,118,37.75,88.58,72.5c-9.85,11.62-7,22,0,36,9,17.82,25.71,30.36,41.38,38.74"/><polygon class="cls-7" points="131.6 144.23 138.5 151.48 129.05 150.62 131.6 144.23"/></g><g id="node47"><polygon class="cls-5" points="475.29 144.5 423.37 144.5 423.37 180.5 475.29 180.5 475.29 144.5"/><text class="cls-3" transform="translate(430.54 166.2) scale(0.9 1)">kvsto<tspan class="cls-8" x="30.73" y="0">r</tspan><tspan x="35.64" y="0">e</tspan></text></g><g id="edge27"><path class="cls-6" d="M921.74,19.83c-99.5,1.63-471,10.5-505.53,52.67-14.77,18-1.89,44.49,11.88,63.86"/><polygon class="cls-7" points="430.62 134.28 433.99 144.19 425.82 138.78 430.62 134.28"/></g><g id="node48"><polygon class="cls-1" points="1674.81 288.5 1570.97 288.5 1570.97 324.5 1674.81 324.5 1674.81 288.5"/><text class="cls-3" transform="translate(1578.31 310.2) scale(0.9 1)">jackson-databind</text></g><g id="edge28"><path class="cls-6" d="M970.43,20.14c128.07,3.48,720.25,21.23,746.45,52.36,52.45,62.31-27.38,162.89-70,208.78"/><polygon class="cls-7" points="1648.77 284.08 1640.11 288.42 1644.46 279 1648.77 284.08"/></g><g id="node52"><polygon class="cls-1" points="1616.18 216.5 1486.38 216.5 1486.38 252.5 1616.18 252.5 1616.18 216.5"/><text class="cls-3" transform="translate(1493.55 238.2) scale(0.9 1)">jackson-dataty<tspan class="cls-13" x="85.8" y="0">p</tspan><tspan class="cls-17" x="93.22" y="0">e-jdk8</tspan></text></g><g id="edge29"><path class="cls-6" d="M970.57,19.72c102.28,1.21,492.57,8.7,528.79,52.78,29.23,35.58-30,64.75-10.74,108,5.37,12.07,14.51,22.13,24.17,30.12"/><polygon class="cls-7" points="1514.63 207.79 1520.23 216.33 1511.08 213.55 1514.63 207.79"/></g><g id="node53"><polygon class="cls-1" points="1643.93 72.5 1564.26 72.5 1564.26 108.5 1643.93 108.5 1643.93 72.5"/><text class="cls-3" transform="translate(1571.49 94.2) scale(0.9 1)">graphql-java</text></g><g id="edge31"><path class="cls-6" d="M970.58,19.67c82.47,1,357.77,7.67,580.7,52.83,1.31.27,2.66.56,4,.86"/><polygon class="cls-7" points="1556.17 70 1564.21 75.64 1554.79 76.83 1556.17 70"/></g><g id="node56"><polygon class="cls-1" points="1708.83 72.5 1660.49 72.5 1660.49 108.5 1708.83 108.5 1708.83 72.5"/><text class="cls-3" transform="translate(1668 94.2) scale(0.9 1)">pic<tspan class="cls-13" x="16.96" y="0">o</tspan><tspan class="cls-17" x="24.06" y="0">cli</tspan></text></g><g id="edge32"><path class="cls-6" d="M970.57,20c108.58,2.48,547.88,14.7,681,52.49l.27.08"/><polygon class="cls-7" points="1652.89 69.29 1660.42 75.72 1650.94 75.94 1652.89 69.29"/></g><g id="node57"><polygon class="cls-1" points="1290.31 873.52 1224.07 873.52 1224.07 909.52 1290.31 909.52 1290.31 873.52"/><text class="cls-3" transform="translate(1231.39 895.23) scale(0.9 1)"><tspan class="cls-12">v</tspan><tspan class="cls-11" x="6.32" y="0">ertx-co</tspan><tspan class="cls-8" x="46.41" y="0">r</tspan><tspan x="51.31" y="0">e</tspan></text></g><g id="edge33"><path class="cls-6" d="M970.55,19.5c143.39.15-22.48,660.39,198,710,40.35,9.08,150.15,34.25,173.66,72,8.18,13.14,7.25,22.2,0,36-9.48,18-26.66,30.38-43.11,38.58"/><polygon class="cls-7" points="1300.1 879.45 1290.63 880.03 1297.71 872.98 1300.1 879.45"/></g><g id="node70"><polygon class="cls-1" points="1160.07 729.52 1094.72 729.52 1094.72 765.52 1160.07 765.52 1160.07 729.52"/><text class="cls-3" transform="translate(1101.98 751.23) scale(0.9 1)"><tspan class="cls-12">v</tspan><tspan class="cls-11" x="6.32" y="0">ertx-</tspan><tspan class="cls-18" x="33.41" y="0">w</tspan><tspan x="43.37" y="0">eb</tspan></text></g><g id="edge34"><path class="cls-6" d="M970.32,20.81c102.3,5.58,820.1,6.64,815,52.61,16.62,39.73-811.64,643.4-699.77,669.53"/><polygon class="cls-7" points="1085.87 739.48 1094.56 743.72 1085.39 746.46 1085.87 739.48"/></g><g id="node74"><polygon class="cls-1" points="1470.27 216.5 1404.92 216.5 1404.92 252.5 1470.27 252.5 1470.27 216.5"/><text class="cls-3" transform="translate(1412.21 238.2) scale(0.9 1)">log4j-co<tspan class="cls-8" x="45.48" y="0">r</tspan><tspan class="cls-11" x="50.38" y="0">e</tspan></text></g><g id="edge36"><path class="cls-6" d="M970.53,19.8c100.34,1.49,477.67,9.94,512.72,52.7,9.66,11.8,4.52,20.82,0,36-5.66,19-16.33,18-24.17,36-8.61,19.72-14.16,43.85-17.46,62"/><polygon class="cls-7" points="1444.68 207.25 1439.94 216.42 1438.53 205.94 1444.68 207.25"/></g><g id="node75"><polygon class="cls-1" points="1776.86 288.5 1690.92 288.5 1690.92 324.5 1776.86 324.5 1776.86 288.5"/><text class="cls-3" transform="translate(1698.1 310.2) scale(0.9 1)">tu<tspan class="cls-12" x="12.27" y="0">w</tspan><tspan x="22.24" y="0">eni-config</tspan></text></g><g id="edge38"><path class="cls-6" d="M970.61,20.11c130.41,3.35,738.85,20.67,766,52.39,47.75,55.86,22.78,158,7,206.31"/><polygon class="cls-7" points="1746.48 280.15 1740.38 288.27 1740.61 277.68 1746.48 280.15"/></g><g id="node76"><polygon class="cls-1" points="1840.86 360.5 1762.98 360.5 1762.98 396.5 1840.86 396.5 1840.86 360.5"/><text class="cls-3" transform="translate(1770.15 382.2) scale(0.9 1)">tu<tspan class="cls-12" x="12.27" y="0">w</tspan><tspan x="22.24" y="0">eni-toml</tspan></text></g><g id="edge39"><path class="cls-6" d="M970.72,19.54c128.43.42,719.28,5,787.34,53,34.19,24.1,43.86,43.85,43.86,89V350.42"/><polygon class="cls-7" points="1805.06 350.45 1801.92 360.45 1798.79 350.45 1805.06 350.45"/></g><g id="node78"><polygon class="cls-1" points="1436.67 729.52 1306.87 729.52 1306.87 765.52 1436.67 765.52 1436.67 729.52"/><text class="cls-3" transform="translate(1314.25 751.23) scale(0.9 1)">spring-s<tspan class="cls-13" x="46.19" y="0">e</tspan><tspan x="52.62" y="0">curity-c</tspan><tspan class="cls-9" x="97.24" y="0">r</tspan><tspan x="102.35" y="0">ypto</tspan></text></g><g id="edge41"><path class="cls-6" d="M970.4,20c151.91,2.94,73.68,677.19,323.49,709.56l3.49.47"/><polygon class="cls-7" points="1298.02 726.57 1306.45 731.41 1297.15 733.5 1298.02 726.57"/></g><g id="node79"><polygon class="cls-1" points="1530.22 729.52 1453.23 729.52 1453.23 765.52 1530.22 765.52 1530.22 729.52"/><text class="cls-3" transform="translate(1460.5 751.23) scale(0.9 1)">snap<tspan class="cls-15" x="27.14" y="0">p</tspan><tspan class="cls-11" x="34.36" y="0">y-java</tspan></text></g><g id="edge42"><path class="cls-6" d="M970.46,19.38c161-.67,397,583.16,473.58,710.28"/><polygon class="cls-7" points="1444.78 726.25 1453.07 731.4 1443.72 733.15 1444.78 726.25"/></g><g id="node80"><polygon class="cls-1" points="1698.51 729.52 1546.33 729.52 1546.33 765.52 1698.51 765.52 1698.51 729.52"/><text class="cls-3" transform="translate(1553.9 751.23) scale(0.9 1)">quo<tspan class="cls-19" x="21.82" y="0">r</tspan><tspan x="26.82" y="0">um-mainnet-launcher</tspan></text></g><g id="edge43"><path class="cls-6" d="M970.36,19.81c166.74,2.25,434.56,614.44,566.74,709.69"/><polygon class="cls-7" points="1537.55 726.03 1546.12 730.54 1536.9 733 1537.55 726.03"/></g><g id="edge44"><path class="cls-6" d="M291.65,179.74l60.54,32.42"/><polygon class="cls-7" points="353.58 209.02 360.3 216.5 350.87 215.33 353.58 209.02"/></g><g id="edge45"><path class="cls-6" d="M418.53,252.62,466,283.29"/><polygon class="cls-7" points="467.57 280.27 473.76 288.31 464.44 286.33 467.57 280.27"/></g><g id="edge46"><path class="cls-6" d="M396.79,252.63l27.14,97.86"/><polygon class="cls-7" points="427 349.72 426.65 360.31 421.01 351.79 427 349.72"/></g><g id="edge47"><path class="cls-6" d="M483.32,324.8l-28.24,28.67"/><polygon class="cls-7" points="457 356.26 448.26 360.4 452.78 351.08 457 356.26"/></g><g id="edge48"><path class="cls-6" d="M501.21,324.63c1.23,24.2,3.47,68.66,4.93,97.48"/><polygon class="cls-7" points="509.27 422.13 506.65 432.31 503.01 422.52 509.27 422.13"/></g><g id="node18"><polygon class="cls-1" points="1208.43 432.5 1104.59 432.5 1104.59 468.5 1208.43 468.5 1208.43 432.5"/><text class="cls-3" transform="translate(1112.06 454.2) scale(0.9 1)"><tspan class="cls-14">k</tspan><tspan x="6.83" y="0">otlin-stdlib-jdk8</tspan></text></g><g id="edge49"><path class="cls-6" d="M540.65,316.22l555,120.1"/><polygon class="cls-7" points="1096.26 432.9 1104.45 438.23 1095.07 439.77 1096.26 432.9"/></g><g id="edge50"><path class="cls-6" d="M450.23,396.8,482,426"/><polygon class="cls-7" points="484.01 423.34 488.92 432.4 480.02 428.74 484.01 423.34"/></g><g id="node16"><polygon class="cls-1" points="466.78 432.5 396.07 432.5 396.07 468.5 466.78 468.5 466.78 432.5"/><text class="cls-3" transform="translate(403.4 454.2) scale(0.9 1)">fram<tspan class="cls-15" x="27.39" y="0">e</tspan><tspan class="cls-8" x="33.63" y="0">w</tspan><tspan x="43.6" y="0">ork</tspan></text></g><g id="edge51"><path class="cls-6" d="M431.42,396.8v25.59"/><polygon class="cls-7" points="434.56 422.4 431.43 432.4 428.29 422.4 434.56 422.4"/></g><g id="node17"><polygon class="cls-1" points="379.95 432.5 264.48 432.5 264.48 468.5 379.95 468.5 379.95 432.5"/><text class="cls-3" transform="translate(271.95 454.2) scale(0.9 1)">fram<tspan class="cls-15" x="27.39" y="0">e</tspan><tspan class="cls-8" x="33.63" y="0">w</tspan><tspan x="43.6" y="0">ork-internal</tspan></text></g><g id="edge52"><path class="cls-6" d="M404.71,396.62l-47.84,30.67"/><polygon class="cls-7" points="358.35 430.37 349.03 432.31 355.24 424.3 358.35 430.37"/></g><g id="edge53"><path class="cls-6" d="M472.75,383.49l622.44,60.09"/><polygon class="cls-7" points="1095.71 440.12 1104.36 444.47 1095.17 447.09 1095.71 440.12"/></g><g id="node10"><polygon class="cls-1" points="802.92 504.5 722.35 504.5 722.35 540.5 802.92 540.5 802.92 504.5"/><text class="cls-3" transform="translate(729.84 526.2) scale(0.9 1)">failu<tspan class="cls-8" x="25.81" y="0">r</tspan><tspan class="cls-4" x="30.71" y="0">e</tspan><tspan x="37.11" y="0">access</tspan></text></g><g id="edge54"><path class="cls-6" d="M531.86,457c37.23,8.58,110.69,26.12,181.43,47.29"/><polygon class="cls-7" points="714.53 501.05 722.35 507.04 712.89 507.81 714.53 501.05"/></g><g id="node11"><polygon class="cls-1" points="322.66 504.5 226.88 504.5 226.88 540.5 322.66 540.5 322.66 504.5"/><text class="cls-3" transform="translate(234.3 526.2) scale(0.9 1)">listenablefutu<tspan class="cls-8" x="79.17" y="0">r</tspan><tspan class="cls-11" x="84.08" y="0">e</tspan></text></g><g id="edge55"><path class="cls-6" d="M483.15,464.78c-2.92,1.36-5.88,2.63-8.76,3.72-59.15,22.34-78.25,18.87-142.7,35.95"/><polygon class="cls-7" points="332.17 507.92 322.73 506.88 330.69 501.12 332.17 507.92"/></g><g id="node12"><polygon class="cls-1" points="1485.04 504.5 1436.7 504.5 1436.7 540.5 1485.04 540.5 1485.04 504.5"/><text class="cls-3" transform="translate(1445.72 526.2) scale(0.9 1)">jsr305</text></g><g id="edge56"><path class="cls-6" d="M531.72,453.11c93.34,6.25,438.84,29.56,723.26,51.39,60.87,4.67,131.83,10.65,172.54,14.13"/><polygon class="cls-7" points="1427.78 515.14 1436.46 519.39 1427.31 522.12 1427.78 515.14"/></g><g id="node13"><polygon class="cls-1" points="419.79 504.5 339.22 504.5 339.22 540.5 419.79 540.5 419.79 504.5"/><text class="cls-3" transform="translate(346.39 526.2) scale(0.9 1)">ch<tspan class="cls-13" x="13.69" y="0">e</tspan><tspan x="20.12" y="0">c</tspan><tspan class="cls-14" x="26.12" y="0">k</tspan><tspan x="32.95" y="0">er-qual</tspan></text></g><g id="edge57"><path class="cls-6" d="M483.14,464.83l-64.43,35.23"/><polygon class="cls-7" points="420.01 503.24 410.59 504.5 417.26 496.96 420.01 503.24"/></g><g id="node14"><polygon class="cls-1" points="579.13 504.5 435.9 504.5 435.9 540.5 579.13 540.5 579.13 504.5"/><text class="cls-3" transform="translate(443.21 526.2) scale(0.9 1)">er<tspan class="cls-8" x="11.31" y="0">r</tspan><tspan x="16.21" y="0">or_p</tspan><tspan class="cls-8" x="42.3" y="0">r</tspan><tspan x="47.2" y="0">one_annotations</tspan></text></g><g id="edge58"><path class="cls-6" d="M507.51,468.8v25.59"/><polygon class="cls-7" points="510.65 494.4 507.51 504.4 504.38 494.4 510.65 494.4"/></g><g id="node15"><polygon class="cls-1" points="706.24 504.5 595.24 504.5 595.24 540.5 706.24 540.5 706.24 504.5"/><text class="cls-3" transform="translate(602.7 526.2) scale(0.9 1)">j2objc-annotations</text></g><g id="edge59"><path class="cls-6" d="M531.81,463.37l75.51,36.91"/><polygon class="cls-7" points="608.89 497.23 615.84 504.44 606.38 503.64 608.89 497.23"/></g><g id="node19"><polygon class="cls-1" points="1246.92 504.5 1143.08 504.5 1143.08 540.5 1246.92 540.5 1246.92 504.5"/><text class="cls-3" transform="translate(1150.55 526.2) scale(0.9 1)"><tspan class="cls-14">k</tspan><tspan x="6.83" y="0">otlin-stdlib-jdk7</tspan></text></g><g id="edge60"><path class="cls-6" d="M1166,468.8l14.84,27"/><polygon class="cls-7" points="1183.58 494.04 1185.59 504.4 1178.24 497.71 1183.58 494.04"/></g><g id="node20"><polygon class="cls-1" points="1195 576.5 1118.02 576.5 1118.02 612.5 1195 612.5 1195 576.5"/><text class="cls-3" transform="translate(1125.23 598.2) scale(0.9 1)"><tspan class="cls-14">k</tspan><tspan x="6.83" y="0">otlin-stdlib</tspan></text></g><g id="edge61"><path class="cls-6" d="M1147.6,468.52c-4.76,10.09-10.13,23.34-12.57,36-3,15.64-3,20.36,0,36a141.28,141.28,0,0,0,8.49,26.8"/><polygon class="cls-7" points="1146.42 565.97 1147.6 576.48 1140.81 569.08 1146.42 565.97"/></g><g id="edge62"><path class="cls-6" d="M1185.49,540.8l-14.85,27"/><polygon class="cls-7" points="1173.27 569.71 1165.92 576.4 1167.93 566.04 1173.27 569.71"/></g><g id="node21"><polygon class="cls-1" points="1148.9 648.5 1022.68 648.5 1022.68 684.5 1148.9 684.5 1148.9 648.5"/><text class="cls-3" transform="translate(1029.99 670.2) scale(0.9 1)"><tspan class="cls-14">k</tspan><tspan x="6.83" y="0">otlin-stdlib-common</tspan></text></g><g id="edge63"><path class="cls-6" d="M1139,612.8l-29.25,29"/><polygon class="cls-7" points="1111.85 644.38 1103.07 648.4 1107.7 639.14 1111.85 644.38"/></g><g id="node22"><polygon class="cls-1" points="1290.78 648.5 1165.46 648.5 1165.46 684.5 1290.78 684.5 1290.78 648.5"/><text class="cls-3" transform="translate(1172.7 670.2) scale(0.9 1)">jetbrains-annotations</text></g><g id="edge64"><path class="cls-6" d="M1174.22,612.8l29.61,29"/><polygon class="cls-7" points="1205.95 639.18 1210.62 648.4 1201.82 644.44 1205.95 639.18"/></g><g id="edge65"><path class="cls-6" d="M1073.16,171.08a390.42,390.42,0,0,1-39.29,9.42c-223.75,38.9-495.51,49.43-599,52.12"/><polygon class="cls-7" points="434.68 236.13 425.66 232.85 434.54 229.13 434.68 236.13"/></g><g id="node27"><polygon class="cls-5" points="1031.19 216.5 982.85 216.5 982.85 252.5 1031.19 252.5 1031.19 216.5"/><text class="cls-3" transform="translate(998.32 238.2) scale(0.9 1)">util</text></g><g id="edge66"><path class="cls-6" d="M1075.31,180.62l-38.55,29.85"/><polygon class="cls-7" points="1038.37 213.49 1029.22 216.31 1034.79 207.74 1038.37 213.49"/></g><g id="node29"><polygon class="cls-1" points="1144.87 216.5 1049.98 216.5 1049.98 252.5 1144.87 252.5 1144.87 216.5"/><text class="cls-3" transform="translate(1057.54 238.2) scale(0.9 1)"><tspan class="cls-4">b</tspan><tspan x="7.12" y="0">cp</tspan><tspan class="cls-8" x="20.45" y="0">r</tspan><tspan class="cls-20" x="25.35" y="0">o</tspan><tspan x="32.25" y="0">v-jdk15on</tspan></text></g><g id="edge67"><path class="cls-6" d="M1097.43,180.8v25.59"/><polygon class="cls-7" points="1100.56 206.4 1097.43 216.4 1094.3 206.4 1100.56 206.4"/></g><g id="edge68"><path class="cls-6" d="M1031.52,248.47a109.73,109.73,0,0,0,10.41,4c93.37,30.29,207.6,44.26,266.3,49.83"/><polygon class="cls-7" points="1308.5 298.85 1317.16 303.16 1307.98 305.82 1308.5 298.85"/></g><g id="edge69"><path class="cls-6" d="M81.15,170.31c15.08,3.12,33.2,6.85,49.5,10.19,77,15.76,166.88,33.93,218.64,44.38"/><polygon class="cls-7" points="349.95 221.46 358.19 226.68 348.83 228.34 349.95 221.46"/></g><g id="edge70"><path class="cls-6" d="M1392.36,105.27c-2.83,1.2-5.69,2.31-8.48,3.23-47,15.53-187.85,38-252.87,48"/><polygon class="cls-7" points="1131.28 159.96 1121.98 157.84 1130.42 153.03 1131.28 159.96"/></g><g id="edge71"><path class="cls-6" d="M1392.26,104.92c-2.81,1.27-5.64,2.49-8.38,3.58-148.72,59.39-193.23,48.61-342,108l-2.31.94"/><polygon class="cls-7" points="1040.74 220.71 1031.27 221.13 1038.44 214.2 1040.74 220.71"/></g><g id="edge72"><path class="cls-6" d="M977.37,166.29,434.89,228.58"/><polygon class="cls-7" points="434.93 232.09 425.7 229.63 434.29 225.13 434.93 232.09"/></g><g id="edge73"><path class="cls-6" d="M1003,180.8c.59,7.72,1.31,17,2,25.59"/><polygon class="cls-7" points="1008.06 206.13 1005.7 216.4 1001.82 206.73 1008.06 206.13"/></g><g id="edge74"><path class="cls-6" d="M382.6,180.8c1.38,7.72,3,17,4.59,25.59"/><polygon class="cls-7" points="390.29 205.9 388.98 216.4 384.15 207.28 390.29 205.9"/></g><g id="edge75"><path class="cls-6" d="M407.36,177.85c2.65,1,5.33,1.93,7.95,2.65,107.22,29.43,449.52,46.73,558.23,51.58"/><polygon class="cls-7" points="973.91 228.59 982.73 232.49 973.66 235.59 973.91 228.59"/></g><g id="edge76"><path class="cls-6" d="M194.34,172.15,349.6,220.33"/><polygon class="cls-7" points="350.56 217 358.34 223.04 348.88 223.74 350.56 217"/></g><g id="edge77"><path class="cls-6" d="M435.17,180.8l-23,28.12"/><polygon class="cls-7" points="414.39 211.38 406.04 216.4 409.76 206.65 414.39 211.38"/></g><g id="edge78"><path class="cls-6" d="M475.48,166.78l498.15,62.53"/><polygon class="cls-7" points="974.28 225.87 982.83 230.46 973.58 232.83 974.28 225.87"/></g><g id="node49"><polygon class="cls-1" points="1712.41 360.5 1592.45 360.5 1592.45 396.5 1712.41 396.5 1712.41 360.5"/><text class="cls-3" transform="translate(1600.02 382.2) scale(0.9 1)">jackson-annotations</text></g><g id="edge79"><path class="cls-6" d="M1630.2,324.8c3.35,8,7.42,17.6,11.15,26.44"/><polygon class="cls-7" points="1644.23 349.86 1645.22 360.4 1638.57 352.84 1644.23 349.86"/></g><g id="node50"><polygon class="cls-1" points="1512.79 432.5 1432.22 432.5 1432.22 468.5 1512.79 468.5 1512.79 432.5"/><text class="cls-3" transform="translate(1439.5 454.2) scale(0.9 1)">jackson-<tspan class="cls-4" x="48.32" y="0">b</tspan><tspan class="cls-21" x="55.45" y="0">om</tspan></text></g><g id="edge81"><path class="cls-6" d="M1675,322.09c17.52,8,35.2,20.13,45.44,38.41,7.6,13.56,9.13,23.67,0,36-12.55,17-130,36.27-198.61,46.24"/><polygon class="cls-7" points="1522.19 446.22 1512.92 444.02 1521.4 439.27 1522.19 446.22"/></g><g id="node51"><polygon class="cls-1" points="1507.86 360.5 1428.19 360.5 1428.19 396.5 1507.86 396.5 1507.86 360.5"/><text class="cls-3" transform="translate(1435.55 382.2) scale(0.9 1)">jackson-co<tspan class="cls-8" x="61.32" y="0">r</tspan><tspan class="cls-11" x="66.23" y="0">e</tspan></text></g><g id="edge80"><path class="cls-6" d="M1585,324.62l-70.79,32"/><polygon class="cls-7" points="1515.27 359.93 1505.79 360.43 1512.91 353.44 1515.27 359.93"/></g><g id="edge82"><path class="cls-6" d="M1608.65,396.53l-87,33.84"/><polygon class="cls-7" points="1522.57 433.73 1513.09 433.71 1520.51 427.12 1522.57 433.73"/></g><g id="edge83"><path class="cls-6" d="M1469.14,396.8c.49,7.72,1.08,17,1.63,25.59"/><polygon class="cls-7" points="1473.9 422.17 1471.41 432.4 1467.64 422.67 1473.9 422.17"/></g><g id="edge86"><path class="cls-6" d="M1569,252.8c8.93,8.73,19.9,19.46,29.62,28.95"/><polygon class="cls-7" points="1600.72 279.18 1605.39 288.4 1596.59 284.44 1600.72 279.18"/></g><g id="edge85"><path class="cls-6" d="M1520.45,252.64c-32.28,20.16-81,57.38-100.76,107.86-5.75,14.66-5.84,21.39,0,36,4.55,11.4,12.49,21.37,20.86,29.49"/><polygon class="cls-7" points="1442.63 423.36 1447.62 432.37 1438.68 428.81 1442.63 423.36"/></g><g id="edge84"><path class="cls-6" d="M1537.37,252.51a394.5,394.5,0,0,0-25.48,36c-12.23,20.05-24,44.24-32.23,62.34"/><polygon class="cls-7" points="1482.27 352.84 1475.45 360.2 1476.67 349.7 1482.27 352.84"/></g><g id="node54"><polygon class="cls-1" points="1708.38 144.5 1612.6 144.5 1612.6 180.5 1708.38 180.5 1708.38 144.5"/><text class="cls-3" transform="translate(1620.2 166.2) scale(0.9 1)">java-datal<tspan class="cls-4" x="57.49" y="0">o</tspan><tspan x="64.56" y="0">ader</tspan></text></g><g id="edge87"><path class="cls-6" d="M1618,108.8c6.83,8.48,15.17,18.84,22.66,28.12"/><polygon class="cls-7" points="1643.05 134.62 1646.71 144.4 1638.39 139.3 1643.05 134.62"/></g><g id="node55"><polygon class="cls-1" points="1596.48 144.5 1497.12 144.5 1497.12 180.5 1596.48 180.5 1596.48 144.5"/><text class="cls-3" transform="translate(1504.31 166.2) scale(0.9 1)"><tspan class="cls-18">r</tspan><tspan class="cls-22" x="4.9" y="0">e</tspan><tspan x="11.31" y="0">acti</tspan><tspan class="cls-12" x="32.44" y="0">v</tspan><tspan x="38.76" y="0">e-st</tspan><tspan class="cls-12" x="60.05" y="0">r</tspan><tspan class="cls-22" x="64.95" y="0">e</tspan><tspan class="cls-23" x="71.36" y="0">ams</tspan></text></g><g id="edge88"><path class="cls-6" d="M1589.93,108.8l-23,28.12"/><polygon class="cls-7" points="1569.15 139.38 1560.8 144.4 1564.53 134.65 1569.15 139.38"/></g><g id="edge90"><path class="cls-6" d="M1223.88,894.33c-277.73-56.81,945-722.18,460.08-605.9"/><polygon class="cls-7" points="1684.49 291.88 1675.12 290.15 1683.41 284.98 1684.49 291.88"/></g><g id="edge89"><path class="cls-6" d="M1223.88,892.54c-167.84,33.22,519.55-527.8,313-564.13-19.07-3.61-22.51-1.92-50.07,24.4"/><polygon class="cls-7" points="1488.95 355.4 1480.62 360.47 1484.3 350.71 1488.95 355.4"/></g><g id="node58"><polygon class="cls-1" points="1616.15 945.52 1497.99 945.52 1497.99 981.52 1616.15 981.52 1616.15 945.52"/><text class="cls-3" transform="translate(1504.84 967.23) scale(0.9 1)">netty-handler-p<tspan class="cls-12" x="90.22" y="0">r</tspan><tspan class="cls-24" x="95.12" y="0">o</tspan><tspan class="cls-25" x="102.03" y="0">x</tspan><tspan class="cls-17" x="108.53" y="0">y</tspan></text></g><g id="edge91"><path class="cls-6" d="M1290.43,900.28,1489,946.62"/><polygon class="cls-7" points="1489.77 943.24 1497.89 948.72 1488.49 950.1 1489.77 943.24"/></g><g id="node59"><polygon class="cls-1" points="1338.65 1017.52 1238.39 1017.52 1238.39 1053.53 1338.65 1053.53 1338.65 1017.52"/><text class="cls-3" transform="translate(1245 1039.23) scale(0.9 1)">netty-c<tspan class="cls-26" x="40.04" y="0">o</tspan><tspan x="47.11" y="0">d</tspan><tspan class="cls-13" x="54.52" y="0">e</tspan><tspan x="60.96" y="0">c-http</tspan></text></g><g id="edge93"><path class="cls-6" d="M1287.05,909.66c12,8.77,24.42,20.8,31,35.86,9.07,20.74-.62,45.43-11.28,63.54"/><polygon class="cls-7" points="1309.27 1011.21 1301.57 1017.38 1304.14 1007.18 1309.27 1011.21"/></g><g id="node60"><polygon class="cls-1" points="1255.85 1089.53 1170.81 1089.53 1170.81 1125.53 1255.85 1125.53 1255.85 1089.53"/><text class="cls-3" transform="translate(1177.82 1111.23) scale(0.9 1)">netty-handler</text></g><g id="edge95"><path class="cls-6" d="M1227.33,909.66c-11.95,8.77-24.42,20.8-31,35.86-19,43.55-4.77,101.35,6.61,134.53"/><polygon class="cls-7" points="1205.91 1078.93 1206.33 1089.53 1200.09 1081.55 1205.91 1078.93"/></g><g id="node62"><polygon class="cls-1" points="1433.54 1233.53 1340.44 1233.53 1340.44 1269.53 1433.54 1269.53 1433.54 1233.53"/><text class="cls-3" transform="translate(1347.24 1255.23) scale(0.9 1)">netty-trans<tspan class="cls-13" x="63.58" y="0">p</tspan><tspan x="71" y="0">ort</tspan></text></g><g id="edge96"><path class="cls-6" d="M1223.77,900.86c-52,15.45-146.51,54.4-146.51,133.66v74c0,67.12,54.63,60.94,109.21,89,46.38,23.84,103.36,37.57,144.72,45.06"/><polygon class="cls-7" points="1331.93 1239.16 1340.29 1244.17 1330.96 1246.09 1331.93 1239.16"/></g><g id="node63"><polygon class="cls-1" points="1665.84 1305.53 1589.75 1305.53 1589.75 1341.53 1665.84 1341.53 1665.84 1305.53"/><text class="cls-3" transform="translate(1596.55 1327.23) scale(0.9 1)">netty-buffer</text></g><g id="edge97"><path class="cls-6" d="M1290.44,895.07c64.83,5.47,212.4,20.35,333.77,50.45,92.12,22.85,121.2,18.1,202.31,72,35.54,23.63,50.91,29.49,67.13,72,32.59,85.41-20.79,138-94.88,180-39.42,22.37-88.37,36.31-123.79,44.25"/><polygon class="cls-7" points="1675.45 1317.23 1666.06 1315.71 1674.25 1310.37 1675.45 1317.23"/></g><g id="node64"><polygon class="cls-1" points="1485.91 1377.53 1395.49 1377.53 1395.49 1413.53 1485.91 1413.53 1485.91 1377.53"/><text class="cls-3" transform="translate(1402.54 1399.23) scale(0.9 1)">netty-common</text></g><g id="edge99"><path class="cls-6" d="M1224,892.66c-74.54,2.47-248.81,21.14-248.81,141.86v218c0,54.39,31.74,64.48,75.2,89,57.57,32.47,242.78,45.88,335.86,50.68"/><polygon class="cls-7" points="1386.44 1388.71 1395.24 1392.65 1386.16 1395.7 1386.44 1388.71"/></g><g id="node65"><polygon class="cls-1" points="1357.9 1305.53 1272.86 1305.53 1272.86 1341.53 1357.9 1341.53 1357.9 1305.53"/><text class="cls-3" transform="translate(1279.54 1327.23) scale(0.9 1)">netty-<tspan class="cls-8" x="34.04" y="0">r</tspan><tspan class="cls-11" x="38.94" y="0">esol</tspan><tspan class="cls-12" x="61.35" y="0">v</tspan><tspan class="cls-11" x="67.67" y="0">er</tspan></text></g><g id="edge98"><path class="cls-6" d="M1223.83,895.21c-35.92,4.58-93.14,16.95-132.24,50.31-32.92,28.08-48.34,42.73-48.34,89v74c0,119.17,141.55,177.76,220.48,201.16"/><polygon class="cls-7" points="1264.67 1306.35 1272.56 1312.23 1263.11 1313.13 1264.67 1306.35"/></g><g id="node67"><polygon class="cls-1" points="1310.01 945.52 1204.38 945.52 1204.38 981.52 1310.01 981.52 1310.01 945.52"/><text class="cls-3" transform="translate(1210.89 967.23) scale(0.9 1)">netty-c<tspan class="cls-26" x="40.04" y="0">o</tspan><tspan x="47.11" y="0">d</tspan><tspan class="cls-13" x="54.52" y="0">e</tspan><tspan x="60.96" y="0">c-http2</tspan></text></g><g id="edge92"><path class="cls-6" d="M1257.19,909.82v25.59"/><polygon class="cls-7" points="1260.32 935.42 1257.19 945.42 1254.06 935.42 1260.32 935.42"/></g><g id="node68"><polygon class="cls-1" points="1531.56 1017.52 1423.24 1017.52 1423.24 1053.53 1531.56 1053.53 1531.56 1017.52"/><text class="cls-3" transform="translate(1430.31 1039.23) scale(0.9 1)">netty-<tspan class="cls-8" x="34.04" y="0">r</tspan><tspan class="cls-11" x="38.94" y="0">esol</tspan><tspan class="cls-12" x="61.35" y="0">v</tspan><tspan class="cls-21" x="67.67" y="0">er-dns</tspan></text></g><g id="edge94"><path class="cls-6" d="M1283.75,909.65l159.15,102.62"/><polygon class="cls-7" points="1444.56 1009.3 1450.74 1017.34 1441.42 1015.37 1444.56 1009.3"/></g><g id="edge100"><path class="cls-6" d="M1497.8,980,1348,1019"/><polygon class="cls-7" points="1348.49 1022.49 1339.06 1021.36 1347.07 1015.67 1348.49 1022.49"/></g><g id="node61"><polygon class="cls-1" points="1553.94 1161.53 1479.64 1161.53 1479.64 1197.53 1553.94 1197.53 1553.94 1161.53"/><text class="cls-3" transform="translate(1486.33 1183.23) scale(0.9 1)">netty-c<tspan class="cls-4" x="40.04" y="0">o</tspan><tspan class="cls-17" x="47.11" y="0">d</tspan><tspan class="cls-13" x="54.52" y="0">e</tspan><tspan x="60.96" y="0">c</tspan></text></g><g id="edge102"><path class="cls-6" d="M1553.84,981.67c-7,37.1-23.53,125-31.95,169.75"/><polygon class="cls-7" points="1524.94 1152.22 1520.03 1161.3 1518.81 1150.79 1524.94 1152.22"/></g><g id="edge103"><path class="cls-6" d="M1498,970.54c-29.1,6.49-62.17,19.8-82.32,47-44,59.36-38.69,157.89-32.87,205.53"/><polygon class="cls-7" points="1385.91 1222.82 1384.13 1233.21 1379.71 1223.85 1385.91 1222.82"/></g><g id="edge104"><path class="cls-6" d="M1616.31,972.14c45.35,7.39,108.78,21.16,161,45.38,48.61,22.56,74.24,20.33,99.37,72,42.13,86.65-51.35,132.51-114.58,180-26.37,19.8-60.09,33.07-87.14,41.39"/><polygon class="cls-7" points="1675.48 1314.37 1666.03 1313.55 1673.88 1307.61 1675.48 1314.37"/></g><g id="edge105"><path class="cls-6" d="M1616.22,969.77c119.73,12.45,127-33.75,243.69,38.49,0,0,43.51,21.19,52.32,130.57,9.13,113.42-276.81,250.12-416.82,254.59"/><polygon class="cls-7" points="1495.15 1396.93 1486.12 1393.7 1494.98 1389.93 1495.15 1396.93"/></g><g id="node66"><polygon class="cls-1" points="1868.14 1089.53 1761.62 1089.53 1761.62 1125.53 1868.14 1125.53 1868.14 1089.53"/><text class="cls-3" transform="translate(1768.36 1111.23) scale(0.9 1)">netty-c<tspan class="cls-22" x="40.04" y="0">o</tspan><tspan x="47.11" y="0">d</tspan><tspan class="cls-27" x="54.52" y="0">e</tspan><tspan x="60.96" y="0">c-s</tspan><tspan class="cls-27" x="77.16" y="0">o</tspan><tspan x="84.25" y="0">cks</tspan></text></g><g id="edge101"><path class="cls-6" d="M1616.56,970.11c39.86,6.24,92.16,19.46,132.08,47.41,22.47,15.74,41,42.86,52.72,63"/><polygon class="cls-7" points="1804.16 1078.95 1806.25 1089.29 1798.85 1082.66 1804.16 1078.95"/></g><g id="edge106"><path class="cls-6" d="M1269.94,1053.82l-31.1,29"/><polygon class="cls-7" points="1240.59 1085.7 1231.71 1089.42 1236.58 1080.34 1240.59 1085.7"/></g><g id="edge107"><path class="cls-6" d="M1316.06,1053.65l165.25,102.8"/><polygon class="cls-7" points="1482.86 1153.41 1489.16 1161.34 1479.81 1159.53 1482.86 1153.41"/></g><g id="edge108"><path class="cls-6" d="M1289.18,1053.6c1.16,18.43,4.45,48.32,13.66,71.92,15.11,38.68,42.89,76.47,62.39,100.19"/><polygon class="cls-7" points="1367.66 1223.51 1371.49 1233.2 1363.09 1228.29 1367.66 1223.51"/></g><g id="edge109"><path class="cls-6" d="M1303.23,1053.73c16.16,18.54,43.19,48.52,68.54,71.79,77,70.69,101,81.51,183.51,144,13.3,10.08,28.13,21,40.89,30.25"/><polygon class="cls-7" points="1598.02 1296.93 1603.82 1305.32 1594.61 1302.82 1598.02 1296.93"/></g><g id="edge110"><path class="cls-6" d="M1238.23,1042.57c-27,6.43-58.18,19.69-75,47-43.69,70.66-124.93,61.66,62.66,252,23.17,23.51,104.72,38.64,160.41,46.48"/><polygon class="cls-7" points="1386.8 1384.56 1395.31 1389.24 1386.04 1391.51 1386.8 1384.56"/></g><g id="edge111"><path class="cls-6" d="M1256.16,1118.4l214.27,49.43"/><polygon class="cls-7" points="1471.29 1164.45 1479.42 1169.9 1470.02 1171.32 1471.29 1164.45"/></g><g id="edge112"><path class="cls-6" d="M1234.27,1125.65l124.2,101.55"/><polygon class="cls-7" points="1360.59 1224.61 1365.97 1233.34 1356.89 1230.26 1360.59 1224.61"/></g><g id="edge113"><path class="cls-6" d="M1220.81,1125.53c15.85,34,56,109.9,111.58,144,41.78,25.6,175.46,41.74,247.8,48.82"/><polygon class="cls-7" points="1580.91 1314.89 1589.56 1319.24 1580.37 1321.88 1580.91 1314.89"/></g><g id="edge115"><path class="cls-6" d="M1210.42,1125.63c-1.61,10.35-3.44,23.83-4.25,35.89-1.08,16-1.09,20,0,36,4.77,70.2,6.76,104.76,59.08,144,36.1,27.08,84.19,40.36,120.88,46.86"/><polygon class="cls-7" points="1386.81 1384.95 1395.21 1389.89 1385.89 1391.88 1386.81 1384.95"/></g><g id="edge114"><path class="cls-6" d="M1211.56,1125.73c-2.42,31.44-3.76,99,23.25,143.79,7.82,13,19.5,23.18,31.55,31.07"/><polygon class="cls-7" points="1267.94 1297.58 1274.3 1305.43 1264.94 1303.71 1267.94 1297.58"/></g><g id="edge116"><path class="cls-6" d="M1485,1197.64l-58.33,31.46"/><polygon class="cls-7" points="1428.06 1232.27 1418.64 1233.45 1425.34 1225.95 1428.06 1232.27"/></g><g id="edge117"><path class="cls-6" d="M1530.18,1197.65l78.25,100.1"/><polygon class="cls-7" points="1610.83 1295.51 1614.35 1305.34 1606.11 1300.11 1610.83 1295.51"/></g><g id="edge118"><path class="cls-6" d="M1510.69,1197.67c-13.25,37.25-44.72,125.78-60.55,170.31"/><polygon class="cls-7" points="1453.05 1369.3 1446.82 1377.3 1447.22 1366.7 1453.05 1369.3"/></g><g id="edge119"><path class="cls-6" d="M1433.7,1266.1l147.08,42.75"/><polygon class="cls-7" points="1581.65 1305.49 1589.53 1311.4 1580.08 1312.28 1581.65 1305.49"/></g><g id="edge121"><path class="cls-6" d="M1393.47,1269.65c9.23,24.41,26.27,69.44,37.16,98.23"/><polygon class="cls-7" points="1433.6 1366.77 1434.2 1377.34 1427.83 1369.48 1433.6 1366.77"/></g><g id="edge120"><path class="cls-6" d="M1369.28,1269.82l-29.61,29"/><polygon class="cls-7" points="1341.68 1301.46 1332.88 1305.42 1337.55 1296.2 1341.68 1301.46"/></g><g id="edge122"><path class="cls-6" d="M1589.7,1338.77l-94.92,35.52"/><polygon class="cls-7" points="1495.48 1377.72 1485.99 1377.58 1493.48 1371.09 1495.48 1377.72"/></g><g id="edge123"><path class="cls-6" d="M1346,1341.64l55.87,31.21"/><polygon class="cls-7" points="1403.32 1369.73 1409.92 1377.34 1400.52 1375.99 1403.32 1369.73"/></g><g id="edge124"><path class="cls-6" d="M1761.59,1121,1563,1167.66"/><polygon class="cls-7" points="1563.48 1171.13 1554.07 1169.77 1562.19 1164.29 1563.48 1171.13"/></g><g id="edge125"><path class="cls-6" d="M1776.11,1125.63c-44.28,19.15-119.13,50.31-185,71.89-49.76,16.3-107.39,30.88-148.69,40.6"/><polygon class="cls-7" points="1442.98 1241.57 1433.58 1240.18 1441.7 1234.71 1442.98 1241.57"/></g><g id="edge126"><path class="cls-6" d="M1810.14,1125.93c-9.54,32.37-33.67,102.27-74,143.59-17.35,17.76-40.89,30.24-61.58,38.61"/><polygon class="cls-7" points="1675.34 1311.53 1665.86 1311.47 1673.3 1304.9 1675.34 1311.53"/></g><g id="edge127"><path class="cls-6" d="M1815.1,1125.7c-.3,18.52-2.43,48.48-11.86,71.82-30.89,76.45-44.29,101.85-109.21,144-61.8,40.13-145.12,50.81-199,53.18"/><polygon class="cls-7" points="1494.98 1398.2 1485.93 1395.04 1494.78 1391.2 1494.98 1398.2"/></g><g id="edge128"><path class="cls-6" d="M1264.93,981.82c3.58,8,7.88,17.6,11.84,26.44"/><polygon class="cls-7" points="1279.67 1006.91 1280.87 1017.42 1274.07 1010.04 1279.67 1006.91"/></g><g id="edge129"><path class="cls-6" d="M1247,981.53c-5.64,10.09-12.36,23.34-16.65,36-6.81,20-11.18,43.82-13.78,61.76"/><polygon class="cls-7" points="1219.63 1079.99 1215.19 1089.36 1213.44 1078.94 1219.63 1079.99"/></g><g id="edge130"><path class="cls-6" d="M1290.06,981.6c17.37,9.61,38.74,22.37,56.65,35.92,56.76,42.93,116.39,103.52,147.75,136.78"/><polygon class="cls-7" points="1496.77 1151.93 1501.07 1161.37 1492.44 1156.99 1496.77 1151.93"/></g><g id="edge131"><path class="cls-6" d="M1234.29,981.53c-36,29-99,90-71.09,144,34.9,67.46,114.06,99.47,168.23,114"/><polygon class="cls-7" points="1332.21 1236.1 1340.23 1241.74 1330.8 1242.91 1332.21 1236.1"/></g><g id="edge132"><path class="cls-6" d="M1310,970.12c108,12.8,347.59,48.73,394.73,119.4,43.14,64.67,21.78,114.7-20.58,180-7.11,11-16.68,21.06-25.91,29.44"/><polygon class="cls-7" points="1659.99 1301.91 1651 1305.31 1656.13 1296.39 1659.99 1301.91"/></g><g id="edge133"><path class="cls-6" d="M1204.3,981.09c-72.83,26.85-195.07,88.2-195.07,197.43v74c0,86.85,261,124.5,377,137"/><polygon class="cls-7" points="1386.72 1386.01 1395.34 1390.42 1386.13 1392.97 1386.72 1386.01"/></g><g id="edge134"><path class="cls-6" d="M1423,1050.94l-158.26,42"/><polygon class="cls-7" points="1265.35 1096.34 1255.92 1095.23 1263.9 1089.53 1265.35 1096.34"/></g><g id="edge136"><path class="cls-6" d="M1485,1053.88c4.24,10.21,9.39,23.46,13,35.64,6,20.31,10.93,43.9,14.21,61.7"/><polygon class="cls-7" points="1515.3 1150.71 1513.98 1161.21 1509.15 1152.09 1515.3 1150.71"/></g><g id="edge137"><path class="cls-6" d="M1470.16,1053.67c-15.75,37.25-53.15,125.78-72,170.31"/><polygon class="cls-7" points="1400.93 1225.74 1394.27 1233.3 1395.26 1222.76 1400.93 1225.74"/></g><g id="edge138"><path class="cls-6" d="M1531.77,1041.93c55,6.89,134.46,21.18,153.31,47.59,44.64,62.55-9,161.21-39.3,207.47"/><polygon class="cls-7" points="1648.12 1299.35 1640.25 1305.27 1643.1 1295.15 1648.12 1299.35"/></g><g id="edge140"><path class="cls-6" d="M1532,1039.34c104,6,322.18,21.87,344.7,50.18,79.58,100.09-41.49,190-147.71,252-39.71,23.17-161.91,39.61-233.82,47.56"/><polygon class="cls-7" points="1495.39 1392.58 1486.17 1390.07 1494.78 1385.61 1495.39 1392.58"/></g><g id="edge139"><path class="cls-6" d="M1460.15,1053.65c-30.85,31.81-95.32,103.7-127.76,179.87-8.34,19.56-12.63,43.69-14.81,61.89"/><polygon class="cls-7" points="1320.69 1295.86 1316.52 1305.37 1314.47 1295.03 1320.69 1295.86"/></g><g id="node69"><polygon class="cls-1" points="1676.58 1089.53 1579 1089.53 1579 1125.53 1676.58 1125.53 1676.58 1089.53"/><text class="cls-3" transform="translate(1586.07 1111.23) scale(0.9 1)">netty-c<tspan class="cls-22" x="40.04" y="0">o</tspan><tspan x="47.11" y="0">d</tspan><tspan class="cls-27" x="54.52" y="0">e</tspan><tspan x="60.96" y="0">c-dns</tspan></text></g><g id="edge135"><path class="cls-6" d="M1514.19,1053.64l68.46,31.87"/><polygon class="cls-7" points="1584.06 1082.38 1591.12 1089.45 1581.65 1088.85 1584.06 1082.38"/></g><g id="edge141"><path class="cls-6" d="M1600.64,1125.64,1552,1156.31"/><polygon class="cls-7" points="1553.38 1159.46 1544.05 1161.34 1550.3 1153.38 1553.38 1159.46"/></g><g id="edge142"><path class="cls-6" d="M1619.27,1125.66c-10.85,20.22-31.29,53.41-56.83,71.86-36,26-83.28,39.36-119.67,46.14"/><polygon class="cls-7" points="1443.09 1247.14 1433.76 1245.24 1442.12 1240.23 1443.09 1247.14"/></g><g id="edge143"><path class="cls-6" d="M1627.79,1125.67v169.46"/><polygon class="cls-7" points="1630.92 1295.3 1627.79 1305.3 1624.66 1295.3 1630.92 1295.3"/></g><g id="edge144"><path class="cls-6" d="M1638.89,1125.66c25.63,41.84,83.23,150.55,35.45,215.86-22.17,30.31-117.21,43.71-179,49.31"/><polygon class="cls-7" points="1495.22 1394.36 1486.06 1391.63 1494.74 1387.38 1495.22 1394.36"/></g><g id="edge147"><path class="cls-6" d="M1160.23,751.82c51.2,6,146.36,20.82,166.78,49.7,8.88,12.55,6.71,21.86,0,36-6.35,13.4-17.25,24-28.56,32.17"/><polygon class="cls-7" points="1299.88 872.8 1290.59 874.91 1296.68 866.79 1299.88 872.8"/></g><g id="node71"><polygon class="cls-1" points="1184.68 801.52 1070.1 801.52 1070.1 837.52 1184.68 837.52 1184.68 801.52"/><text class="cls-3" transform="translate(1077.46 823.23) scale(0.9 1)"><tspan class="cls-12">v</tspan><tspan class="cls-11" x="6.32" y="0">ertx-</tspan><tspan class="cls-18" x="33.41" y="0">w</tspan><tspan x="43.37" y="0">eb-common</tspan></text></g><g id="edge145"><path class="cls-6" d="M1127.39,765.82v25.59"/><polygon class="cls-7" points="1130.53 791.42 1127.39 801.42 1124.26 791.42 1130.53 791.42"/></g><g id="node72"><polygon class="cls-1" points="1318.51 801.52 1201.24 801.52 1201.24 837.52 1318.51 837.52 1318.51 801.52"/><text class="cls-28" transform="translate(1208.46 823.23) scale(0.9 1)">v<tspan class="cls-11" x="6.32" y="0">ertx-auth-common</tspan></text></g><g id="edge146"><path class="cls-6" d="M1159.8,765.64l59.53,31.46"/><polygon class="cls-7" points="1220.82 794.01 1227.57 801.46 1218.14 800.35 1220.82 794.01"/></g><g id="node73"><text class="cls-3" transform="translate(934.76 823.23) scale(0.9 1)"><tspan class="cls-12">v</tspan><tspan class="cls-11" x="6.32" y="0">ertx-brid</tspan><tspan class="cls-14" x="56.49" y="0">g</tspan><tspan x="63.25" y="0">e-common</tspan></text></g><g id="edge148"><path class="cls-6" d="M1094.58,765.29l-62.33,31.85"/><polygon class="cls-7" points="1033.36 800.43 1023.92 801.4 1030.76 794.07 1033.36 800.43"/></g><g id="edge149"><path class="cls-6" d="M1159.14,837.64l58.33,31.46"/><polygon class="cls-7" points="1218.84 865.96 1225.54 873.46 1216.12 872.26 1218.84 865.96"/></g><g id="edge150"><path class="cls-6" d="M1259.21,837.82c-.29,7.72-.65,17-1,25.59"/><polygon class="cls-7" points="1261.36 863.58 1257.85 873.42 1255.1 863.27 1261.36 863.58"/></g><g id="edge151"><path class="cls-6" d="M1415.47,252.62l-38.54,29.85"/><polygon class="cls-7" points="1378.53 285.49 1369.38 288.31 1374.96 279.74 1378.53 285.49"/></g><g id="edge152"><path class="cls-6" d="M1690.79,322.08c-2.68.83-5.34,1.65-7.92,2.42-60.43,18-69.18,9.35-123.37,44.21-17.07,11-26.13,18.61-44,27.79-45.24,23.21-805,47-974.58,52"/><polygon class="cls-7" points="540.72 452.03 531.69 448.8 540.55 445.04 540.72 452.03"/></g><g id="edge154"><path class="cls-6" d="M1690.57,322.36c-42.39,14.61-101.32,35.17-106.17,38.14-19.56,12-18,26.08-38.49,36-57.53,27.86-233.73,43.06-328.14,49.4"/><polygon class="cls-7" points="1217.73 449.41 1208.61 446.5 1217.36 442.42 1217.73 449.41"/></g><g id="edge153"><path class="cls-6" d="M1750.71,324.8l27.86,28.67"/><polygon class="cls-7" points="1780.84 351.05 1785.3 360.4 1776.59 356.2 1780.84 351.05"/></g><g id="edge155"><path class="cls-6" d="M1762.8,395.79,1493.58,507.88"/><polygon class="cls-7" points="1494.68 511.16 1485.2 511.37 1492.49 504.6 1494.68 511.16"/></g><g id="edge156"><path class="cls-6" d="M1762.69,388.61c-13.35,2.86-28.4,5.8-42.23,7.89C1538.52,424,1321.72,439.57,1217.88,446"/><polygon class="cls-7" points="1217.9 449.5 1208.8 446.56 1217.56 442.51 1217.9 449.5"/></g><g id="node77"><polygon class="cls-1" points="1847.13 432.5 1756.72 432.5 1756.72 468.5 1847.13 468.5 1847.13 432.5"/><text class="cls-3" transform="translate(1763.98 454.2) scale(0.9 1)">antlr4-<tspan class="cls-29" x="38.69" y="0">r</tspan><tspan x="43.69" y="0">untime</tspan></text></g><g id="edge157"><path class="cls-6" d="M1801.92,396.8v25.59"/><polygon class="cls-7" points="1805.06 422.4 1801.92 432.4 1798.79 422.4 1805.06 422.4"/></g></g></g></g></svg>