<?xml version="1.0" encoding="UTF-8"?>
<svg width="432pt" height="360pt" version="1.1" viewBox="0 0 432 360" xmlns="http://www.w3.org/2000/svg" xmlns:cc="http://creativecommons.org/ns#" xmlns:dc="http://purl.org/dc/elements/1.1/" xmlns:rdf="http://www.w3.org/1999/02/22-rdf-syntax-ns#" xmlns:xlink="http://www.w3.org/1999/xlink">
 <metadata>
  <rdf:RDF>
   <cc:Work rdf:about="">
    <dc:format>image/svg+xml</dc:format>
    <dc:type rdf:resource="http://purl.org/dc/dcmitype/StillImage"/>
    <dc:title/>
   </cc:Work>
  </rdf:RDF>
 </metadata>
 <defs>
  <style type="text/css">*{stroke-linecap:butt;stroke-linejoin:round;}</style>
 </defs>
 <g transform="translate(-9.0539 -88.599)">
  <path d="m187.42 294.62c21.625 0 42.367-8.5916 57.657-23.883 15.291-15.291 23.883-36.033 23.883-57.657s-8.5916-42.367-23.883-57.657c-15.291-15.291-36.033-23.883-57.657-23.883s-42.367 8.5916-57.657 23.883c-15.291 15.291-23.883 36.033-23.883 57.657s8.5916 42.367 23.883 57.657c15.291 15.291 36.033 23.883 57.657 23.883z" clip-path="url(#pbf91c8aa30)" fill="#ffd42a" fill-opacity=".3" stroke="#da5032" stroke-opacity=".3" stroke-width="2"/>
  <path d="m255.38 294.62c21.625 0 42.367-8.5916 57.657-23.883 15.291-15.291 23.883-36.033 23.883-57.657s-8.5916-42.367-23.883-57.657c-15.291-15.291-36.033-23.883-57.657-23.883s-42.367 8.5916-57.657 23.883c-15.291 15.291-23.883 36.033-23.883 57.657s8.5916 42.367 23.883 57.657c15.291 15.291 36.033 23.883 57.657 23.883z" clip-path="url(#pbf91c8aa30)" fill="#ff8080" fill-opacity=".3" stroke="#da5032" stroke-opacity=".3" stroke-width="2"/>
  <defs>
   <path id="ma97e2dc6ee" d="m0 1.118c0.29651 0 0.58091-0.1178 0.79057-0.32746 0.20966-0.20966 0.32746-0.49406 0.32746-0.79057s-0.1178-0.58091-0.32746-0.79057c-0.20966-0.20966-0.49406-0.32746-0.79057-0.32746s-0.58091 0.1178-0.79057 0.32746c-0.20966 0.20966-0.32746 0.49406-0.32746 0.79057s0.1178 0.58091 0.32746 0.79057c0.20966 0.20966 0.49406 0.32746 0.79057 0.32746z" stroke="#5c5c5c"/>
  </defs>
  <g clip-path="url(#pbf91c8aa30)" fill="#5c5c5c" stroke="#5c5c5c">
   <use x="170.24776" y="239.09349" width="100%" height="100%" xlink:href="#ma97e2dc6ee"/>
   <use x="146.80341" y="220.63667" width="100%" height="100%" xlink:href="#ma97e2dc6ee"/>
   <use x="145.50089" y="168.5773" width="100%" height="100%" xlink:href="#ma97e2dc6ee"/>
   <use x="138.24049" y="165.66734" width="100%" height="100%" xlink:href="#ma97e2dc6ee"/>
   <use x="175.58192" y="252.29353" width="100%" height="100%" xlink:href="#ma97e2dc6ee"/>
   <use x="160.69127" y="212.26912" width="100%" height="100%" xlink:href="#ma97e2dc6ee"/>
   <use x="152.25774" y="172.30399" width="100%" height="100%" xlink:href="#ma97e2dc6ee"/>
   <use x="164.09921" y="244.23212" width="100%" height="100%" xlink:href="#ma97e2dc6ee"/>
   <use x="156.81808" y="273.29819" width="100%" height="100%" xlink:href="#ma97e2dc6ee"/>
   <use x="170.3241" y="279.75558" width="100%" height="100%" xlink:href="#ma97e2dc6ee"/>
   <use x="134.80415" y="202.99561" width="100%" height="100%" xlink:href="#ma97e2dc6ee"/>
   <use x="137.60152" y="259.7406" width="100%" height="100%" xlink:href="#ma97e2dc6ee"/>
   <use x="154.93649" y="223.87477" width="100%" height="100%" xlink:href="#ma97e2dc6ee"/>
   <use x="167.9933" y="224.45738" width="100%" height="100%" xlink:href="#ma97e2dc6ee"/>
   <use x="132.10448" y="172.617" width="100%" height="100%" xlink:href="#ma97e2dc6ee"/>
   <use x="169.58496" y="192.70042" width="100%" height="100%" xlink:href="#ma97e2dc6ee"/>
   <use x="165.04437" y="260.44565" width="100%" height="100%" xlink:href="#ma97e2dc6ee"/>
   <use x="135.38055" y="195.32057" width="100%" height="100%" xlink:href="#ma97e2dc6ee"/>
   <use x="180.3129" y="166.72063" width="100%" height="100%" xlink:href="#ma97e2dc6ee"/>
   <use x="157.20834" y="151.95639" width="100%" height="100%" xlink:href="#ma97e2dc6ee"/>
   <use x="204.40666" y="284.78549" width="100%" height="100%" xlink:href="#ma97e2dc6ee"/>
   <use x="148.39218" y="203.38298" width="100%" height="100%" xlink:href="#ma97e2dc6ee"/>
   <use x="130.25302" y="246.58133" width="100%" height="100%" xlink:href="#ma97e2dc6ee"/>
   <use x="148.68456" y="195.12129" width="100%" height="100%" xlink:href="#ma97e2dc6ee"/>
   <use x="187.31886" y="145.99538" width="100%" height="100%" xlink:href="#ma97e2dc6ee"/>
   <use x="112.72793" y="216.2966" width="100%" height="100%" xlink:href="#ma97e2dc6ee"/>
   <use x="149.53984" y="187.35283" width="100%" height="100%" xlink:href="#ma97e2dc6ee"/>
   <use x="122.39293" y="225.88666" width="100%" height="100%" xlink:href="#ma97e2dc6ee"/>
   <use x="195.70534" y="279.18887" width="100%" height="100%" xlink:href="#ma97e2dc6ee"/>
   <use x="182.17523" y="287.16122" width="100%" height="100%" xlink:href="#ma97e2dc6ee"/>
   <use x="128.81143" y="193.15424" width="100%" height="100%" xlink:href="#ma97e2dc6ee"/>
   <use x="138.08888" y="251.71288" width="100%" height="100%" xlink:href="#ma97e2dc6ee"/>
   <use x="137.45009" y="157.61153" width="100%" height="100%" xlink:href="#ma97e2dc6ee"/>
   <use x="162.19926" y="195.91985" width="100%" height="100%" xlink:href="#ma97e2dc6ee"/>
   <use x="139.17142" y="172.72003" width="100%" height="100%" xlink:href="#ma97e2dc6ee"/>
   <use x="172.13367" y="259.52289" width="100%" height="100%" xlink:href="#ma97e2dc6ee"/>
   <use x="149.66498" y="227.98087" width="100%" height="100%" xlink:href="#ma97e2dc6ee"/>
   <use x="168.2093" y="200.53381" width="100%" height="100%" xlink:href="#ma97e2dc6ee"/>
   <use x="186.8645" y="279.922" width="100%" height="100%" xlink:href="#ma97e2dc6ee"/>
   <use x="156.02049" y="191.47061" width="100%" height="100%" xlink:href="#ma97e2dc6ee"/>
   <use x="155.98688" y="240.66847" width="100%" height="100%" xlink:href="#ma97e2dc6ee"/>
   <use x="167.42928" y="208.5639" width="100%" height="100%" xlink:href="#ma97e2dc6ee"/>
   <use x="144.57137" y="160.77211" width="100%" height="100%" xlink:href="#ma97e2dc6ee"/>
   <use x="175.82874" y="152.31349" width="100%" height="100%" xlink:href="#ma97e2dc6ee"/>
   <use x="120.28706" y="181.09416" width="100%" height="100%" xlink:href="#ma97e2dc6ee"/>
   <use x="172.34509" y="165.37637" width="100%" height="100%" xlink:href="#ma97e2dc6ee"/>
   <use x="201.63475" y="144.30836" width="100%" height="100%" xlink:href="#ma97e2dc6ee"/>
   <use x="155.10309" y="199.50221" width="100%" height="100%" xlink:href="#ma97e2dc6ee"/>
   <use x="158.33287" y="144.30556" width="100%" height="100%" xlink:href="#ma97e2dc6ee"/>
   <use x="177.53362" y="159.52501" width="100%" height="100%" xlink:href="#ma97e2dc6ee"/>
   <use x="163.64484" y="188.04205" width="100%" height="100%" xlink:href="#ma97e2dc6ee"/>
   <use x="166.44716" y="141.26953" width="100%" height="100%" xlink:href="#ma97e2dc6ee"/>
   <use x="151.97217" y="254.00967" width="100%" height="100%" xlink:href="#ma97e2dc6ee"/>
   <use x="184.5529" y="265.96616" width="100%" height="100%" xlink:href="#ma97e2dc6ee"/>
   <use x="123.79576" y="174.67821" width="100%" height="100%" xlink:href="#ma97e2dc6ee"/>
   <use x="121.22906" y="246.28574" width="100%" height="100%" xlink:href="#ma97e2dc6ee"/>
   <use x="159.11621" y="175.92226" width="100%" height="100%" xlink:href="#ma97e2dc6ee"/>
   <use x="159.16141" y="249.57144" width="100%" height="100%" xlink:href="#ma97e2dc6ee"/>
   <use x="133.23279" y="217.05049" width="100%" height="100%" xlink:href="#ma97e2dc6ee"/>
   <use x="176.37343" y="266.29327" width="100%" height="100%" xlink:href="#ma97e2dc6ee"/>
   <use x="131.5717" y="254.24159" width="100%" height="100%" xlink:href="#ma97e2dc6ee"/>
   <use x="164.91228" y="149.20311" width="100%" height="100%" xlink:href="#ma97e2dc6ee"/>
   <use x="189.94331" y="272.68228" width="100%" height="100%" xlink:href="#ma97e2dc6ee"/>
   <use x="167.87109" y="267.52054" width="100%" height="100%" xlink:href="#ma97e2dc6ee"/>
   <use x="127.68694" y="209.01566" width="100%" height="100%" xlink:href="#ma97e2dc6ee"/>
   <use x="136.57756" y="179.58478" width="100%" height="100%" xlink:href="#ma97e2dc6ee"/>
   <use x="167.45888" y="216.53772" width="100%" height="100%" xlink:href="#ma97e2dc6ee"/>
   <use x="134.31381" y="187.07123" width="100%" height="100%" xlink:href="#ma97e2dc6ee"/>
   <use x="141.93292" y="199.11334" width="100%" height="100%" xlink:href="#ma97e2dc6ee"/>
   <use x="142.79356" y="183.67853" width="100%" height="100%" xlink:href="#ma97e2dc6ee"/>
   <use x="183.10173" y="138.65761" width="100%" height="100%" xlink:href="#ma97e2dc6ee"/>
   <use x="114.56544" y="194.66447" width="100%" height="100%" xlink:href="#ma97e2dc6ee"/>
   <use x="157.55771" y="183.76469" width="100%" height="100%" xlink:href="#ma97e2dc6ee"/>
   <use x="117.56611" y="188.08676" width="100%" height="100%" xlink:href="#ma97e2dc6ee"/>
   <use x="127.91269" y="200.78346" width="100%" height="100%" xlink:href="#ma97e2dc6ee"/>
   <use x="158.86893" y="257.36356" width="100%" height="100%" xlink:href="#ma97e2dc6ee"/>
   <use x="133.20029" y="238.45831" width="100%" height="100%" xlink:href="#ma97e2dc6ee"/>
   <use x="113.19755" y="208.8297" width="100%" height="100%" xlink:href="#ma97e2dc6ee"/>
   <use x="140.86586" y="236.44106" width="100%" height="100%" xlink:href="#ma97e2dc6ee"/>
   <use x="131.86931" y="163.13452" width="100%" height="100%" xlink:href="#ma97e2dc6ee"/>
   <use x="173.30072" y="273.25159" width="100%" height="100%" xlink:href="#ma97e2dc6ee"/>
   <use x="152.1181" y="261.83533" width="100%" height="100%" xlink:href="#ma97e2dc6ee"/>
   <use x="206.29077" y="139.51529" width="100%" height="100%" xlink:href="#ma97e2dc6ee"/>
   <use x="120.22124" y="211.73248" width="100%" height="100%" xlink:href="#ma97e2dc6ee"/>
   <use x="190.37868" y="153.60709" width="100%" height="100%" xlink:href="#ma97e2dc6ee"/>
   <use x="150.45866" y="148.18205" width="100%" height="100%" xlink:href="#ma97e2dc6ee"/>
   <use x="147.7533" y="211.92012" width="100%" height="100%" xlink:href="#ma97e2dc6ee"/>
   <use x="119.35704" y="219.26491" width="100%" height="100%" xlink:href="#ma97e2dc6ee"/>
   <use x="135.67921" y="230.36598" width="100%" height="100%" xlink:href="#ma97e2dc6ee"/>
   <use x="146.38036" y="242.05083" width="100%" height="100%" xlink:href="#ma97e2dc6ee"/>
   <use x="175.83087" y="172.54559" width="100%" height="100%" xlink:href="#ma97e2dc6ee"/>
   <use x="195.01259" y="147.15793" width="100%" height="100%" xlink:href="#ma97e2dc6ee"/>
   <use x="153.86426" y="216.26299" width="100%" height="100%" xlink:href="#ma97e2dc6ee"/>
   <use x="115.05357" y="231.30928" width="100%" height="100%" xlink:href="#ma97e2dc6ee"/>
   <use x="149.58766" y="277.2049" width="100%" height="100%" xlink:href="#ma97e2dc6ee"/>
   <use x="159.25562" y="168.31793" width="100%" height="100%" xlink:href="#ma97e2dc6ee"/>
   <use x="172.72466" y="178.32896" width="100%" height="100%" xlink:href="#ma97e2dc6ee"/>
   <use x="162.58759" y="236.47914" width="100%" height="100%" xlink:href="#ma97e2dc6ee"/>
   <use x="172.19313" y="245.84312" width="100%" height="100%" xlink:href="#ma97e2dc6ee"/>
   <use x="185.08266" y="160.16594" width="100%" height="100%" xlink:href="#ma97e2dc6ee"/>
   <use x="161.22433" y="204.04863" width="100%" height="100%" xlink:href="#ma97e2dc6ee"/>
   <use x="142.93254" y="272.64816" width="100%" height="100%" xlink:href="#ma97e2dc6ee"/>
   <use x="157.03517" y="280.77441" width="100%" height="100%" xlink:href="#ma97e2dc6ee"/>
   <use x="168.91051" y="232.04005" width="100%" height="100%" xlink:href="#ma97e2dc6ee"/>
   <use x="170.16403" y="156.69675" width="100%" height="100%" xlink:href="#ma97e2dc6ee"/>
   <use x="148.90601" y="235.50432" width="100%" height="100%" xlink:href="#ma97e2dc6ee"/>
   <use x="197.88684" y="138.84651" width="100%" height="100%" xlink:href="#ma97e2dc6ee"/>
   <use x="129.90999" y="261.39743" width="100%" height="100%" xlink:href="#ma97e2dc6ee"/>
   <use x="150.61137" y="269.20728" width="100%" height="100%" xlink:href="#ma97e2dc6ee"/>
   <use x="190.27045" y="286.93878" width="100%" height="100%" xlink:href="#ma97e2dc6ee"/>
   <use x="128.55907" y="231.94545" width="100%" height="100%" xlink:href="#ma97e2dc6ee"/>
   <use x="143.68687" y="152.73268" width="100%" height="100%" xlink:href="#ma97e2dc6ee"/>
   <use x="125.70034" y="240.01111" width="100%" height="100%" xlink:href="#ma97e2dc6ee"/>
   <use x="151.76193" y="164.46907" width="100%" height="100%" xlink:href="#ma97e2dc6ee"/>
   <use x="165.27306" y="163.7312" width="100%" height="100%" xlink:href="#ma97e2dc6ee"/>
   <use x="121.79194" y="233.43214" width="100%" height="100%" xlink:href="#ma97e2dc6ee"/>
   <use x="181.63092" y="273.13583" width="100%" height="100%" xlink:href="#ma97e2dc6ee"/>
   <use x="134.9218" y="210.2377" width="100%" height="100%" xlink:href="#ma97e2dc6ee"/>
   <use x="163.29008" y="156.28474" width="100%" height="100%" xlink:href="#ma97e2dc6ee"/>
   <use x="128.94713" y="180.46999" width="100%" height="100%" xlink:href="#ma97e2dc6ee"/>
   <use x="166.90953" y="252.46904" width="100%" height="100%" xlink:href="#ma97e2dc6ee"/>
   <use x="126.88083" y="168.14801" width="100%" height="100%" xlink:href="#ma97e2dc6ee"/>
   <use x="140.97314" y="215.27515" width="100%" height="100%" xlink:href="#ma97e2dc6ee"/>
   <use x="197.65541" y="286.74951" width="100%" height="100%" xlink:href="#ma97e2dc6ee"/>
   <use x="154.44884" y="207.89626" width="100%" height="100%" xlink:href="#ma97e2dc6ee"/>
   <use x="161.10872" y="220.16261" width="100%" height="100%" xlink:href="#ma97e2dc6ee"/>
   <use x="171.68265" y="146.81119" width="100%" height="100%" xlink:href="#ma97e2dc6ee"/>
   <use x="141.81445" y="190.99184" width="100%" height="100%" xlink:href="#ma97e2dc6ee"/>
   <use x="161.68893" y="228.2811" width="100%" height="100%" xlink:href="#ma97e2dc6ee"/>
   <use x="173.35316" y="286.62421" width="100%" height="100%" xlink:href="#ma97e2dc6ee"/>
   <use x="145.08521" y="176.52376" width="100%" height="100%" xlink:href="#ma97e2dc6ee"/>
   <use x="117.35168" y="239.27849" width="100%" height="100%" xlink:href="#ma97e2dc6ee"/>
   <use x="126.15102" y="217.2704" width="100%" height="100%" xlink:href="#ma97e2dc6ee"/>
   <use x="144.1131" y="264.77075" width="100%" height="100%" xlink:href="#ma97e2dc6ee"/>
   <use x="145.08702" y="249.43919" width="100%" height="100%" xlink:href="#ma97e2dc6ee"/>
   <use x="121.63023" y="195.65236" width="100%" height="100%" xlink:href="#ma97e2dc6ee"/>
   <use x="164.28445" y="283.82785" width="100%" height="100%" xlink:href="#ma97e2dc6ee"/>
   <use x="159.40576" y="266.20618" width="100%" height="100%" xlink:href="#ma97e2dc6ee"/>
   <use x="113.78838" y="224.14836" width="100%" height="100%" xlink:href="#ma97e2dc6ee"/>
   <use x="167.01067" y="172.00296" width="100%" height="100%" xlink:href="#ma97e2dc6ee"/>
   <use x="183.01837" y="152.81242" width="100%" height="100%" xlink:href="#ma97e2dc6ee"/>
   <use x="190.77744" y="139.09505" width="100%" height="100%" xlink:href="#ma97e2dc6ee"/>
   <use x="179.96849" y="259.07248" width="100%" height="100%" xlink:href="#ma97e2dc6ee"/>
   <use x="150.83257" y="156.28984" width="100%" height="100%" xlink:href="#ma97e2dc6ee"/>
   <use x="113.94814" y="201.60933" width="100%" height="100%" xlink:href="#ma97e2dc6ee"/>
   <use x="171.36307" y="185.24361" width="100%" height="100%" xlink:href="#ma97e2dc6ee"/>
   <use x="120.91962" y="204.00301" width="100%" height="100%" xlink:href="#ma97e2dc6ee"/>
   <use x="144.9097" y="257.15082" width="100%" height="100%" xlink:href="#ma97e2dc6ee"/>
   <use x="164.18068" y="274.78064" width="100%" height="100%" xlink:href="#ma97e2dc6ee"/>
   <use x="143.03619" y="228.86676" width="100%" height="100%" xlink:href="#ma97e2dc6ee"/>
   <use x="125.28928" y="187.20427" width="100%" height="100%" xlink:href="#ma97e2dc6ee"/>
   <use x="141.71779" y="207.0573" width="100%" height="100%" xlink:href="#ma97e2dc6ee"/>
   <use x="157.65936" y="160.41205" width="100%" height="100%" xlink:href="#ma97e2dc6ee"/>
   <use x="165.18007" y="180.17436" width="100%" height="100%" xlink:href="#ma97e2dc6ee"/>
   <use x="136.43248" y="267.48068" width="100%" height="100%" xlink:href="#ma97e2dc6ee"/>
   <use x="138.40002" y="244.19043" width="100%" height="100%" xlink:href="#ma97e2dc6ee"/>
   <use x="124.5351" y="253.37173" width="100%" height="100%" xlink:href="#ma97e2dc6ee"/>
   <use x="152.24086" y="246.60973" width="100%" height="100%" xlink:href="#ma97e2dc6ee"/>
   <use x="179.6209" y="145.56461" width="100%" height="100%" xlink:href="#ma97e2dc6ee"/>
   <use x="130.26408" y="224.25627" width="100%" height="100%" xlink:href="#ma97e2dc6ee"/>
   <use x="155.79907" y="232.58379" width="100%" height="100%" xlink:href="#ma97e2dc6ee"/>
   <use x="138.5645" y="222.75993" width="100%" height="100%" xlink:href="#ma97e2dc6ee"/>
   <use x="151.36646" y="179.97868" width="100%" height="100%" xlink:href="#ma97e2dc6ee"/>
   <use x="174.87018" y="139.44377" width="100%" height="100%" xlink:href="#ma97e2dc6ee"/>
   <use x="178.42828" y="280.17673" width="100%" height="100%" xlink:href="#ma97e2dc6ee"/>
  </g>
  <g clip-path="url(#pbf91c8aa30)" fill="#5c5c5c" stroke="#5c5c5c">
   <use x="300.74042" y="242.73863" width="100%" height="100%" xlink:href="#ma97e2dc6ee"/>
   <use x="285.77753" y="211.02296" width="100%" height="100%" xlink:href="#ma97e2dc6ee"/>
   <use x="277.50708" y="215.94412" width="100%" height="100%" xlink:href="#ma97e2dc6ee"/>
   <use x="320.37234" y="209.66687" width="100%" height="100%" xlink:href="#ma97e2dc6ee"/>
   <use x="265.53256" y="285.40015" width="100%" height="100%" xlink:href="#ma97e2dc6ee"/>
   <use x="273.44296" y="263.23361" width="100%" height="100%" xlink:href="#ma97e2dc6ee"/>
   <use x="282.57788" y="281.06454" width="100%" height="100%" xlink:href="#ma97e2dc6ee"/>
   <use x="318.11377" y="227.19341" width="100%" height="100%" xlink:href="#ma97e2dc6ee"/>
   <use x="313.1723" y="167.81409" width="100%" height="100%" xlink:href="#ma97e2dc6ee"/>
   <use x="277.11664" y="272.9346" width="100%" height="100%" xlink:href="#ma97e2dc6ee"/>
   <use x="260.66187" y="159.74464" width="100%" height="100%" xlink:href="#ma97e2dc6ee"/>
   <use x="291.54227" y="243.66003" width="100%" height="100%" xlink:href="#ma97e2dc6ee"/>
   <use x="280.40494" y="174.61731" width="100%" height="100%" xlink:href="#ma97e2dc6ee"/>
   <use x="293.83679" y="206.09142" width="100%" height="100%" xlink:href="#ma97e2dc6ee"/>
   <use x="254.45998" y="151.5533" width="100%" height="100%" xlink:href="#ma97e2dc6ee"/>
   <use x="257.93277" y="141.40041" width="100%" height="100%" xlink:href="#ma97e2dc6ee"/>
   <use x="286.31104" y="250.34433" width="100%" height="100%" xlink:href="#ma97e2dc6ee"/>
   <use x="269.54245" y="253.02188" width="100%" height="100%" xlink:href="#ma97e2dc6ee"/>
   <use x="279.65027" y="257.34409" width="100%" height="100%" xlink:href="#ma97e2dc6ee"/>
   <use x="303.18185" y="190.82079" width="100%" height="100%" xlink:href="#ma97e2dc6ee"/>
   <use x="305.22025" y="163.37479" width="100%" height="100%" xlink:href="#ma97e2dc6ee"/>
   <use x="257.64545" y="268.57245" width="100%" height="100%" xlink:href="#ma97e2dc6ee"/>
   <use x="309.44214" y="199.01057" width="100%" height="100%" xlink:href="#ma97e2dc6ee"/>
   <use x="314.64505" y="191.54449" width="100%" height="100%" xlink:href="#ma97e2dc6ee"/>
   <use x="274.80768" y="151.41763" width="100%" height="100%" xlink:href="#ma97e2dc6ee"/>
   <use x="270.72174" y="159.19545" width="100%" height="100%" xlink:href="#ma97e2dc6ee"/>
   <use x="276.29047" y="196.57236" width="100%" height="100%" xlink:href="#ma97e2dc6ee"/>
   <use x="317.29733" y="176.41206" width="100%" height="100%" xlink:href="#ma97e2dc6ee"/>
   <use x="294.07388" y="215.89308" width="100%" height="100%" xlink:href="#ma97e2dc6ee"/>
   <use x="266.89694" y="269.21478" width="100%" height="100%" xlink:href="#ma97e2dc6ee"/>
   <use x="293.08057" y="266.68152" width="100%" height="100%" xlink:href="#ma97e2dc6ee"/>
   <use x="301.76031" y="221.52043" width="100%" height="100%" xlink:href="#ma97e2dc6ee"/>
   <use x="325.151" y="193.9348" width="100%" height="100%" xlink:href="#ma97e2dc6ee"/>
   <use x="271.98856" y="243.09886" width="100%" height="100%" xlink:href="#ma97e2dc6ee"/>
   <use x="267.35101" y="141.93279" width="100%" height="100%" xlink:href="#ma97e2dc6ee"/>
   <use x="296.11465" y="251.44464" width="100%" height="100%" xlink:href="#ma97e2dc6ee"/>
   <use x="283.31805" y="266.26797" width="100%" height="100%" xlink:href="#ma97e2dc6ee"/>
   <use x="302.63684" y="211.35588" width="100%" height="100%" xlink:href="#ma97e2dc6ee"/>
   <use x="315.9913" y="236.24873" width="100%" height="100%" xlink:href="#ma97e2dc6ee"/>
   <use x="321.02875" y="244.36116" width="100%" height="100%" xlink:href="#ma97e2dc6ee"/>
   <use x="256.84872" y="285.63977" width="100%" height="100%" xlink:href="#ma97e2dc6ee"/>
   <use x="300.88708" y="155.68039" width="100%" height="100%" xlink:href="#ma97e2dc6ee"/>
   <use x="274.24481" y="186.58267" width="100%" height="100%" xlink:href="#ma97e2dc6ee"/>
   <use x="303.32687" y="267.9136" width="100%" height="100%" xlink:href="#ma97e2dc6ee"/>
   <use x="300.36508" y="231.62407" width="100%" height="100%" xlink:href="#ma97e2dc6ee"/>
   <use x="282.92123" y="182.84404" width="100%" height="100%" xlink:href="#ma97e2dc6ee"/>
   <use x="325.08475" y="234.60854" width="100%" height="100%" xlink:href="#ma97e2dc6ee"/>
   <use x="276.83823" y="225.33315" width="100%" height="100%" xlink:href="#ma97e2dc6ee"/>
   <use x="296.53714" y="274.53098" width="100%" height="100%" xlink:href="#ma97e2dc6ee"/>
   <use x="293.92642" y="195.73732" width="100%" height="100%" xlink:href="#ma97e2dc6ee"/>
   <use x="282.689" y="240.42162" width="100%" height="100%" xlink:href="#ma97e2dc6ee"/>
   <use x="271.21823" y="176.8943" width="100%" height="100%" xlink:href="#ma97e2dc6ee"/>
   <use x="248.91344" y="143.51216" width="100%" height="100%" xlink:href="#ma97e2dc6ee"/>
   <use x="260.00439" y="277.10202" width="100%" height="100%" xlink:href="#ma97e2dc6ee"/>
   <use x="274.44153" y="283.54437" width="100%" height="100%" xlink:href="#ma97e2dc6ee"/>
   <use x="310.33243" y="183.39055" width="100%" height="100%" xlink:href="#ma97e2dc6ee"/>
   <use x="297.6922" y="170.21198" width="100%" height="100%" xlink:href="#ma97e2dc6ee"/>
   <use x="264.01868" y="260.48099" width="100%" height="100%" xlink:href="#ma97e2dc6ee"/>
   <use x="289.50497" y="258.66202" width="100%" height="100%" xlink:href="#ma97e2dc6ee"/>
   <use x="293.56122" y="161.31067" width="100%" height="100%" xlink:href="#ma97e2dc6ee"/>
   <use x="248.46388" y="285.54449" width="100%" height="100%" xlink:href="#ma97e2dc6ee"/>
   <use x="293.10645" y="225.76454" width="100%" height="100%" xlink:href="#ma97e2dc6ee"/>
   <use x="282.89951" y="157.93141" width="100%" height="100%" xlink:href="#ma97e2dc6ee"/>
   <use x="306.81458" y="174.08655" width="100%" height="100%" xlink:href="#ma97e2dc6ee"/>
   <use x="284.48096" y="230.74231" width="100%" height="100%" xlink:href="#ma97e2dc6ee"/>
   <use x="311.25046" y="244.99312" width="100%" height="100%" xlink:href="#ma97e2dc6ee"/>
   <use x="327.19131" y="224.59134" width="100%" height="100%" xlink:href="#ma97e2dc6ee"/>
   <use x="275.32999" y="234.51106" width="100%" height="100%" xlink:href="#ma97e2dc6ee"/>
   <use x="292.87808" y="186.46368" width="100%" height="100%" xlink:href="#ma97e2dc6ee"/>
   <use x="276.52884" y="166.34355" width="100%" height="100%" xlink:href="#ma97e2dc6ee"/>
   <use x="309.20749" y="227.75307" width="100%" height="100%" xlink:href="#ma97e2dc6ee"/>
   <use x="292.23508" y="151.69336" width="100%" height="100%" xlink:href="#ma97e2dc6ee"/>
   <use x="310.59363" y="218.15128" width="100%" height="100%" xlink:href="#ma97e2dc6ee"/>
   <use x="327.76718" y="203.89828" width="100%" height="100%" xlink:href="#ma97e2dc6ee"/>
   <use x="319.52206" y="218.32869" width="100%" height="100%" xlink:href="#ma97e2dc6ee"/>
   <use x="287.89087" y="275.09106" width="100%" height="100%" xlink:href="#ma97e2dc6ee"/>
   <use x="285.48734" y="220.80219" width="100%" height="100%" xlink:href="#ma97e2dc6ee"/>
   <use x="277.89645" y="248.70392" width="100%" height="100%" xlink:href="#ma97e2dc6ee"/>
   <use x="328.43094" y="214.47055" width="100%" height="100%" xlink:href="#ma97e2dc6ee"/>
   <use x="240.46086" y="284.52509" width="100%" height="100%" xlink:href="#ma97e2dc6ee"/>
   <use x="240.86136" y="140.96178" width="100%" height="100%" xlink:href="#ma97e2dc6ee"/>
   <use x="290.69366" y="176.76295" width="100%" height="100%" xlink:href="#ma97e2dc6ee"/>
   <use x="285.52811" y="201.06883" width="100%" height="100%" xlink:href="#ma97e2dc6ee"/>
   <use x="277.45175" y="206.33415" width="100%" height="100%" xlink:href="#ma97e2dc6ee"/>
   <use x="286.87079" y="167.48901" width="100%" height="100%" xlink:href="#ma97e2dc6ee"/>
   <use x="284.33194" y="191.67067" width="100%" height="100%" xlink:href="#ma97e2dc6ee"/>
   <use x="276.43933" y="142.81009" width="100%" height="100%" xlink:href="#ma97e2dc6ee"/>
   <use x="292.37582" y="235.49147" width="100%" height="100%" xlink:href="#ma97e2dc6ee"/>
   <use x="315.96216" y="253.2699" width="100%" height="100%" xlink:href="#ma97e2dc6ee"/>
   <use x="321.6716" y="184.77908" width="100%" height="100%" xlink:href="#ma97e2dc6ee"/>
   <use x="266.41534" y="168.215" width="100%" height="100%" xlink:href="#ma97e2dc6ee"/>
   <use x="301.59531" y="201.48666" width="100%" height="100%" xlink:href="#ma97e2dc6ee"/>
   <use x="250.57355" y="276.8866" width="100%" height="100%" xlink:href="#ma97e2dc6ee"/>
   <use x="300.30627" y="180.79892" width="100%" height="100%" xlink:href="#ma97e2dc6ee"/>
   <use x="284.44092" y="147.55724" width="100%" height="100%" xlink:href="#ma97e2dc6ee"/>
   <use x="309.7951" y="260.84521" width="100%" height="100%" xlink:href="#ma97e2dc6ee"/>
   <use x="307.29407" y="236.87379" width="100%" height="100%" xlink:href="#ma97e2dc6ee"/>
   <use x="269.0473" y="277.11972" width="100%" height="100%" xlink:href="#ma97e2dc6ee"/>
   <use x="264.41174" y="150.66768" width="100%" height="100%" xlink:href="#ma97e2dc6ee"/>
   <use x="318.48993" y="200.65692" width="100%" height="100%" xlink:href="#ma97e2dc6ee"/>
   <use x="299.69217" y="259.715" width="100%" height="100%" xlink:href="#ma97e2dc6ee"/>
   <use x="311.37598" y="208.45692" width="100%" height="100%" xlink:href="#ma97e2dc6ee"/>
   <use x="305.6254" y="252.04016" width="100%" height="100%" xlink:href="#ma97e2dc6ee"/>
  </g>
  <g clip-path="url(#pbf91c8aa30)" fill="#5c5c5c" stroke="#5c5c5c">
   <use x="198.71808" y="186.8123" width="100%" height="100%" xlink:href="#ma97e2dc6ee"/>
   <use x="255.46683" y="197.32664" width="100%" height="100%" xlink:href="#ma97e2dc6ee"/>
   <use x="193.70244" y="224.69354" width="100%" height="100%" xlink:href="#ma97e2dc6ee"/>
   <use x="204.94057" y="158.64793" width="100%" height="100%" xlink:href="#ma97e2dc6ee"/>
   <use x="213.18318" y="204.39005" width="100%" height="100%" xlink:href="#ma97e2dc6ee"/>
   <use x="187.36455" y="181.31805" width="100%" height="100%" xlink:href="#ma97e2dc6ee"/>
   <use x="203.03203" y="245.12292" width="100%" height="100%" xlink:href="#ma97e2dc6ee"/>
   <use x="206.12766" y="262.61023" width="100%" height="100%" xlink:href="#ma97e2dc6ee"/>
   <use x="212.20248" y="160.04153" width="100%" height="100%" xlink:href="#ma97e2dc6ee"/>
   <use x="209.68852" y="153.06464" width="100%" height="100%" xlink:href="#ma97e2dc6ee"/>
   <use x="226.14749" y="243.20172" width="100%" height="100%" xlink:href="#ma97e2dc6ee"/>
   <use x="219.22885" y="225.50282" width="100%" height="100%" xlink:href="#ma97e2dc6ee"/>
   <use x="243.63788" y="162.28192" width="100%" height="100%" xlink:href="#ma97e2dc6ee"/>
   <use x="216.71359" y="154.7702" width="100%" height="100%" xlink:href="#ma97e2dc6ee"/>
   <use x="219.22446" y="232.91805" width="100%" height="100%" xlink:href="#ma97e2dc6ee"/>
   <use x="205.85667" y="173.4272" width="100%" height="100%" xlink:href="#ma97e2dc6ee"/>
   <use x="190.7968" y="174.57092" width="100%" height="100%" xlink:href="#ma97e2dc6ee"/>
   <use x="212.16339" y="265.90466" width="100%" height="100%" xlink:href="#ma97e2dc6ee"/>
   <use x="219.45824" y="217.96379" width="100%" height="100%" xlink:href="#ma97e2dc6ee"/>
   <use x="255.52855" y="219.80534" width="100%" height="100%" xlink:href="#ma97e2dc6ee"/>
   <use x="251.44817" y="239.8588" width="100%" height="100%" xlink:href="#ma97e2dc6ee"/>
   <use x="233.8891" y="184.65065" width="100%" height="100%" xlink:href="#ma97e2dc6ee"/>
   <use x="225.57439" y="236.25169" width="100%" height="100%" xlink:href="#ma97e2dc6ee"/>
   <use x="250.73154" y="208.7529" width="100%" height="100%" xlink:href="#ma97e2dc6ee"/>
   <use x="186.47476" y="212.036" width="100%" height="100%" xlink:href="#ma97e2dc6ee"/>
   <use x="195.43623" y="193.89426" width="100%" height="100%" xlink:href="#ma97e2dc6ee"/>
   <use x="198.69846" y="250.92119" width="100%" height="100%" xlink:href="#ma97e2dc6ee"/>
   <use x="242.52444" y="193.59674" width="100%" height="100%" xlink:href="#ma97e2dc6ee"/>
   <use x="216.51399" y="190.90701" width="100%" height="100%" xlink:href="#ma97e2dc6ee"/>
   <use x="197.92792" y="206.04416" width="100%" height="100%" xlink:href="#ma97e2dc6ee"/>
   <use x="237.70663" y="212.81245" width="100%" height="100%" xlink:href="#ma97e2dc6ee"/>
   <use x="232.93623" y="225.40849" width="100%" height="100%" xlink:href="#ma97e2dc6ee"/>
   <use x="235.89848" y="261.00967" width="100%" height="100%" xlink:href="#ma97e2dc6ee"/>
   <use x="255.22726" y="181.83618" width="100%" height="100%" xlink:href="#ma97e2dc6ee"/>
   <use x="182.48213" y="231.01869" width="100%" height="100%" xlink:href="#ma97e2dc6ee"/>
   <use x="231.02332" y="169.78178" width="100%" height="100%" xlink:href="#ma97e2dc6ee"/>
   <use x="226.69667" y="158.82607" width="100%" height="100%" xlink:href="#ma97e2dc6ee"/>
   <use x="262.57916" y="216.83389" width="100%" height="100%" xlink:href="#ma97e2dc6ee"/>
   <use x="232.20213" y="153.66609" width="100%" height="100%" xlink:href="#ma97e2dc6ee"/>
   <use x="216.15016" y="166.17528" width="100%" height="100%" xlink:href="#ma97e2dc6ee"/>
   <use x="219.0961" y="265.9754" width="100%" height="100%" xlink:href="#ma97e2dc6ee"/>
   <use x="222.27534" y="194.1474" width="100%" height="100%" xlink:href="#ma97e2dc6ee"/>
   <use x="215.03932" y="197.53743" width="100%" height="100%" xlink:href="#ma97e2dc6ee"/>
   <use x="213.82388" y="184.73074" width="100%" height="100%" xlink:href="#ma97e2dc6ee"/>
   <use x="212.64926" y="236.63977" width="100%" height="100%" xlink:href="#ma97e2dc6ee"/>
   <use x="202.8671" y="192.58376" width="100%" height="100%" xlink:href="#ma97e2dc6ee"/>
   <use x="193.29805" y="201.14934" width="100%" height="100%" xlink:href="#ma97e2dc6ee"/>
   <use x="249.69279" y="202.0759" width="100%" height="100%" xlink:href="#ma97e2dc6ee"/>
   <use x="189.67975" y="231.21989" width="100%" height="100%" xlink:href="#ma97e2dc6ee"/>
   <use x="207.15486" y="250.63391" width="100%" height="100%" xlink:href="#ma97e2dc6ee"/>
   <use x="255.24464" y="245.38071" width="100%" height="100%" xlink:href="#ma97e2dc6ee"/>
   <use x="260.21762" y="231.33765" width="100%" height="100%" xlink:href="#ma97e2dc6ee"/>
   <use x="199.63576" y="238.33582" width="100%" height="100%" xlink:href="#ma97e2dc6ee"/>
   <use x="227.36269" y="250.39014" width="100%" height="100%" xlink:href="#ma97e2dc6ee"/>
   <use x="244.11798" y="209.01414" width="100%" height="100%" xlink:href="#ma97e2dc6ee"/>
   <use x="200.75624" y="224.85228" width="100%" height="100%" xlink:href="#ma97e2dc6ee"/>
   <use x="212.98044" y="221.99406" width="100%" height="100%" xlink:href="#ma97e2dc6ee"/>
   <use x="229.23988" y="257.76459" width="100%" height="100%" xlink:href="#ma97e2dc6ee"/>
   <use x="246.72612" y="244.5918" width="100%" height="100%" xlink:href="#ma97e2dc6ee"/>
   <use x="231.94133" y="232.09378" width="100%" height="100%" xlink:href="#ma97e2dc6ee"/>
   <use x="239.59952" y="240.7599" width="100%" height="100%" xlink:href="#ma97e2dc6ee"/>
   <use x="213.16676" y="215.24167" width="100%" height="100%" xlink:href="#ma97e2dc6ee"/>
   <use x="252.14906" y="251.44856" width="100%" height="100%" xlink:href="#ma97e2dc6ee"/>
   <use x="243.33325" y="217.20209" width="100%" height="100%" xlink:href="#ma97e2dc6ee"/>
   <use x="228.01198" y="189.35893" width="100%" height="100%" xlink:href="#ma97e2dc6ee"/>
   <use x="221.01418" y="201.43159" width="100%" height="100%" xlink:href="#ma97e2dc6ee"/>
   <use x="189.87527" y="218.01909" width="100%" height="100%" xlink:href="#ma97e2dc6ee"/>
   <use x="256.63477" y="212.64857" width="100%" height="100%" xlink:href="#ma97e2dc6ee"/>
   <use x="225.71831" y="228.81773" width="100%" height="100%" xlink:href="#ma97e2dc6ee"/>
   <use x="205.20044" y="205.05269" width="100%" height="100%" xlink:href="#ma97e2dc6ee"/>
   <use x="233.14104" y="245.72508" width="100%" height="100%" xlink:href="#ma97e2dc6ee"/>
   <use x="228.51466" y="196.92874" width="100%" height="100%" xlink:href="#ma97e2dc6ee"/>
   <use x="234.43251" y="253.09412" width="100%" height="100%" xlink:href="#ma97e2dc6ee"/>
   <use x="232.77826" y="238.72954" width="100%" height="100%" xlink:href="#ma97e2dc6ee"/>
   <use x="197.25389" y="231.52469" width="100%" height="100%" xlink:href="#ma97e2dc6ee"/>
   <use x="244.96568" y="175.16405" width="100%" height="100%" xlink:href="#ma97e2dc6ee"/>
   <use x="219.9368" y="171.75706" width="100%" height="100%" xlink:href="#ma97e2dc6ee"/>
   <use x="224.23361" y="262.24039" width="100%" height="100%" xlink:href="#ma97e2dc6ee"/>
   <use x="184.55209" y="188.28235" width="100%" height="100%" xlink:href="#ma97e2dc6ee"/>
   <use x="231.11232" y="217.29478" width="100%" height="100%" xlink:href="#ma97e2dc6ee"/>
   <use x="239.78073" y="248.0378" width="100%" height="100%" xlink:href="#ma97e2dc6ee"/>
   <use x="227.38474" y="277.24454" width="100%" height="100%" xlink:href="#ma97e2dc6ee"/>
   <use x="258.44183" y="238.45377" width="100%" height="100%" xlink:href="#ma97e2dc6ee"/>
   <use x="218.88522" y="240.45576" width="100%" height="100%" xlink:href="#ma97e2dc6ee"/>
   <use x="243.1418" y="263.37729" width="100%" height="100%" xlink:href="#ma97e2dc6ee"/>
   <use x="202.1308" y="167.62935" width="100%" height="100%" xlink:href="#ma97e2dc6ee"/>
   <use x="207.15756" y="225.43712" width="100%" height="100%" xlink:href="#ma97e2dc6ee"/>
   <use x="242.48744" y="168.96294" width="100%" height="100%" xlink:href="#ma97e2dc6ee"/>
   <use x="248.10159" y="222.62935" width="100%" height="100%" xlink:href="#ma97e2dc6ee"/>
   <use x="224.74077" y="166.34224" width="100%" height="100%" xlink:href="#ma97e2dc6ee"/>
   <use x="236.33847" y="198.31364" width="100%" height="100%" xlink:href="#ma97e2dc6ee"/>
   <use x="213.05478" y="172.78928" width="100%" height="100%" xlink:href="#ma97e2dc6ee"/>
   <use x="227.62573" y="148.59096" width="100%" height="100%" xlink:href="#ma97e2dc6ee"/>
   <use x="221.93539" y="254.91357" width="100%" height="100%" xlink:href="#ma97e2dc6ee"/>
   <use x="193.54895" y="211.13373" width="100%" height="100%" xlink:href="#ma97e2dc6ee"/>
   <use x="197.58022" y="218.00816" width="100%" height="100%" xlink:href="#ma97e2dc6ee"/>
   <use x="215.41238" y="148.49405" width="100%" height="100%" xlink:href="#ma97e2dc6ee"/>
   <use x="200.48021" y="199.28795" width="100%" height="100%" xlink:href="#ma97e2dc6ee"/>
   <use x="187.61746" y="244.73123" width="100%" height="100%" xlink:href="#ma97e2dc6ee"/>
   <use x="209.90892" y="191.66827" width="100%" height="100%" xlink:href="#ma97e2dc6ee"/>
   <use x="187.88879" y="205.0679" width="100%" height="100%" xlink:href="#ma97e2dc6ee"/>
   <use x="235.05383" y="191.61714" width="100%" height="100%" xlink:href="#ma97e2dc6ee"/>
   <use x="217.79988" y="272.14566" width="100%" height="100%" xlink:href="#ma97e2dc6ee"/>
   <use x="249.54045" y="188.04982" width="100%" height="100%" xlink:href="#ma97e2dc6ee"/>
   <use x="207.86456" y="198.55464" width="100%" height="100%" xlink:href="#ma97e2dc6ee"/>
   <use x="243.25752" y="200.93314" width="100%" height="100%" xlink:href="#ma97e2dc6ee"/>
   <use x="199.26379" y="263.52826" width="100%" height="100%" xlink:href="#ma97e2dc6ee"/>
   <use x="204.68845" y="269.06784" width="100%" height="100%" xlink:href="#ma97e2dc6ee"/>
   <use x="220.05194" y="160.71033" width="100%" height="100%" xlink:href="#ma97e2dc6ee"/>
   <use x="214.6694" y="251.97581" width="100%" height="100%" xlink:href="#ma97e2dc6ee"/>
   <use x="206.27872" y="185.70465" width="100%" height="100%" xlink:href="#ma97e2dc6ee"/>
   <use x="215.34117" y="278.13522" width="100%" height="100%" xlink:href="#ma97e2dc6ee"/>
   <use x="181.22401" y="217.03384" width="100%" height="100%" xlink:href="#ma97e2dc6ee"/>
   <use x="194.67212" y="180.92934" width="100%" height="100%" xlink:href="#ma97e2dc6ee"/>
   <use x="245.29863" y="236.66489" width="100%" height="100%" xlink:href="#ma97e2dc6ee"/>
   <use x="218.04628" y="209.62793" width="100%" height="100%" xlink:href="#ma97e2dc6ee"/>
   <use x="261.62143" y="224.17325" width="100%" height="100%" xlink:href="#ma97e2dc6ee"/>
   <use x="257.08273" y="188.86784" width="100%" height="100%" xlink:href="#ma97e2dc6ee"/>
   <use x="246.6001" y="229.71123" width="100%" height="100%" xlink:href="#ma97e2dc6ee"/>
   <use x="202.53226" y="256.59692" width="100%" height="100%" xlink:href="#ma97e2dc6ee"/>
   <use x="239.69281" y="180.08374" width="100%" height="100%" xlink:href="#ma97e2dc6ee"/>
   <use x="212.17067" y="244.72713" width="100%" height="100%" xlink:href="#ma97e2dc6ee"/>
   <use x="245.64195" y="251.33069" width="100%" height="100%" xlink:href="#ma97e2dc6ee"/>
   <use x="252.83141" y="233.35999" width="100%" height="100%" xlink:href="#ma97e2dc6ee"/>
   <use x="210.42949" y="273.10742" width="100%" height="100%" xlink:href="#ma97e2dc6ee"/>
   <use x="261.16217" y="194.43417" width="100%" height="100%" xlink:href="#ma97e2dc6ee"/>
   <use x="194.95834" y="257.57364" width="100%" height="100%" xlink:href="#ma97e2dc6ee"/>
   <use x="232.32277" y="177.59294" width="100%" height="100%" xlink:href="#ma97e2dc6ee"/>
   <use x="225.86528" y="221.69505" width="100%" height="100%" xlink:href="#ma97e2dc6ee"/>
   <use x="202.3297" y="180.02734" width="100%" height="100%" xlink:href="#ma97e2dc6ee"/>
   <use x="218.62422" y="178.90868" width="100%" height="100%" xlink:href="#ma97e2dc6ee"/>
   <use x="195.20543" y="244.64804" width="100%" height="100%" xlink:href="#ma97e2dc6ee"/>
   <use x="237.6064" y="205.60478" width="100%" height="100%" xlink:href="#ma97e2dc6ee"/>
   <use x="188.23895" y="196.144" width="100%" height="100%" xlink:href="#ma97e2dc6ee"/>
   <use x="191.33502" y="188.11809" width="100%" height="100%" xlink:href="#ma97e2dc6ee"/>
   <use x="205.74593" y="218.17986" width="100%" height="100%" xlink:href="#ma97e2dc6ee"/>
   <use x="226.4888" y="181.83817" width="100%" height="100%" xlink:href="#ma97e2dc6ee"/>
   <use x="208.67552" y="166.09993" width="100%" height="100%" xlink:href="#ma97e2dc6ee"/>
   <use x="249.43379" y="194.72639" width="100%" height="100%" xlink:href="#ma97e2dc6ee"/>
   <use x="205.03522" y="232.36472" width="100%" height="100%" xlink:href="#ma97e2dc6ee"/>
   <use x="247.50742" y="181.53586" width="100%" height="100%" xlink:href="#ma97e2dc6ee"/>
   <use x="238.88927" y="232.69859" width="100%" height="100%" xlink:href="#ma97e2dc6ee"/>
   <use x="224.72583" y="213.6725" width="100%" height="100%" xlink:href="#ma97e2dc6ee"/>
   <use x="221.39066" y="146.68936" width="100%" height="100%" xlink:href="#ma97e2dc6ee"/>
   <use x="192.20284" y="237.99989" width="100%" height="100%" xlink:href="#ma97e2dc6ee"/>
   <use x="184.78671" y="237.93102" width="100%" height="100%" xlink:href="#ma97e2dc6ee"/>
   <use x="262.75336" y="209.18826" width="100%" height="100%" xlink:href="#ma97e2dc6ee"/>
   <use x="210.18626" y="179.15147" width="100%" height="100%" xlink:href="#ma97e2dc6ee"/>
   <use x="199.10286" y="162.08757" width="100%" height="100%" xlink:href="#ma97e2dc6ee"/>
   <use x="230.74974" y="203.02719" width="100%" height="100%" xlink:href="#ma97e2dc6ee"/>
   <use x="262.1228" y="201.64496" width="100%" height="100%" xlink:href="#ma97e2dc6ee"/>
   <use x="220.03056" y="247.50401" width="100%" height="100%" xlink:href="#ma97e2dc6ee"/>
   <use x="181.83176" y="194.77718" width="100%" height="100%" xlink:href="#ma97e2dc6ee"/>
   <use x="249.7157" y="215.38889" width="100%" height="100%" xlink:href="#ma97e2dc6ee"/>
   <use x="248.78841" y="168.48122" width="100%" height="100%" xlink:href="#ma97e2dc6ee"/>
   <use x="231.26485" y="210.07224" width="100%" height="100%" xlink:href="#ma97e2dc6ee"/>
   <use x="225.68213" y="174.73837" width="100%" height="100%" xlink:href="#ma97e2dc6ee"/>
   <use x="198.30977" y="174.24538" width="100%" height="100%" xlink:href="#ma97e2dc6ee"/>
   <use x="237.17992" y="219.92464" width="100%" height="100%" xlink:href="#ma97e2dc6ee"/>
   <use x="221.55937" y="278.76596" width="100%" height="100%" xlink:href="#ma97e2dc6ee"/>
   <use x="237.97311" y="157.69444" width="100%" height="100%" xlink:href="#ma97e2dc6ee"/>
   <use x="254.2269" y="226.68321" width="100%" height="100%" xlink:href="#ma97e2dc6ee"/>
   <use x="241.64449" y="186.82043" width="100%" height="100%" xlink:href="#ma97e2dc6ee"/>
   <use x="230.62645" y="265.73328" width="100%" height="100%" xlink:href="#ma97e2dc6ee"/>
   <use x="237.96907" y="268.39667" width="100%" height="100%" xlink:href="#ma97e2dc6ee"/>
   <use x="191.01443" y="251.31844" width="100%" height="100%" xlink:href="#ma97e2dc6ee"/>
   <use x="237.44383" y="173.16721" width="100%" height="100%" xlink:href="#ma97e2dc6ee"/>
   <use x="240.85301" y="225.53127" width="100%" height="100%" xlink:href="#ma97e2dc6ee"/>
   <use x="256.43909" y="204.99812" width="100%" height="100%" xlink:href="#ma97e2dc6ee"/>
   <use x="224.9782" y="270.51395" width="100%" height="100%" xlink:href="#ma97e2dc6ee"/>
   <use x="231.72928" y="162.0723" width="100%" height="100%" xlink:href="#ma97e2dc6ee"/>
   <use x="206.75801" y="239.54738" width="100%" height="100%" xlink:href="#ma97e2dc6ee"/>
   <use x="194.71898" y="168.16412" width="100%" height="100%" xlink:href="#ma97e2dc6ee"/>
   <use x="240.86465" y="256.12469" width="100%" height="100%" xlink:href="#ma97e2dc6ee"/>
   <use x="232.54301" y="272.9093" width="100%" height="100%" xlink:href="#ma97e2dc6ee"/>
   <use x="221.27274" y="186.11761" width="100%" height="100%" xlink:href="#ma97e2dc6ee"/>
   <use x="201.67412" y="212.05386" width="100%" height="100%" xlink:href="#ma97e2dc6ee"/>
   <use x="237.06056" y="165.44604" width="100%" height="100%" xlink:href="#ma97e2dc6ee"/>
   <use x="252.20551" y="175.12683" width="100%" height="100%" xlink:href="#ma97e2dc6ee"/>
   <use x="224.85918" y="206.51419" width="100%" height="100%" xlink:href="#ma97e2dc6ee"/>
   <use x="180.26556" y="209.15349" width="100%" height="100%" xlink:href="#ma97e2dc6ee"/>
   <use x="210.11418" y="257.45453" width="100%" height="100%" xlink:href="#ma97e2dc6ee"/>
   <use x="186.59662" y="224.14679" width="100%" height="100%" xlink:href="#ma97e2dc6ee"/>
   <use x="181.57451" y="201.81157" width="100%" height="100%" xlink:href="#ma97e2dc6ee"/>
   <use x="180.22238" y="224.04318" width="100%" height="100%" xlink:href="#ma97e2dc6ee"/>
   <use x="216.66309" y="259.52115" width="100%" height="100%" xlink:href="#ma97e2dc6ee"/>
   <use x="223.2691" y="153.49518" width="100%" height="100%" xlink:href="#ma97e2dc6ee"/>
   <use x="212.65181" y="229.63446" width="100%" height="100%" xlink:href="#ma97e2dc6ee"/>
   <use x="248.10191" y="257.98386" width="100%" height="100%" xlink:href="#ma97e2dc6ee"/>
   <use x="209.07605" y="210.60918" width="100%" height="100%" xlink:href="#ma97e2dc6ee"/>
  </g>
  <path d="m268.96 213.08-0.39264 7.9923-1.1741 7.9153-1.9443 7.7622-2.6958 7.5342-3.4213 7.2337-4.1138 6.8635-4.7668 6.4272-5.3738 5.9291-5.9291 5.3738-6.4272 4.7668-6.8635 4.1138-7.2337 3.4213-7.5342 2.6958-7.7622 1.9443-7.9153 1.1741-7.9923 0.39264-7.9923-0.39264-7.9154-1.1741-7.7621-1.9443-7.5342-2.6958-7.2337-3.4213-6.8635-4.1138-6.4272-4.7668-5.9291-5.3738-5.3738-5.9291-4.7668-6.4272-4.1138-6.8635-3.4213-7.2337-2.6958-7.5342-1.9443-7.7622-1.1741-7.9153-0.39264-7.9923 0.39264-7.9923 1.1741-7.9154 1.9443-7.7621 2.6958-7.5342 3.4213-7.2337 4.1138-6.8635 4.7668-6.4272 5.3738-5.9291 5.9291-5.3738 6.4272-4.7668 6.8635-4.1138 7.2337-3.4213 7.5342-2.6958 7.7621-1.9443 7.9154-1.1741 7.9923-0.39264 7.9923 0.39264 7.9153 1.1741 7.7622 1.9443 7.5342 2.6958 7.2337 3.4213 6.8635 4.1138 6.4272 4.7668 5.9291 5.3738 5.3738 5.9291 4.7668 6.4272 4.1138 6.8635 3.4213 7.2337 2.6958 7.5342 1.9443 7.7621 1.1741 7.9154 0.39264 7.9923" clip-path="url(#pbf91c8aa30)" fill="none" stroke="#000" stroke-linecap="square" stroke-width="1.5"/>
  <path d="m336.92 213.08-0.39264 7.9923-1.1741 7.9153-1.9443 7.7622-2.6958 7.5342-3.4213 7.2337-4.1138 6.8635-4.7668 6.4272-5.3738 5.9291-5.9291 5.3738-6.4272 4.7668-6.8635 4.1138-7.2337 3.4213-7.5342 2.6958-7.7622 1.9443-7.9153 1.1741-7.9923 0.39264-7.9923-0.39264-7.9154-1.1741-7.7621-1.9443-7.5342-2.6958-7.2337-3.4213-6.8635-4.1138-6.4272-4.7668-5.9291-5.3738-5.3738-5.9291-4.7668-6.4272-4.1138-6.8635-3.4213-7.2337-2.6958-7.5342-1.9443-7.7622-1.1741-7.9153-0.39264-7.9923 0.39264-7.9923 1.1741-7.9154 1.9443-7.7621 2.6958-7.5342 3.4213-7.2337 4.1138-6.8635 4.7668-6.4272 5.3738-5.9291 5.9291-5.3738 6.4272-4.7668 6.8635-4.1138 7.2337-3.4213 7.5342-2.6958 7.7621-1.9443 7.9154-1.1741 7.9923-0.39264 7.9923 0.39264 7.9153 1.1741 7.7622 1.9443 7.5342 2.6958 7.2337 3.4213 6.8635 4.1138 6.4272 4.7668 5.9291 5.3738 5.3738 5.9291 4.7668 6.4272 4.1138 6.8635 3.4213 7.2337 2.6958 7.5342 1.9443 7.7621 1.1741 7.9154 0.39264 7.9923" clip-path="url(#pbf91c8aa30)" fill="none" stroke="#000032" stroke-linecap="square" stroke-width="1.4995"/>
  <!-- Besu -->
  <!-- Teku -->
 </g>
 <defs>
  <clipPath id="pbf91c8aa30">
   <rect x="54" y="43.2" width="334.8" height="271.8"/>
  </clipPath>
 </defs>
</svg>
